<?xml version="1.0" encoding="UTF-8"?>
<svg xmlns="http://www.w3.org/2000/svg" xmlns:xlink="http://www.w3.org/1999/xlink" width="792pt" height="612pt" viewBox="0 0 792 612" version="1.2">
<g id="surface1">
<path style=" stroke:none;fill-rule:nonzero;fill:rgb(100%,100%,100%);fill-opacity:1;" d="M 153 520.199219 L 765 520.199219 L 765 91.800781 L 153 91.800781 Z M 153 520.199219 "/>
<path style=" stroke:none;fill-rule:nonzero;fill:rgb(100%,26.9612376395144%,26.9612376395144%);fill-opacity:0.7;" d="M 153 447.371094 L 177.726562 439.171875 L 227.113281 419.832031 L 276.503906 398.351562 L 325.949219 373.441406 L 375.339844 346.085938 L 424.789062 315.300781 L 474.179688 282.804688 L 523.566406 248.65625 L 573.015625 215.730469 L 622.402344 184.519531 L 671.855469 157.101562 L 721.242188 137.578125 L 765 129.316406 L 765 111.996094 L 721.242188 120.929688 L 671.855469 138.863281 L 622.402344 165.421875 L 573.015625 197.125 L 523.566406 231.640625 L 474.179688 265.730469 L 424.789062 297.433594 L 375.339844 324.542969 L 325.949219 347.066406 L 276.503906 366.894531 L 227.113281 385.191406 L 177.726562 403.003906 L 153 410.957031 "/>
<path style=" stroke:none;fill-rule:nonzero;fill:rgb(26.9612376395144%,26.9612376395144%,100%);fill-opacity:0.7;" d="M 153 503.1875 L 177.726562 500.492188 L 227.113281 492.964844 L 276.503906 482.867188 L 325.949219 470.015625 L 375.339844 453.1875 L 424.789062 431.582031 L 474.179688 402.941406 L 523.566406 368.484375 L 573.015625 327.910156 L 622.402344 283.171875 L 671.855469 234.152344 L 721.242188 187.273438 L 765 152.570312 L 765 129.011719 L 721.242188 156.488281 L 671.855469 200.0625 L 622.402344 250.492188 L 573.015625 302.023438 L 523.566406 348.964844 L 474.179688 387.335938 L 424.789062 416.039062 L 375.339844 437.027344 L 325.949219 452.941406 L 276.503906 465.488281 L 227.113281 475.707031 L 177.726562 484.460938 L 153 488.070312 "/>
<path style="fill:none;stroke-width:36.72;stroke-linecap:butt;stroke-linejoin:miter;stroke:rgb(100%,0%,0%);stroke-opacity:1;stroke-miterlimit:10;" d="M 1529.375 1815.195312 L 1777.265625 1895.976562 L 2271.132812 2078.359375 L 2765.039062 2276.015625 L 3259.492188 2503.671875 L 3753.398438 2757.65625 L 4247.890625 3052.65625 L 4741.796875 3373.945312 L 5235.664062 3714.84375 L 5730.15625 4053.90625 L 6224.023438 4369.6875 L 6718.554688 4648.125 L 7212.421875 4840.9375 L 7650.625 4926.601562 " transform="matrix(0.1,0,0,-0.1,0,612)"/>
<path style="fill:none;stroke-width:36.72;stroke-linecap:butt;stroke-linejoin:miter;stroke:rgb(0%,0%,100%);stroke-opacity:1;stroke-miterlimit:10;" d="M 1529.375 1151.171875 L 1777.265625 1183.007812 L 2271.132812 1266.835938 L 2765.039062 1372.109375 L 3259.492188 1504.296875 L 3753.398438 1671.367188 L 4247.890625 1889.84375 L 4741.796875 2178.710938 L 5235.664062 2542.265625 L 5730.15625 2974.921875 L 6224.023438 3459.648438 L 6718.554688 3962.695312 L 7212.421875 4422.304688 L 7650.625 4727.695312 " transform="matrix(0.1,0,0,-0.1,0,612)"/>
<path style="fill:none;stroke-width:9.18;stroke-linecap:butt;stroke-linejoin:miter;stroke:rgb(0%,0%,0%);stroke-opacity:1;stroke-miterlimit:10;" d="M 1530 918.007812 L 7650 918.007812 " transform="matrix(0.1,0,0,-0.1,0,612)"/>
<path style="fill:none;stroke-width:9.18;stroke-linecap:butt;stroke-linejoin:miter;stroke:rgb(0%,0%,0%);stroke-opacity:1;stroke-miterlimit:10;" d="M 1530 5201.992188 L 7650 5201.992188 " transform="matrix(0.1,0,0,-0.1,0,612)"/>
<path style="fill:none;stroke-width:9.18;stroke-linecap:butt;stroke-linejoin:miter;stroke:rgb(0%,0%,0%);stroke-opacity:1;stroke-miterlimit:10;" d="M 2273.59375 918.007812 L 2273.59375 979.179688 " transform="matrix(0.1,0,0,-0.1,0,612)"/>
<path style="fill:none;stroke-width:9.18;stroke-linecap:butt;stroke-linejoin:miter;stroke:rgb(0%,0%,0%);stroke-opacity:1;stroke-miterlimit:10;" d="M 2273.59375 5201.992188 L 2273.59375 5140.78125 " transform="matrix(0.1,0,0,-0.1,0,612)"/>
<path style="fill:none;stroke-width:9.18;stroke-linecap:butt;stroke-linejoin:miter;stroke:rgb(0%,0%,0%);stroke-opacity:1;stroke-miterlimit:10;" d="M 2708.710938 918.007812 L 2708.710938 979.179688 " transform="matrix(0.1,0,0,-0.1,0,612)"/>
<path style="fill:none;stroke-width:9.18;stroke-linecap:butt;stroke-linejoin:miter;stroke:rgb(0%,0%,0%);stroke-opacity:1;stroke-miterlimit:10;" d="M 2708.710938 5201.992188 L 2708.710938 5140.78125 " transform="matrix(0.1,0,0,-0.1,0,612)"/>
<path style="fill:none;stroke-width:9.18;stroke-linecap:butt;stroke-linejoin:miter;stroke:rgb(0%,0%,0%);stroke-opacity:1;stroke-miterlimit:10;" d="M 3017.148438 918.007812 L 3017.148438 979.179688 " transform="matrix(0.1,0,0,-0.1,0,612)"/>
<path style="fill:none;stroke-width:9.18;stroke-linecap:butt;stroke-linejoin:miter;stroke:rgb(0%,0%,0%);stroke-opacity:1;stroke-miterlimit:10;" d="M 3017.148438 5201.992188 L 3017.148438 5140.78125 " transform="matrix(0.1,0,0,-0.1,0,612)"/>
<path style="fill:none;stroke-width:9.18;stroke-linecap:butt;stroke-linejoin:miter;stroke:rgb(0%,0%,0%);stroke-opacity:1;stroke-miterlimit:10;" d="M 3257.070312 918.007812 L 3257.070312 979.179688 " transform="matrix(0.1,0,0,-0.1,0,612)"/>
<path style="fill:none;stroke-width:9.18;stroke-linecap:butt;stroke-linejoin:miter;stroke:rgb(0%,0%,0%);stroke-opacity:1;stroke-miterlimit:10;" d="M 3257.070312 5201.992188 L 3257.070312 5140.78125 " transform="matrix(0.1,0,0,-0.1,0,612)"/>
<path style="fill:none;stroke-width:9.18;stroke-linecap:butt;stroke-linejoin:miter;stroke:rgb(0%,0%,0%);stroke-opacity:1;stroke-miterlimit:10;" d="M 3452.304688 918.007812 L 3452.304688 979.179688 " transform="matrix(0.1,0,0,-0.1,0,612)"/>
<path style="fill:none;stroke-width:9.18;stroke-linecap:butt;stroke-linejoin:miter;stroke:rgb(0%,0%,0%);stroke-opacity:1;stroke-miterlimit:10;" d="M 3452.304688 5201.992188 L 3452.304688 5140.78125 " transform="matrix(0.1,0,0,-0.1,0,612)"/>
<path style="fill:none;stroke-width:9.18;stroke-linecap:butt;stroke-linejoin:miter;stroke:rgb(0%,0%,0%);stroke-opacity:1;stroke-miterlimit:10;" d="M 3618.125 918.007812 L 3618.125 979.179688 " transform="matrix(0.1,0,0,-0.1,0,612)"/>
<path style="fill:none;stroke-width:9.18;stroke-linecap:butt;stroke-linejoin:miter;stroke:rgb(0%,0%,0%);stroke-opacity:1;stroke-miterlimit:10;" d="M 3618.125 5201.992188 L 3618.125 5140.78125 " transform="matrix(0.1,0,0,-0.1,0,612)"/>
<path style="fill:none;stroke-width:9.18;stroke-linecap:butt;stroke-linejoin:miter;stroke:rgb(0%,0%,0%);stroke-opacity:1;stroke-miterlimit:10;" d="M 3761.367188 918.007812 L 3761.367188 979.179688 " transform="matrix(0.1,0,0,-0.1,0,612)"/>
<path style="fill:none;stroke-width:9.18;stroke-linecap:butt;stroke-linejoin:miter;stroke:rgb(0%,0%,0%);stroke-opacity:1;stroke-miterlimit:10;" d="M 3761.367188 5201.992188 L 3761.367188 5140.78125 " transform="matrix(0.1,0,0,-0.1,0,612)"/>
<path style="fill:none;stroke-width:9.18;stroke-linecap:butt;stroke-linejoin:miter;stroke:rgb(0%,0%,0%);stroke-opacity:1;stroke-miterlimit:10;" d="M 3887.421875 918.007812 L 3887.421875 979.179688 " transform="matrix(0.1,0,0,-0.1,0,612)"/>
<path style="fill:none;stroke-width:9.18;stroke-linecap:butt;stroke-linejoin:miter;stroke:rgb(0%,0%,0%);stroke-opacity:1;stroke-miterlimit:10;" d="M 3887.421875 5201.992188 L 3887.421875 5140.78125 " transform="matrix(0.1,0,0,-0.1,0,612)"/>
<path style="fill:none;stroke-width:9.18;stroke-linecap:butt;stroke-linejoin:miter;stroke:rgb(0%,0%,0%);stroke-opacity:1;stroke-miterlimit:10;" d="M 4000.625 918.007812 L 4000.625 979.179688 " transform="matrix(0.1,0,0,-0.1,0,612)"/>
<path style="fill:none;stroke-width:9.18;stroke-linecap:butt;stroke-linejoin:miter;stroke:rgb(0%,0%,0%);stroke-opacity:1;stroke-miterlimit:10;" d="M 4000.625 5201.992188 L 4000.625 5140.78125 " transform="matrix(0.1,0,0,-0.1,0,612)"/>
<path style="fill:none;stroke-width:9.18;stroke-linecap:butt;stroke-linejoin:miter;stroke:rgb(0%,0%,0%);stroke-opacity:1;stroke-miterlimit:10;" d="M 4744.21875 918.007812 L 4744.21875 979.179688 " transform="matrix(0.1,0,0,-0.1,0,612)"/>
<path style="fill:none;stroke-width:9.18;stroke-linecap:butt;stroke-linejoin:miter;stroke:rgb(0%,0%,0%);stroke-opacity:1;stroke-miterlimit:10;" d="M 4744.21875 5201.992188 L 4744.21875 5140.78125 " transform="matrix(0.1,0,0,-0.1,0,612)"/>
<path style="fill:none;stroke-width:9.18;stroke-linecap:butt;stroke-linejoin:miter;stroke:rgb(0%,0%,0%);stroke-opacity:1;stroke-miterlimit:10;" d="M 5179.375 918.007812 L 5179.375 979.179688 " transform="matrix(0.1,0,0,-0.1,0,612)"/>
<path style="fill:none;stroke-width:9.18;stroke-linecap:butt;stroke-linejoin:miter;stroke:rgb(0%,0%,0%);stroke-opacity:1;stroke-miterlimit:10;" d="M 5179.375 5201.992188 L 5179.375 5140.78125 " transform="matrix(0.1,0,0,-0.1,0,612)"/>
<path style="fill:none;stroke-width:9.18;stroke-linecap:butt;stroke-linejoin:miter;stroke:rgb(0%,0%,0%);stroke-opacity:1;stroke-miterlimit:10;" d="M 5487.8125 918.007812 L 5487.8125 979.179688 " transform="matrix(0.1,0,0,-0.1,0,612)"/>
<path style="fill:none;stroke-width:9.18;stroke-linecap:butt;stroke-linejoin:miter;stroke:rgb(0%,0%,0%);stroke-opacity:1;stroke-miterlimit:10;" d="M 5487.8125 5201.992188 L 5487.8125 5140.78125 " transform="matrix(0.1,0,0,-0.1,0,612)"/>
<path style="fill:none;stroke-width:9.18;stroke-linecap:butt;stroke-linejoin:miter;stroke:rgb(0%,0%,0%);stroke-opacity:1;stroke-miterlimit:10;" d="M 5727.695312 918.007812 L 5727.695312 979.179688 " transform="matrix(0.1,0,0,-0.1,0,612)"/>
<path style="fill:none;stroke-width:9.18;stroke-linecap:butt;stroke-linejoin:miter;stroke:rgb(0%,0%,0%);stroke-opacity:1;stroke-miterlimit:10;" d="M 5727.695312 5201.992188 L 5727.695312 5140.78125 " transform="matrix(0.1,0,0,-0.1,0,612)"/>
<path style="fill:none;stroke-width:9.18;stroke-linecap:butt;stroke-linejoin:miter;stroke:rgb(0%,0%,0%);stroke-opacity:1;stroke-miterlimit:10;" d="M 5922.929688 918.007812 L 5922.929688 979.179688 " transform="matrix(0.1,0,0,-0.1,0,612)"/>
<path style="fill:none;stroke-width:9.18;stroke-linecap:butt;stroke-linejoin:miter;stroke:rgb(0%,0%,0%);stroke-opacity:1;stroke-miterlimit:10;" d="M 5922.929688 5201.992188 L 5922.929688 5140.78125 " transform="matrix(0.1,0,0,-0.1,0,612)"/>
<path style="fill:none;stroke-width:9.18;stroke-linecap:butt;stroke-linejoin:miter;stroke:rgb(0%,0%,0%);stroke-opacity:1;stroke-miterlimit:10;" d="M 6088.789062 918.007812 L 6088.789062 979.179688 " transform="matrix(0.1,0,0,-0.1,0,612)"/>
<path style="fill:none;stroke-width:9.18;stroke-linecap:butt;stroke-linejoin:miter;stroke:rgb(0%,0%,0%);stroke-opacity:1;stroke-miterlimit:10;" d="M 6088.789062 5201.992188 L 6088.789062 5140.78125 " transform="matrix(0.1,0,0,-0.1,0,612)"/>
<path style="fill:none;stroke-width:9.18;stroke-linecap:butt;stroke-linejoin:miter;stroke:rgb(0%,0%,0%);stroke-opacity:1;stroke-miterlimit:10;" d="M 6231.992188 918.007812 L 6231.992188 979.179688 " transform="matrix(0.1,0,0,-0.1,0,612)"/>
<path style="fill:none;stroke-width:9.18;stroke-linecap:butt;stroke-linejoin:miter;stroke:rgb(0%,0%,0%);stroke-opacity:1;stroke-miterlimit:10;" d="M 6231.992188 5201.992188 L 6231.992188 5140.78125 " transform="matrix(0.1,0,0,-0.1,0,612)"/>
<path style="fill:none;stroke-width:9.18;stroke-linecap:butt;stroke-linejoin:miter;stroke:rgb(0%,0%,0%);stroke-opacity:1;stroke-miterlimit:10;" d="M 6358.085938 918.007812 L 6358.085938 979.179688 " transform="matrix(0.1,0,0,-0.1,0,612)"/>
<path style="fill:none;stroke-width:9.18;stroke-linecap:butt;stroke-linejoin:miter;stroke:rgb(0%,0%,0%);stroke-opacity:1;stroke-miterlimit:10;" d="M 6358.085938 5201.992188 L 6358.085938 5140.78125 " transform="matrix(0.1,0,0,-0.1,0,612)"/>
<path style="fill:none;stroke-width:9.18;stroke-linecap:butt;stroke-linejoin:miter;stroke:rgb(0%,0%,0%);stroke-opacity:1;stroke-miterlimit:10;" d="M 6471.289062 918.007812 L 6471.289062 979.179688 " transform="matrix(0.1,0,0,-0.1,0,612)"/>
<path style="fill:none;stroke-width:9.18;stroke-linecap:butt;stroke-linejoin:miter;stroke:rgb(0%,0%,0%);stroke-opacity:1;stroke-miterlimit:10;" d="M 6471.289062 5201.992188 L 6471.289062 5140.78125 " transform="matrix(0.1,0,0,-0.1,0,612)"/>
<path style="fill:none;stroke-width:9.18;stroke-linecap:butt;stroke-linejoin:miter;stroke:rgb(0%,0%,0%);stroke-opacity:1;stroke-miterlimit:10;" d="M 7214.882812 918.007812 L 7214.882812 979.179688 " transform="matrix(0.1,0,0,-0.1,0,612)"/>
<path style="fill:none;stroke-width:9.18;stroke-linecap:butt;stroke-linejoin:miter;stroke:rgb(0%,0%,0%);stroke-opacity:1;stroke-miterlimit:10;" d="M 7214.882812 5201.992188 L 7214.882812 5140.78125 " transform="matrix(0.1,0,0,-0.1,0,612)"/>
<path style="fill:none;stroke-width:9.18;stroke-linecap:butt;stroke-linejoin:miter;stroke:rgb(0%,0%,0%);stroke-opacity:1;stroke-miterlimit:10;" d="M 7650 918.007812 L 7650 979.179688 " transform="matrix(0.1,0,0,-0.1,0,612)"/>
<path style="fill:none;stroke-width:9.18;stroke-linecap:butt;stroke-linejoin:miter;stroke:rgb(0%,0%,0%);stroke-opacity:1;stroke-miterlimit:10;" d="M 7650 5201.992188 L 7650 5140.78125 " transform="matrix(0.1,0,0,-0.1,0,612)"/>
<path style="fill:none;stroke-width:9.18;stroke-linecap:butt;stroke-linejoin:miter;stroke:rgb(0%,0%,0%);stroke-opacity:1;stroke-miterlimit:10;" d="M 1530 918.007812 L 1530 1040.390625 " transform="matrix(0.1,0,0,-0.1,0,612)"/>
<path style="fill:none;stroke-width:9.18;stroke-linecap:butt;stroke-linejoin:miter;stroke:rgb(0%,0%,0%);stroke-opacity:1;stroke-miterlimit:10;" d="M 1530 5201.992188 L 1530 5079.609375 " transform="matrix(0.1,0,0,-0.1,0,612)"/>
<path style="fill:none;stroke-width:9.18;stroke-linecap:butt;stroke-linejoin:miter;stroke:rgb(0%,0%,0%);stroke-opacity:1;stroke-miterlimit:10;" d="M 4000.625 918.007812 L 4000.625 1040.390625 " transform="matrix(0.1,0,0,-0.1,0,612)"/>
<path style="fill:none;stroke-width:9.18;stroke-linecap:butt;stroke-linejoin:miter;stroke:rgb(0%,0%,0%);stroke-opacity:1;stroke-miterlimit:10;" d="M 4000.625 5201.992188 L 4000.625 5079.609375 " transform="matrix(0.1,0,0,-0.1,0,612)"/>
<path style="fill:none;stroke-width:9.18;stroke-linecap:butt;stroke-linejoin:miter;stroke:rgb(0%,0%,0%);stroke-opacity:1;stroke-miterlimit:10;" d="M 6471.289062 918.007812 L 6471.289062 1040.390625 " transform="matrix(0.1,0,0,-0.1,0,612)"/>
<path style="fill:none;stroke-width:9.18;stroke-linecap:butt;stroke-linejoin:miter;stroke:rgb(0%,0%,0%);stroke-opacity:1;stroke-miterlimit:10;" d="M 6471.289062 5201.992188 L 6471.289062 5079.609375 " transform="matrix(0.1,0,0,-0.1,0,612)"/>
<path style=" stroke:none;fill-rule:nonzero;fill:rgb(0%,0%,0%);fill-opacity:1;" d="M 139.03125 554 L 146.117188 554 L 146.117188 553.617188 C 144.140625 553.617188 143.703125 553.332031 143.675781 552.101562 L 143.675781 536.695312 L 143.472656 536.644531 L 138.851562 538.980469 L 138.851562 539.339844 C 139.851562 538.953125 140.46875 538.773438 140.699219 538.773438 C 141.238281 538.773438 141.46875 539.160156 141.46875 539.980469 L 141.46875 551.613281 C 141.417969 553.230469 140.980469 553.589844 139.03125 553.617188 L 139.03125 554 "/>
<path style=" stroke:none;fill-rule:nonzero;fill:rgb(0%,0%,0%);fill-opacity:1;" d="M 155.320312 536.644531 C 153.910156 536.644531 152.832031 537.054688 151.882812 537.980469 C 150.390625 539.417969 149.414062 542.367188 149.414062 545.375 C 149.414062 548.195312 150.265625 551.175781 151.46875 552.613281 C 152.421875 553.742188 153.730469 554.359375 155.21875 554.359375 C 156.527344 554.359375 157.632812 553.921875 158.554688 553.023438 C 160.046875 551.613281 161.023438 548.632812 161.023438 545.527344 C 161.023438 540.265625 158.683594 536.644531 155.320312 536.644531 Z M 155.242188 537.3125 C 157.402344 537.3125 158.554688 540.210938 158.554688 545.578125 C 158.554688 550.945312 157.425781 553.691406 155.21875 553.691406 C 153.011719 553.691406 151.882812 550.945312 151.882812 545.605469 C 151.882812 540.136719 153.035156 537.3125 155.242188 537.3125 "/>
<path style=" stroke:none;fill-rule:nonzero;fill:rgb(0%,0%,0%);fill-opacity:1;" d="M 162.671875 539 C 164.710938 538.765625 165.710938 538.417969 166.945312 537.527344 C 168.839844 536.144531 169.945312 533.890625 169.945312 531.433594 C 169.945312 528.433594 168.292969 526.304688 165.929688 526.304688 C 163.765625 526.304688 162.144531 528.140625 162.144531 530.597656 C 162.144531 532.816406 163.453125 534.289062 165.417969 534.289062 C 166.417969 534.289062 167.183594 534 168.148438 533.253906 C 167.402344 536.21875 165.382812 538.164062 162.617188 538.636719 Z M 168.183594 532.144531 C 168.183594 532.507812 168.109375 532.671875 167.910156 532.835938 C 167.402344 533.253906 166.726562 533.507812 166.074219 533.507812 C 164.691406 533.507812 163.820312 532.144531 163.820312 529.980469 C 163.820312 528.945312 164.109375 527.851562 164.492188 527.378906 C 164.800781 527.015625 165.253906 526.816406 165.78125 526.816406 C 167.367188 526.816406 168.183594 528.378906 168.183594 531.433594 L 168.183594 532.144531 "/>
<path style=" stroke:none;fill-rule:nonzero;fill:rgb(0%,0%,0%);fill-opacity:1;" d="M 381.328125 554 L 388.414062 554 L 388.414062 553.617188 C 386.4375 553.617188 386.003906 553.332031 385.976562 552.101562 L 385.976562 536.695312 L 385.773438 536.644531 L 381.148438 538.980469 L 381.148438 539.339844 C 382.152344 538.953125 382.765625 538.773438 382.996094 538.773438 C 383.539062 538.773438 383.769531 539.160156 383.769531 539.980469 L 383.769531 551.613281 C 383.71875 553.230469 383.28125 553.589844 381.328125 553.617188 L 381.328125 554 "/>
<path style=" stroke:none;fill-rule:nonzero;fill:rgb(0%,0%,0%);fill-opacity:1;" d="M 397.722656 536.644531 C 396.308594 536.644531 395.230469 537.054688 394.28125 537.980469 C 392.792969 539.417969 391.816406 542.367188 391.816406 545.375 C 391.816406 548.195312 392.664062 551.175781 393.871094 552.613281 C 394.820312 553.742188 396.128906 554.359375 397.617188 554.359375 C 398.929688 554.359375 400.03125 553.921875 400.957031 553.023438 C 402.445312 551.613281 403.421875 548.632812 403.421875 545.527344 C 403.421875 540.265625 401.085938 536.644531 397.722656 536.644531 Z M 397.644531 537.3125 C 399.800781 537.3125 400.957031 540.210938 400.957031 545.578125 C 400.957031 550.945312 399.828125 553.691406 397.617188 553.691406 C 395.410156 553.691406 394.28125 550.945312 394.28125 545.605469 C 394.28125 540.136719 395.4375 537.3125 397.644531 537.3125 "/>
<path style=" stroke:none;fill-rule:nonzero;fill:rgb(0%,0%,0%);fill-opacity:1;" d="M 406.144531 538.601562 L 411.164062 538.601562 L 411.164062 538.328125 C 409.765625 538.328125 409.457031 538.125 409.4375 537.253906 L 409.4375 526.34375 L 409.292969 526.304688 L 406.019531 527.960938 L 406.019531 528.214844 C 406.726562 527.941406 407.164062 527.816406 407.328125 527.816406 C 407.710938 527.816406 407.871094 528.089844 407.871094 528.671875 L 407.871094 536.910156 C 407.839844 538.054688 407.527344 538.308594 406.144531 538.328125 L 406.144531 538.601562 "/>
<path style=" stroke:none;fill-rule:nonzero;fill:rgb(0%,0%,0%);fill-opacity:1;" d="M 417.71875 526.304688 C 416.71875 526.304688 415.953125 526.597656 415.28125 527.25 C 414.226562 528.269531 413.535156 530.359375 413.535156 532.488281 C 413.535156 534.492188 414.136719 536.601562 414.992188 537.617188 C 415.664062 538.417969 416.59375 538.855469 417.648438 538.855469 C 418.574219 538.855469 419.355469 538.546875 420.011719 537.910156 C 421.066406 536.910156 421.757812 534.796875 421.757812 532.597656 C 421.757812 528.871094 420.101562 526.304688 417.71875 526.304688 Z M 417.664062 526.777344 C 419.191406 526.777344 420.011719 528.835938 420.011719 532.632812 C 420.011719 536.4375 419.210938 538.382812 417.648438 538.382812 C 416.082031 538.382812 415.28125 536.4375 415.28125 532.652344 C 415.28125 528.78125 416.101562 526.777344 417.664062 526.777344 "/>
<path style=" stroke:none;fill-rule:nonzero;fill:rgb(0%,0%,0%);fill-opacity:1;" d="M 629.128906 554 L 636.214844 554 L 636.214844 553.617188 C 634.238281 553.617188 633.804688 553.332031 633.777344 552.101562 L 633.777344 536.695312 L 633.570312 536.644531 L 628.949219 538.980469 L 628.949219 539.339844 C 629.953125 538.953125 630.566406 538.773438 630.796875 538.773438 C 631.339844 538.773438 631.570312 539.160156 631.570312 539.980469 L 631.570312 551.613281 C 631.515625 553.230469 631.082031 553.589844 629.128906 553.617188 L 629.128906 554 "/>
<path style=" stroke:none;fill-rule:nonzero;fill:rgb(0%,0%,0%);fill-opacity:1;" d="M 645.523438 536.644531 C 644.109375 536.644531 643.03125 537.054688 642.082031 537.980469 C 640.59375 539.417969 639.617188 542.367188 639.617188 545.375 C 639.617188 548.195312 640.464844 551.175781 641.671875 552.613281 C 642.621094 553.742188 643.929688 554.359375 645.417969 554.359375 C 646.726562 554.359375 647.832031 553.921875 648.757812 553.023438 C 650.246094 551.613281 651.222656 548.632812 651.222656 545.527344 C 651.222656 540.265625 648.882812 536.644531 645.523438 536.644531 Z M 645.445312 537.3125 C 647.601562 537.3125 648.757812 540.210938 648.757812 545.578125 C 648.757812 550.945312 647.628906 553.691406 645.417969 553.691406 C 643.210938 553.691406 642.082031 550.945312 642.082031 545.605469 C 642.082031 540.136719 643.234375 537.3125 645.445312 537.3125 "/>
<path style=" stroke:none;fill-rule:nonzero;fill:rgb(0%,0%,0%);fill-opacity:1;" d="M 653.945312 538.601562 L 658.964844 538.601562 L 658.964844 538.328125 C 657.566406 538.328125 657.257812 538.125 657.238281 537.253906 L 657.238281 526.34375 L 657.09375 526.304688 L 653.820312 527.960938 L 653.820312 528.214844 C 654.527344 527.941406 654.964844 527.816406 655.128906 527.816406 C 655.507812 527.816406 655.671875 528.089844 655.671875 528.671875 L 655.671875 536.910156 C 655.636719 538.054688 655.328125 538.308594 653.945312 538.328125 L 653.945312 538.601562 "/>
<path style=" stroke:none;fill-rule:nonzero;fill:rgb(0%,0%,0%);fill-opacity:1;" d="M 663.046875 538.601562 L 668.066406 538.601562 L 668.066406 538.328125 C 666.664062 538.328125 666.355469 538.125 666.339844 537.253906 L 666.339844 526.34375 L 666.191406 526.304688 L 662.917969 527.960938 L 662.917969 528.214844 C 663.628906 527.941406 664.0625 527.816406 664.226562 527.816406 C 664.609375 527.816406 664.773438 528.089844 664.773438 528.671875 L 664.773438 536.910156 C 664.738281 538.054688 664.429688 538.308594 663.046875 538.328125 L 663.046875 538.601562 "/>
<path style=" stroke:none;fill-rule:nonzero;fill:rgb(0%,0%,0%);fill-opacity:1;" d="M 376.878906 560.445312 L 376.339844 560.445312 C 376.234375 561.035156 375.953125 561.316406 375.515625 561.316406 C 375.257812 561.316406 374.824219 561.214844 374.386719 561.007812 C 373.4375 560.648438 372.484375 560.445312 371.640625 560.445312 C 370.5625 560.445312 369.429688 560.878906 368.585938 561.625 C 367.683594 562.421875 367.222656 563.5 367.222656 564.835938 C 367.222656 566.886719 368.351562 568.328125 371.226562 569.839844 C 373.078125 570.84375 374.414062 571.867188 375.054688 572.84375 C 375.285156 573.179688 375.414062 573.71875 375.414062 574.359375 C 375.414062 576.054688 374.128906 577.234375 372.253906 577.234375 C 369.945312 577.234375 368.351562 575.824219 367.070312 572.691406 L 366.476562 572.691406 L 367.246094 578.132812 L 367.8125 578.132812 C 367.839844 577.644531 368.148438 577.285156 368.53125 577.285156 C 368.8125 577.285156 369.253906 577.390625 369.738281 577.570312 C 370.714844 577.953125 371.765625 578.160156 372.769531 578.160156 C 375.746094 578.160156 378.007812 576.132812 378.007812 573.484375 C 378.007812 571.382812 376.59375 569.710938 373.203125 567.863281 C 370.507812 566.398438 369.429688 565.269531 369.429688 563.859375 C 369.429688 562.445312 370.507812 561.496094 372.101562 561.496094 C 373.257812 561.496094 374.335938 561.984375 375.234375 562.910156 C 376.03125 563.730469 376.390625 564.398438 376.800781 565.914062 L 377.441406 565.914062 L 376.878906 560.445312 "/>
<path style=" stroke:none;fill-rule:nonzero;fill:rgb(0%,0%,0%);fill-opacity:1;" d="M 386.351562 566.246094 L 383.757812 566.246094 L 383.757812 563.269531 C 383.757812 563.011719 383.703125 562.933594 383.578125 562.933594 C 382.089844 565.089844 381.316406 565.964844 380.574219 566.398438 C 380.289062 566.578125 380.136719 566.734375 380.136719 566.886719 C 380.136719 566.964844 380.164062 567.015625 380.238281 567.066406 L 381.601562 567.066406 L 381.601562 574.796875 C 381.601562 576.953125 382.371094 578.054688 383.882812 578.054688 C 385.144531 578.054688 386.117188 577.441406 386.964844 576.105469 L 386.632812 575.824219 C 386.066406 576.492188 385.65625 576.722656 385.09375 576.722656 C 384.140625 576.722656 383.757812 576.027344 383.757812 574.410156 L 383.757812 567.066406 L 386.351562 567.066406 L 386.351562 566.246094 "/>
<path style=" stroke:none;fill-rule:nonzero;fill:rgb(0%,0%,0%);fill-opacity:1;" d="M 397.53125 573.589844 C 396.296875 575.539062 395.191406 576.285156 393.550781 576.285156 C 392.085938 576.285156 390.984375 575.539062 390.238281 574.078125 C 389.773438 573.101562 389.59375 572.28125 389.542969 570.6875 L 397.453125 570.6875 C 397.246094 569.019531 396.992188 568.273438 396.347656 567.453125 C 395.578125 566.527344 394.398438 565.988281 393.0625 565.988281 C 391.777344 565.988281 390.570312 566.453125 389.59375 567.324219 C 388.390625 568.375 387.695312 570.199219 387.695312 572.304688 C 387.695312 575.847656 389.542969 578.054688 392.496094 578.054688 C 394.964844 578.054688 396.863281 576.542969 397.941406 573.769531 Z M 389.59375 569.867188 C 389.878906 567.835938 390.753906 566.914062 392.316406 566.914062 C 393.882812 566.914062 394.5 567.632812 394.832031 569.867188 L 389.59375 569.867188 "/>
<path style=" stroke:none;fill-rule:nonzero;fill:rgb(0%,0%,0%);fill-opacity:1;" d="M 398.839844 577.800781 L 404.898438 577.800781 L 404.898438 577.414062 C 403.28125 577.335938 402.996094 577.082031 402.972656 575.644531 L 402.972656 560.316406 L 402.871094 560.265625 C 401.535156 560.699219 400.558594 560.957031 398.789062 561.394531 L 398.789062 561.804688 L 398.941406 561.804688 C 399.226562 561.78125 399.53125 561.753906 399.738281 561.753906 C 400.558594 561.753906 400.816406 562.113281 400.816406 563.320312 L 400.816406 575.566406 C 400.789062 576.953125 400.429688 577.3125 398.839844 577.414062 L 398.839844 577.800781 "/>
<path style=" stroke:none;fill-rule:nonzero;fill:rgb(0%,0%,0%);fill-opacity:1;" d="M 405.9375 577.800781 L 411.996094 577.800781 L 411.996094 577.414062 C 410.382812 577.335938 410.097656 577.082031 410.074219 575.644531 L 410.074219 560.316406 L 409.96875 560.265625 C 408.632812 560.699219 407.660156 560.957031 405.886719 561.394531 L 405.886719 561.804688 L 406.042969 561.804688 C 406.324219 561.78125 406.632812 561.753906 406.839844 561.753906 C 407.660156 561.753906 407.914062 562.113281 407.914062 563.320312 L 407.914062 575.566406 C 407.890625 576.953125 407.53125 577.3125 405.9375 577.414062 L 405.9375 577.800781 "/>
<path style=" stroke:none;fill-rule:nonzero;fill:rgb(0%,0%,0%);fill-opacity:1;" d="M 423.949219 576.105469 C 423.511719 576.464844 423.203125 576.59375 422.820312 576.59375 C 422.226562 576.59375 422.046875 576.234375 422.046875 575.105469 L 422.046875 570.097656 C 422.046875 568.761719 421.921875 568.015625 421.535156 567.402344 C 420.96875 566.476562 419.867188 565.988281 418.351562 565.988281 C 415.9375 565.988281 414.039062 567.246094 414.039062 568.867188 C 414.039062 569.457031 414.523438 569.96875 415.140625 569.96875 C 415.757812 569.96875 416.296875 569.457031 416.296875 568.890625 C 416.296875 568.789062 416.273438 568.660156 416.246094 568.480469 C 416.195312 568.25 416.167969 568.042969 416.167969 567.863281 C 416.167969 567.171875 416.992188 566.605469 418.015625 566.605469 C 419.273438 566.605469 419.96875 567.351562 419.96875 568.738281 L 419.96875 570.304688 C 416.015625 571.894531 415.578125 572.101562 414.476562 573.078125 C 413.910156 573.589844 413.550781 574.460938 413.550781 575.308594 C 413.550781 576.925781 414.679688 578.054688 416.246094 578.054688 C 417.375 578.054688 418.429688 577.515625 419.992188 576.183594 C 420.121094 577.542969 420.585938 578.054688 421.636719 578.054688 C 422.511719 578.054688 423.050781 577.75 423.949219 576.773438 Z M 419.96875 574.640625 C 419.96875 575.414062 419.839844 575.695312 419.300781 576.003906 C 418.660156 576.363281 417.964844 576.566406 417.425781 576.566406 C 416.527344 576.566406 415.808594 575.695312 415.808594 574.589844 L 415.808594 574.488281 C 415.835938 572.945312 416.964844 571.972656 419.96875 570.917969 L 419.96875 574.640625 "/>
<path style=" stroke:none;fill-rule:nonzero;fill:rgb(0%,0%,0%);fill-opacity:1;" d="M 424.128906 577.800781 L 430.289062 577.800781 L 430.289062 577.414062 C 428.570312 577.363281 428.160156 577.003906 428.109375 575.488281 L 428.109375 569.710938 C 428.109375 568.890625 429.1875 567.609375 429.90625 567.609375 C 430.058594 567.609375 430.289062 567.734375 430.574219 567.992188 C 430.984375 568.375 431.265625 568.507812 431.601562 568.507812 C 432.214844 568.507812 432.601562 568.070312 432.601562 567.351562 C 432.601562 566.503906 432.0625 565.988281 431.1875 565.988281 C 430.109375 565.988281 429.367188 566.554688 428.109375 568.402344 L 428.109375 566.039062 L 427.980469 565.988281 C 426.617188 566.554688 425.695312 566.886719 424.179688 567.375 L 424.179688 567.789062 C 424.539062 567.710938 424.769531 567.683594 425.078125 567.683594 C 425.71875 567.683594 425.953125 568.09375 425.953125 569.226562 L 425.953125 575.644531 C 425.898438 576.976562 425.746094 577.132812 424.128906 577.414062 L 424.128906 577.800781 "/>
<path style=" stroke:none;fill-rule:nonzero;fill:rgb(0%,0%,0%);fill-opacity:1;" d="M 461.15625 560.804688 L 456.046875 560.804688 L 450.371094 573.769531 L 444.445312 560.804688 L 439.359375 560.804688 L 439.359375 561.289062 C 441.464844 561.394531 441.746094 561.675781 441.796875 563.601562 L 441.796875 574.027344 C 441.746094 576.746094 441.414062 577.183594 439.308594 577.3125 L 439.308594 577.800781 L 445.34375 577.800781 L 445.34375 577.3125 C 443.363281 577.210938 442.980469 576.671875 442.929688 574.027344 L 442.929688 563.679688 L 449.371094 577.800781 L 449.734375 577.800781 L 456.304688 563.089844 L 456.304688 574.71875 C 456.28125 576.902344 455.996094 577.183594 453.96875 577.3125 L 453.96875 577.800781 L 461.15625 577.800781 L 461.15625 577.3125 C 459.308594 577.210938 458.976562 576.851562 458.921875 575 L 458.921875 563.601562 C 458.976562 561.753906 459.28125 561.417969 461.15625 561.289062 L 461.15625 560.804688 "/>
<path style=" stroke:none;fill-rule:nonzero;fill:rgb(0%,0%,0%);fill-opacity:1;" d="M 473.148438 576.105469 C 472.714844 576.464844 472.402344 576.59375 472.019531 576.59375 C 471.429688 576.59375 471.246094 576.234375 471.246094 575.105469 L 471.246094 570.097656 C 471.246094 568.761719 471.121094 568.015625 470.734375 567.402344 C 470.171875 566.476562 469.066406 565.988281 467.550781 565.988281 C 465.136719 565.988281 463.238281 567.246094 463.238281 568.867188 C 463.238281 569.457031 463.726562 569.96875 464.34375 569.96875 C 464.957031 569.96875 465.496094 569.457031 465.496094 568.890625 C 465.496094 568.789062 465.472656 568.660156 465.445312 568.480469 C 465.394531 568.25 465.367188 568.042969 465.367188 567.863281 C 465.367188 567.171875 466.191406 566.605469 467.21875 566.605469 C 468.476562 566.605469 469.167969 567.351562 469.167969 568.738281 L 469.167969 570.304688 C 465.214844 571.894531 464.777344 572.101562 463.675781 573.078125 C 463.109375 573.589844 462.75 574.460938 462.75 575.308594 C 462.75 576.925781 463.878906 578.054688 465.445312 578.054688 C 466.574219 578.054688 467.628906 577.515625 469.195312 576.183594 C 469.324219 577.542969 469.785156 578.054688 470.839844 578.054688 C 471.710938 578.054688 472.25 577.75 473.148438 576.773438 Z M 469.167969 574.640625 C 469.167969 575.414062 469.039062 575.695312 468.503906 576.003906 C 467.859375 576.363281 467.164062 576.566406 466.628906 576.566406 C 465.726562 576.566406 465.007812 575.695312 465.007812 574.589844 L 465.007812 574.488281 C 465.035156 572.945312 466.164062 571.972656 469.167969 570.917969 L 469.167969 574.640625 "/>
<path style=" stroke:none;fill-rule:nonzero;fill:rgb(0%,0%,0%);fill-opacity:1;" d="M 481.289062 569.738281 L 481.183594 566.21875 L 480.902344 566.21875 C 480.746094 566.425781 480.621094 566.503906 480.492188 566.503906 C 480.339844 566.503906 480.082031 566.453125 479.796875 566.324219 C 479.207031 566.117188 478.617188 565.988281 478.003906 565.988281 C 475.972656 565.988281 474.507812 567.324219 474.507812 569.171875 C 474.507812 570.609375 475.332031 571.636719 477.515625 572.871094 L 479.003906 573.71875 C 479.902344 574.230469 480.339844 574.847656 480.339844 575.644531 C 480.339844 576.773438 479.515625 577.492188 478.207031 577.492188 C 476.433594 577.492188 475.535156 576.515625 474.945312 573.898438 L 474.535156 573.898438 L 474.535156 577.902344 L 474.867188 577.902344 C 475.046875 577.644531 475.152344 577.59375 475.460938 577.59375 C 475.742188 577.59375 476.050781 577.644531 476.640625 577.800781 C 477.335938 577.953125 478.003906 578.054688 478.515625 578.054688 C 480.515625 578.054688 482.132812 576.566406 482.132812 574.769531 C 482.132812 573.484375 481.542969 572.640625 479.976562 571.714844 L 477.203125 570.070312 C 476.484375 569.660156 476.101562 569.019531 476.101562 568.328125 C 476.101562 567.273438 476.898438 566.578125 478.078125 566.578125 C 479.542969 566.578125 480.3125 567.429688 480.902344 569.738281 L 481.289062 569.738281 "/>
<path style=" stroke:none;fill-rule:nonzero;fill:rgb(0%,0%,0%);fill-opacity:1;" d="M 491.289062 569.738281 L 491.183594 566.21875 L 490.902344 566.21875 C 490.746094 566.425781 490.621094 566.503906 490.492188 566.503906 C 490.339844 566.503906 490.082031 566.453125 489.796875 566.324219 C 489.207031 566.117188 488.617188 565.988281 488.003906 565.988281 C 485.972656 565.988281 484.507812 567.324219 484.507812 569.171875 C 484.507812 570.609375 485.332031 571.636719 487.515625 572.871094 L 489.003906 573.71875 C 489.902344 574.230469 490.339844 574.847656 490.339844 575.644531 C 490.339844 576.773438 489.515625 577.492188 488.207031 577.492188 C 486.433594 577.492188 485.535156 576.515625 484.945312 573.898438 L 484.535156 573.898438 L 484.535156 577.902344 L 484.867188 577.902344 C 485.046875 577.644531 485.152344 577.59375 485.460938 577.59375 C 485.742188 577.59375 486.050781 577.644531 486.640625 577.800781 C 487.335938 577.953125 488.003906 578.054688 488.515625 578.054688 C 490.515625 578.054688 492.132812 576.566406 492.132812 574.769531 C 492.132812 573.484375 491.542969 572.640625 489.976562 571.714844 L 487.203125 570.070312 C 486.484375 569.660156 486.101562 569.019531 486.101562 568.328125 C 486.101562 567.273438 486.898438 566.578125 488.078125 566.578125 C 489.542969 566.578125 490.3125 567.429688 490.902344 569.738281 L 491.289062 569.738281 "/>
<path style=" stroke:none;fill-rule:nonzero;fill:rgb(0%,0%,0%);fill-opacity:1;" d="M 507.378906 561.445312 L 507.378906 560.804688 L 501.960938 560.804688 L 501.960938 581.804688 L 507.378906 581.804688 L 507.378906 581.164062 L 505.167969 581.164062 C 504.296875 581.136719 503.9375 580.753906 503.910156 579.828125 L 503.910156 562.574219 C 503.9375 561.753906 504.21875 561.46875 505.066406 561.445312 L 507.378906 561.445312 "/>
<path style=" stroke:none;fill-rule:nonzero;fill:rgb(0%,0%,0%);fill-opacity:1;" d="M 530.359375 560.804688 L 525.246094 560.804688 L 519.574219 573.769531 L 513.644531 560.804688 L 508.558594 560.804688 L 508.558594 561.289062 C 510.664062 561.394531 510.945312 561.675781 510.996094 563.601562 L 510.996094 574.027344 C 510.945312 576.746094 510.613281 577.183594 508.507812 577.3125 L 508.507812 577.800781 L 514.542969 577.800781 L 514.542969 577.3125 C 512.5625 577.210938 512.179688 576.671875 512.128906 574.027344 L 512.128906 563.679688 L 518.570312 577.800781 L 518.933594 577.800781 L 525.503906 563.089844 L 525.503906 574.71875 C 525.480469 576.902344 525.195312 577.183594 523.167969 577.3125 L 523.167969 577.800781 L 530.359375 577.800781 L 530.359375 577.3125 C 528.507812 577.210938 528.175781 576.851562 528.121094 575 L 528.121094 563.601562 C 528.175781 561.753906 528.484375 561.417969 530.359375 561.289062 L 530.359375 560.804688 "/>
<path style=" stroke:none;fill-rule:nonzero;fill:rgb(0%,0%,0%);fill-opacity:1;" d="M 538.78125 574.535156 C 535.441406 574.535156 532.847656 577.050781 532.847656 580.285156 C 532.847656 583.46875 535.441406 586.011719 538.703125 586.011719 C 541.964844 586.011719 544.554688 583.46875 544.554688 580.257812 C 544.554688 577.101562 541.964844 574.535156 538.78125 574.535156 Z M 538.652344 575.585938 C 541.398438 575.585938 543.503906 577.617188 543.503906 580.285156 C 543.503906 582.878906 541.371094 584.957031 538.703125 584.957031 C 536.03125 584.957031 533.902344 582.878906 533.902344 580.257812 C 533.902344 577.691406 536.03125 575.585938 538.652344 575.585938 "/>
<path style=" stroke:none;fill-rule:nonzero;fill:rgb(0%,0%,0%);fill-opacity:1;" d="M 538.589844 579.3125 C 538.085938 579.3125 537.703125 579.671875 537.703125 580.144531 C 537.703125 580.632812 538.085938 580.992188 538.589844 580.992188 L 538.714844 580.992188 C 539.214844 580.992188 539.601562 580.632812 539.601562 580.144531 C 539.601562 579.671875 539.214844 579.3125 538.714844 579.3125 L 538.589844 579.3125 "/>
<path style=" stroke:none;fill-rule:nonzero;fill:rgb(0%,0%,0%);fill-opacity:1;" d="M 547.171875 581.164062 L 547.171875 581.804688 L 552.589844 581.804688 L 552.589844 560.804688 L 547.171875 560.804688 L 547.171875 561.445312 L 549.382812 561.445312 C 550.253906 561.46875 550.613281 561.855469 550.640625 562.78125 L 550.640625 580.035156 C 550.613281 580.855469 550.332031 581.136719 549.484375 581.164062 L 547.171875 581.164062 "/>
<path style="fill:none;stroke-width:9.18;stroke-linecap:butt;stroke-linejoin:miter;stroke:rgb(0%,0%,0%);stroke-opacity:1;stroke-miterlimit:10;" d="M 1530 918.007812 L 1530 5201.992188 " transform="matrix(0.1,0,0,-0.1,0,612)"/>
<path style="fill:none;stroke-width:9.18;stroke-linecap:butt;stroke-linejoin:miter;stroke:rgb(0%,0%,0%);stroke-opacity:1;stroke-miterlimit:10;" d="M 7650 918.007812 L 7650 5201.992188 " transform="matrix(0.1,0,0,-0.1,0,612)"/>
<path style="fill:none;stroke-width:9.18;stroke-linecap:butt;stroke-linejoin:miter;stroke:rgb(0%,0%,0%);stroke-opacity:1;stroke-miterlimit:10;" d="M 1530 1346.40625 L 1591.210938 1346.40625 " transform="matrix(0.1,0,0,-0.1,0,612)"/>
<path style="fill:none;stroke-width:9.18;stroke-linecap:butt;stroke-linejoin:miter;stroke:rgb(0%,0%,0%);stroke-opacity:1;stroke-miterlimit:10;" d="M 7650 1346.40625 L 7588.789062 1346.40625 " transform="matrix(0.1,0,0,-0.1,0,612)"/>
<path style="fill:none;stroke-width:9.18;stroke-linecap:butt;stroke-linejoin:miter;stroke:rgb(0%,0%,0%);stroke-opacity:1;stroke-miterlimit:10;" d="M 1530 2203.203125 L 1591.210938 2203.203125 " transform="matrix(0.1,0,0,-0.1,0,612)"/>
<path style="fill:none;stroke-width:9.18;stroke-linecap:butt;stroke-linejoin:miter;stroke:rgb(0%,0%,0%);stroke-opacity:1;stroke-miterlimit:10;" d="M 7650 2203.203125 L 7588.789062 2203.203125 " transform="matrix(0.1,0,0,-0.1,0,612)"/>
<path style="fill:none;stroke-width:9.18;stroke-linecap:butt;stroke-linejoin:miter;stroke:rgb(0%,0%,0%);stroke-opacity:1;stroke-miterlimit:10;" d="M 1530 3060 L 1591.210938 3060 " transform="matrix(0.1,0,0,-0.1,0,612)"/>
<path style="fill:none;stroke-width:9.18;stroke-linecap:butt;stroke-linejoin:miter;stroke:rgb(0%,0%,0%);stroke-opacity:1;stroke-miterlimit:10;" d="M 7650 3060 L 7588.789062 3060 " transform="matrix(0.1,0,0,-0.1,0,612)"/>
<path style="fill:none;stroke-width:9.18;stroke-linecap:butt;stroke-linejoin:miter;stroke:rgb(0%,0%,0%);stroke-opacity:1;stroke-miterlimit:10;" d="M 1530 3916.796875 L 1591.210938 3916.796875 " transform="matrix(0.1,0,0,-0.1,0,612)"/>
<path style="fill:none;stroke-width:9.18;stroke-linecap:butt;stroke-linejoin:miter;stroke:rgb(0%,0%,0%);stroke-opacity:1;stroke-miterlimit:10;" d="M 7650 3916.796875 L 7588.789062 3916.796875 " transform="matrix(0.1,0,0,-0.1,0,612)"/>
<path style="fill:none;stroke-width:9.18;stroke-linecap:butt;stroke-linejoin:miter;stroke:rgb(0%,0%,0%);stroke-opacity:1;stroke-miterlimit:10;" d="M 1530 4773.59375 L 1591.210938 4773.59375 " transform="matrix(0.1,0,0,-0.1,0,612)"/>
<path style="fill:none;stroke-width:9.18;stroke-linecap:butt;stroke-linejoin:miter;stroke:rgb(0%,0%,0%);stroke-opacity:1;stroke-miterlimit:10;" d="M 7650 4773.59375 L 7588.789062 4773.59375 " transform="matrix(0.1,0,0,-0.1,0,612)"/>
<path style="fill:none;stroke-width:9.18;stroke-linecap:butt;stroke-linejoin:miter;stroke:rgb(0%,0%,0%);stroke-opacity:1;stroke-miterlimit:10;" d="M 1530 918.007812 L 1652.382812 918.007812 " transform="matrix(0.1,0,0,-0.1,0,612)"/>
<path style="fill:none;stroke-width:9.18;stroke-linecap:butt;stroke-linejoin:miter;stroke:rgb(0%,0%,0%);stroke-opacity:1;stroke-miterlimit:10;" d="M 7650 918.007812 L 7527.617188 918.007812 " transform="matrix(0.1,0,0,-0.1,0,612)"/>
<path style="fill:none;stroke-width:9.18;stroke-linecap:butt;stroke-linejoin:miter;stroke:rgb(0%,0%,0%);stroke-opacity:1;stroke-miterlimit:10;" d="M 1530 1774.804688 L 1652.382812 1774.804688 " transform="matrix(0.1,0,0,-0.1,0,612)"/>
<path style="fill:none;stroke-width:9.18;stroke-linecap:butt;stroke-linejoin:miter;stroke:rgb(0%,0%,0%);stroke-opacity:1;stroke-miterlimit:10;" d="M 7650 1774.804688 L 7527.617188 1774.804688 " transform="matrix(0.1,0,0,-0.1,0,612)"/>
<path style="fill:none;stroke-width:9.18;stroke-linecap:butt;stroke-linejoin:miter;stroke:rgb(0%,0%,0%);stroke-opacity:1;stroke-miterlimit:10;" d="M 1530 2631.601562 L 1652.382812 2631.601562 " transform="matrix(0.1,0,0,-0.1,0,612)"/>
<path style="fill:none;stroke-width:9.18;stroke-linecap:butt;stroke-linejoin:miter;stroke:rgb(0%,0%,0%);stroke-opacity:1;stroke-miterlimit:10;" d="M 7650 2631.601562 L 7527.617188 2631.601562 " transform="matrix(0.1,0,0,-0.1,0,612)"/>
<path style="fill:none;stroke-width:9.18;stroke-linecap:butt;stroke-linejoin:miter;stroke:rgb(0%,0%,0%);stroke-opacity:1;stroke-miterlimit:10;" d="M 1530 3488.398438 L 1652.382812 3488.398438 " transform="matrix(0.1,0,0,-0.1,0,612)"/>
<path style="fill:none;stroke-width:9.18;stroke-linecap:butt;stroke-linejoin:miter;stroke:rgb(0%,0%,0%);stroke-opacity:1;stroke-miterlimit:10;" d="M 7650 3488.398438 L 7527.617188 3488.398438 " transform="matrix(0.1,0,0,-0.1,0,612)"/>
<path style="fill:none;stroke-width:9.18;stroke-linecap:butt;stroke-linejoin:miter;stroke:rgb(0%,0%,0%);stroke-opacity:1;stroke-miterlimit:10;" d="M 1530 4345.195312 L 1652.382812 4345.195312 " transform="matrix(0.1,0,0,-0.1,0,612)"/>
<path style="fill:none;stroke-width:9.18;stroke-linecap:butt;stroke-linejoin:miter;stroke:rgb(0%,0%,0%);stroke-opacity:1;stroke-miterlimit:10;" d="M 7650 4345.195312 L 7527.617188 4345.195312 " transform="matrix(0.1,0,0,-0.1,0,612)"/>
<path style="fill:none;stroke-width:9.18;stroke-linecap:butt;stroke-linejoin:miter;stroke:rgb(0%,0%,0%);stroke-opacity:1;stroke-miterlimit:10;" d="M 1530 5201.992188 L 1652.382812 5201.992188 " transform="matrix(0.1,0,0,-0.1,0,612)"/>
<path style="fill:none;stroke-width:9.18;stroke-linecap:butt;stroke-linejoin:miter;stroke:rgb(0%,0%,0%);stroke-opacity:1;stroke-miterlimit:10;" d="M 7650 5201.992188 L 7527.617188 5201.992188 " transform="matrix(0.1,0,0,-0.1,0,612)"/>
<path style=" stroke:none;fill-rule:nonzero;fill:rgb(0%,0%,0%);fill-opacity:1;" d="M 141.121094 511.445312 C 139.710938 511.445312 138.632812 511.855469 137.679688 512.78125 C 136.191406 514.21875 135.214844 517.167969 135.214844 520.171875 C 135.214844 522.996094 136.0625 525.976562 137.269531 527.414062 C 138.21875 528.542969 139.53125 529.160156 141.019531 529.160156 C 142.328125 529.160156 143.433594 528.722656 144.355469 527.824219 C 145.84375 526.414062 146.820312 523.433594 146.820312 520.328125 C 146.820312 515.0625 144.484375 511.445312 141.121094 511.445312 Z M 141.042969 512.109375 C 143.203125 512.109375 144.355469 515.011719 144.355469 520.378906 C 144.355469 525.746094 143.226562 528.492188 141.019531 528.492188 C 138.8125 528.492188 137.679688 525.746094 137.679688 520.40625 C 137.679688 514.9375 138.835938 512.109375 141.042969 512.109375 "/>
<path style=" stroke:none;fill-rule:nonzero;fill:rgb(0%,0%,0%);fill-opacity:1;" d="M 121.921875 425.742188 C 120.507812 425.742188 119.429688 426.15625 118.480469 427.078125 C 116.992188 428.515625 116.015625 431.46875 116.015625 434.472656 C 116.015625 437.296875 116.863281 440.273438 118.070312 441.714844 C 119.019531 442.84375 120.328125 443.460938 121.820312 443.460938 C 123.128906 443.460938 124.234375 443.023438 125.15625 442.125 C 126.644531 440.710938 127.621094 437.734375 127.621094 434.628906 C 127.621094 429.363281 125.285156 425.742188 121.921875 425.742188 Z M 121.84375 426.410156 C 124.003906 426.410156 125.15625 429.3125 125.15625 434.679688 C 125.15625 440.046875 124.027344 442.792969 121.820312 442.792969 C 119.609375 442.792969 118.480469 440.046875 118.480469 434.703125 C 118.480469 429.234375 119.636719 426.410156 121.84375 426.410156 "/>
<path style=" stroke:none;fill-rule:nonzero;fill:rgb(0%,0%,0%);fill-opacity:1;" d="M 131.507812 440.53125 C 130.738281 440.53125 130.097656 441.175781 130.097656 441.996094 C 130.097656 442.742188 130.738281 443.382812 131.484375 443.382812 C 132.28125 443.382812 132.945312 442.765625 132.945312 441.996094 C 132.945312 441.199219 132.28125 440.53125 131.507812 440.53125 "/>
<path style=" stroke:none;fill-rule:nonzero;fill:rgb(0%,0%,0%);fill-opacity:1;" d="M 146.894531 439.582031 L 146.5625 439.453125 C 145.613281 440.945312 145.328125 441.121094 144.121094 441.148438 L 137.984375 441.148438 L 142.300781 436.628906 C 144.585938 434.242188 145.585938 432.289062 145.585938 430.261719 C 145.585938 427.71875 143.507812 425.742188 140.835938 425.742188 C 139.421875 425.742188 138.089844 426.308594 137.140625 427.335938 C 136.316406 428.210938 135.933594 429.03125 135.496094 430.851562 L 136.035156 430.980469 C 137.0625 428.464844 137.960938 427.644531 139.757812 427.644531 C 141.941406 427.644531 143.378906 429.109375 143.378906 431.265625 C 143.378906 433.292969 142.195312 435.65625 140.039062 437.9375 L 135.46875 442.792969 L 135.46875 443.101562 L 145.484375 443.101562 L 146.894531 439.582031 "/>
<path style=" stroke:none;fill-rule:nonzero;fill:rgb(0%,0%,0%);fill-opacity:1;" d="M 121.921875 340.144531 C 120.507812 340.144531 119.429688 340.554688 118.480469 341.480469 C 116.992188 342.917969 116.015625 345.867188 116.015625 348.871094 C 116.015625 351.695312 116.863281 354.675781 118.070312 356.113281 C 119.019531 357.242188 120.328125 357.859375 121.820312 357.859375 C 123.128906 357.859375 124.234375 357.421875 125.15625 356.523438 C 126.644531 355.113281 127.621094 352.132812 127.621094 349.027344 C 127.621094 343.765625 125.285156 340.144531 121.921875 340.144531 Z M 121.84375 340.8125 C 124.003906 340.8125 125.15625 343.710938 125.15625 349.078125 C 125.15625 354.445312 124.027344 357.191406 121.820312 357.191406 C 119.609375 357.191406 118.480469 354.445312 118.480469 349.105469 C 118.480469 343.636719 119.636719 340.8125 121.84375 340.8125 "/>
<path style=" stroke:none;fill-rule:nonzero;fill:rgb(0%,0%,0%);fill-opacity:1;" d="M 131.507812 354.933594 C 130.738281 354.933594 130.097656 355.574219 130.097656 356.394531 C 130.097656 357.140625 130.738281 357.78125 131.484375 357.78125 C 132.28125 357.78125 132.945312 357.164062 132.945312 356.394531 C 132.945312 355.601562 132.28125 354.933594 131.507812 354.933594 "/>
<path style=" stroke:none;fill-rule:nonzero;fill:rgb(0%,0%,0%);fill-opacity:1;" d="M 146.820312 351.570312 L 144.199219 351.570312 L 144.199219 340.144531 L 143.070312 340.144531 L 135.007812 351.570312 L 135.007812 353.210938 L 142.222656 353.210938 L 142.222656 357.5 L 144.199219 357.5 L 144.199219 353.210938 L 146.820312 353.210938 Z M 142.195312 351.570312 L 136.035156 351.570312 L 142.195312 342.761719 L 142.195312 351.570312 "/>
<path style=" stroke:none;fill-rule:nonzero;fill:rgb(0%,0%,0%);fill-opacity:1;" d="M 122.222656 254.445312 C 120.808594 254.445312 119.730469 254.855469 118.78125 255.78125 C 117.292969 257.21875 116.316406 260.167969 116.316406 263.171875 C 116.316406 265.996094 117.164062 268.976562 118.371094 270.414062 C 119.320312 271.542969 120.628906 272.160156 122.117188 272.160156 C 123.429688 272.160156 124.53125 271.722656 125.457031 270.824219 C 126.945312 269.410156 127.921875 266.433594 127.921875 263.328125 C 127.921875 258.0625 125.585938 254.445312 122.222656 254.445312 Z M 122.144531 255.109375 C 124.300781 255.109375 125.457031 258.011719 125.457031 263.378906 C 125.457031 268.746094 124.328125 271.492188 122.117188 271.492188 C 119.910156 271.492188 118.78125 268.746094 118.78125 263.40625 C 118.78125 257.9375 119.9375 255.109375 122.144531 255.109375 "/>
<path style=" stroke:none;fill-rule:nonzero;fill:rgb(0%,0%,0%);fill-opacity:1;" d="M 131.710938 269.234375 C 130.9375 269.234375 130.296875 269.875 130.296875 270.695312 C 130.296875 271.441406 130.9375 272.082031 131.683594 272.082031 C 132.480469 272.082031 133.148438 271.464844 133.148438 270.695312 C 133.148438 269.898438 132.480469 269.234375 131.710938 269.234375 "/>
<path style=" stroke:none;fill-rule:nonzero;fill:rgb(0%,0%,0%);fill-opacity:1;" d="M 146.351562 254.238281 C 143.421875 254.496094 141.933594 254.984375 140.0625 256.292969 C 137.289062 258.269531 135.773438 261.195312 135.773438 264.636719 C 135.773438 266.871094 136.464844 269.128906 137.570312 270.414062 C 138.546875 271.542969 139.933594 272.160156 141.523438 272.160156 C 144.707031 272.160156 146.914062 269.71875 146.914062 266.175781 C 146.914062 262.867188 145.066406 260.8125 142.0625 260.8125 C 140.933594 260.8125 140.421875 260.992188 138.804688 261.96875 C 139.496094 258.089844 142.371094 255.316406 146.402344 254.648438 Z M 141.113281 261.992188 C 143.347656 261.992188 144.605469 263.839844 144.605469 267.050781 C 144.605469 269.875 143.601562 271.441406 141.804688 271.441406 C 139.546875 271.441406 138.160156 269.027344 138.160156 265.046875 C 138.160156 263.738281 138.367188 263.019531 138.878906 262.632812 C 139.417969 262.222656 140.214844 261.992188 141.113281 261.992188 "/>
<path style=" stroke:none;fill-rule:nonzero;fill:rgb(0%,0%,0%);fill-opacity:1;" d="M 122.722656 168.742188 C 121.308594 168.742188 120.230469 169.15625 119.28125 170.078125 C 117.792969 171.515625 116.816406 174.46875 116.816406 177.472656 C 116.816406 180.296875 117.664062 183.273438 118.871094 184.714844 C 119.820312 185.84375 121.128906 186.460938 122.617188 186.460938 C 123.929688 186.460938 125.03125 186.023438 125.957031 185.125 C 127.445312 183.710938 128.421875 180.734375 128.421875 177.628906 C 128.421875 172.363281 126.085938 168.742188 122.722656 168.742188 Z M 122.644531 169.410156 C 124.800781 169.410156 125.957031 172.3125 125.957031 177.679688 C 125.957031 183.046875 124.828125 185.792969 122.617188 185.792969 C 120.410156 185.792969 119.28125 183.046875 119.28125 177.703125 C 119.28125 172.234375 120.4375 169.410156 122.644531 169.410156 "/>
<path style=" stroke:none;fill-rule:nonzero;fill:rgb(0%,0%,0%);fill-opacity:1;" d="M 132.210938 183.53125 C 131.4375 183.53125 130.796875 184.175781 130.796875 184.996094 C 130.796875 185.742188 131.4375 186.382812 132.183594 186.382812 C 132.980469 186.382812 133.648438 185.765625 133.648438 184.996094 C 133.648438 184.199219 132.980469 183.53125 132.210938 183.53125 "/>
<path style=" stroke:none;fill-rule:nonzero;fill:rgb(0%,0%,0%);fill-opacity:1;" d="M 142.84375 176.574219 C 145.386719 175.214844 146.285156 174.136719 146.285156 172.390625 C 146.285156 170.257812 144.464844 168.742188 141.871094 168.742188 C 139.070312 168.742188 136.992188 170.464844 136.992188 172.800781 C 136.992188 174.46875 137.480469 175.214844 140.175781 177.578125 C 137.378906 179.707031 136.839844 180.453125 136.839844 182.222656 C 136.839844 184.738281 138.839844 186.460938 141.765625 186.460938 C 144.847656 186.460938 146.824219 184.765625 146.824219 182.121094 C 146.824219 180.117188 145.953125 178.910156 142.84375 176.574219 Z M 142.382812 179.21875 C 144.257812 180.554688 144.871094 181.476562 144.871094 182.914062 C 144.871094 184.585938 143.71875 185.742188 142.050781 185.742188 C 140.097656 185.742188 138.789062 184.253906 138.789062 182.042969 C 138.789062 180.375 139.328125 179.320312 140.84375 178.089844 Z M 142.101562 176.113281 C 139.816406 174.621094 138.890625 173.441406 138.890625 172.003906 C 138.890625 170.515625 140.046875 169.460938 141.664062 169.460938 C 143.410156 169.460938 144.515625 170.59375 144.515625 172.363281 C 144.515625 173.929688 143.847656 174.984375 142.101562 176.113281 "/>
<path style=" stroke:none;fill-rule:nonzero;fill:rgb(0%,0%,0%);fill-opacity:1;" d="M 139.828125 100.601562 L 146.914062 100.601562 L 146.914062 100.214844 C 144.9375 100.214844 144.503906 99.933594 144.476562 98.699219 L 144.476562 83.296875 L 144.273438 83.242188 L 139.648438 85.578125 L 139.648438 85.9375 C 140.652344 85.554688 141.265625 85.375 141.496094 85.375 C 142.039062 85.375 142.269531 85.757812 142.269531 86.582031 L 142.269531 98.210938 C 142.21875 99.828125 141.78125 100.1875 139.828125 100.214844 L 139.828125 100.601562 "/>
<path style=" stroke:none;fill-rule:nonzero;fill:rgb(0%,0%,0%);fill-opacity:1;" d="M 108.882812 385.902344 C 108.804688 388.828125 107.675781 390.882812 104.980469 392.960938 C 104.644531 391.21875 104.210938 390.292969 103.183594 389.109375 C 101.488281 387.210938 99.152344 386.234375 96.300781 386.234375 C 91.117188 386.234375 87.445312 389.726562 87.445312 394.632812 C 87.445312 399.535156 91.140625 403.027344 96.351562 403.027344 C 98.867188 403.027344 100.976562 402.257812 102.617188 400.742188 C 103.695312 399.742188 104.210938 398.917969 104.824219 397.097656 L 106.238281 395.890625 C 108.292969 394.144531 109.371094 391.035156 109.371094 386.929688 C 109.371094 386.59375 109.371094 386.3125 109.34375 386.054688 L 109.34375 385.902344 Z M 88.367188 394.554688 C 88.367188 393.449219 88.855469 392.269531 89.652344 391.371094 C 90.882812 389.984375 93.347656 389.160156 96.25 389.160156 C 98.792969 389.160156 101.410156 389.90625 102.59375 390.933594 C 103.644531 391.882812 104.234375 393.21875 104.234375 394.632812 C 104.234375 395.863281 103.796875 396.992188 102.976562 397.945312 C 101.769531 399.277344 99.226562 400.101562 96.199219 400.101562 C 93.734375 400.101562 91.21875 399.355469 90.039062 398.304688 C 88.90625 397.277344 88.367188 396.042969 88.367188 394.554688 "/>
<path style=" stroke:none;fill-rule:nonzero;fill:rgb(0%,0%,0%);fill-opacity:1;" d="M 103.515625 372.871094 L 103.515625 372.996094 C 103.464844 374.257812 103.257812 374.4375 102.054688 374.460938 L 93.246094 374.460938 L 93.246094 378.519531 L 93.683594 378.519531 C 93.757812 376.925781 94.015625 376.617188 95.300781 376.617188 L 101.335938 376.617188 C 102.054688 376.617188 102.414062 376.746094 102.695312 377.109375 C 103.257812 377.800781 103.566406 378.597656 103.566406 379.367188 C 103.566406 380.367188 102.695312 381.1875 101.617188 381.1875 L 93.246094 381.1875 L 93.246094 384.9375 L 93.605469 384.9375 C 93.65625 383.730469 94.015625 383.371094 95.25 383.34375 L 101.71875 383.34375 C 103.746094 383.34375 105.054688 382.113281 105.054688 380.238281 C 105.054688 379.289062 104.644531 378.285156 103.953125 377.59375 L 102.847656 376.492188 L 104.980469 376.492188 L 105.03125 376.386719 C 104.515625 375.105469 104.234375 374.179688 103.875 372.871094 L 103.515625 372.871094 "/>
<path style=" stroke:none;fill-rule:nonzero;fill:rgb(0%,0%,0%);fill-opacity:1;" d="M 100.589844 361.871094 C 102.539062 363.101562 103.285156 364.207031 103.285156 365.851562 C 103.285156 367.3125 102.539062 368.417969 101.078125 369.160156 C 100.101562 369.625 99.28125 369.804688 97.6875 369.855469 L 97.6875 361.945312 C 96.019531 362.152344 95.273438 362.410156 94.453125 363.050781 C 93.527344 363.820312 92.988281 365.003906 92.988281 366.335938 C 92.988281 367.621094 93.453125 368.828125 94.324219 369.804688 C 95.375 371.011719 97.199219 371.703125 99.304688 371.703125 C 102.847656 371.703125 105.054688 369.855469 105.054688 366.902344 C 105.054688 364.4375 103.542969 362.535156 100.769531 361.460938 Z M 96.867188 369.804688 C 94.835938 369.523438 93.914062 368.648438 93.914062 367.082031 C 93.914062 365.515625 94.632812 364.898438 96.867188 364.566406 L 96.867188 369.804688 "/>
<path style=" stroke:none;fill-rule:nonzero;fill:rgb(0%,0%,0%);fill-opacity:1;" d="M 104.800781 360.636719 L 104.800781 355.195312 L 104.414062 355.195312 C 104.339844 356.476562 104.003906 356.890625 103.078125 356.890625 L 95.867188 356.890625 C 94.710938 355.683594 94.402344 355.09375 94.402344 354.246094 C 94.402344 352.988281 95.195312 352.371094 96.890625 352.371094 L 102.257812 352.371094 C 103.925781 352.421875 104.339844 352.730469 104.414062 353.988281 L 104.800781 353.988281 L 104.800781 348.648438 L 104.414062 348.648438 C 104.285156 349.90625 103.976562 350.1875 102.71875 350.214844 L 96.839844 350.214844 C 94.429688 350.214844 92.988281 351.34375 92.988281 353.242188 C 92.988281 354.425781 93.425781 355.21875 95.070312 356.964844 L 93.039062 356.964844 L 92.988281 357.144531 C 93.453125 358.40625 93.734375 359.277344 94.144531 360.6875 L 94.582031 360.6875 C 94.503906 360.535156 94.476562 360.277344 94.476562 359.996094 C 94.476562 359.277344 94.863281 359.046875 96.121094 359.046875 L 102.488281 359.046875 C 104.003906 359.070312 104.339844 359.355469 104.414062 360.636719 L 104.800781 360.636719 "/>
<path style=" stroke:none;fill-rule:nonzero;fill:rgb(0%,0%,0%);fill-opacity:1;" d="M 100.796875 337.980469 C 102.59375 339.214844 103.207031 340.136719 103.207031 341.601562 C 103.207031 343.964844 101.15625 345.582031 98.203125 345.582031 C 95.53125 345.582031 93.734375 344.167969 93.734375 342.089844 C 93.734375 341.164062 94.015625 340.832031 94.96875 340.574219 L 95.53125 340.421875 C 96.277344 340.214844 96.710938 339.753906 96.710938 339.1875 C 96.710938 338.519531 96.226562 337.980469 95.632812 337.980469 C 94.195312 337.980469 92.988281 339.777344 92.988281 341.9375 C 92.988281 343.195312 93.503906 344.503906 94.429688 345.554688 C 95.558594 346.839844 97.304688 347.558594 99.355469 347.558594 C 102.667969 347.558594 105.054688 345.53125 105.054688 342.679688 C 105.054688 341.523438 104.644531 340.496094 103.851562 339.574219 C 103.257812 338.878906 102.539062 338.390625 101.027344 337.621094 L 100.796875 337.980469 "/>
<path style=" stroke:none;fill-rule:nonzero;fill:rgb(0%,0%,0%);fill-opacity:1;" d="M 104.414062 324.296875 C 104.183594 325.683594 104.003906 325.8125 102.179688 325.835938 L 97.070312 325.835938 C 94.375 325.835938 92.988281 326.890625 92.988281 328.996094 C 92.988281 330.507812 93.605469 331.585938 95.148438 332.769531 L 87.339844 332.769531 L 87.265625 332.898438 C 87.570312 333.769531 87.777344 334.410156 88.1875 335.851562 L 88.394531 336.542969 L 88.804688 336.542969 C 88.78125 336.441406 88.78125 336.363281 88.78125 336.234375 C 88.78125 335.132812 88.984375 334.925781 90.089844 334.925781 L 102.179688 334.925781 C 104.03125 334.976562 104.234375 335.105469 104.414062 336.570312 L 104.800781 336.570312 L 104.800781 331.023438 L 104.414062 331.023438 C 104.285156 332.511719 104.003906 332.71875 102.179688 332.769531 L 95.992188 332.769531 C 94.8125 331.691406 94.375 330.921875 94.375 329.917969 C 94.375 328.636719 95.300781 327.992188 97.097656 327.992188 L 102.179688 327.992188 C 104.003906 328.046875 104.285156 328.277344 104.414062 329.738281 L 104.800781 329.738281 L 104.800781 324.296875 L 104.414062 324.296875 "/>
<path style=" stroke:none;fill-rule:nonzero;fill:rgb(0%,0%,0%);fill-opacity:1;" d="M 100.589844 313.371094 C 102.539062 314.601562 103.285156 315.707031 103.285156 317.351562 C 103.285156 318.8125 102.539062 319.917969 101.078125 320.660156 C 100.101562 321.125 99.28125 321.304688 97.6875 321.355469 L 97.6875 313.445312 C 96.019531 313.652344 95.273438 313.910156 94.453125 314.550781 C 93.527344 315.320312 92.988281 316.503906 92.988281 317.835938 C 92.988281 319.121094 93.453125 320.328125 94.324219 321.304688 C 95.375 322.511719 97.199219 323.203125 99.304688 323.203125 C 102.847656 323.203125 105.054688 321.355469 105.054688 318.402344 C 105.054688 315.9375 103.542969 314.035156 100.769531 312.960938 Z M 96.867188 321.304688 C 94.835938 321.023438 93.914062 320.148438 93.914062 318.582031 C 93.914062 317.015625 94.632812 316.398438 96.867188 316.066406 L 96.867188 321.304688 "/>
<path style=" stroke:none;fill-rule:nonzero;fill:rgb(0%,0%,0%);fill-opacity:1;" d="M 103.3125 299.992188 C 103.335938 300.328125 103.335938 300.480469 103.335938 300.585938 C 103.335938 301.507812 103.054688 301.714844 101.871094 301.714844 L 87.316406 301.714844 L 87.265625 301.84375 C 87.699219 303.074219 87.957031 303.972656 88.394531 305.617188 L 88.804688 305.617188 C 88.78125 305.410156 88.78125 305.257812 88.78125 305.050781 C 88.78125 304.101562 89.035156 303.871094 90.089844 303.871094 L 94.09375 303.871094 C 93.273438 304.847656 92.988281 305.539062 92.988281 306.566406 C 92.988281 309.519531 95.890625 311.90625 99.535156 311.90625 C 102.824219 311.90625 105.054688 310.007812 105.054688 307.15625 C 105.054688 305.71875 104.542969 304.742188 103.335938 303.871094 L 104.980469 303.871094 L 105.054688 303.765625 L 103.722656 299.992188 Z M 102.179688 303.871094 C 102.359375 303.871094 102.667969 304.050781 102.953125 304.308594 C 103.464844 304.742188 103.722656 305.410156 103.722656 306.15625 C 103.722656 308.285156 101.667969 309.699219 98.507812 309.699219 C 95.609375 309.699219 93.707031 308.441406 93.707031 306.488281 C 93.707031 305.101562 94.914062 303.871094 96.277344 303.871094 L 102.179688 303.871094 "/>
<path style=" stroke:none;fill-rule:nonzero;fill:rgb(0%,0%,0%);fill-opacity:1;" d="M 98.867188 281.003906 L 92.914062 281.003906 L 92.914062 281.59375 C 94.941406 281.875 95.300781 282.3125 95.351562 284.417969 L 95.351562 288.140625 L 89.652344 288.140625 C 88.882812 288.113281 88.804688 288.035156 88.78125 287.316406 L 88.78125 283.828125 C 88.828125 280.847656 89.1875 280.335938 91.476562 279.921875 L 91.476562 279.28125 L 87.804688 279.359375 L 87.804688 292.992188 L 88.289062 292.992188 C 88.417969 291.117188 88.753906 290.808594 90.601562 290.757812 L 101.71875 290.757812 C 103.902344 290.785156 104.183594 291.039062 104.3125 292.992188 L 104.800781 292.992188 L 104.800781 285.804688 L 104.3125 285.804688 C 104.234375 287.753906 103.875 288.113281 102.003906 288.140625 L 96.40625 288.140625 L 96.40625 284.417969 C 96.429688 282.3125 96.789062 281.898438 98.867188 281.59375 L 98.867188 281.003906 "/>
<path style=" stroke:none;fill-rule:nonzero;fill:rgb(0%,0%,0%);fill-opacity:1;" d="M 104.800781 278.871094 L 104.800781 272.710938 L 104.414062 272.710938 C 104.363281 274.429688 104.003906 274.839844 102.488281 274.890625 L 96.710938 274.890625 C 95.890625 274.890625 94.609375 273.8125 94.609375 273.09375 C 94.609375 272.941406 94.734375 272.710938 94.992188 272.425781 C 95.375 272.015625 95.507812 271.734375 95.507812 271.398438 C 95.507812 270.785156 95.070312 270.398438 94.351562 270.398438 C 93.503906 270.398438 92.988281 270.9375 92.988281 271.8125 C 92.988281 272.890625 93.554688 273.632812 95.402344 274.890625 L 93.039062 274.890625 L 92.988281 275.019531 C 93.554688 276.382812 93.886719 277.304688 94.375 278.820312 L 94.789062 278.820312 C 94.710938 278.460938 94.683594 278.230469 94.683594 277.921875 C 94.683594 277.28125 95.09375 277.046875 96.226562 277.046875 L 102.644531 277.046875 C 103.976562 277.101562 104.132812 277.253906 104.414062 278.871094 L 104.800781 278.871094 "/>
<path style=" stroke:none;fill-rule:nonzero;fill:rgb(0%,0%,0%);fill-opacity:1;" d="M 103.105469 259.050781 C 103.464844 259.488281 103.59375 259.796875 103.59375 260.179688 C 103.59375 260.773438 103.234375 260.953125 102.105469 260.953125 L 97.097656 260.953125 C 95.761719 260.953125 95.015625 261.078125 94.402344 261.464844 C 93.476562 262.03125 92.988281 263.132812 92.988281 264.648438 C 92.988281 267.0625 94.246094 268.960938 95.867188 268.960938 C 96.457031 268.960938 96.96875 268.476562 96.96875 267.859375 C 96.96875 267.242188 96.457031 266.703125 95.890625 266.703125 C 95.789062 266.703125 95.660156 266.726562 95.480469 266.753906 C 95.25 266.804688 95.042969 266.832031 94.863281 266.832031 C 94.171875 266.832031 93.605469 266.007812 93.605469 264.984375 C 93.605469 263.726562 94.351562 263.03125 95.738281 263.03125 L 97.304688 263.03125 C 98.894531 266.984375 99.101562 267.421875 100.078125 268.523438 C 100.589844 269.089844 101.464844 269.449219 102.308594 269.449219 C 103.925781 269.449219 105.054688 268.320312 105.054688 266.753906 C 105.054688 265.625 104.515625 264.570312 103.183594 263.007812 C 104.542969 262.878906 105.054688 262.414062 105.054688 261.363281 C 105.054688 260.488281 104.746094 259.949219 103.773438 259.050781 Z M 101.640625 263.03125 C 102.414062 263.03125 102.695312 263.160156 103.003906 263.699219 C 103.363281 264.339844 103.566406 265.035156 103.566406 265.574219 C 103.566406 266.472656 102.695312 267.191406 101.589844 267.191406 L 101.488281 267.191406 C 99.945312 267.164062 98.972656 266.035156 97.917969 263.03125 L 101.640625 263.03125 "/>
<path style=" stroke:none;fill-rule:nonzero;fill:rgb(0%,0%,0%);fill-opacity:1;" d="M 100.796875 248.78125 C 102.59375 250.015625 103.207031 250.9375 103.207031 252.402344 C 103.207031 254.765625 101.15625 256.382812 98.203125 256.382812 C 95.53125 256.382812 93.734375 254.96875 93.734375 252.890625 C 93.734375 251.964844 94.015625 251.632812 94.96875 251.375 L 95.53125 251.21875 C 96.277344 251.015625 96.710938 250.554688 96.710938 249.988281 C 96.710938 249.320312 96.226562 248.78125 95.632812 248.78125 C 94.195312 248.78125 92.988281 250.578125 92.988281 252.734375 C 92.988281 253.992188 93.503906 255.304688 94.429688 256.355469 C 95.558594 257.640625 97.304688 258.359375 99.355469 258.359375 C 102.667969 258.359375 105.054688 256.328125 105.054688 253.480469 C 105.054688 252.324219 104.644531 251.296875 103.851562 250.371094 C 103.257812 249.679688 102.539062 249.191406 101.027344 248.421875 L 100.796875 248.78125 "/>
<path style=" stroke:none;fill-rule:nonzero;fill:rgb(0%,0%,0%);fill-opacity:1;" d="M 93.246094 240.949219 L 93.246094 243.542969 L 90.269531 243.542969 C 90.011719 243.542969 89.933594 243.59375 89.933594 243.722656 C 92.089844 245.210938 92.964844 245.984375 93.398438 246.726562 C 93.578125 247.007812 93.734375 247.164062 93.886719 247.164062 C 93.964844 247.164062 94.015625 247.136719 94.066406 247.0625 L 94.066406 245.699219 L 101.796875 245.699219 C 103.953125 245.699219 105.054688 244.929688 105.054688 243.414062 C 105.054688 242.15625 104.441406 241.179688 103.105469 240.335938 L 102.824219 240.667969 C 103.492188 241.234375 103.722656 241.644531 103.722656 242.207031 C 103.722656 243.15625 103.027344 243.542969 101.410156 243.542969 L 94.066406 243.542969 L 94.066406 240.949219 L 93.246094 240.949219 "/>
<path style=" stroke:none;fill-rule:nonzero;fill:rgb(0%,0%,0%);fill-opacity:1;" d="M 104.800781 239.910156 L 104.800781 233.824219 L 104.414062 233.824219 C 104.285156 235.519531 104.054688 235.699219 102.179688 235.726562 L 93.066406 235.726562 L 92.988281 235.828125 L 94.402344 239.804688 L 94.789062 239.804688 L 94.761719 239.601562 C 94.710938 239.292969 94.683594 238.960938 94.683594 238.726562 C 94.683594 238.113281 95.09375 237.882812 96.226562 237.882812 L 102.179688 237.882812 C 104.082031 237.933594 104.339844 238.164062 104.414062 239.910156 Z M 87.265625 237.035156 C 87.265625 237.726562 87.855469 238.316406 88.574219 238.316406 C 89.320312 238.316406 89.882812 237.753906 89.882812 237.035156 C 89.882812 236.265625 89.320312 235.699219 88.574219 235.699219 C 87.828125 235.699219 87.265625 236.289062 87.265625 237.035156 "/>
<path style=" stroke:none;fill-rule:nonzero;fill:rgb(0%,0%,0%);fill-opacity:1;" d="M 92.988281 226.882812 C 92.988281 230.246094 95.453125 232.554688 98.996094 232.554688 C 102.488281 232.554688 105.054688 230.167969 105.054688 226.933594 C 105.054688 223.695312 102.359375 221.234375 98.792969 221.234375 C 95.402344 221.234375 92.988281 223.59375 92.988281 226.882812 Z M 93.707031 227.214844 C 93.707031 225.058594 96.171875 223.542969 99.691406 223.542969 C 102.617188 223.542969 104.339844 224.699219 104.339844 226.625 C 104.339844 227.628906 103.722656 228.578125 102.695312 229.117188 C 101.359375 229.835938 99.5625 230.246094 97.738281 230.246094 C 95.300781 230.246094 93.707031 229.0625 93.707031 227.214844 "/>
<path style=" stroke:none;fill-rule:nonzero;fill:rgb(0%,0%,0%);fill-opacity:1;" d="M 104.800781 220.035156 L 104.800781 214.59375 L 104.414062 214.59375 C 104.339844 215.878906 104.003906 216.289062 103.078125 216.289062 L 95.867188 216.289062 C 94.710938 215.082031 94.402344 214.492188 94.402344 213.644531 C 94.402344 212.386719 95.195312 211.769531 96.890625 211.769531 L 102.257812 211.769531 C 103.925781 211.820312 104.339844 212.128906 104.414062 213.386719 L 104.800781 213.386719 L 104.800781 208.046875 L 104.414062 208.046875 C 104.285156 209.304688 103.976562 209.585938 102.71875 209.613281 L 96.839844 209.613281 C 94.429688 209.613281 92.988281 210.742188 92.988281 212.644531 C 92.988281 213.824219 93.425781 214.621094 95.070312 216.367188 L 93.039062 216.367188 L 92.988281 216.546875 C 93.453125 217.804688 93.734375 218.675781 94.144531 220.089844 L 94.582031 220.089844 C 94.503906 219.933594 94.476562 219.679688 94.476562 219.394531 C 94.476562 218.675781 94.863281 218.445312 96.121094 218.445312 L 102.488281 218.445312 C 104.003906 218.472656 104.339844 218.753906 104.414062 220.035156 L 104.800781 220.035156 "/>
<path style="fill:none;stroke-width:9.18;stroke-linecap:butt;stroke-linejoin:miter;stroke:rgb(0%,0%,0%);stroke-opacity:1;stroke-miterlimit:10;" d="M 1530 918.007812 L 7650 918.007812 L 7650 5201.992188 L 1530 5201.992188 Z M 1530 918.007812 " transform="matrix(0.1,0,0,-0.1,0,612)"/>
<path style=" stroke:none;fill-rule:nonzero;fill:rgb(0%,0%,0%);fill-opacity:1;" d="M 626.277344 434.644531 L 625.738281 434.644531 C 625.632812 435.234375 625.351562 435.515625 624.914062 435.515625 C 624.660156 435.515625 624.222656 435.414062 623.785156 435.210938 C 622.835938 434.851562 621.886719 434.644531 621.039062 434.644531 C 619.960938 434.644531 618.832031 435.078125 617.984375 435.824219 C 617.085938 436.621094 616.621094 437.699219 616.621094 439.035156 C 616.621094 441.085938 617.753906 442.527344 620.628906 444.039062 C 622.476562 445.042969 623.8125 446.070312 624.453125 447.046875 C 624.683594 447.378906 624.8125 447.917969 624.8125 448.558594 C 624.8125 450.253906 623.53125 451.433594 621.65625 451.433594 C 619.34375 451.433594 617.753906 450.023438 616.46875 446.890625 L 615.878906 446.890625 L 616.648438 452.335938 L 617.214844 452.335938 C 617.238281 451.84375 617.546875 451.484375 617.933594 451.484375 C 618.214844 451.484375 618.652344 451.589844 619.140625 451.769531 C 620.113281 452.15625 621.167969 452.359375 622.167969 452.359375 C 625.148438 452.359375 627.40625 450.332031 627.40625 447.6875 C 627.40625 445.582031 625.992188 443.910156 622.605469 442.0625 C 619.910156 440.601562 618.832031 439.46875 618.832031 438.058594 C 618.832031 436.648438 619.910156 435.695312 621.503906 435.695312 C 622.65625 435.695312 623.734375 436.183594 624.632812 437.109375 C 625.429688 437.929688 625.789062 438.597656 626.199219 440.113281 L 626.84375 440.113281 L 626.277344 434.644531 "/>
<path style=" stroke:none;fill-rule:nonzero;fill:rgb(0%,0%,0%);fill-opacity:1;" d="M 640.449219 450.304688 C 640.011719 450.664062 639.703125 450.792969 639.320312 450.792969 C 638.726562 450.792969 638.546875 450.433594 638.546875 449.304688 L 638.546875 444.296875 C 638.546875 442.960938 638.421875 442.21875 638.035156 441.601562 C 637.46875 440.679688 636.367188 440.1875 634.851562 440.1875 C 632.4375 440.1875 630.539062 441.445312 630.539062 443.066406 C 630.539062 443.65625 631.023438 444.167969 631.640625 444.167969 C 632.257812 444.167969 632.796875 443.65625 632.796875 443.089844 C 632.796875 442.988281 632.773438 442.859375 632.746094 442.679688 C 632.695312 442.449219 632.667969 442.242188 632.667969 442.0625 C 632.667969 441.371094 633.492188 440.804688 634.515625 440.804688 C 635.773438 440.804688 636.46875 441.550781 636.46875 442.9375 L 636.46875 444.503906 C 632.515625 446.09375 632.078125 446.300781 630.976562 447.277344 C 630.410156 447.789062 630.050781 448.660156 630.050781 449.507812 C 630.050781 451.128906 631.179688 452.257812 632.746094 452.257812 C 633.875 452.257812 634.929688 451.71875 636.492188 450.382812 C 636.621094 451.742188 637.085938 452.257812 638.136719 452.257812 C 639.011719 452.257812 639.550781 451.949219 640.449219 450.972656 Z M 636.46875 448.84375 C 636.46875 449.613281 636.339844 449.894531 635.800781 450.203125 C 635.160156 450.5625 634.464844 450.765625 633.925781 450.765625 C 633.027344 450.765625 632.308594 449.894531 632.308594 448.789062 L 632.308594 448.6875 C 632.335938 447.148438 633.464844 446.171875 636.46875 445.117188 L 636.46875 448.84375 "/>
<path style=" stroke:none;fill-rule:nonzero;fill:rgb(0%,0%,0%);fill-opacity:1;" d="M 647.148438 440.445312 L 644.554688 440.445312 L 644.554688 437.46875 C 644.554688 437.210938 644.503906 437.132812 644.378906 437.132812 C 642.886719 439.289062 642.117188 440.164062 641.371094 440.601562 C 641.089844 440.78125 640.9375 440.933594 640.9375 441.085938 C 640.9375 441.164062 640.964844 441.21875 641.039062 441.265625 L 642.398438 441.265625 L 642.398438 448.996094 C 642.398438 451.152344 643.171875 452.257812 644.683594 452.257812 C 645.945312 452.257812 646.917969 451.640625 647.765625 450.304688 L 647.433594 450.023438 C 646.867188 450.691406 646.457031 450.921875 645.890625 450.921875 C 644.941406 450.921875 644.554688 450.226562 644.554688 448.609375 L 644.554688 441.265625 L 647.148438 441.265625 L 647.148438 440.445312 "/>
<path style=" stroke:none;fill-rule:nonzero;fill:rgb(0%,0%,0%);fill-opacity:1;" d="M 658.328125 447.789062 C 657.097656 449.742188 655.992188 450.484375 654.351562 450.484375 C 652.886719 450.484375 651.78125 449.742188 651.039062 448.277344 C 650.574219 447.300781 650.394531 446.480469 650.34375 444.886719 L 658.253906 444.886719 C 658.046875 443.21875 657.789062 442.476562 657.148438 441.652344 C 656.378906 440.726562 655.195312 440.1875 653.863281 440.1875 C 652.578125 440.1875 651.371094 440.652344 650.394531 441.523438 C 649.1875 442.578125 648.496094 444.398438 648.496094 446.507812 C 648.496094 450.046875 650.34375 452.257812 653.296875 452.257812 C 655.761719 452.257812 657.664062 450.742188 658.742188 447.96875 Z M 650.394531 444.066406 C 650.679688 442.035156 651.550781 441.113281 653.117188 441.113281 C 654.683594 441.113281 655.300781 441.832031 655.632812 444.066406 L 650.394531 444.066406 "/>
<path style=" stroke:none;fill-rule:nonzero;fill:rgb(0%,0%,0%);fill-opacity:1;" d="M 659.640625 452 L 665.699219 452 L 665.699219 451.617188 C 664.082031 451.535156 663.796875 451.28125 663.773438 449.84375 L 663.773438 434.515625 L 663.671875 434.464844 C 662.335938 434.898438 661.359375 435.15625 659.589844 435.59375 L 659.589844 436.003906 L 659.742188 436.003906 C 660.023438 435.980469 660.332031 435.953125 660.539062 435.953125 C 661.359375 435.953125 661.617188 436.3125 661.617188 437.519531 L 661.617188 449.765625 C 661.589844 451.152344 661.230469 451.511719 659.640625 451.617188 L 659.640625 452 "/>
<path style=" stroke:none;fill-rule:nonzero;fill:rgb(0%,0%,0%);fill-opacity:1;" d="M 666.738281 452 L 672.796875 452 L 672.796875 451.617188 C 671.179688 451.535156 670.898438 451.28125 670.871094 449.84375 L 670.871094 434.515625 L 670.769531 434.464844 C 669.433594 434.898438 668.460938 435.15625 666.6875 435.59375 L 666.6875 436.003906 L 666.84375 436.003906 C 667.125 435.980469 667.433594 435.953125 667.636719 435.953125 C 668.460938 435.953125 668.714844 436.3125 668.714844 437.519531 L 668.714844 449.765625 C 668.691406 451.152344 668.332031 451.511719 666.738281 451.617188 L 666.738281 452 "/>
<path style=" stroke:none;fill-rule:nonzero;fill:rgb(0%,0%,0%);fill-opacity:1;" d="M 673.992188 452 L 680.074219 452 L 680.074219 451.617188 C 678.382812 451.484375 678.203125 451.253906 678.175781 449.382812 L 678.175781 440.265625 L 678.074219 440.1875 L 674.09375 441.601562 L 674.09375 441.988281 L 674.296875 441.960938 C 674.605469 441.910156 674.941406 441.882812 675.171875 441.882812 C 675.789062 441.882812 676.019531 442.296875 676.019531 443.425781 L 676.019531 449.382812 C 675.96875 451.28125 675.734375 451.535156 673.992188 451.617188 Z M 676.867188 434.464844 C 676.171875 434.464844 675.582031 435.054688 675.582031 435.773438 C 675.582031 436.519531 676.148438 437.082031 676.867188 437.082031 C 677.636719 437.082031 678.203125 436.519531 678.203125 435.773438 C 678.203125 435.03125 677.609375 434.464844 676.867188 434.464844 "/>
<path style=" stroke:none;fill-rule:nonzero;fill:rgb(0%,0%,0%);fill-opacity:1;" d="M 687.148438 440.445312 L 684.554688 440.445312 L 684.554688 437.46875 C 684.554688 437.210938 684.503906 437.132812 684.378906 437.132812 C 682.886719 439.289062 682.117188 440.164062 681.371094 440.601562 C 681.089844 440.78125 680.9375 440.933594 680.9375 441.085938 C 680.9375 441.164062 680.964844 441.21875 681.039062 441.265625 L 682.398438 441.265625 L 682.398438 448.996094 C 682.398438 451.152344 683.171875 452.257812 684.683594 452.257812 C 685.945312 452.257812 686.917969 451.640625 687.765625 450.304688 L 687.433594 450.023438 C 686.867188 450.691406 686.457031 450.921875 685.890625 450.921875 C 684.941406 450.921875 684.554688 450.226562 684.554688 448.609375 L 684.554688 441.265625 L 687.148438 441.265625 L 687.148438 440.445312 "/>
<path style=" stroke:none;fill-rule:nonzero;fill:rgb(0%,0%,0%);fill-opacity:1;" d="M 698.328125 447.789062 C 697.097656 449.742188 695.992188 450.484375 694.351562 450.484375 C 692.886719 450.484375 691.78125 449.742188 691.039062 448.277344 C 690.574219 447.300781 690.394531 446.480469 690.34375 444.886719 L 698.253906 444.886719 C 698.046875 443.21875 697.789062 442.476562 697.148438 441.652344 C 696.378906 440.726562 695.195312 440.1875 693.863281 440.1875 C 692.578125 440.1875 691.371094 440.652344 690.394531 441.523438 C 689.1875 442.578125 688.496094 444.398438 688.496094 446.507812 C 688.496094 450.046875 690.34375 452.257812 693.296875 452.257812 C 695.761719 452.257812 697.664062 450.742188 698.742188 447.96875 Z M 690.394531 444.066406 C 690.679688 442.035156 691.550781 441.113281 693.117188 441.113281 C 694.683594 441.113281 695.300781 441.832031 695.632812 444.066406 L 690.394531 444.066406 "/>
<path style=" stroke:none;fill-rule:nonzero;fill:rgb(0%,0%,0%);fill-opacity:1;" d="M 707.1875 443.9375 L 707.085938 440.421875 L 706.804688 440.421875 C 706.648438 440.628906 706.519531 440.703125 706.390625 440.703125 C 706.238281 440.703125 705.980469 440.652344 705.699219 440.523438 C 705.109375 440.316406 704.515625 440.1875 703.902344 440.1875 C 701.871094 440.1875 700.410156 441.523438 700.410156 443.371094 C 700.410156 444.8125 701.230469 445.835938 703.414062 447.070312 L 704.902344 447.917969 C 705.800781 448.429688 706.238281 449.046875 706.238281 449.84375 C 706.238281 450.972656 705.414062 451.691406 704.105469 451.691406 C 702.335938 451.691406 701.4375 450.714844 700.84375 448.097656 L 700.433594 448.097656 L 700.433594 452.101562 L 700.769531 452.101562 C 700.949219 451.84375 701.050781 451.796875 701.359375 451.796875 C 701.640625 451.796875 701.949219 451.84375 702.539062 452 C 703.234375 452.15625 703.902344 452.257812 704.414062 452.257812 C 706.417969 452.257812 708.035156 450.765625 708.035156 448.96875 C 708.035156 447.6875 707.445312 446.839844 705.878906 445.914062 L 703.105469 444.273438 C 702.386719 443.859375 702.003906 443.21875 702.003906 442.527344 C 702.003906 441.472656 702.796875 440.78125 703.976562 440.78125 C 705.441406 440.78125 706.214844 441.628906 706.804688 443.9375 L 707.1875 443.9375 "/>
<path style="fill:none;stroke-width:36.72;stroke-linecap:butt;stroke-linejoin:miter;stroke:rgb(100%,0%,0%);stroke-opacity:1;stroke-miterlimit:10;" d="M 5587.578125 1686.054688 L 6077.148438 1686.054688 " transform="matrix(0.1,0,0,-0.1,0,612)"/>
<path style=" stroke:none;fill-rule:nonzero;fill:rgb(0%,0%,0%);fill-opacity:1;" d="M 630.71875 464.320312 L 630.488281 458.542969 L 629.949219 458.542969 C 629.792969 459.082031 629.382812 459.390625 628.871094 459.390625 C 628.640625 459.390625 628.253906 459.3125 627.867188 459.1875 C 626.609375 458.75 625.328125 458.542969 624.121094 458.542969 C 622.015625 458.542969 619.910156 459.339844 618.292969 460.753906 C 616.496094 462.34375 615.519531 464.707031 615.519531 467.53125 C 615.519531 472.765625 618.933594 476.257812 624.042969 476.257812 C 626.945312 476.257812 629.511719 475.078125 631.050781 472.996094 L 630.589844 472.535156 C 628.691406 474.359375 626.996094 475.128906 624.863281 475.128906 C 623.246094 475.128906 621.808594 474.617188 620.703125 473.640625 C 619.292969 472.382812 618.496094 470.070312 618.496094 467.222656 C 618.496094 462.546875 620.882812 459.570312 624.609375 459.570312 C 626.070312 459.570312 627.40625 460.109375 628.433594 461.109375 C 629.253906 461.933594 629.640625 462.652344 630.128906 464.320312 L 630.71875 464.320312 "/>
<path style=" stroke:none;fill-rule:nonzero;fill:rgb(0%,0%,0%);fill-opacity:1;" d="M 642.628906 471.6875 C 641.398438 473.640625 640.292969 474.386719 638.648438 474.386719 C 637.1875 474.386719 636.082031 473.640625 635.339844 472.175781 C 634.875 471.203125 634.695312 470.378906 634.644531 468.785156 L 642.554688 468.785156 C 642.347656 467.117188 642.089844 466.375 641.449219 465.554688 C 640.679688 464.628906 639.496094 464.089844 638.164062 464.089844 C 636.878906 464.089844 635.671875 464.550781 634.695312 465.425781 C 633.488281 466.476562 632.796875 468.300781 632.796875 470.40625 C 632.796875 473.949219 634.644531 476.15625 637.597656 476.15625 C 640.0625 476.15625 641.964844 474.640625 643.039062 471.867188 Z M 634.695312 467.96875 C 634.976562 465.9375 635.851562 465.015625 637.417969 465.015625 C 638.984375 465.015625 639.601562 465.734375 639.933594 467.96875 L 634.695312 467.96875 "/>
<path style=" stroke:none;fill-rule:nonzero;fill:rgb(0%,0%,0%);fill-opacity:1;" d="M 643.863281 475.898438 L 649.304688 475.898438 L 649.304688 475.515625 C 648.023438 475.4375 647.609375 475.105469 647.609375 474.179688 L 647.609375 466.964844 C 648.816406 465.808594 649.40625 465.503906 650.253906 465.503906 C 651.511719 465.503906 652.128906 466.296875 652.128906 467.992188 L 652.128906 473.359375 C 652.078125 475.027344 651.769531 475.4375 650.511719 475.515625 L 650.511719 475.898438 L 655.851562 475.898438 L 655.851562 475.515625 C 654.59375 475.386719 654.3125 475.078125 654.285156 473.820312 L 654.285156 467.941406 C 654.285156 465.527344 653.15625 464.089844 651.257812 464.089844 C 650.074219 464.089844 649.28125 464.527344 647.535156 466.167969 L 647.535156 464.140625 L 647.355469 464.089844 C 646.09375 464.550781 645.222656 464.835938 643.8125 465.246094 L 643.8125 465.679688 C 643.964844 465.605469 644.222656 465.578125 644.503906 465.578125 C 645.222656 465.578125 645.453125 465.964844 645.453125 467.222656 L 645.453125 473.589844 C 645.429688 475.105469 645.144531 475.4375 643.863281 475.515625 L 643.863281 475.898438 "/>
<path style=" stroke:none;fill-rule:nonzero;fill:rgb(0%,0%,0%);fill-opacity:1;" d="M 662.851562 464.347656 L 660.257812 464.347656 L 660.257812 461.367188 C 660.257812 461.109375 660.203125 461.035156 660.078125 461.035156 C 658.589844 463.191406 657.816406 464.0625 657.074219 464.5 C 656.789062 464.679688 656.636719 464.835938 656.636719 464.988281 C 656.636719 465.066406 656.664062 465.117188 656.738281 465.167969 L 658.101562 465.167969 L 658.101562 472.894531 C 658.101562 475.054688 658.871094 476.15625 660.382812 476.15625 C 661.644531 476.15625 662.617188 475.539062 663.464844 474.203125 L 663.132812 473.921875 C 662.566406 474.589844 662.15625 474.820312 661.59375 474.820312 C 660.640625 474.820312 660.257812 474.128906 660.257812 472.511719 L 660.257812 465.167969 L 662.851562 465.167969 L 662.851562 464.347656 "/>
<path style=" stroke:none;fill-rule:nonzero;fill:rgb(0%,0%,0%);fill-opacity:1;" d="M 663.527344 475.898438 L 669.691406 475.898438 L 669.691406 475.515625 C 667.96875 475.464844 667.558594 475.105469 667.507812 473.589844 L 667.507812 467.8125 C 667.507812 466.992188 668.585938 465.707031 669.304688 465.707031 C 669.460938 465.707031 669.691406 465.835938 669.972656 466.09375 C 670.382812 466.476562 670.664062 466.605469 671 466.605469 C 671.617188 466.605469 672.003906 466.167969 672.003906 465.449219 C 672.003906 464.601562 671.464844 464.089844 670.589844 464.089844 C 669.511719 464.089844 668.765625 464.65625 667.507812 466.503906 L 667.507812 464.140625 L 667.378906 464.089844 C 666.019531 464.65625 665.09375 464.988281 663.578125 465.476562 L 663.578125 465.886719 C 663.9375 465.808594 664.171875 465.785156 664.476562 465.785156 C 665.121094 465.785156 665.351562 466.195312 665.351562 467.324219 L 665.351562 473.742188 C 665.300781 475.078125 665.144531 475.234375 663.527344 475.515625 L 663.527344 475.898438 "/>
<path style=" stroke:none;fill-rule:nonzero;fill:rgb(0%,0%,0%);fill-opacity:1;" d="M 683.246094 474.203125 C 682.8125 474.566406 682.503906 474.695312 682.117188 474.695312 C 681.527344 474.695312 681.347656 474.335938 681.347656 473.203125 L 681.347656 468.195312 C 681.347656 466.863281 681.21875 466.117188 680.835938 465.503906 C 680.269531 464.578125 679.164062 464.089844 677.652344 464.089844 C 675.238281 464.089844 673.339844 465.347656 673.339844 466.964844 C 673.339844 467.554688 673.824219 468.070312 674.441406 468.070312 C 675.058594 468.070312 675.597656 467.554688 675.597656 466.992188 C 675.597656 466.886719 675.570312 466.757812 675.546875 466.578125 C 675.492188 466.347656 675.46875 466.144531 675.46875 465.964844 C 675.46875 465.269531 676.289062 464.707031 677.316406 464.707031 C 678.574219 464.707031 679.269531 465.449219 679.269531 466.835938 L 679.269531 468.402344 C 675.3125 469.996094 674.878906 470.199219 673.773438 471.175781 C 673.210938 471.6875 672.851562 472.5625 672.851562 473.410156 C 672.851562 475.027344 673.980469 476.15625 675.546875 476.15625 C 676.675781 476.15625 677.726562 475.617188 679.292969 474.28125 C 679.421875 475.644531 679.882812 476.15625 680.9375 476.15625 C 681.8125 476.15625 682.351562 475.847656 683.246094 474.871094 Z M 679.269531 472.742188 C 679.269531 473.511719 679.140625 473.796875 678.601562 474.101562 C 677.960938 474.460938 677.265625 474.667969 676.726562 474.667969 C 675.828125 474.667969 675.109375 473.796875 675.109375 472.691406 L 675.109375 472.585938 C 675.132812 471.046875 676.265625 470.070312 679.269531 469.019531 L 679.269531 472.742188 "/>
<path style=" stroke:none;fill-rule:nonzero;fill:rgb(0%,0%,0%);fill-opacity:1;" d="M 683.839844 475.898438 L 689.898438 475.898438 L 689.898438 475.515625 C 688.28125 475.4375 687.996094 475.179688 687.972656 473.742188 L 687.972656 458.414062 L 687.871094 458.363281 C 686.535156 458.800781 685.558594 459.058594 683.789062 459.492188 L 683.789062 459.90625 L 683.941406 459.90625 C 684.226562 459.878906 684.53125 459.851562 684.738281 459.851562 C 685.558594 459.851562 685.816406 460.210938 685.816406 461.417969 L 685.816406 473.664062 C 685.789062 475.054688 685.429688 475.410156 683.839844 475.515625 L 683.839844 475.898438 "/>
<path style=" stroke:none;fill-rule:nonzero;fill:rgb(0%,0%,0%);fill-opacity:1;" d="M 698.589844 467.835938 L 698.484375 464.320312 L 698.203125 464.320312 C 698.046875 464.527344 697.921875 464.601562 697.792969 464.601562 C 697.636719 464.601562 697.382812 464.550781 697.097656 464.421875 C 696.507812 464.21875 695.917969 464.089844 695.300781 464.089844 C 693.273438 464.089844 691.808594 465.425781 691.808594 467.273438 C 691.808594 468.710938 692.632812 469.738281 694.8125 470.96875 L 696.304688 471.816406 C 697.203125 472.332031 697.636719 472.945312 697.636719 473.742188 C 697.636719 474.871094 696.816406 475.59375 695.507812 475.59375 C 693.734375 475.59375 692.835938 474.617188 692.246094 471.996094 L 691.835938 471.996094 L 691.835938 476.003906 L 692.167969 476.003906 C 692.347656 475.746094 692.453125 475.695312 692.757812 475.695312 C 693.042969 475.695312 693.351562 475.746094 693.941406 475.898438 C 694.632812 476.054688 695.300781 476.15625 695.8125 476.15625 C 697.816406 476.15625 699.433594 474.667969 699.433594 472.871094 C 699.433594 471.585938 698.84375 470.738281 697.277344 469.816406 L 694.503906 468.171875 C 693.785156 467.761719 693.402344 467.117188 693.402344 466.425781 C 693.402344 465.371094 694.195312 464.679688 695.378906 464.679688 C 696.84375 464.679688 697.613281 465.527344 698.203125 467.835938 L 698.589844 467.835938 "/>
<path style="fill:none;stroke-width:36.72;stroke-linecap:butt;stroke-linejoin:miter;stroke:rgb(0%,0%,100%);stroke-opacity:1;stroke-miterlimit:10;" d="M 5587.578125 1447.382812 L 6077.148438 1447.382812 " transform="matrix(0.1,0,0,-0.1,0,612)"/>
<path style=" stroke:none;fill-rule:nonzero;fill:rgb(0%,0%,0%);fill-opacity:1;" d="M 194.332031 118.933594 L 193.871094 118.832031 C 193.40625 121.246094 193.046875 121.554688 190.582031 121.628906 L 187.039062 121.628906 L 193.945312 111.230469 L 193.945312 110.847656 L 185.039062 110.847656 L 184.960938 113.878906 L 185.421875 113.878906 C 185.628906 112.054688 185.988281 111.667969 187.578125 111.617188 L 191.121094 111.617188 L 184.292969 122.015625 L 184.292969 122.398438 L 193.972656 122.398438 L 194.332031 118.933594 "/>
<path style=" stroke:none;fill-rule:nonzero;fill:rgb(0%,0%,0%);fill-opacity:1;" d="M 214.957031 111.28125 L 202.351562 111.28125 L 202.351562 112.644531 L 214.957031 112.644531 Z M 214.957031 116.417969 L 202.351562 116.417969 L 202.351562 117.777344 L 214.957031 117.777344 L 214.957031 116.417969 "/>
<path style=" stroke:none;fill-rule:nonzero;fill:rgb(0%,0%,0%);fill-opacity:1;" d="M 228.921875 105.042969 C 227.507812 105.042969 226.429688 105.453125 225.480469 106.378906 C 223.992188 107.816406 223.015625 110.769531 223.015625 113.773438 C 223.015625 116.597656 223.863281 119.574219 225.070312 121.015625 C 226.019531 122.144531 227.328125 122.757812 228.820312 122.757812 C 230.128906 122.757812 231.234375 122.324219 232.15625 121.425781 C 233.644531 120.011719 234.621094 117.035156 234.621094 113.925781 C 234.621094 108.664062 232.285156 105.042969 228.921875 105.042969 Z M 228.84375 105.710938 C 231.003906 105.710938 232.15625 108.613281 232.15625 113.976562 C 232.15625 119.34375 231.027344 122.09375 228.820312 122.09375 C 226.609375 122.09375 225.480469 119.34375 225.480469 114.003906 C 225.480469 108.535156 226.636719 105.710938 228.84375 105.710938 "/>
<path style=" stroke:none;fill-rule:nonzero;fill:rgb(0%,0%,0%);fill-opacity:1;" d="M 238.410156 119.832031 C 237.640625 119.832031 236.996094 120.476562 236.996094 121.296875 C 236.996094 122.039062 237.640625 122.683594 238.382812 122.683594 C 239.179688 122.683594 239.847656 122.066406 239.847656 121.296875 C 239.847656 120.5 239.179688 119.832031 238.410156 119.832031 "/>
<path style=" stroke:none;fill-rule:nonzero;fill:rgb(0%,0%,0%);fill-opacity:1;" d="M 244.628906 122.398438 L 251.714844 122.398438 L 251.714844 122.015625 C 249.738281 122.015625 249.304688 121.734375 249.277344 120.5 L 249.277344 105.09375 L 249.070312 105.042969 L 244.449219 107.378906 L 244.449219 107.738281 C 245.453125 107.355469 246.066406 107.175781 246.296875 107.175781 C 246.839844 107.175781 247.070312 107.558594 247.070312 108.382812 L 247.070312 120.011719 C 247.015625 121.628906 246.582031 121.988281 244.628906 122.015625 L 244.628906 122.398438 "/>
</g>
</svg>
