<?xml version="1.0" encoding="UTF-8"?>
<svg xmlns="http://www.w3.org/2000/svg" xmlns:xlink="http://www.w3.org/1999/xlink" width="792pt" height="612pt" viewBox="0 0 792 612" version="1.2">
<g id="surface1">
<path style=" stroke:none;fill-rule:nonzero;fill:rgb(100%,100%,100%);fill-opacity:1;" d="M 153 520.199219 L 765 520.199219 L 765 91.800781 L 153 91.800781 Z M 153 520.199219 "/>
<path style=" stroke:none;fill-rule:nonzero;fill:rgb(61.3082588352026%,61.3082588352026%,61.3082588352026%);fill-opacity:0.7;" d="M 192.902344 91.800781 L 192.902344 178.398438 L 253.855469 418.058594 L 314.8125 296.023438 L 375.707031 347.800781 L 415.488281 520.199219 L 702.269531 520.199219 L 741.316406 356.429688 L 741.316406 310.222656 L 700.617188 520.199219 L 540.335938 520.199219 L 497.554688 303.980469 L 436.660156 476.195312 L 375.707031 181.457031 L 314.8125 146.207031 L 255.386719 91.800781 "/>
<path style=" stroke:none;fill-rule:nonzero;fill:rgb(47.5351800564199%,47.5351800564199%,100%);fill-opacity:0.7;" d="M 192.902344 91.800781 L 192.902344 180.050781 L 240.882812 520.199219 L 270.6875 520.199219 L 314.8125 279.683594 L 375.707031 341.128906 L 415.976562 520.199219 L 701.71875 520.199219 L 741.316406 350.0625 L 741.316406 304.226562 L 690.582031 520.199219 L 540.761719 520.199219 L 497.554688 296.699219 L 436.660156 450.554688 L 375.707031 174.664062 L 314.8125 142.71875 L 253.855469 95.898438 L 249.816406 91.800781 "/>
<path style="fill:none;stroke-width:36.72;stroke-linecap:butt;stroke-linejoin:miter;stroke:rgb(0%,0%,0%);stroke-opacity:1;stroke-miterlimit:10;" d="M 1929.023438 4966.992188 L 2425.976562 917.382812 " transform="matrix(0.1,0,0,-0.1,0,612)"/>
<path style="fill:none;stroke-width:36.72;stroke-linecap:butt;stroke-linejoin:miter;stroke:rgb(0%,0%,0%);stroke-opacity:1;stroke-miterlimit:10;" d="M 2650.585938 917.382812 L 3148.125 4993.320312 L 3757.070312 3914.335938 L 4223.398438 917.382812 " transform="matrix(0.1,0,0,-0.1,0,612)"/>
<path style="fill:none;stroke-width:36.72;stroke-linecap:butt;stroke-linejoin:miter;stroke:rgb(0%,0%,0%);stroke-opacity:1;stroke-miterlimit:10;" d="M 4545.9375 917.382812 L 4975.546875 3117.539062 L 5405.78125 917.382812 " transform="matrix(0.1,0,0,-0.1,0,612)"/>
<path style="fill:none;stroke-width:36.72;stroke-linecap:butt;stroke-linejoin:miter;stroke:rgb(0%,0%,0%);stroke-opacity:1;stroke-miterlimit:10;" d="M 7036.171875 917.382812 L 7413.164062 2460.234375 " transform="matrix(0.1,0,0,-0.1,0,612)"/>
<path style="fill:none;stroke-width:36.72;stroke-linecap:butt;stroke-linejoin:miter;stroke:rgb(0%,0%,100%);stroke-opacity:1;stroke-miterlimit:10;" d="M 1929.023438 5008.59375 L 2427.1875 917.382812 " transform="matrix(0.1,0,0,-0.1,0,612)"/>
<path style="fill:none;stroke-width:36.72;stroke-linecap:butt;stroke-linejoin:miter;stroke:rgb(0%,0%,100%);stroke-opacity:1;stroke-miterlimit:10;" d="M 2649.335938 917.382812 L 3148.125 5034.921875 L 3757.070312 3963.320312 L 4225.234375 917.382812 " transform="matrix(0.1,0,0,-0.1,0,612)"/>
<path style="fill:none;stroke-width:36.72;stroke-linecap:butt;stroke-linejoin:miter;stroke:rgb(0%,0%,100%);stroke-opacity:1;stroke-miterlimit:10;" d="M 4541.640625 917.382812 L 4975.546875 3186.054688 L 5409.453125 917.382812 " transform="matrix(0.1,0,0,-0.1,0,612)"/>
<path style="fill:none;stroke-width:36.72;stroke-linecap:butt;stroke-linejoin:miter;stroke:rgb(0%,0%,100%);stroke-opacity:1;stroke-miterlimit:10;" d="M 6668.945312 917.382812 L 6803.59375 1178.085938 L 7413.164062 2538.554688 " transform="matrix(0.1,0,0,-0.1,0,612)"/>
<path style="fill:none;stroke-width:9.18;stroke-linecap:butt;stroke-linejoin:miter;stroke:rgb(0%,0%,0%);stroke-opacity:1;stroke-miterlimit:10;" d="M 1530 918.007812 L 7650 918.007812 " transform="matrix(0.1,0,0,-0.1,0,612)"/>
<path style="fill:none;stroke-width:9.18;stroke-linecap:butt;stroke-linejoin:miter;stroke:rgb(0%,0%,0%);stroke-opacity:1;stroke-miterlimit:10;" d="M 1530 5201.992188 L 7650 5201.992188 " transform="matrix(0.1,0,0,-0.1,0,612)"/>
<path style="fill:none;stroke-width:9.18;stroke-linecap:butt;stroke-linejoin:miter;stroke:rgb(0%,0%,0%);stroke-opacity:1;stroke-miterlimit:10;" d="M 1556.914062 918.007812 L 1556.914062 979.179688 " transform="matrix(0.1,0,0,-0.1,0,612)"/>
<path style="fill:none;stroke-width:9.18;stroke-linecap:butt;stroke-linejoin:miter;stroke:rgb(0%,0%,0%);stroke-opacity:1;stroke-miterlimit:10;" d="M 1556.914062 5201.992188 L 1556.914062 5140.78125 " transform="matrix(0.1,0,0,-0.1,0,612)"/>
<path style="fill:none;stroke-width:9.18;stroke-linecap:butt;stroke-linejoin:miter;stroke:rgb(0%,0%,0%);stroke-opacity:1;stroke-miterlimit:10;" d="M 2473.710938 918.007812 L 2473.710938 979.179688 " transform="matrix(0.1,0,0,-0.1,0,612)"/>
<path style="fill:none;stroke-width:9.18;stroke-linecap:butt;stroke-linejoin:miter;stroke:rgb(0%,0%,0%);stroke-opacity:1;stroke-miterlimit:10;" d="M 2473.710938 5201.992188 L 2473.710938 5140.78125 " transform="matrix(0.1,0,0,-0.1,0,612)"/>
<path style="fill:none;stroke-width:9.18;stroke-linecap:butt;stroke-linejoin:miter;stroke:rgb(0%,0%,0%);stroke-opacity:1;stroke-miterlimit:10;" d="M 3010.429688 918.007812 L 3010.429688 979.179688 " transform="matrix(0.1,0,0,-0.1,0,612)"/>
<path style="fill:none;stroke-width:9.18;stroke-linecap:butt;stroke-linejoin:miter;stroke:rgb(0%,0%,0%);stroke-opacity:1;stroke-miterlimit:10;" d="M 3010.429688 5201.992188 L 3010.429688 5140.78125 " transform="matrix(0.1,0,0,-0.1,0,612)"/>
<path style="fill:none;stroke-width:9.18;stroke-linecap:butt;stroke-linejoin:miter;stroke:rgb(0%,0%,0%);stroke-opacity:1;stroke-miterlimit:10;" d="M 3391.09375 918.007812 L 3391.09375 979.179688 " transform="matrix(0.1,0,0,-0.1,0,612)"/>
<path style="fill:none;stroke-width:9.18;stroke-linecap:butt;stroke-linejoin:miter;stroke:rgb(0%,0%,0%);stroke-opacity:1;stroke-miterlimit:10;" d="M 3391.09375 5201.992188 L 3391.09375 5140.78125 " transform="matrix(0.1,0,0,-0.1,0,612)"/>
<path style="fill:none;stroke-width:9.18;stroke-linecap:butt;stroke-linejoin:miter;stroke:rgb(0%,0%,0%);stroke-opacity:1;stroke-miterlimit:10;" d="M 3686.054688 918.007812 L 3686.054688 979.179688 " transform="matrix(0.1,0,0,-0.1,0,612)"/>
<path style="fill:none;stroke-width:9.18;stroke-linecap:butt;stroke-linejoin:miter;stroke:rgb(0%,0%,0%);stroke-opacity:1;stroke-miterlimit:10;" d="M 3686.054688 5201.992188 L 3686.054688 5140.78125 " transform="matrix(0.1,0,0,-0.1,0,612)"/>
<path style="fill:none;stroke-width:9.18;stroke-linecap:butt;stroke-linejoin:miter;stroke:rgb(0%,0%,0%);stroke-opacity:1;stroke-miterlimit:10;" d="M 3927.1875 918.007812 L 3927.1875 979.179688 " transform="matrix(0.1,0,0,-0.1,0,612)"/>
<path style="fill:none;stroke-width:9.18;stroke-linecap:butt;stroke-linejoin:miter;stroke:rgb(0%,0%,0%);stroke-opacity:1;stroke-miterlimit:10;" d="M 3927.1875 5201.992188 L 3927.1875 5140.78125 " transform="matrix(0.1,0,0,-0.1,0,612)"/>
<path style="fill:none;stroke-width:9.18;stroke-linecap:butt;stroke-linejoin:miter;stroke:rgb(0%,0%,0%);stroke-opacity:1;stroke-miterlimit:10;" d="M 4131.601562 918.007812 L 4131.601562 979.179688 " transform="matrix(0.1,0,0,-0.1,0,612)"/>
<path style="fill:none;stroke-width:9.18;stroke-linecap:butt;stroke-linejoin:miter;stroke:rgb(0%,0%,0%);stroke-opacity:1;stroke-miterlimit:10;" d="M 4131.601562 5201.992188 L 4131.601562 5140.78125 " transform="matrix(0.1,0,0,-0.1,0,612)"/>
<path style="fill:none;stroke-width:9.18;stroke-linecap:butt;stroke-linejoin:miter;stroke:rgb(0%,0%,0%);stroke-opacity:1;stroke-miterlimit:10;" d="M 4307.851562 918.007812 L 4307.851562 979.179688 " transform="matrix(0.1,0,0,-0.1,0,612)"/>
<path style="fill:none;stroke-width:9.18;stroke-linecap:butt;stroke-linejoin:miter;stroke:rgb(0%,0%,0%);stroke-opacity:1;stroke-miterlimit:10;" d="M 4307.851562 5201.992188 L 4307.851562 5140.78125 " transform="matrix(0.1,0,0,-0.1,0,612)"/>
<path style="fill:none;stroke-width:9.18;stroke-linecap:butt;stroke-linejoin:miter;stroke:rgb(0%,0%,0%);stroke-opacity:1;stroke-miterlimit:10;" d="M 4463.945312 918.007812 L 4463.945312 979.179688 " transform="matrix(0.1,0,0,-0.1,0,612)"/>
<path style="fill:none;stroke-width:9.18;stroke-linecap:butt;stroke-linejoin:miter;stroke:rgb(0%,0%,0%);stroke-opacity:1;stroke-miterlimit:10;" d="M 4463.945312 5201.992188 L 4463.945312 5140.78125 " transform="matrix(0.1,0,0,-0.1,0,612)"/>
<path style="fill:none;stroke-width:9.18;stroke-linecap:butt;stroke-linejoin:miter;stroke:rgb(0%,0%,0%);stroke-opacity:1;stroke-miterlimit:10;" d="M 4603.476562 918.007812 L 4603.476562 979.179688 " transform="matrix(0.1,0,0,-0.1,0,612)"/>
<path style="fill:none;stroke-width:9.18;stroke-linecap:butt;stroke-linejoin:miter;stroke:rgb(0%,0%,0%);stroke-opacity:1;stroke-miterlimit:10;" d="M 4603.476562 5201.992188 L 4603.476562 5140.78125 " transform="matrix(0.1,0,0,-0.1,0,612)"/>
<path style="fill:none;stroke-width:9.18;stroke-linecap:butt;stroke-linejoin:miter;stroke:rgb(0%,0%,0%);stroke-opacity:1;stroke-miterlimit:10;" d="M 5520.234375 918.007812 L 5520.234375 979.179688 " transform="matrix(0.1,0,0,-0.1,0,612)"/>
<path style="fill:none;stroke-width:9.18;stroke-linecap:butt;stroke-linejoin:miter;stroke:rgb(0%,0%,0%);stroke-opacity:1;stroke-miterlimit:10;" d="M 5520.234375 5201.992188 L 5520.234375 5140.78125 " transform="matrix(0.1,0,0,-0.1,0,612)"/>
<path style="fill:none;stroke-width:9.18;stroke-linecap:butt;stroke-linejoin:miter;stroke:rgb(0%,0%,0%);stroke-opacity:1;stroke-miterlimit:10;" d="M 6056.953125 918.007812 L 6056.953125 979.179688 " transform="matrix(0.1,0,0,-0.1,0,612)"/>
<path style="fill:none;stroke-width:9.18;stroke-linecap:butt;stroke-linejoin:miter;stroke:rgb(0%,0%,0%);stroke-opacity:1;stroke-miterlimit:10;" d="M 6056.953125 5201.992188 L 6056.953125 5140.78125 " transform="matrix(0.1,0,0,-0.1,0,612)"/>
<path style="fill:none;stroke-width:9.18;stroke-linecap:butt;stroke-linejoin:miter;stroke:rgb(0%,0%,0%);stroke-opacity:1;stroke-miterlimit:10;" d="M 6437.617188 918.007812 L 6437.617188 979.179688 " transform="matrix(0.1,0,0,-0.1,0,612)"/>
<path style="fill:none;stroke-width:9.18;stroke-linecap:butt;stroke-linejoin:miter;stroke:rgb(0%,0%,0%);stroke-opacity:1;stroke-miterlimit:10;" d="M 6437.617188 5201.992188 L 6437.617188 5140.78125 " transform="matrix(0.1,0,0,-0.1,0,612)"/>
<path style="fill:none;stroke-width:9.18;stroke-linecap:butt;stroke-linejoin:miter;stroke:rgb(0%,0%,0%);stroke-opacity:1;stroke-miterlimit:10;" d="M 6732.617188 918.007812 L 6732.617188 979.179688 " transform="matrix(0.1,0,0,-0.1,0,612)"/>
<path style="fill:none;stroke-width:9.18;stroke-linecap:butt;stroke-linejoin:miter;stroke:rgb(0%,0%,0%);stroke-opacity:1;stroke-miterlimit:10;" d="M 6732.617188 5201.992188 L 6732.617188 5140.78125 " transform="matrix(0.1,0,0,-0.1,0,612)"/>
<path style="fill:none;stroke-width:9.18;stroke-linecap:butt;stroke-linejoin:miter;stroke:rgb(0%,0%,0%);stroke-opacity:1;stroke-miterlimit:10;" d="M 6974.335938 918.007812 L 6974.335938 979.179688 " transform="matrix(0.1,0,0,-0.1,0,612)"/>
<path style="fill:none;stroke-width:9.18;stroke-linecap:butt;stroke-linejoin:miter;stroke:rgb(0%,0%,0%);stroke-opacity:1;stroke-miterlimit:10;" d="M 6974.335938 5201.992188 L 6974.335938 5140.78125 " transform="matrix(0.1,0,0,-0.1,0,612)"/>
<path style="fill:none;stroke-width:9.18;stroke-linecap:butt;stroke-linejoin:miter;stroke:rgb(0%,0%,0%);stroke-opacity:1;stroke-miterlimit:10;" d="M 7178.164062 918.007812 L 7178.164062 979.179688 " transform="matrix(0.1,0,0,-0.1,0,612)"/>
<path style="fill:none;stroke-width:9.18;stroke-linecap:butt;stroke-linejoin:miter;stroke:rgb(0%,0%,0%);stroke-opacity:1;stroke-miterlimit:10;" d="M 7178.164062 5201.992188 L 7178.164062 5140.78125 " transform="matrix(0.1,0,0,-0.1,0,612)"/>
<path style="fill:none;stroke-width:9.18;stroke-linecap:butt;stroke-linejoin:miter;stroke:rgb(0%,0%,0%);stroke-opacity:1;stroke-miterlimit:10;" d="M 7355.039062 918.007812 L 7355.039062 979.179688 " transform="matrix(0.1,0,0,-0.1,0,612)"/>
<path style="fill:none;stroke-width:9.18;stroke-linecap:butt;stroke-linejoin:miter;stroke:rgb(0%,0%,0%);stroke-opacity:1;stroke-miterlimit:10;" d="M 7355.039062 5201.992188 L 7355.039062 5140.78125 " transform="matrix(0.1,0,0,-0.1,0,612)"/>
<path style="fill:none;stroke-width:9.18;stroke-linecap:butt;stroke-linejoin:miter;stroke:rgb(0%,0%,0%);stroke-opacity:1;stroke-miterlimit:10;" d="M 7510.46875 918.007812 L 7510.46875 979.179688 " transform="matrix(0.1,0,0,-0.1,0,612)"/>
<path style="fill:none;stroke-width:9.18;stroke-linecap:butt;stroke-linejoin:miter;stroke:rgb(0%,0%,0%);stroke-opacity:1;stroke-miterlimit:10;" d="M 7510.46875 5201.992188 L 7510.46875 5140.78125 " transform="matrix(0.1,0,0,-0.1,0,612)"/>
<path style="fill:none;stroke-width:9.18;stroke-linecap:butt;stroke-linejoin:miter;stroke:rgb(0%,0%,0%);stroke-opacity:1;stroke-miterlimit:10;" d="M 7650 918.007812 L 7650 979.179688 " transform="matrix(0.1,0,0,-0.1,0,612)"/>
<path style="fill:none;stroke-width:9.18;stroke-linecap:butt;stroke-linejoin:miter;stroke:rgb(0%,0%,0%);stroke-opacity:1;stroke-miterlimit:10;" d="M 7650 5201.992188 L 7650 5140.78125 " transform="matrix(0.1,0,0,-0.1,0,612)"/>
<path style="fill:none;stroke-width:9.18;stroke-linecap:butt;stroke-linejoin:miter;stroke:rgb(0%,0%,0%);stroke-opacity:1;stroke-miterlimit:10;" d="M 1556.914062 918.007812 L 1556.914062 1040.390625 " transform="matrix(0.1,0,0,-0.1,0,612)"/>
<path style="fill:none;stroke-width:9.18;stroke-linecap:butt;stroke-linejoin:miter;stroke:rgb(0%,0%,0%);stroke-opacity:1;stroke-miterlimit:10;" d="M 1556.914062 5201.992188 L 1556.914062 5079.609375 " transform="matrix(0.1,0,0,-0.1,0,612)"/>
<path style="fill:none;stroke-width:9.18;stroke-linecap:butt;stroke-linejoin:miter;stroke:rgb(0%,0%,0%);stroke-opacity:1;stroke-miterlimit:10;" d="M 4603.476562 918.007812 L 4603.476562 1040.390625 " transform="matrix(0.1,0,0,-0.1,0,612)"/>
<path style="fill:none;stroke-width:9.18;stroke-linecap:butt;stroke-linejoin:miter;stroke:rgb(0%,0%,0%);stroke-opacity:1;stroke-miterlimit:10;" d="M 4603.476562 5201.992188 L 4603.476562 5079.609375 " transform="matrix(0.1,0,0,-0.1,0,612)"/>
<path style="fill:none;stroke-width:9.18;stroke-linecap:butt;stroke-linejoin:miter;stroke:rgb(0%,0%,0%);stroke-opacity:1;stroke-miterlimit:10;" d="M 7650 918.007812 L 7650 1040.390625 " transform="matrix(0.1,0,0,-0.1,0,612)"/>
<path style="fill:none;stroke-width:9.18;stroke-linecap:butt;stroke-linejoin:miter;stroke:rgb(0%,0%,0%);stroke-opacity:1;stroke-miterlimit:10;" d="M 7650 5201.992188 L 7650 5079.609375 " transform="matrix(0.1,0,0,-0.1,0,612)"/>
<path style=" stroke:none;fill-rule:nonzero;fill:rgb(0%,0%,0%);fill-opacity:1;" d="M 147.523438 526.445312 C 146.109375 526.445312 145.03125 526.855469 144.082031 527.78125 C 142.59375 529.21875 141.617188 532.167969 141.617188 535.171875 C 141.617188 537.996094 142.464844 540.976562 143.671875 542.414062 C 144.621094 543.542969 145.929688 544.160156 147.417969 544.160156 C 148.726562 544.160156 149.832031 543.722656 150.757812 542.824219 C 152.246094 541.414062 153.222656 538.433594 153.222656 535.328125 C 153.222656 530.0625 150.882812 526.445312 147.523438 526.445312 Z M 147.445312 527.109375 C 149.601562 527.109375 150.757812 530.011719 150.757812 535.378906 C 150.757812 540.746094 149.628906 543.492188 147.417969 543.492188 C 145.210938 543.492188 144.082031 540.746094 144.082031 535.40625 C 144.082031 529.9375 145.234375 527.109375 147.445312 527.109375 "/>
<path style=" stroke:none;fill-rule:nonzero;fill:rgb(0%,0%,0%);fill-opacity:1;" d="M 157.109375 541.234375 C 156.339844 541.234375 155.695312 541.875 155.695312 542.695312 C 155.695312 543.441406 156.339844 544.082031 157.085938 544.082031 C 157.878906 544.082031 158.546875 543.464844 158.546875 542.695312 C 158.546875 541.898438 157.878906 541.234375 157.109375 541.234375 "/>
<path style=" stroke:none;fill-rule:nonzero;fill:rgb(0%,0%,0%);fill-opacity:1;" d="M 163.328125 543.800781 L 170.414062 543.800781 L 170.414062 543.414062 C 168.4375 543.414062 168.003906 543.132812 167.976562 541.898438 L 167.976562 526.496094 L 167.773438 526.445312 L 163.148438 528.78125 L 163.148438 529.140625 C 164.152344 528.753906 164.765625 528.574219 164.996094 528.574219 C 165.539062 528.574219 165.769531 528.960938 165.769531 529.78125 L 165.769531 541.414062 C 165.71875 543.03125 165.28125 543.390625 163.328125 543.414062 L 163.328125 543.800781 "/>
<path style=" stroke:none;fill-rule:nonzero;fill:rgb(0%,0%,0%);fill-opacity:1;" d="M 458.328125 543.800781 L 465.414062 543.800781 L 465.414062 543.414062 C 463.4375 543.414062 463.003906 543.132812 462.976562 541.898438 L 462.976562 526.496094 L 462.773438 526.445312 L 458.148438 528.78125 L 458.148438 529.140625 C 459.152344 528.753906 459.765625 528.574219 459.996094 528.574219 C 460.539062 528.574219 460.769531 528.960938 460.769531 529.78125 L 460.769531 541.414062 C 460.71875 543.03125 460.28125 543.390625 458.328125 543.414062 L 458.328125 543.800781 "/>
<path style=" stroke:none;fill-rule:nonzero;fill:rgb(0%,0%,0%);fill-opacity:1;" d="M 755.429688 543.800781 L 762.515625 543.800781 L 762.515625 543.414062 C 760.539062 543.414062 760.101562 543.132812 760.078125 541.898438 L 760.078125 526.496094 L 759.871094 526.445312 L 755.25 528.78125 L 755.25 529.140625 C 756.253906 528.753906 756.867188 528.574219 757.097656 528.574219 C 757.636719 528.574219 757.867188 528.960938 757.867188 529.78125 L 757.867188 541.414062 C 757.816406 543.03125 757.382812 543.390625 755.429688 543.414062 L 755.429688 543.800781 "/>
<path style=" stroke:none;fill-rule:nonzero;fill:rgb(0%,0%,0%);fill-opacity:1;" d="M 771.722656 526.445312 C 770.308594 526.445312 769.230469 526.855469 768.28125 527.78125 C 766.792969 529.21875 765.816406 532.167969 765.816406 535.171875 C 765.816406 537.996094 766.664062 540.976562 767.871094 542.414062 C 768.820312 543.542969 770.128906 544.160156 771.617188 544.160156 C 772.929688 544.160156 774.03125 543.722656 774.957031 542.824219 C 776.445312 541.414062 777.421875 538.433594 777.421875 535.328125 C 777.421875 530.0625 775.085938 526.445312 771.722656 526.445312 Z M 771.644531 527.109375 C 773.800781 527.109375 774.957031 530.011719 774.957031 535.378906 C 774.957031 540.746094 773.828125 543.492188 771.617188 543.492188 C 769.410156 543.492188 768.28125 540.746094 768.28125 535.40625 C 768.28125 529.9375 769.4375 527.109375 771.644531 527.109375 "/>
<path style=" stroke:none;fill-rule:nonzero;fill:rgb(0%,0%,0%);fill-opacity:1;" d="M 428.621094 566.8125 C 427.644531 566.734375 427.132812 566.476562 426.386719 565.605469 L 421.097656 559.109375 C 424.359375 558.46875 425.742188 557.183594 425.742188 554.820312 C 425.742188 553.71875 425.410156 552.769531 424.742188 552.023438 C 423.765625 550.96875 421.636719 550.304688 419.222656 550.304688 L 412.136719 550.304688 L 412.136719 550.789062 C 414.035156 550.996094 414.292969 551.226562 414.320312 553.101562 L 414.320312 564.21875 C 414.292969 566.402344 414.0625 566.65625 412.136719 566.8125 L 412.136719 567.300781 L 419.246094 567.300781 L 419.246094 566.8125 C 417.273438 566.683594 416.964844 566.375 416.9375 564.5 L 416.9375 559.445312 L 418.375 559.390625 L 424.484375 567.300781 L 428.621094 567.300781 Z M 416.9375 552.179688 C 416.9375 551.460938 417.21875 551.253906 418.246094 551.253906 C 421.457031 551.253906 422.945312 552.359375 422.945312 554.769531 C 422.945312 556.054688 422.40625 557.132812 421.484375 557.621094 C 420.300781 558.289062 419.402344 558.441406 416.9375 558.492188 L 416.9375 552.179688 "/>
<path style=" stroke:none;fill-rule:nonzero;fill:rgb(0%,0%,0%);fill-opacity:1;" d="M 428.890625 581.445312 L 433.292969 581.445312 L 433.292969 581.117188 C 431.929688 581.101562 431.710938 580.917969 431.691406 579.753906 L 431.691406 576.898438 C 432.347656 577.5 432.765625 577.679688 433.527344 577.679688 C 435.691406 577.679688 437.347656 575.644531 437.347656 573.007812 C 437.347656 570.753906 436.074219 569.132812 434.3125 569.132812 C 433.292969 569.132812 432.492188 569.570312 431.691406 570.570312 L 431.691406 569.171875 L 431.582031 569.132812 C 430.601562 569.515625 429.964844 569.753906 428.964844 570.0625 L 428.964844 570.351562 C 429.128906 570.335938 429.253906 570.335938 429.417969 570.335938 C 430.035156 570.335938 430.164062 570.515625 430.164062 571.371094 L 430.164062 579.882812 C 430.164062 580.847656 429.964844 581.027344 428.890625 581.136719 Z M 431.691406 571.425781 C 431.691406 570.878906 432.710938 570.226562 433.546875 570.226562 C 434.890625 570.226562 435.78125 571.609375 435.78125 573.734375 C 435.78125 575.734375 434.890625 577.101562 433.582031 577.101562 C 432.726562 577.101562 431.691406 576.445312 431.691406 575.898438 L 431.691406 571.425781 "/>
<path style=" stroke:none;fill-rule:nonzero;fill:rgb(0%,0%,0%);fill-opacity:1;" d="M 451.976562 550.945312 L 451.976562 550.304688 L 446.558594 550.304688 L 446.558594 571.304688 L 451.976562 571.304688 L 451.976562 570.664062 L 449.769531 570.664062 C 448.894531 570.636719 448.535156 570.253906 448.511719 569.328125 L 448.511719 552.074219 C 448.535156 551.253906 448.820312 550.96875 449.664062 550.945312 L 451.976562 550.945312 "/>
<path style=" stroke:none;fill-rule:nonzero;fill:rgb(0%,0%,0%);fill-opacity:1;" d="M 475.058594 550.304688 L 469.949219 550.304688 L 464.273438 563.269531 L 458.34375 550.304688 L 453.257812 550.304688 L 453.257812 550.789062 C 455.363281 550.894531 455.648438 551.175781 455.699219 553.101562 L 455.699219 563.527344 C 455.648438 566.246094 455.3125 566.683594 453.207031 566.8125 L 453.207031 567.300781 L 459.242188 567.300781 L 459.242188 566.8125 C 457.265625 566.710938 456.878906 566.171875 456.828125 563.527344 L 456.828125 553.179688 L 463.273438 567.300781 L 463.632812 567.300781 L 470.203125 552.589844 L 470.203125 564.21875 C 470.179688 566.402344 469.898438 566.683594 467.867188 566.8125 L 467.867188 567.300781 L 475.058594 567.300781 L 475.058594 566.8125 C 473.210938 566.710938 472.875 566.351562 472.824219 564.5 L 472.824219 553.101562 C 472.875 551.253906 473.183594 550.917969 475.058594 550.789062 L 475.058594 550.304688 "/>
<path style=" stroke:none;fill-rule:nonzero;fill:rgb(0%,0%,0%);fill-opacity:1;" d="M 475.828125 572.871094 L 482.042969 572.871094 L 482.042969 572.410156 C 480.117188 572.382812 479.808594 572.125 479.78125 570.484375 L 479.78125 566.453125 C 480.707031 567.300781 481.296875 567.554688 482.375 567.554688 C 485.429688 567.554688 487.765625 564.679688 487.765625 560.957031 C 487.765625 557.773438 485.96875 555.488281 483.480469 555.488281 C 482.042969 555.488281 480.914062 556.105469 479.78125 557.515625 L 479.78125 555.539062 L 479.628906 555.488281 C 478.242188 556.027344 477.34375 556.363281 475.929688 556.796875 L 475.929688 557.210938 C 476.164062 557.183594 476.34375 557.183594 476.574219 557.183594 C 477.445312 557.183594 477.625 557.441406 477.625 558.648438 L 477.625 570.664062 C 477.625 572.023438 477.34375 572.28125 475.828125 572.433594 Z M 479.78125 558.726562 C 479.78125 557.953125 481.21875 557.03125 482.402344 557.03125 C 484.300781 557.03125 485.558594 558.980469 485.558594 561.984375 C 485.558594 564.808594 484.300781 566.734375 482.453125 566.734375 C 481.246094 566.734375 479.78125 565.8125 479.78125 565.039062 L 479.78125 558.726562 "/>
<path style=" stroke:none;fill-rule:nonzero;fill:rgb(0%,0%,0%);fill-opacity:1;" d="M 498.820312 563.296875 C 497.585938 565.09375 496.664062 565.707031 495.199219 565.707031 C 492.835938 565.707031 491.21875 563.65625 491.21875 560.703125 C 491.21875 558.03125 492.632812 556.234375 494.710938 556.234375 C 495.632812 556.234375 495.96875 556.515625 496.226562 557.46875 L 496.378906 558.03125 C 496.585938 558.777344 497.046875 559.210938 497.613281 559.210938 C 498.28125 559.210938 498.820312 558.726562 498.820312 558.132812 C 498.820312 556.695312 497.023438 555.488281 494.863281 555.488281 C 493.605469 555.488281 492.296875 556.003906 491.242188 556.929688 C 489.960938 558.058594 489.242188 559.804688 489.242188 561.855469 C 489.242188 565.167969 491.269531 567.554688 494.121094 567.554688 C 495.273438 567.554688 496.304688 567.144531 497.226562 566.351562 C 497.921875 565.757812 498.40625 565.039062 499.179688 563.527344 L 498.820312 563.296875 "/>
<path style=" stroke:none;fill-rule:nonzero;fill:rgb(0%,0%,0%);fill-opacity:1;" d="M 500.871094 570.664062 L 500.871094 571.304688 L 506.289062 571.304688 L 506.289062 550.304688 L 500.871094 550.304688 L 500.871094 550.945312 L 503.082031 550.945312 C 503.953125 550.96875 504.3125 551.355469 504.339844 552.28125 L 504.339844 569.535156 C 504.3125 570.355469 504.03125 570.636719 503.183594 570.664062 L 500.871094 570.664062 "/>
<path style="fill:none;stroke-width:9.18;stroke-linecap:butt;stroke-linejoin:miter;stroke:rgb(0%,0%,0%);stroke-opacity:1;stroke-miterlimit:10;" d="M 1530 918.007812 L 1530 5201.992188 " transform="matrix(0.1,0,0,-0.1,0,612)"/>
<path style="fill:none;stroke-width:9.18;stroke-linecap:butt;stroke-linejoin:miter;stroke:rgb(0%,0%,0%);stroke-opacity:1;stroke-miterlimit:10;" d="M 7650 918.007812 L 7650 5201.992188 " transform="matrix(0.1,0,0,-0.1,0,612)"/>
<path style="fill:none;stroke-width:9.18;stroke-linecap:butt;stroke-linejoin:miter;stroke:rgb(0%,0%,0%);stroke-opacity:1;stroke-miterlimit:10;" d="M 1530 918.007812 L 1591.210938 918.007812 " transform="matrix(0.1,0,0,-0.1,0,612)"/>
<path style="fill:none;stroke-width:9.18;stroke-linecap:butt;stroke-linejoin:miter;stroke:rgb(0%,0%,0%);stroke-opacity:1;stroke-miterlimit:10;" d="M 7650 918.007812 L 7588.789062 918.007812 " transform="matrix(0.1,0,0,-0.1,0,612)"/>
<path style="fill:none;stroke-width:9.18;stroke-linecap:butt;stroke-linejoin:miter;stroke:rgb(0%,0%,0%);stroke-opacity:1;stroke-miterlimit:10;" d="M 1530 997.578125 L 1591.210938 997.578125 " transform="matrix(0.1,0,0,-0.1,0,612)"/>
<path style="fill:none;stroke-width:9.18;stroke-linecap:butt;stroke-linejoin:miter;stroke:rgb(0%,0%,0%);stroke-opacity:1;stroke-miterlimit:10;" d="M 7650 997.578125 L 7588.789062 997.578125 " transform="matrix(0.1,0,0,-0.1,0,612)"/>
<path style="fill:none;stroke-width:9.18;stroke-linecap:butt;stroke-linejoin:miter;stroke:rgb(0%,0%,0%);stroke-opacity:1;stroke-miterlimit:10;" d="M 1530 1069.140625 L 1591.210938 1069.140625 " transform="matrix(0.1,0,0,-0.1,0,612)"/>
<path style="fill:none;stroke-width:9.18;stroke-linecap:butt;stroke-linejoin:miter;stroke:rgb(0%,0%,0%);stroke-opacity:1;stroke-miterlimit:10;" d="M 7650 1069.140625 L 7588.789062 1069.140625 " transform="matrix(0.1,0,0,-0.1,0,612)"/>
<path style="fill:none;stroke-width:9.18;stroke-linecap:butt;stroke-linejoin:miter;stroke:rgb(0%,0%,0%);stroke-opacity:1;stroke-miterlimit:10;" d="M 1530 1537.96875 L 1591.210938 1537.96875 " transform="matrix(0.1,0,0,-0.1,0,612)"/>
<path style="fill:none;stroke-width:9.18;stroke-linecap:butt;stroke-linejoin:miter;stroke:rgb(0%,0%,0%);stroke-opacity:1;stroke-miterlimit:10;" d="M 7650 1537.96875 L 7588.789062 1537.96875 " transform="matrix(0.1,0,0,-0.1,0,612)"/>
<path style="fill:none;stroke-width:9.18;stroke-linecap:butt;stroke-linejoin:miter;stroke:rgb(0%,0%,0%);stroke-opacity:1;stroke-miterlimit:10;" d="M 1530 1812.148438 L 1591.210938 1812.148438 " transform="matrix(0.1,0,0,-0.1,0,612)"/>
<path style="fill:none;stroke-width:9.18;stroke-linecap:butt;stroke-linejoin:miter;stroke:rgb(0%,0%,0%);stroke-opacity:1;stroke-miterlimit:10;" d="M 7650 1812.148438 L 7588.789062 1812.148438 " transform="matrix(0.1,0,0,-0.1,0,612)"/>
<path style="fill:none;stroke-width:9.18;stroke-linecap:butt;stroke-linejoin:miter;stroke:rgb(0%,0%,0%);stroke-opacity:1;stroke-miterlimit:10;" d="M 1530 2006.757812 L 1591.210938 2006.757812 " transform="matrix(0.1,0,0,-0.1,0,612)"/>
<path style="fill:none;stroke-width:9.18;stroke-linecap:butt;stroke-linejoin:miter;stroke:rgb(0%,0%,0%);stroke-opacity:1;stroke-miterlimit:10;" d="M 7650 2006.757812 L 7588.789062 2006.757812 " transform="matrix(0.1,0,0,-0.1,0,612)"/>
<path style="fill:none;stroke-width:9.18;stroke-linecap:butt;stroke-linejoin:miter;stroke:rgb(0%,0%,0%);stroke-opacity:1;stroke-miterlimit:10;" d="M 1530 2157.890625 L 1591.210938 2157.890625 " transform="matrix(0.1,0,0,-0.1,0,612)"/>
<path style="fill:none;stroke-width:9.18;stroke-linecap:butt;stroke-linejoin:miter;stroke:rgb(0%,0%,0%);stroke-opacity:1;stroke-miterlimit:10;" d="M 7650 2157.890625 L 7588.789062 2157.890625 " transform="matrix(0.1,0,0,-0.1,0,612)"/>
<path style="fill:none;stroke-width:9.18;stroke-linecap:butt;stroke-linejoin:miter;stroke:rgb(0%,0%,0%);stroke-opacity:1;stroke-miterlimit:10;" d="M 1530 2280.9375 L 1591.210938 2280.9375 " transform="matrix(0.1,0,0,-0.1,0,612)"/>
<path style="fill:none;stroke-width:9.18;stroke-linecap:butt;stroke-linejoin:miter;stroke:rgb(0%,0%,0%);stroke-opacity:1;stroke-miterlimit:10;" d="M 7650 2280.9375 L 7588.789062 2280.9375 " transform="matrix(0.1,0,0,-0.1,0,612)"/>
<path style="fill:none;stroke-width:9.18;stroke-linecap:butt;stroke-linejoin:miter;stroke:rgb(0%,0%,0%);stroke-opacity:1;stroke-miterlimit:10;" d="M 1530 2385.585938 L 1591.210938 2385.585938 " transform="matrix(0.1,0,0,-0.1,0,612)"/>
<path style="fill:none;stroke-width:9.18;stroke-linecap:butt;stroke-linejoin:miter;stroke:rgb(0%,0%,0%);stroke-opacity:1;stroke-miterlimit:10;" d="M 7650 2385.585938 L 7588.789062 2385.585938 " transform="matrix(0.1,0,0,-0.1,0,612)"/>
<path style="fill:none;stroke-width:9.18;stroke-linecap:butt;stroke-linejoin:miter;stroke:rgb(0%,0%,0%);stroke-opacity:1;stroke-miterlimit:10;" d="M 1530 2475.546875 L 1591.210938 2475.546875 " transform="matrix(0.1,0,0,-0.1,0,612)"/>
<path style="fill:none;stroke-width:9.18;stroke-linecap:butt;stroke-linejoin:miter;stroke:rgb(0%,0%,0%);stroke-opacity:1;stroke-miterlimit:10;" d="M 7650 2475.546875 L 7588.789062 2475.546875 " transform="matrix(0.1,0,0,-0.1,0,612)"/>
<path style="fill:none;stroke-width:9.18;stroke-linecap:butt;stroke-linejoin:miter;stroke:rgb(0%,0%,0%);stroke-opacity:1;stroke-miterlimit:10;" d="M 1530 2555.703125 L 1591.210938 2555.703125 " transform="matrix(0.1,0,0,-0.1,0,612)"/>
<path style="fill:none;stroke-width:9.18;stroke-linecap:butt;stroke-linejoin:miter;stroke:rgb(0%,0%,0%);stroke-opacity:1;stroke-miterlimit:10;" d="M 7650 2555.703125 L 7588.789062 2555.703125 " transform="matrix(0.1,0,0,-0.1,0,612)"/>
<path style="fill:none;stroke-width:9.18;stroke-linecap:butt;stroke-linejoin:miter;stroke:rgb(0%,0%,0%);stroke-opacity:1;stroke-miterlimit:10;" d="M 1530 2626.71875 L 1591.210938 2626.71875 " transform="matrix(0.1,0,0,-0.1,0,612)"/>
<path style="fill:none;stroke-width:9.18;stroke-linecap:butt;stroke-linejoin:miter;stroke:rgb(0%,0%,0%);stroke-opacity:1;stroke-miterlimit:10;" d="M 7650 2626.71875 L 7588.789062 2626.71875 " transform="matrix(0.1,0,0,-0.1,0,612)"/>
<path style="fill:none;stroke-width:9.18;stroke-linecap:butt;stroke-linejoin:miter;stroke:rgb(0%,0%,0%);stroke-opacity:1;stroke-miterlimit:10;" d="M 1530 3095.507812 L 1591.210938 3095.507812 " transform="matrix(0.1,0,0,-0.1,0,612)"/>
<path style="fill:none;stroke-width:9.18;stroke-linecap:butt;stroke-linejoin:miter;stroke:rgb(0%,0%,0%);stroke-opacity:1;stroke-miterlimit:10;" d="M 7650 3095.507812 L 7588.789062 3095.507812 " transform="matrix(0.1,0,0,-0.1,0,612)"/>
<path style="fill:none;stroke-width:9.18;stroke-linecap:butt;stroke-linejoin:miter;stroke:rgb(0%,0%,0%);stroke-opacity:1;stroke-miterlimit:10;" d="M 1530 3369.6875 L 1591.210938 3369.6875 " transform="matrix(0.1,0,0,-0.1,0,612)"/>
<path style="fill:none;stroke-width:9.18;stroke-linecap:butt;stroke-linejoin:miter;stroke:rgb(0%,0%,0%);stroke-opacity:1;stroke-miterlimit:10;" d="M 7650 3369.6875 L 7588.789062 3369.6875 " transform="matrix(0.1,0,0,-0.1,0,612)"/>
<path style="fill:none;stroke-width:9.18;stroke-linecap:butt;stroke-linejoin:miter;stroke:rgb(0%,0%,0%);stroke-opacity:1;stroke-miterlimit:10;" d="M 1530 3564.296875 L 1591.210938 3564.296875 " transform="matrix(0.1,0,0,-0.1,0,612)"/>
<path style="fill:none;stroke-width:9.18;stroke-linecap:butt;stroke-linejoin:miter;stroke:rgb(0%,0%,0%);stroke-opacity:1;stroke-miterlimit:10;" d="M 7650 3564.296875 L 7588.789062 3564.296875 " transform="matrix(0.1,0,0,-0.1,0,612)"/>
<path style="fill:none;stroke-width:9.18;stroke-linecap:butt;stroke-linejoin:miter;stroke:rgb(0%,0%,0%);stroke-opacity:1;stroke-miterlimit:10;" d="M 1530 3715.46875 L 1591.210938 3715.46875 " transform="matrix(0.1,0,0,-0.1,0,612)"/>
<path style="fill:none;stroke-width:9.18;stroke-linecap:butt;stroke-linejoin:miter;stroke:rgb(0%,0%,0%);stroke-opacity:1;stroke-miterlimit:10;" d="M 7650 3715.46875 L 7588.789062 3715.46875 " transform="matrix(0.1,0,0,-0.1,0,612)"/>
<path style="fill:none;stroke-width:9.18;stroke-linecap:butt;stroke-linejoin:miter;stroke:rgb(0%,0%,0%);stroke-opacity:1;stroke-miterlimit:10;" d="M 1530 3839.0625 L 1591.210938 3839.0625 " transform="matrix(0.1,0,0,-0.1,0,612)"/>
<path style="fill:none;stroke-width:9.18;stroke-linecap:butt;stroke-linejoin:miter;stroke:rgb(0%,0%,0%);stroke-opacity:1;stroke-miterlimit:10;" d="M 7650 3839.0625 L 7588.789062 3839.0625 " transform="matrix(0.1,0,0,-0.1,0,612)"/>
<path style="fill:none;stroke-width:9.18;stroke-linecap:butt;stroke-linejoin:miter;stroke:rgb(0%,0%,0%);stroke-opacity:1;stroke-miterlimit:10;" d="M 1530 3943.125 L 1591.210938 3943.125 " transform="matrix(0.1,0,0,-0.1,0,612)"/>
<path style="fill:none;stroke-width:9.18;stroke-linecap:butt;stroke-linejoin:miter;stroke:rgb(0%,0%,0%);stroke-opacity:1;stroke-miterlimit:10;" d="M 7650 3943.125 L 7588.789062 3943.125 " transform="matrix(0.1,0,0,-0.1,0,612)"/>
<path style="fill:none;stroke-width:9.18;stroke-linecap:butt;stroke-linejoin:miter;stroke:rgb(0%,0%,0%);stroke-opacity:1;stroke-miterlimit:10;" d="M 1530 4033.671875 L 1591.210938 4033.671875 " transform="matrix(0.1,0,0,-0.1,0,612)"/>
<path style="fill:none;stroke-width:9.18;stroke-linecap:butt;stroke-linejoin:miter;stroke:rgb(0%,0%,0%);stroke-opacity:1;stroke-miterlimit:10;" d="M 7650 4033.671875 L 7588.789062 4033.671875 " transform="matrix(0.1,0,0,-0.1,0,612)"/>
<path style="fill:none;stroke-width:9.18;stroke-linecap:butt;stroke-linejoin:miter;stroke:rgb(0%,0%,0%);stroke-opacity:1;stroke-miterlimit:10;" d="M 1530 4113.242188 L 1591.210938 4113.242188 " transform="matrix(0.1,0,0,-0.1,0,612)"/>
<path style="fill:none;stroke-width:9.18;stroke-linecap:butt;stroke-linejoin:miter;stroke:rgb(0%,0%,0%);stroke-opacity:1;stroke-miterlimit:10;" d="M 7650 4113.242188 L 7588.789062 4113.242188 " transform="matrix(0.1,0,0,-0.1,0,612)"/>
<path style="fill:none;stroke-width:9.18;stroke-linecap:butt;stroke-linejoin:miter;stroke:rgb(0%,0%,0%);stroke-opacity:1;stroke-miterlimit:10;" d="M 1530 4184.257812 L 1591.210938 4184.257812 " transform="matrix(0.1,0,0,-0.1,0,612)"/>
<path style="fill:none;stroke-width:9.18;stroke-linecap:butt;stroke-linejoin:miter;stroke:rgb(0%,0%,0%);stroke-opacity:1;stroke-miterlimit:10;" d="M 7650 4184.257812 L 7588.789062 4184.257812 " transform="matrix(0.1,0,0,-0.1,0,612)"/>
<path style="fill:none;stroke-width:9.18;stroke-linecap:butt;stroke-linejoin:miter;stroke:rgb(0%,0%,0%);stroke-opacity:1;stroke-miterlimit:10;" d="M 1530 4653.632812 L 1591.210938 4653.632812 " transform="matrix(0.1,0,0,-0.1,0,612)"/>
<path style="fill:none;stroke-width:9.18;stroke-linecap:butt;stroke-linejoin:miter;stroke:rgb(0%,0%,0%);stroke-opacity:1;stroke-miterlimit:10;" d="M 7650 4653.632812 L 7588.789062 4653.632812 " transform="matrix(0.1,0,0,-0.1,0,612)"/>
<path style="fill:none;stroke-width:9.18;stroke-linecap:butt;stroke-linejoin:miter;stroke:rgb(0%,0%,0%);stroke-opacity:1;stroke-miterlimit:10;" d="M 1530 4927.8125 L 1591.210938 4927.8125 " transform="matrix(0.1,0,0,-0.1,0,612)"/>
<path style="fill:none;stroke-width:9.18;stroke-linecap:butt;stroke-linejoin:miter;stroke:rgb(0%,0%,0%);stroke-opacity:1;stroke-miterlimit:10;" d="M 7650 4927.8125 L 7588.789062 4927.8125 " transform="matrix(0.1,0,0,-0.1,0,612)"/>
<path style="fill:none;stroke-width:9.18;stroke-linecap:butt;stroke-linejoin:miter;stroke:rgb(0%,0%,0%);stroke-opacity:1;stroke-miterlimit:10;" d="M 1530 5122.421875 L 1591.210938 5122.421875 " transform="matrix(0.1,0,0,-0.1,0,612)"/>
<path style="fill:none;stroke-width:9.18;stroke-linecap:butt;stroke-linejoin:miter;stroke:rgb(0%,0%,0%);stroke-opacity:1;stroke-miterlimit:10;" d="M 7650 5122.421875 L 7588.789062 5122.421875 " transform="matrix(0.1,0,0,-0.1,0,612)"/>
<path style="fill:none;stroke-width:9.18;stroke-linecap:butt;stroke-linejoin:miter;stroke:rgb(0%,0%,0%);stroke-opacity:1;stroke-miterlimit:10;" d="M 1530 1069.140625 L 1652.382812 1069.140625 " transform="matrix(0.1,0,0,-0.1,0,612)"/>
<path style="fill:none;stroke-width:9.18;stroke-linecap:butt;stroke-linejoin:miter;stroke:rgb(0%,0%,0%);stroke-opacity:1;stroke-miterlimit:10;" d="M 7650 1069.140625 L 7527.617188 1069.140625 " transform="matrix(0.1,0,0,-0.1,0,612)"/>
<path style="fill:none;stroke-width:9.18;stroke-linecap:butt;stroke-linejoin:miter;stroke:rgb(0%,0%,0%);stroke-opacity:1;stroke-miterlimit:10;" d="M 1530 2626.71875 L 1652.382812 2626.71875 " transform="matrix(0.1,0,0,-0.1,0,612)"/>
<path style="fill:none;stroke-width:9.18;stroke-linecap:butt;stroke-linejoin:miter;stroke:rgb(0%,0%,0%);stroke-opacity:1;stroke-miterlimit:10;" d="M 7650 2626.71875 L 7527.617188 2626.71875 " transform="matrix(0.1,0,0,-0.1,0,612)"/>
<path style="fill:none;stroke-width:9.18;stroke-linecap:butt;stroke-linejoin:miter;stroke:rgb(0%,0%,0%);stroke-opacity:1;stroke-miterlimit:10;" d="M 1530 4184.257812 L 1652.382812 4184.257812 " transform="matrix(0.1,0,0,-0.1,0,612)"/>
<path style="fill:none;stroke-width:9.18;stroke-linecap:butt;stroke-linejoin:miter;stroke:rgb(0%,0%,0%);stroke-opacity:1;stroke-miterlimit:10;" d="M 7650 4184.257812 L 7527.617188 4184.257812 " transform="matrix(0.1,0,0,-0.1,0,612)"/>
<path style=" stroke:none;fill-rule:nonzero;fill:rgb(0%,0%,0%);fill-opacity:1;" d="M 124.730469 513.800781 L 131.816406 513.800781 L 131.816406 513.414062 C 129.839844 513.414062 129.402344 513.132812 129.378906 511.898438 L 129.378906 496.496094 L 129.171875 496.445312 L 124.550781 498.78125 L 124.550781 499.140625 C 125.550781 498.753906 126.167969 498.574219 126.398438 498.574219 C 126.9375 498.574219 127.167969 498.960938 127.167969 499.78125 L 127.167969 511.410156 C 127.117188 513.03125 126.679688 513.390625 124.730469 513.414062 L 124.730469 513.800781 "/>
<path style=" stroke:none;fill-rule:nonzero;fill:rgb(0%,0%,0%);fill-opacity:1;" d="M 141.023438 496.445312 C 139.609375 496.445312 138.53125 496.855469 137.582031 497.78125 C 136.09375 499.21875 135.117188 502.167969 135.117188 505.171875 C 135.117188 507.996094 135.964844 510.976562 137.171875 512.414062 C 138.121094 513.542969 139.429688 514.160156 140.917969 514.160156 C 142.226562 514.160156 143.332031 513.722656 144.257812 512.824219 C 145.746094 511.410156 146.722656 508.433594 146.722656 505.328125 C 146.722656 500.0625 144.382812 496.445312 141.023438 496.445312 Z M 140.945312 497.109375 C 143.101562 497.109375 144.257812 500.011719 144.257812 505.378906 C 144.257812 510.746094 143.128906 513.492188 140.917969 513.492188 C 138.710938 513.492188 137.582031 510.746094 137.582031 505.40625 C 137.582031 499.9375 138.734375 497.109375 140.945312 497.109375 "/>
<path style=" stroke:none;fill-rule:nonzero;fill:rgb(0%,0%,0%);fill-opacity:1;" d="M 111.929688 358 L 119.015625 358 L 119.015625 357.617188 C 117.039062 357.617188 116.601562 357.332031 116.578125 356.101562 L 116.578125 340.695312 L 116.371094 340.644531 L 111.75 342.980469 L 111.75 343.339844 C 112.753906 342.953125 113.367188 342.773438 113.597656 342.773438 C 114.136719 342.773438 114.367188 343.160156 114.367188 343.980469 L 114.367188 355.613281 C 114.316406 357.230469 113.882812 357.589844 111.929688 357.617188 L 111.929688 358 "/>
<path style=" stroke:none;fill-rule:nonzero;fill:rgb(0%,0%,0%);fill-opacity:1;" d="M 128.320312 340.644531 C 126.910156 340.644531 125.832031 341.054688 124.882812 341.980469 C 123.390625 343.417969 122.414062 346.367188 122.414062 349.371094 C 122.414062 352.195312 123.265625 355.175781 124.46875 356.613281 C 125.421875 357.742188 126.730469 358.359375 128.21875 358.359375 C 129.527344 358.359375 130.632812 357.921875 131.554688 357.023438 C 133.046875 355.613281 134.023438 352.632812 134.023438 349.527344 C 134.023438 344.265625 131.683594 340.644531 128.320312 340.644531 Z M 128.242188 341.3125 C 130.402344 341.3125 131.554688 344.210938 131.554688 349.578125 C 131.554688 354.945312 130.425781 357.691406 128.21875 357.691406 C 126.011719 357.691406 124.882812 354.945312 124.882812 349.605469 C 124.882812 344.136719 126.035156 341.3125 128.242188 341.3125 "/>
<path style=" stroke:none;fill-rule:nonzero;fill:rgb(0%,0%,0%);fill-opacity:1;" d="M 141.121094 340.644531 C 139.710938 340.644531 138.632812 341.054688 137.679688 341.980469 C 136.191406 343.417969 135.214844 346.367188 135.214844 349.371094 C 135.214844 352.195312 136.0625 355.175781 137.269531 356.613281 C 138.21875 357.742188 139.53125 358.359375 141.019531 358.359375 C 142.328125 358.359375 143.433594 357.921875 144.355469 357.023438 C 145.84375 355.613281 146.820312 352.632812 146.820312 349.527344 C 146.820312 344.265625 144.484375 340.644531 141.121094 340.644531 Z M 141.042969 341.3125 C 143.203125 341.3125 144.355469 344.210938 144.355469 349.578125 C 144.355469 354.945312 143.226562 357.691406 141.019531 357.691406 C 138.8125 357.691406 137.679688 354.945312 137.679688 349.605469 C 137.679688 344.136719 138.835938 341.3125 141.042969 341.3125 "/>
<path style=" stroke:none;fill-rule:nonzero;fill:rgb(0%,0%,0%);fill-opacity:1;" d="M 99.03125 202.199219 L 106.117188 202.199219 L 106.117188 201.816406 C 104.140625 201.816406 103.703125 201.53125 103.675781 200.300781 L 103.675781 184.894531 L 103.472656 184.84375 L 98.851562 187.179688 L 98.851562 187.539062 C 99.851562 187.15625 100.46875 186.976562 100.699219 186.976562 C 101.238281 186.976562 101.46875 187.359375 101.46875 188.179688 L 101.46875 199.8125 C 101.417969 201.429688 100.980469 201.789062 99.03125 201.816406 L 99.03125 202.199219 "/>
<path style=" stroke:none;fill-rule:nonzero;fill:rgb(0%,0%,0%);fill-opacity:1;" d="M 115.421875 184.84375 C 114.007812 184.84375 112.929688 185.253906 111.980469 186.179688 C 110.492188 187.617188 109.515625 190.570312 109.515625 193.574219 C 109.515625 196.398438 110.363281 199.375 111.570312 200.8125 C 112.519531 201.945312 113.828125 202.558594 115.320312 202.558594 C 116.628906 202.558594 117.734375 202.121094 118.65625 201.226562 C 120.144531 199.8125 121.121094 196.835938 121.121094 193.726562 C 121.121094 188.464844 118.785156 184.84375 115.421875 184.84375 Z M 115.34375 185.511719 C 117.503906 185.511719 118.65625 188.410156 118.65625 193.777344 C 118.65625 199.144531 117.527344 201.890625 115.320312 201.890625 C 113.109375 201.890625 111.980469 199.144531 111.980469 193.804688 C 111.980469 188.335938 113.136719 185.511719 115.34375 185.511719 "/>
<path style=" stroke:none;fill-rule:nonzero;fill:rgb(0%,0%,0%);fill-opacity:1;" d="M 128.222656 184.84375 C 126.808594 184.84375 125.730469 185.253906 124.78125 186.179688 C 123.292969 187.617188 122.316406 190.570312 122.316406 193.574219 C 122.316406 196.398438 123.164062 199.375 124.371094 200.8125 C 125.320312 201.945312 126.628906 202.558594 128.117188 202.558594 C 129.429688 202.558594 130.53125 202.121094 131.457031 201.226562 C 132.945312 199.8125 133.921875 196.835938 133.921875 193.726562 C 133.921875 188.464844 131.585938 184.84375 128.222656 184.84375 Z M 128.144531 185.511719 C 130.300781 185.511719 131.457031 188.410156 131.457031 193.777344 C 131.457031 199.144531 130.328125 201.890625 128.117188 201.890625 C 125.910156 201.890625 124.78125 199.144531 124.78125 193.804688 C 124.78125 188.335938 125.9375 185.511719 128.144531 185.511719 "/>
<path style=" stroke:none;fill-rule:nonzero;fill:rgb(0%,0%,0%);fill-opacity:1;" d="M 141.121094 184.84375 C 139.710938 184.84375 138.632812 185.253906 137.679688 186.179688 C 136.191406 187.617188 135.214844 190.570312 135.214844 193.574219 C 135.214844 196.398438 136.0625 199.375 137.269531 200.8125 C 138.21875 201.945312 139.53125 202.558594 141.019531 202.558594 C 142.328125 202.558594 143.433594 202.121094 144.355469 201.226562 C 145.84375 199.8125 146.820312 196.835938 146.820312 193.726562 C 146.820312 188.464844 144.484375 184.84375 141.121094 184.84375 Z M 141.042969 185.511719 C 143.203125 185.511719 144.355469 188.410156 144.355469 193.777344 C 144.355469 199.144531 143.226562 201.890625 141.019531 201.890625 C 138.8125 201.890625 137.679688 199.144531 137.679688 193.804688 C 137.679688 188.335938 138.835938 185.511719 141.042969 185.511719 "/>
<path style=" stroke:none;fill-rule:nonzero;fill:rgb(0%,0%,0%);fill-opacity:1;" d="M 64.246094 360.9375 L 64.632812 360.9375 C 64.8125 360.066406 64.992188 359.808594 65.429688 359.808594 C 65.8125 359.808594 66.453125 359.964844 67.121094 360.246094 L 72.820312 362.558594 L 67.070312 364.714844 C 65.890625 365.148438 65.890625 365.148438 65.554688 365.148438 C 64.992188 365.148438 64.8125 364.867188 64.632812 363.660156 L 64.246094 363.660156 L 64.246094 368.871094 L 64.632812 368.871094 C 64.734375 367.921875 65.015625 367.617188 66.402344 367.101562 C 66.890625 366.921875 67.378906 366.742188 67.839844 366.585938 L 72.949219 368.925781 L 66.25 371.464844 C 65.992188 371.570312 65.734375 371.621094 65.476562 371.621094 C 64.9375 371.621094 64.734375 371.335938 64.632812 370.4375 L 64.246094 370.4375 L 64.246094 375.0625 L 64.632812 375.0625 C 64.683594 374.46875 64.9375 374.265625 66.25 373.699219 L 75.03125 370.234375 C 75.824219 369.925781 76.160156 369.71875 76.160156 369.566406 C 76.160156 369.4375 75.851562 369.234375 75.15625 368.925781 L 68.996094 366.046875 L 75.054688 363.710938 C 76.03125 363.328125 76.160156 363.277344 76.160156 363.097656 C 76.160156 362.917969 75.929688 362.785156 74.902344 362.378906 L 66.015625 358.835938 C 64.9375 358.371094 64.8125 358.296875 64.632812 357.78125 L 64.246094 357.78125 L 64.246094 360.9375 "/>
<path style=" stroke:none;fill-rule:nonzero;fill:rgb(0%,0%,0%);fill-opacity:1;" d="M 89.945312 357.007812 L 89.945312 352.609375 L 89.617188 352.609375 C 89.601562 353.972656 89.417969 354.191406 88.253906 354.207031 L 85.398438 354.207031 C 86 353.554688 86.179688 353.136719 86.179688 352.371094 C 86.179688 350.207031 84.144531 348.554688 81.507812 348.554688 C 79.253906 348.554688 77.632812 349.824219 77.632812 351.589844 C 77.632812 352.609375 78.070312 353.40625 79.070312 354.207031 L 77.671875 354.207031 L 77.632812 354.316406 C 78.015625 355.300781 78.253906 355.9375 78.5625 356.9375 L 78.851562 356.9375 C 78.835938 356.773438 78.835938 356.644531 78.835938 356.480469 C 78.835938 355.863281 79.015625 355.734375 79.871094 355.734375 L 88.382812 355.734375 C 89.347656 355.734375 89.527344 355.9375 89.636719 357.007812 Z M 79.925781 354.207031 C 79.378906 354.207031 78.726562 353.191406 78.726562 352.351562 C 78.726562 351.007812 80.109375 350.117188 82.234375 350.117188 C 84.234375 350.117188 85.601562 351.007812 85.601562 352.316406 C 85.601562 353.171875 84.945312 354.207031 84.398438 354.207031 L 79.925781 354.207031 "/>
<path style=" stroke:none;fill-rule:nonzero;fill:rgb(0%,0%,0%);fill-opacity:1;" d="M 58.445312 340.425781 C 59.703125 342.328125 60.34375 343.097656 61.523438 344.046875 C 63.757812 345.867188 66.328125 346.765625 69.328125 346.765625 C 72.617188 346.765625 75.105469 345.816406 77.726562 343.558594 C 78.957031 342.507812 79.523438 341.835938 80.34375 340.503906 L 79.933594 340.195312 C 78.316406 342.246094 77.390625 342.96875 75.492188 343.660156 C 73.773438 344.277344 71.84375 344.558594 69.253906 344.558594 C 66.558594 344.558594 64.453125 344.226562 62.859375 343.53125 C 61.269531 342.8125 60.34375 342.042969 58.855469 340.195312 L 58.445312 340.425781 "/>
<path style=" stroke:none;fill-rule:nonzero;fill:rgb(0%,0%,0%);fill-opacity:1;" d="M 75.3125 322.480469 C 75.234375 323.457031 74.976562 323.96875 74.105469 324.714844 L 67.609375 330.003906 C 66.96875 326.742188 65.683594 325.355469 63.320312 325.355469 C 62.21875 325.355469 61.269531 325.6875 60.523438 326.359375 C 59.46875 327.332031 58.804688 329.464844 58.804688 331.878906 L 58.804688 338.964844 L 59.289062 338.964844 C 59.496094 337.0625 59.726562 336.804688 61.601562 336.78125 L 72.71875 336.78125 C 74.902344 336.804688 75.15625 337.035156 75.3125 338.964844 L 75.800781 338.964844 L 75.800781 331.851562 L 75.3125 331.851562 C 75.183594 333.828125 74.875 334.136719 73 334.160156 L 67.945312 334.160156 L 67.890625 332.726562 L 75.800781 326.613281 L 75.800781 322.480469 Z M 60.679688 334.160156 C 59.960938 334.160156 59.753906 333.878906 59.753906 332.851562 C 59.753906 329.644531 60.859375 328.15625 63.269531 328.15625 C 64.554688 328.15625 65.632812 328.695312 66.121094 329.617188 C 66.789062 330.796875 66.941406 331.695312 66.992188 334.160156 L 60.679688 334.160156 "/>
<path style=" stroke:none;fill-rule:nonzero;fill:rgb(0%,0%,0%);fill-opacity:1;" d="M 89.945312 322.210938 L 89.945312 317.808594 L 89.617188 317.808594 C 89.601562 319.171875 89.417969 319.390625 88.253906 319.40625 L 85.398438 319.40625 C 86 318.753906 86.179688 318.335938 86.179688 317.570312 C 86.179688 315.40625 84.144531 313.753906 81.507812 313.753906 C 79.253906 313.753906 77.632812 315.023438 77.632812 316.789062 C 77.632812 317.808594 78.070312 318.609375 79.070312 319.40625 L 77.671875 319.40625 L 77.632812 319.515625 C 78.015625 320.5 78.253906 321.136719 78.5625 322.136719 L 78.851562 322.136719 C 78.835938 321.972656 78.835938 321.84375 78.835938 321.679688 C 78.835938 321.0625 79.015625 320.9375 79.871094 320.9375 L 88.382812 320.9375 C 89.347656 320.9375 89.527344 321.136719 89.636719 322.210938 Z M 79.925781 319.40625 C 79.378906 319.40625 78.726562 318.390625 78.726562 317.554688 C 78.726562 316.207031 80.109375 315.316406 82.234375 315.316406 C 84.234375 315.316406 85.601562 316.207031 85.601562 317.515625 C 85.601562 318.371094 84.945312 319.40625 84.398438 319.40625 L 79.925781 319.40625 "/>
<path style=" stroke:none;fill-rule:nonzero;fill:rgb(0%,0%,0%);fill-opacity:1;" d="M 80.34375 312.226562 C 79.085938 310.324219 78.445312 309.554688 77.265625 308.605469 C 75.03125 306.78125 72.460938 305.882812 69.457031 305.882812 C 66.171875 305.882812 63.679688 306.832031 61.0625 309.09375 C 59.828125 310.144531 59.265625 310.8125 58.445312 312.148438 L 58.855469 312.453125 C 60.472656 310.402344 61.371094 309.707031 63.296875 308.988281 C 65.015625 308.371094 66.941406 308.089844 69.535156 308.089844 C 72.230469 308.089844 74.363281 308.425781 75.902344 309.117188 C 77.519531 309.8125 78.445312 310.605469 79.933594 312.453125 L 80.34375 312.226562 "/>
<path style=" stroke:none;fill-rule:nonzero;fill:rgb(0%,0%,0%);fill-opacity:1;" d="M 59.445312 290.523438 L 58.804688 290.523438 L 58.804688 295.941406 L 79.804688 295.941406 L 79.804688 290.523438 L 79.164062 290.523438 L 79.164062 292.730469 C 79.136719 293.605469 78.753906 293.964844 77.828125 293.988281 L 60.574219 293.988281 C 59.753906 293.964844 59.46875 293.679688 59.445312 292.835938 L 59.445312 290.523438 "/>
<path style=" stroke:none;fill-rule:nonzero;fill:rgb(0%,0%,0%);fill-opacity:1;" d="M 58.804688 267.542969 L 58.804688 272.652344 L 71.769531 278.328125 L 58.804688 284.257812 L 58.804688 289.339844 L 59.289062 289.339844 C 59.394531 287.234375 59.675781 286.953125 61.601562 286.902344 L 72.027344 286.902344 C 74.746094 286.953125 75.183594 287.285156 75.3125 289.390625 L 75.800781 289.390625 L 75.800781 283.359375 L 75.3125 283.359375 C 75.210938 285.335938 74.671875 285.71875 72.027344 285.773438 L 61.679688 285.773438 L 75.800781 279.328125 L 75.800781 278.96875 L 61.089844 272.394531 L 72.71875 272.394531 C 74.902344 272.421875 75.183594 272.703125 75.3125 274.730469 L 75.800781 274.730469 L 75.800781 267.542969 L 75.3125 267.542969 C 75.210938 269.390625 74.851562 269.726562 73 269.777344 L 61.601562 269.777344 C 59.753906 269.726562 59.417969 269.417969 59.289062 267.542969 L 58.804688 267.542969 "/>
<path style=" stroke:none;fill-rule:nonzero;fill:rgb(0%,0%,0%);fill-opacity:1;" d="M 81.371094 266.671875 L 81.371094 260.457031 L 80.910156 260.457031 C 80.882812 262.382812 80.625 262.691406 78.984375 262.71875 L 74.953125 262.71875 C 75.800781 261.792969 76.054688 261.203125 76.054688 260.125 C 76.054688 257.070312 73.179688 254.734375 69.457031 254.734375 C 66.273438 254.734375 63.988281 256.53125 63.988281 259.019531 C 63.988281 260.457031 64.605469 261.585938 66.015625 262.71875 L 64.039062 262.71875 L 63.988281 262.871094 C 64.527344 264.257812 64.863281 265.15625 65.296875 266.570312 L 65.710938 266.570312 C 65.683594 266.335938 65.683594 266.15625 65.683594 265.925781 C 65.683594 265.054688 65.941406 264.875 67.148438 264.875 L 79.164062 264.875 C 80.523438 264.875 80.78125 265.15625 80.933594 266.671875 Z M 67.226562 262.71875 C 66.453125 262.71875 65.53125 261.28125 65.53125 260.097656 C 65.53125 258.199219 67.480469 256.941406 70.484375 256.941406 C 73.308594 256.941406 75.234375 258.199219 75.234375 260.046875 C 75.234375 261.253906 74.3125 262.71875 73.539062 262.71875 L 67.226562 262.71875 "/>
<path style=" stroke:none;fill-rule:nonzero;fill:rgb(0%,0%,0%);fill-opacity:1;" d="M 71.796875 243.78125 C 73.59375 245.015625 74.207031 245.9375 74.207031 247.402344 C 74.207031 249.765625 72.15625 251.382812 69.203125 251.382812 C 66.53125 251.382812 64.734375 249.96875 64.734375 247.890625 C 64.734375 246.964844 65.015625 246.632812 65.96875 246.375 L 66.53125 246.21875 C 67.277344 246.015625 67.710938 245.554688 67.710938 244.988281 C 67.710938 244.320312 67.226562 243.78125 66.632812 243.78125 C 65.195312 243.78125 63.988281 245.578125 63.988281 247.734375 C 63.988281 248.992188 64.503906 250.304688 65.429688 251.355469 C 66.558594 252.640625 68.304688 253.359375 70.355469 253.359375 C 73.667969 253.359375 76.054688 251.328125 76.054688 248.480469 C 76.054688 247.324219 75.644531 246.296875 74.851562 245.371094 C 74.257812 244.679688 73.539062 244.191406 72.027344 243.421875 L 71.796875 243.78125 "/>
<path style=" stroke:none;fill-rule:nonzero;fill:rgb(0%,0%,0%);fill-opacity:1;" d="M 79.164062 241.726562 L 79.804688 241.726562 L 79.804688 236.308594 L 58.804688 236.308594 L 58.804688 241.726562 L 59.445312 241.726562 L 59.445312 239.519531 C 59.46875 238.644531 59.855469 238.285156 60.78125 238.261719 L 78.035156 238.261719 C 78.855469 238.285156 79.136719 238.570312 79.164062 239.414062 L 79.164062 241.726562 "/>
<path style="fill:none;stroke-width:9.18;stroke-linecap:butt;stroke-linejoin:miter;stroke:rgb(0%,0%,0%);stroke-opacity:1;stroke-miterlimit:10;" d="M 1530 918.007812 L 7650 918.007812 L 7650 5201.992188 L 1530 5201.992188 Z M 1530 918.007812 " transform="matrix(0.1,0,0,-0.1,0,612)"/>
<path style=" stroke:none;fill-rule:nonzero;fill:rgb(0%,0%,0%);fill-opacity:1;" d="M 571.597656 150.082031 C 568.671875 150.003906 566.617188 148.875 564.539062 146.179688 C 566.28125 145.84375 567.207031 145.410156 568.390625 144.382812 C 570.289062 142.6875 571.265625 140.351562 571.265625 137.503906 C 571.265625 132.316406 567.773438 128.644531 562.867188 128.644531 C 557.964844 128.644531 554.472656 132.339844 554.472656 137.554688 C 554.472656 140.070312 555.242188 142.175781 556.757812 143.816406 C 557.757812 144.894531 558.582031 145.410156 560.402344 146.023438 L 561.609375 147.4375 C 563.355469 149.492188 566.464844 150.570312 570.570312 150.570312 C 570.90625 150.570312 571.1875 150.570312 571.445312 150.542969 L 571.597656 150.542969 Z M 562.945312 129.570312 C 564.050781 129.570312 565.230469 130.054688 566.128906 130.851562 C 567.515625 132.085938 568.339844 134.546875 568.339844 137.449219 C 568.339844 139.992188 567.59375 142.609375 566.566406 143.792969 C 565.617188 144.84375 564.28125 145.433594 562.867188 145.433594 C 561.636719 145.433594 560.507812 144.996094 559.554688 144.175781 C 558.222656 142.96875 557.398438 140.429688 557.398438 137.398438 C 557.398438 134.933594 558.144531 132.417969 559.195312 131.238281 C 560.222656 130.109375 561.457031 129.570312 562.945312 129.570312 "/>
<path style=" stroke:none;fill-rule:nonzero;fill:rgb(0%,0%,0%);fill-opacity:1;" d="M 584.730469 144.714844 L 584.601562 144.714844 C 583.34375 144.664062 583.164062 144.460938 583.136719 143.253906 L 583.136719 134.445312 L 579.082031 134.445312 L 579.082031 134.882812 C 580.671875 134.960938 580.980469 135.21875 580.980469 136.5 L 580.980469 142.535156 C 580.980469 143.253906 580.851562 143.613281 580.492188 143.894531 C 579.800781 144.460938 579.003906 144.765625 578.234375 144.765625 C 577.234375 144.765625 576.410156 143.894531 576.410156 142.816406 L 576.410156 134.445312 L 572.664062 134.445312 L 572.664062 134.804688 C 573.867188 134.859375 574.226562 135.21875 574.253906 136.449219 L 574.253906 142.917969 C 574.253906 144.945312 575.484375 146.257812 577.359375 146.257812 C 578.3125 146.257812 579.3125 145.84375 580.003906 145.152344 L 581.109375 144.046875 L 581.109375 146.179688 L 581.214844 146.230469 C 582.496094 145.71875 583.421875 145.433594 584.730469 145.074219 L 584.730469 144.714844 "/>
<path style=" stroke:none;fill-rule:nonzero;fill:rgb(0%,0%,0%);fill-opacity:1;" d="M 595.628906 141.789062 C 594.398438 143.742188 593.292969 144.484375 591.648438 144.484375 C 590.1875 144.484375 589.082031 143.742188 588.339844 142.277344 C 587.875 141.300781 587.695312 140.480469 587.644531 138.886719 L 595.554688 138.886719 C 595.347656 137.21875 595.089844 136.476562 594.449219 135.652344 C 593.679688 134.726562 592.496094 134.1875 591.164062 134.1875 C 589.878906 134.1875 588.671875 134.652344 587.695312 135.523438 C 586.488281 136.578125 585.796875 138.398438 585.796875 140.507812 C 585.796875 144.046875 587.644531 146.257812 590.597656 146.257812 C 593.0625 146.257812 594.964844 144.742188 596.039062 141.96875 Z M 587.695312 138.066406 C 587.976562 136.035156 588.851562 135.113281 590.417969 135.113281 C 591.984375 135.113281 592.601562 135.832031 592.933594 138.066406 L 587.695312 138.066406 "/>
<path style=" stroke:none;fill-rule:nonzero;fill:rgb(0%,0%,0%);fill-opacity:1;" d="M 596.863281 146 L 602.304688 146 L 602.304688 145.617188 C 601.023438 145.535156 600.609375 145.203125 600.609375 144.28125 L 600.609375 137.066406 C 601.816406 135.910156 602.40625 135.601562 603.253906 135.601562 C 604.511719 135.601562 605.128906 136.398438 605.128906 138.09375 L 605.128906 143.457031 C 605.078125 145.128906 604.769531 145.535156 603.511719 145.617188 L 603.511719 146 L 608.851562 146 L 608.851562 145.617188 C 607.59375 145.484375 607.3125 145.179688 607.285156 143.921875 L 607.285156 138.039062 C 607.285156 135.628906 606.15625 134.1875 604.257812 134.1875 C 603.074219 134.1875 602.28125 134.628906 600.535156 136.269531 L 600.535156 134.242188 L 600.355469 134.1875 C 599.09375 134.652344 598.222656 134.933594 596.8125 135.34375 L 596.8125 135.78125 C 596.964844 135.703125 597.222656 135.679688 597.503906 135.679688 C 598.222656 135.679688 598.453125 136.0625 598.453125 137.320312 L 598.453125 143.6875 C 598.429688 145.203125 598.144531 145.535156 596.863281 145.617188 L 596.863281 146 "/>
<path style=" stroke:none;fill-rule:nonzero;fill:rgb(0%,0%,0%);fill-opacity:1;" d="M 619.519531 141.996094 C 618.285156 143.792969 617.363281 144.40625 615.898438 144.40625 C 613.535156 144.40625 611.917969 142.355469 611.917969 139.402344 C 611.917969 136.730469 613.332031 134.933594 615.410156 134.933594 C 616.335938 134.933594 616.667969 135.21875 616.925781 136.167969 L 617.078125 136.730469 C 617.285156 137.476562 617.746094 137.910156 618.3125 137.910156 C 618.980469 137.910156 619.519531 137.425781 619.519531 136.835938 C 619.519531 135.398438 617.722656 134.1875 615.5625 134.1875 C 614.304688 134.1875 612.996094 134.703125 611.945312 135.628906 C 610.660156 136.757812 609.941406 138.503906 609.941406 140.554688 C 609.941406 143.867188 611.96875 146.257812 614.820312 146.257812 C 615.976562 146.257812 617.003906 145.84375 617.925781 145.050781 C 618.621094 144.460938 619.109375 143.742188 619.878906 142.226562 L 619.519531 141.996094 "/>
<path style=" stroke:none;fill-rule:nonzero;fill:rgb(0%,0%,0%);fill-opacity:1;" d="M 633.203125 145.617188 C 631.816406 145.382812 631.6875 145.203125 631.664062 143.382812 L 631.664062 138.273438 C 631.664062 135.578125 630.609375 134.1875 628.503906 134.1875 C 626.992188 134.1875 625.914062 134.804688 624.730469 136.347656 L 624.730469 128.539062 L 624.601562 128.464844 C 623.730469 128.773438 623.089844 128.976562 621.648438 129.390625 L 620.957031 129.59375 L 620.957031 130.003906 C 621.058594 129.980469 621.136719 129.980469 621.265625 129.980469 C 622.367188 129.980469 622.574219 130.183594 622.574219 131.289062 L 622.574219 143.382812 C 622.523438 145.230469 622.394531 145.433594 620.929688 145.617188 L 620.929688 146 L 626.476562 146 L 626.476562 145.617188 C 624.988281 145.484375 624.78125 145.203125 624.730469 143.382812 L 624.730469 137.195312 C 625.808594 136.011719 626.578125 135.578125 627.582031 135.578125 C 628.863281 135.578125 629.507812 136.5 629.507812 138.296875 L 629.507812 143.382812 C 629.453125 145.203125 629.222656 145.484375 627.761719 145.617188 L 627.761719 146 L 633.203125 146 L 633.203125 145.617188 "/>
<path style=" stroke:none;fill-rule:nonzero;fill:rgb(0%,0%,0%);fill-opacity:1;" d="M 644.230469 141.789062 C 642.996094 143.742188 641.890625 144.484375 640.25 144.484375 C 638.785156 144.484375 637.683594 143.742188 636.9375 142.277344 C 636.476562 141.300781 636.296875 140.480469 636.242188 138.886719 L 644.152344 138.886719 C 643.945312 137.21875 643.691406 136.476562 643.046875 135.652344 C 642.277344 134.726562 641.097656 134.1875 639.761719 134.1875 C 638.476562 134.1875 637.273438 134.652344 636.296875 135.523438 C 635.089844 136.578125 634.394531 138.398438 634.394531 140.507812 C 634.394531 144.046875 636.242188 146.257812 639.195312 146.257812 C 641.664062 146.257812 643.5625 144.742188 644.640625 141.96875 Z M 636.296875 138.066406 C 636.578125 136.035156 637.453125 135.113281 639.015625 135.113281 C 640.582031 135.113281 641.199219 135.832031 641.53125 138.066406 L 636.296875 138.066406 "/>
<path style=" stroke:none;fill-rule:nonzero;fill:rgb(0%,0%,0%);fill-opacity:1;" d="M 657.605469 144.511719 C 657.273438 144.535156 657.117188 144.535156 657.015625 144.535156 C 656.09375 144.535156 655.886719 144.253906 655.886719 143.074219 L 655.886719 128.515625 L 655.757812 128.464844 C 654.523438 128.898438 653.628906 129.15625 651.984375 129.59375 L 651.984375 130.003906 C 652.1875 129.980469 652.34375 129.980469 652.546875 129.980469 C 653.496094 129.980469 653.730469 130.234375 653.730469 131.289062 L 653.730469 135.292969 C 652.753906 134.472656 652.0625 134.1875 651.03125 134.1875 C 648.082031 134.1875 645.695312 137.089844 645.695312 140.734375 C 645.695312 144.023438 647.59375 146.257812 650.445312 146.257812 C 651.882812 146.257812 652.855469 145.742188 653.730469 144.535156 L 653.730469 146.179688 L 653.832031 146.257812 L 657.605469 144.921875 Z M 653.730469 143.382812 C 653.730469 143.5625 653.550781 143.867188 653.292969 144.152344 C 652.855469 144.664062 652.1875 144.921875 651.445312 144.921875 C 649.3125 144.921875 647.902344 142.867188 647.902344 139.710938 C 647.902344 136.808594 649.160156 134.90625 651.109375 134.90625 C 652.496094 134.90625 653.730469 136.117188 653.730469 137.476562 L 653.730469 143.382812 "/>
<path style="fill:none;stroke-width:36.72;stroke-linecap:butt;stroke-linejoin:miter;stroke:rgb(100%,0%,0%);stroke-opacity:1;stroke-miterlimit:10;" d="M 4975.546875 4724.648438 L 5465.15625 4724.648438 " transform="matrix(0.1,0,0,-0.1,0,612)"/>
<path style=" stroke:none;fill-rule:nonzero;fill:rgb(0%,0%,0%);fill-opacity:1;" d="M 571.726562 173.710938 C 570.570312 173.632812 570.3125 173.378906 569.414062 171.476562 L 563.023438 156.894531 L 562.507812 156.894531 L 557.167969 169.503906 C 555.523438 173.25 555.21875 173.660156 553.984375 173.710938 L 553.984375 174.199219 L 559.070312 174.199219 L 559.070312 173.710938 C 557.835938 173.710938 557.324219 173.40625 557.324219 172.660156 C 557.324219 172.351562 557.398438 171.992188 557.527344 171.65625 L 558.710938 168.65625 L 565.4375 168.65625 L 566.488281 171.117188 C 566.796875 171.8125 566.976562 172.480469 566.976562 172.839844 C 566.976562 173.480469 566.539062 173.6875 565.179688 173.710938 L 565.179688 174.199219 L 571.726562 174.199219 Z M 559.144531 167.601562 L 562.097656 160.539062 L 565.078125 167.601562 L 559.144531 167.601562 "/>
<path style=" stroke:none;fill-rule:nonzero;fill:rgb(0%,0%,0%);fill-opacity:1;" d="M 572.738281 174.199219 L 578.796875 174.199219 L 578.796875 173.816406 C 577.179688 173.738281 576.898438 173.480469 576.871094 172.042969 L 576.871094 156.714844 L 576.769531 156.664062 C 575.433594 157.101562 574.460938 157.359375 572.6875 157.792969 L 572.6875 158.203125 L 572.84375 158.203125 C 573.125 158.179688 573.433594 158.152344 573.636719 158.152344 C 574.460938 158.152344 574.714844 158.511719 574.714844 159.71875 L 574.714844 171.964844 C 574.691406 173.351562 574.332031 173.710938 572.738281 173.816406 L 572.738281 174.199219 "/>
<path style=" stroke:none;fill-rule:nonzero;fill:rgb(0%,0%,0%);fill-opacity:1;" d="M 579.839844 174.199219 L 585.898438 174.199219 L 585.898438 173.816406 C 584.28125 173.738281 583.996094 173.480469 583.972656 172.042969 L 583.972656 156.714844 L 583.871094 156.664062 C 582.535156 157.101562 581.558594 157.359375 579.789062 157.792969 L 579.789062 158.203125 L 579.941406 158.203125 C 580.226562 158.179688 580.53125 158.152344 580.738281 158.152344 C 581.558594 158.152344 581.816406 158.511719 581.816406 159.71875 L 581.816406 171.964844 C 581.789062 173.351562 581.429688 173.710938 579.839844 173.816406 L 579.839844 174.199219 "/>
<path style="fill:none;stroke-width:36.72;stroke-linecap:butt;stroke-linejoin:miter;stroke:rgb(0%,0%,0%);stroke-opacity:1;stroke-miterlimit:10;" d="M 4975.546875 4465.15625 L 5465.15625 4465.15625 " transform="matrix(0.1,0,0,-0.1,0,612)"/>
<path style=" stroke:none;fill-rule:nonzero;fill:rgb(0%,0%,0%);fill-opacity:1;" d="M 565.078125 180.542969 L 564.539062 180.542969 C 564.433594 181.132812 564.152344 181.417969 563.714844 181.417969 C 563.460938 181.417969 563.023438 181.3125 562.585938 181.109375 C 561.636719 180.75 560.6875 180.542969 559.839844 180.542969 C 558.761719 180.542969 557.632812 180.980469 556.785156 181.726562 C 555.882812 182.519531 555.421875 183.597656 555.421875 184.933594 C 555.421875 186.988281 556.554688 188.425781 559.429688 189.941406 C 561.277344 190.941406 562.613281 191.96875 563.253906 192.945312 C 563.484375 193.277344 563.613281 193.816406 563.613281 194.460938 C 563.613281 196.15625 562.328125 197.335938 560.453125 197.335938 C 558.144531 197.335938 556.554688 195.921875 555.269531 192.789062 L 554.679688 192.789062 L 555.449219 198.234375 L 556.015625 198.234375 C 556.039062 197.746094 556.347656 197.386719 556.734375 197.386719 C 557.015625 197.386719 557.453125 197.488281 557.9375 197.667969 C 558.914062 198.054688 559.96875 198.257812 560.96875 198.257812 C 563.945312 198.257812 566.207031 196.230469 566.207031 193.585938 C 566.207031 191.480469 564.792969 189.8125 561.40625 187.964844 C 558.710938 186.5 557.632812 185.371094 557.632812 183.957031 C 557.632812 182.546875 558.710938 181.597656 560.300781 181.597656 C 561.457031 181.597656 562.535156 182.085938 563.433594 183.007812 C 564.230469 183.828125 564.589844 184.496094 565 186.011719 L 565.640625 186.011719 L 565.078125 180.542969 "/>
<path style=" stroke:none;fill-rule:nonzero;fill:rgb(0%,0%,0%);fill-opacity:1;" d="M 574.550781 186.347656 L 571.957031 186.347656 L 571.957031 183.367188 C 571.957031 183.109375 571.90625 183.035156 571.777344 183.035156 C 570.289062 185.191406 569.515625 186.0625 568.773438 186.5 C 568.492188 186.679688 568.335938 186.835938 568.335938 186.988281 C 568.335938 187.066406 568.363281 187.117188 568.4375 187.167969 L 569.800781 187.167969 L 569.800781 194.894531 C 569.800781 197.054688 570.570312 198.15625 572.085938 198.15625 C 573.34375 198.15625 574.320312 197.539062 575.164062 196.203125 L 574.832031 195.921875 C 574.265625 196.589844 573.855469 196.820312 573.292969 196.820312 C 572.34375 196.820312 571.957031 196.128906 571.957031 194.511719 L 571.957031 187.167969 L 574.550781 187.167969 L 574.550781 186.347656 "/>
<path style=" stroke:none;fill-rule:nonzero;fill:rgb(0%,0%,0%);fill-opacity:1;" d="M 586.449219 196.203125 C 586.011719 196.566406 585.703125 196.695312 585.320312 196.695312 C 584.726562 196.695312 584.546875 196.335938 584.546875 195.203125 L 584.546875 190.195312 C 584.546875 188.863281 584.421875 188.117188 584.035156 187.503906 C 583.46875 186.578125 582.367188 186.089844 580.851562 186.089844 C 578.4375 186.089844 576.539062 187.347656 576.539062 188.964844 C 576.539062 189.554688 577.023438 190.070312 577.640625 190.070312 C 578.257812 190.070312 578.796875 189.554688 578.796875 188.992188 C 578.796875 188.886719 578.773438 188.757812 578.746094 188.578125 C 578.695312 188.347656 578.667969 188.144531 578.667969 187.964844 C 578.667969 187.269531 579.492188 186.707031 580.515625 186.707031 C 581.773438 186.707031 582.46875 187.449219 582.46875 188.835938 L 582.46875 190.402344 C 578.515625 191.996094 578.078125 192.199219 576.976562 193.175781 C 576.410156 193.6875 576.050781 194.5625 576.050781 195.410156 C 576.050781 197.027344 577.179688 198.15625 578.746094 198.15625 C 579.875 198.15625 580.929688 197.617188 582.492188 196.28125 C 582.621094 197.644531 583.085938 198.15625 584.136719 198.15625 C 585.011719 198.15625 585.550781 197.847656 586.449219 196.871094 Z M 582.46875 194.742188 C 582.46875 195.511719 582.339844 195.796875 581.800781 196.101562 C 581.160156 196.460938 580.464844 196.667969 579.925781 196.667969 C 579.027344 196.667969 578.308594 195.796875 578.308594 194.691406 L 578.308594 194.585938 C 578.335938 193.046875 579.464844 192.070312 582.46875 191.019531 L 582.46875 194.742188 "/>
<path style=" stroke:none;fill-rule:nonzero;fill:rgb(0%,0%,0%);fill-opacity:1;" d="M 586.628906 197.898438 L 592.789062 197.898438 L 592.789062 197.515625 C 591.070312 197.464844 590.660156 197.105469 590.609375 195.589844 L 590.609375 189.8125 C 590.609375 188.992188 591.6875 187.707031 592.40625 187.707031 C 592.558594 187.707031 592.789062 187.835938 593.074219 188.09375 C 593.484375 188.476562 593.765625 188.605469 594.101562 188.605469 C 594.714844 188.605469 595.101562 188.167969 595.101562 187.449219 C 595.101562 186.601562 594.5625 186.089844 593.6875 186.089844 C 592.609375 186.089844 591.867188 186.65625 590.609375 188.503906 L 590.609375 186.140625 L 590.480469 186.089844 C 589.117188 186.65625 588.195312 186.988281 586.679688 187.476562 L 586.679688 187.886719 C 587.039062 187.808594 587.269531 187.785156 587.578125 187.785156 C 588.21875 187.785156 588.453125 188.195312 588.453125 189.324219 L 588.453125 195.742188 C 588.398438 197.078125 588.246094 197.234375 586.628906 197.515625 L 586.628906 197.898438 "/>
<path style=" stroke:none;fill-rule:nonzero;fill:rgb(0%,0%,0%);fill-opacity:1;" d="M 596.003906 192.917969 L 602.316406 192.917969 L 602.316406 191.300781 L 596.003906 191.300781 Z M 596.003906 192.917969 "/>
<path style=" stroke:none;fill-rule:nonzero;fill:rgb(0%,0%,0%);fill-opacity:1;" d="M 615.898438 191.96875 L 615.898438 186.011719 L 615.308594 186.011719 C 615.023438 188.039062 614.589844 188.398438 612.484375 188.453125 L 608.761719 188.453125 L 608.761719 182.753906 C 608.785156 181.980469 608.863281 181.90625 609.582031 181.878906 L 613.074219 181.878906 C 616.050781 181.929688 616.566406 182.289062 616.976562 184.574219 L 617.617188 184.574219 L 617.542969 180.902344 L 603.90625 180.902344 L 603.90625 181.390625 C 605.78125 181.519531 606.089844 181.851562 606.140625 183.703125 L 606.140625 194.820312 C 606.117188 197.003906 605.859375 197.285156 603.90625 197.410156 L 603.90625 197.898438 L 611.097656 197.898438 L 611.097656 197.410156 C 609.144531 197.335938 608.785156 196.976562 608.761719 195.101562 L 608.761719 189.503906 L 612.484375 189.503906 C 614.589844 189.53125 615 189.890625 615.308594 191.96875 L 615.898438 191.96875 "/>
<path style=" stroke:none;fill-rule:nonzero;fill:rgb(0%,0%,0%);fill-opacity:1;" d="M 624.320312 186.089844 C 620.953125 186.089844 618.644531 188.554688 618.644531 192.097656 C 618.644531 195.589844 621.03125 198.15625 624.265625 198.15625 C 627.503906 198.15625 629.96875 195.460938 629.96875 191.890625 C 629.96875 188.503906 627.605469 186.089844 624.320312 186.089844 Z M 623.984375 186.808594 C 626.140625 186.808594 627.65625 189.273438 627.65625 192.789062 C 627.65625 195.71875 626.503906 197.4375 624.574219 197.4375 C 623.574219 197.4375 622.621094 196.820312 622.085938 195.796875 C 621.367188 194.460938 620.953125 192.660156 620.953125 190.839844 C 620.953125 188.398438 622.136719 186.808594 623.984375 186.808594 "/>
<path style=" stroke:none;fill-rule:nonzero;fill:rgb(0%,0%,0%);fill-opacity:1;" d="M 630.828125 197.898438 L 636.992188 197.898438 L 636.992188 197.515625 C 635.269531 197.464844 634.859375 197.105469 634.808594 195.589844 L 634.808594 189.8125 C 634.808594 188.992188 635.886719 187.707031 636.605469 187.707031 C 636.757812 187.707031 636.992188 187.835938 637.273438 188.09375 C 637.683594 188.476562 637.964844 188.605469 638.300781 188.605469 C 638.914062 188.605469 639.300781 188.167969 639.300781 187.449219 C 639.300781 186.601562 638.761719 186.089844 637.890625 186.089844 C 636.8125 186.089844 636.066406 186.65625 634.808594 188.503906 L 634.808594 186.140625 L 634.679688 186.089844 C 633.320312 186.65625 632.394531 186.988281 630.878906 187.476562 L 630.878906 187.886719 C 631.238281 187.808594 631.46875 187.785156 631.777344 187.785156 C 632.421875 187.785156 632.652344 188.195312 632.652344 189.324219 L 632.652344 195.742188 C 632.601562 197.078125 632.445312 197.234375 630.828125 197.515625 L 630.828125 197.898438 "/>
<path style=" stroke:none;fill-rule:nonzero;fill:rgb(0%,0%,0%);fill-opacity:1;" d="M 639.710938 197.898438 L 645.410156 197.898438 L 645.410156 197.515625 C 644.101562 197.488281 643.691406 197.207031 643.664062 196.179688 L 643.664062 188.9375 C 643.664062 188.886719 643.871094 188.632812 644.050781 188.453125 C 644.691406 187.859375 645.796875 187.425781 646.695312 187.425781 C 647.824219 187.425781 648.390625 188.324219 648.390625 190.121094 L 648.390625 195.691406 C 648.339844 197.15625 648.082031 197.4375 646.644531 197.515625 L 646.644531 197.898438 L 652.394531 197.898438 L 652.394531 197.515625 C 650.957031 197.515625 650.597656 197.105469 650.546875 195.460938 L 650.546875 188.992188 C 651.316406 187.886719 652.136719 187.425781 653.34375 187.425781 C 654.808594 187.425781 655.269531 188.117188 655.269531 190.246094 L 655.269531 195.664062 C 655.21875 197.179688 655.0625 197.359375 653.574219 197.515625 L 653.574219 197.898438 L 659.199219 197.898438 L 659.199219 197.515625 L 658.53125 197.464844 C 657.710938 197.335938 657.425781 196.949219 657.425781 195.949219 L 657.425781 190.660156 C 657.425781 187.628906 656.425781 186.089844 654.449219 186.089844 C 652.933594 186.089844 651.648438 186.757812 650.261719 188.246094 C 649.800781 186.78125 648.929688 186.089844 647.542969 186.089844 C 646.386719 186.089844 645.71875 186.421875 643.5625 188.066406 L 643.5625 186.140625 L 643.382812 186.089844 C 642.074219 186.578125 641.199219 186.859375 639.789062 187.246094 L 639.789062 187.679688 C 640.121094 187.605469 640.328125 187.578125 640.609375 187.578125 C 641.277344 187.578125 641.507812 187.988281 641.507812 189.222656 L 641.507812 195.71875 C 641.457031 197.15625 641.121094 197.515625 639.710938 197.515625 L 639.710938 197.898438 "/>
<path style=" stroke:none;fill-rule:nonzero;fill:rgb(0%,0%,0%);fill-opacity:1;" d="M 659.890625 197.898438 L 665.976562 197.898438 L 665.976562 197.515625 C 664.28125 197.386719 664.101562 197.15625 664.074219 195.28125 L 664.074219 186.167969 L 663.972656 186.089844 L 659.992188 187.503906 L 659.992188 187.886719 L 660.199219 187.859375 C 660.507812 187.808594 660.839844 187.785156 661.070312 187.785156 C 661.6875 187.785156 661.917969 188.195312 661.917969 189.324219 L 661.917969 195.28125 C 661.867188 197.179688 661.636719 197.4375 659.890625 197.515625 Z M 662.765625 180.363281 C 662.074219 180.363281 661.484375 180.953125 661.484375 181.671875 C 661.484375 182.417969 662.046875 182.984375 662.765625 182.984375 C 663.535156 182.984375 664.101562 182.417969 664.101562 181.671875 C 664.101562 180.929688 663.511719 180.363281 662.765625 180.363281 "/>
<path style=" stroke:none;fill-rule:nonzero;fill:rgb(0%,0%,0%);fill-opacity:1;" d="M 666.863281 197.898438 L 672.304688 197.898438 L 672.304688 197.515625 C 671.023438 197.4375 670.609375 197.105469 670.609375 196.179688 L 670.609375 188.964844 C 671.816406 187.808594 672.40625 187.503906 673.253906 187.503906 C 674.511719 187.503906 675.128906 188.296875 675.128906 189.992188 L 675.128906 195.359375 C 675.078125 197.027344 674.769531 197.4375 673.511719 197.515625 L 673.511719 197.898438 L 678.851562 197.898438 L 678.851562 197.515625 C 677.59375 197.386719 677.3125 197.078125 677.285156 195.820312 L 677.285156 189.941406 C 677.285156 187.527344 676.15625 186.089844 674.257812 186.089844 C 673.074219 186.089844 672.28125 186.527344 670.535156 188.167969 L 670.535156 186.140625 L 670.355469 186.089844 C 669.09375 186.550781 668.222656 186.835938 666.8125 187.246094 L 666.8125 187.679688 C 666.964844 187.605469 667.222656 187.578125 667.503906 187.578125 C 668.222656 187.578125 668.453125 187.964844 668.453125 189.222656 L 668.453125 195.589844 C 668.429688 197.105469 668.144531 197.4375 666.863281 197.515625 L 666.863281 197.898438 "/>
<path style=" stroke:none;fill-rule:nonzero;fill:rgb(0%,0%,0%);fill-opacity:1;" d="M 691.367188 187.9375 L 691.367188 186.9375 L 689.390625 186.9375 C 688.851562 186.9375 688.492188 186.859375 687.976562 186.679688 L 687.414062 186.476562 C 686.71875 186.21875 686.027344 186.089844 685.359375 186.089844 C 682.972656 186.089844 681.070312 187.910156 681.070312 190.273438 C 681.070312 191.890625 681.738281 192.867188 683.460938 193.714844 L 682.792969 194.332031 C 682.253906 194.84375 681.945312 195.128906 681.867188 195.230469 C 681.328125 195.796875 681.175781 196.078125 681.175781 196.515625 C 681.175781 197.078125 681.457031 197.359375 682.535156 197.875 C 680.6875 199.210938 680.019531 200.054688 680.019531 201.007812 C 680.019531 202.367188 681.996094 203.496094 684.460938 203.496094 C 686.386719 203.496094 688.390625 202.828125 689.722656 201.753906 C 690.699219 200.953125 691.136719 200.132812 691.136719 199.15625 C 691.136719 197.566406 689.929688 196.488281 688.03125 196.410156 L 684.71875 196.257812 C 683.332031 196.203125 682.714844 195.976562 682.714844 195.5625 C 682.714844 195.050781 683.5625 194.152344 684.253906 193.945312 C 685.179688 194.023438 685.667969 194.074219 685.71875 194.074219 C 686.667969 194.074219 687.695312 193.6875 688.492188 192.996094 C 689.339844 192.277344 689.722656 191.378906 689.722656 190.09375 C 689.722656 189.351562 689.59375 188.757812 689.234375 187.9375 Z M 683.074219 197.953125 C 683.945312 198.132812 685.976562 198.285156 687.234375 198.285156 C 689.570312 198.285156 690.417969 198.617188 690.417969 199.542969 C 690.417969 201.03125 688.464844 202.035156 685.5625 202.035156 C 683.28125 202.035156 681.816406 201.289062 681.816406 200.160156 C 681.816406 199.570312 682.046875 199.183594 683.074219 197.953125 Z M 683.203125 189.222656 C 683.203125 187.707031 683.921875 186.808594 685.101562 186.808594 C 685.898438 186.808594 686.566406 187.246094 686.976562 188.015625 C 687.464844 188.914062 687.746094 190.070312 687.746094 191.097656 C 687.746094 192.535156 687.027344 193.433594 685.847656 193.433594 C 684.253906 193.433594 683.203125 191.765625 683.203125 189.296875 L 683.203125 189.222656 "/>
<path style="fill:none;stroke-width:36.72;stroke-linecap:butt;stroke-linejoin:miter;stroke:rgb(0%,0%,100%);stroke-opacity:1;stroke-miterlimit:10;" d="M 4975.546875 4201.367188 L 5465.15625 4201.367188 " transform="matrix(0.1,0,0,-0.1,0,612)"/>
<path style=" stroke:none;fill-rule:nonzero;fill:rgb(0%,0%,0%);fill-opacity:1;" d="M 194.332031 467.734375 L 193.871094 467.632812 C 193.40625 470.046875 193.046875 470.351562 190.582031 470.429688 L 187.039062 470.429688 L 193.945312 460.03125 L 193.945312 459.648438 L 185.039062 459.648438 L 184.960938 462.675781 L 185.421875 462.675781 C 185.628906 460.851562 185.988281 460.46875 187.578125 460.417969 L 191.121094 460.417969 L 184.292969 470.816406 L 184.292969 471.199219 L 193.972656 471.199219 L 194.332031 467.734375 "/>
<path style=" stroke:none;fill-rule:nonzero;fill:rgb(0%,0%,0%);fill-opacity:1;" d="M 214.957031 460.082031 L 202.351562 460.082031 L 202.351562 461.445312 L 214.957031 461.445312 Z M 214.957031 465.21875 L 202.351562 465.21875 L 202.351562 466.578125 L 214.957031 466.578125 L 214.957031 465.21875 "/>
<path style=" stroke:none;fill-rule:nonzero;fill:rgb(0%,0%,0%);fill-opacity:1;" d="M 233.851562 453.640625 C 230.921875 453.894531 229.433594 454.382812 227.5625 455.691406 C 224.789062 457.667969 223.273438 460.597656 223.273438 464.035156 C 223.273438 466.269531 223.964844 468.53125 225.070312 469.8125 C 226.046875 470.945312 227.433594 471.558594 229.023438 471.558594 C 232.207031 471.558594 234.414062 469.121094 234.414062 465.578125 C 234.414062 462.265625 232.566406 460.210938 229.5625 460.210938 C 228.433594 460.210938 227.921875 460.390625 226.304688 461.367188 C 226.996094 457.488281 229.871094 454.71875 233.902344 454.050781 Z M 228.613281 461.390625 C 230.847656 461.390625 232.105469 463.242188 232.105469 466.449219 C 232.105469 469.273438 231.101562 470.839844 229.304688 470.839844 C 227.046875 470.839844 225.660156 468.425781 225.660156 464.445312 C 225.660156 463.136719 225.867188 462.417969 226.378906 462.035156 C 226.917969 461.621094 227.714844 461.390625 228.613281 461.390625 "/>
<path style=" stroke:none;fill-rule:nonzero;fill:rgb(0%,0%,0%);fill-opacity:1;" d="M 186.628906 496.898438 L 193.714844 496.898438 L 193.714844 496.515625 C 191.738281 496.515625 191.304688 496.234375 191.277344 495 L 191.277344 479.59375 L 191.070312 479.542969 L 186.449219 481.878906 L 186.449219 482.238281 C 187.453125 481.855469 188.066406 481.675781 188.296875 481.675781 C 188.839844 481.675781 189.070312 482.058594 189.070312 482.882812 L 189.070312 494.511719 C 189.015625 496.128906 188.582031 496.488281 186.628906 496.515625 L 186.628906 496.898438 "/>
<path style=" stroke:none;fill-rule:nonzero;fill:rgb(0%,0%,0%);fill-opacity:1;" d="M 203.023438 479.542969 C 201.609375 479.542969 200.53125 479.953125 199.582031 480.878906 C 198.09375 482.316406 197.117188 485.269531 197.117188 488.273438 C 197.117188 491.097656 197.964844 494.074219 199.171875 495.515625 C 200.121094 496.644531 201.429688 497.257812 202.917969 497.257812 C 204.226562 497.257812 205.332031 496.824219 206.257812 495.925781 C 207.746094 494.511719 208.722656 491.535156 208.722656 488.425781 C 208.722656 483.164062 206.382812 479.542969 203.023438 479.542969 Z M 202.945312 480.210938 C 205.101562 480.210938 206.257812 483.113281 206.257812 488.476562 C 206.257812 493.84375 205.128906 496.59375 202.917969 496.59375 C 200.710938 496.59375 199.582031 493.84375 199.582031 488.503906 C 199.582031 483.035156 200.734375 480.210938 202.945312 480.210938 "/>
<path style=" stroke:none;fill-rule:nonzero;fill:rgb(0%,0%,0%);fill-opacity:1;" d="M 211.445312 481.5 L 216.464844 481.5 L 216.464844 481.226562 C 215.066406 481.226562 214.757812 481.027344 214.738281 480.15625 L 214.738281 469.242188 L 214.59375 469.207031 L 211.320312 470.859375 L 211.320312 471.117188 C 212.027344 470.84375 212.464844 470.714844 212.628906 470.714844 C 213.007812 470.714844 213.171875 470.988281 213.171875 471.570312 L 213.171875 479.808594 C 213.136719 480.953125 212.828125 481.210938 211.445312 481.226562 L 211.445312 481.5 "/>
<path style=" stroke:none;fill-rule:nonzero;fill:rgb(0%,0%,0%);fill-opacity:1;" d="M 220.546875 481.5 L 225.566406 481.5 L 225.566406 481.226562 C 224.164062 481.226562 223.855469 481.027344 223.839844 480.15625 L 223.839844 469.242188 L 223.691406 469.207031 L 220.417969 470.859375 L 220.417969 471.117188 C 221.128906 470.84375 221.5625 470.714844 221.726562 470.714844 C 222.109375 470.714844 222.273438 470.988281 222.273438 471.570312 L 222.273438 479.808594 C 222.238281 480.953125 221.929688 481.210938 220.546875 481.226562 L 220.546875 481.5 "/>
<path style=" stroke:none;fill-rule:nonzero;fill:rgb(0%,0%,0%);fill-opacity:1;" d="M 256.15625 479.902344 L 251.046875 479.902344 L 245.371094 492.867188 L 239.445312 479.902344 L 234.359375 479.902344 L 234.359375 480.390625 C 236.464844 480.492188 236.746094 480.777344 236.796875 482.703125 L 236.796875 493.128906 C 236.746094 495.847656 236.414062 496.285156 234.308594 496.410156 L 234.308594 496.898438 L 240.34375 496.898438 L 240.34375 496.410156 C 238.363281 496.308594 237.980469 495.769531 237.929688 493.128906 L 237.929688 482.777344 L 244.371094 496.898438 L 244.734375 496.898438 L 251.304688 482.1875 L 251.304688 493.820312 C 251.28125 496.003906 250.996094 496.285156 248.96875 496.410156 L 248.96875 496.898438 L 256.15625 496.898438 L 256.15625 496.410156 C 254.308594 496.308594 253.976562 495.949219 253.921875 494.101562 L 253.921875 482.703125 C 253.976562 480.851562 254.28125 480.519531 256.15625 480.390625 L 256.15625 479.902344 "/>
<path style=" stroke:none;fill-rule:nonzero;fill:rgb(0%,0%,0%);fill-opacity:1;" d="M 264.578125 493.632812 C 261.242188 493.632812 258.648438 496.148438 258.648438 499.386719 C 258.648438 502.570312 261.242188 505.109375 264.503906 505.109375 C 267.761719 505.109375 270.355469 502.570312 270.355469 499.359375 C 270.355469 496.203125 267.761719 493.632812 264.578125 493.632812 Z M 264.453125 494.6875 C 267.199219 494.6875 269.304688 496.714844 269.304688 499.386719 C 269.304688 501.976562 267.171875 504.058594 264.503906 504.058594 C 261.832031 504.058594 259.703125 501.976562 259.703125 499.359375 C 259.703125 496.792969 261.832031 494.6875 264.453125 494.6875 "/>
<path style=" stroke:none;fill-rule:nonzero;fill:rgb(0%,0%,0%);fill-opacity:1;" d="M 264.386719 498.410156 C 263.886719 498.410156 263.503906 498.769531 263.503906 499.246094 C 263.503906 499.734375 263.886719 500.09375 264.386719 500.09375 L 264.515625 500.09375 C 265.015625 500.09375 265.402344 499.734375 265.402344 499.246094 C 265.402344 498.769531 265.015625 498.410156 264.515625 498.410156 L 264.386719 498.410156 "/>
<path style=" stroke:none;fill-rule:nonzero;fill:rgb(0%,0%,0%);fill-opacity:1;" d="M 292.109375 495.515625 L 292.109375 494.050781 L 281.066406 489.042969 L 292.109375 484.035156 L 292.109375 482.546875 L 279.398438 488.296875 L 279.398438 489.785156 L 292.109375 495.515625 "/>
<path style=" stroke:none;fill-rule:nonzero;fill:rgb(0%,0%,0%);fill-opacity:1;" d="M 321.558594 479.902344 L 316.449219 479.902344 L 310.773438 492.867188 L 304.84375 479.902344 L 299.757812 479.902344 L 299.757812 480.390625 C 301.863281 480.492188 302.148438 480.777344 302.199219 482.703125 L 302.199219 493.128906 C 302.148438 495.847656 301.8125 496.285156 299.707031 496.410156 L 299.707031 496.898438 L 305.742188 496.898438 L 305.742188 496.410156 C 303.765625 496.308594 303.378906 495.769531 303.328125 493.128906 L 303.328125 482.777344 L 309.773438 496.898438 L 310.132812 496.898438 L 316.703125 482.1875 L 316.703125 493.820312 C 316.679688 496.003906 316.398438 496.285156 314.367188 496.410156 L 314.367188 496.898438 L 321.558594 496.898438 L 321.558594 496.410156 C 319.710938 496.308594 319.375 495.949219 319.324219 494.101562 L 319.324219 482.703125 C 319.375 480.851562 319.683594 480.519531 321.558594 480.390625 L 321.558594 479.902344 "/>
<path style=" stroke:none;fill-rule:nonzero;fill:rgb(0%,0%,0%);fill-opacity:1;" d="M 326.683594 499.035156 C 326.703125 499.199219 326.71875 499.308594 326.71875 499.34375 C 326.71875 499.816406 326.609375 500.289062 326.390625 500.871094 C 326.265625 501.21875 326.191406 501.527344 326.191406 501.726562 C 326.191406 502.070312 326.484375 502.382812 326.828125 502.382812 C 327.210938 502.382812 327.539062 502.035156 327.539062 501.652344 C 327.539062 501.542969 327.484375 501.328125 327.390625 501.070312 C 327.15625 500.433594 327.027344 499.742188 327.027344 499.035156 L 327.027344 498.90625 L 327.15625 498.960938 C 327.554688 499.125 327.957031 499.453125 328.429688 500.054688 C 328.882812 500.617188 329.191406 500.835938 329.519531 500.835938 C 329.902344 500.835938 330.15625 500.5625 330.15625 500.160156 C 330.15625 499.6875 329.882812 499.488281 329.082031 499.359375 C 328.390625 499.253906 327.792969 499.035156 327.320312 498.742188 L 327.171875 498.652344 C 328.066406 498.144531 328.429688 498.015625 329.210938 497.890625 C 329.921875 497.78125 330.140625 497.597656 330.140625 497.125 C 330.140625 496.707031 329.882812 496.414062 329.484375 496.414062 C 329.210938 496.414062 328.902344 496.652344 328.464844 497.160156 C 328.027344 497.6875 327.574219 498.089844 327.15625 498.324219 L 327.027344 498.398438 L 327.027344 497.925781 L 327.519531 495.5625 C 327.519531 495.195312 327.226562 494.90625 326.863281 494.90625 C 326.503906 494.90625 326.226562 495.179688 326.226562 495.542969 C 326.226562 495.742188 326.300781 496.085938 326.410156 496.46875 C 326.59375 497.105469 326.683594 497.671875 326.683594 498.125 L 326.683594 498.359375 C 325.992188 497.980469 325.628906 497.6875 325.046875 497.035156 C 324.683594 496.597656 324.464844 496.453125 324.171875 496.453125 C 323.808594 496.453125 323.554688 496.726562 323.554688 497.105469 C 323.554688 497.5625 323.898438 497.796875 324.792969 497.960938 C 325.464844 498.089844 326.007812 498.269531 326.355469 498.507812 L 326.554688 498.632812 C 325.808594 499.089844 325.519531 499.199219 324.683594 499.359375 C 323.863281 499.507812 323.554688 499.726562 323.554688 500.199219 C 323.554688 500.578125 323.789062 500.816406 324.210938 500.816406 C 324.5 500.816406 324.664062 500.726562 324.972656 500.378906 C 325.503906 499.796875 325.59375 499.707031 325.738281 499.5625 C 325.917969 499.414062 326.007812 499.34375 326.664062 498.90625 L 326.683594 499.035156 "/>
<path style=" stroke:none;fill-rule:nonzero;fill:rgb(0%,0%,0%);fill-opacity:1;" d="M 351.40625 495.515625 L 351.40625 494.050781 L 340.367188 489.042969 L 351.40625 484.035156 L 351.40625 482.546875 L 338.699219 488.296875 L 338.699219 489.785156 L 351.40625 495.515625 "/>
<path style=" stroke:none;fill-rule:nonzero;fill:rgb(0%,0%,0%);fill-opacity:1;" d="M 361.730469 496.898438 L 368.816406 496.898438 L 368.816406 496.515625 C 366.839844 496.515625 366.402344 496.234375 366.378906 495 L 366.378906 479.59375 L 366.171875 479.542969 L 361.550781 481.878906 L 361.550781 482.238281 C 362.550781 481.855469 363.167969 481.675781 363.398438 481.675781 C 363.9375 481.675781 364.167969 482.058594 364.167969 482.882812 L 364.167969 494.511719 C 364.117188 496.128906 363.679688 496.488281 361.730469 496.515625 L 361.730469 496.898438 "/>
<path style=" stroke:none;fill-rule:nonzero;fill:rgb(0%,0%,0%);fill-opacity:1;" d="M 378.121094 479.542969 C 376.710938 479.542969 375.632812 479.953125 374.679688 480.878906 C 373.191406 482.316406 372.214844 485.269531 372.214844 488.273438 C 372.214844 491.097656 373.0625 494.074219 374.269531 495.515625 C 375.21875 496.644531 376.53125 497.257812 378.019531 497.257812 C 379.328125 497.257812 380.433594 496.824219 381.355469 495.925781 C 382.84375 494.511719 383.820312 491.535156 383.820312 488.425781 C 383.820312 483.164062 381.484375 479.542969 378.121094 479.542969 Z M 378.042969 480.210938 C 380.203125 480.210938 381.355469 483.113281 381.355469 488.476562 C 381.355469 493.84375 380.226562 496.59375 378.019531 496.59375 C 375.8125 496.59375 374.679688 493.84375 374.679688 488.503906 C 374.679688 483.035156 375.835938 480.210938 378.042969 480.210938 "/>
<path style=" stroke:none;fill-rule:nonzero;fill:rgb(0%,0%,0%);fill-opacity:1;" d="M 386.546875 481.5 L 391.566406 481.5 L 391.566406 481.226562 C 390.164062 481.226562 389.855469 481.027344 389.839844 480.15625 L 389.839844 469.242188 L 389.691406 469.207031 L 386.417969 470.859375 L 386.417969 471.117188 C 387.128906 470.84375 387.5625 470.714844 387.726562 470.714844 C 388.109375 470.714844 388.273438 470.988281 388.273438 471.570312 L 388.273438 479.808594 C 388.238281 480.953125 387.929688 481.210938 386.546875 481.226562 L 386.546875 481.5 "/>
<path style=" stroke:none;fill-rule:nonzero;fill:rgb(0%,0%,0%);fill-opacity:1;" d="M 402.085938 477.296875 L 400.230469 477.296875 L 400.230469 469.207031 L 399.429688 469.207031 L 393.71875 477.296875 L 393.71875 478.460938 L 398.828125 478.460938 L 398.828125 481.5 L 400.230469 481.5 L 400.230469 478.460938 L 402.085938 478.460938 Z M 398.8125 477.296875 L 394.445312 477.296875 L 398.8125 471.0625 L 398.8125 477.296875 "/>
<path style=" stroke:none;fill-rule:nonzero;fill:rgb(0%,0%,0%);fill-opacity:1;" d="M 431.257812 479.902344 L 426.148438 479.902344 L 420.472656 492.867188 L 414.542969 479.902344 L 409.460938 479.902344 L 409.460938 480.390625 C 411.5625 480.492188 411.847656 480.777344 411.898438 482.703125 L 411.898438 493.128906 C 411.847656 495.847656 411.515625 496.285156 409.40625 496.410156 L 409.40625 496.898438 L 415.441406 496.898438 L 415.441406 496.410156 C 413.464844 496.308594 413.078125 495.769531 413.027344 493.128906 L 413.027344 482.777344 L 419.472656 496.898438 L 419.832031 496.898438 L 426.40625 482.1875 L 426.40625 493.820312 C 426.378906 496.003906 426.097656 496.285156 424.070312 496.410156 L 424.070312 496.898438 L 431.257812 496.898438 L 431.257812 496.410156 C 429.410156 496.308594 429.074219 495.949219 429.023438 494.101562 L 429.023438 482.703125 C 429.074219 480.851562 429.382812 480.519531 431.257812 480.390625 L 431.257812 479.902344 "/>
<path style=" stroke:none;fill-rule:nonzero;fill:rgb(0%,0%,0%);fill-opacity:1;" d="M 439.679688 493.632812 C 436.34375 493.632812 433.746094 496.148438 433.746094 499.386719 C 433.746094 502.570312 436.34375 505.109375 439.601562 505.109375 C 442.863281 505.109375 445.457031 502.570312 445.457031 499.359375 C 445.457031 496.203125 442.863281 493.632812 439.679688 493.632812 Z M 439.550781 494.6875 C 442.296875 494.6875 444.402344 496.714844 444.402344 499.386719 C 444.402344 501.976562 442.273438 504.058594 439.601562 504.058594 C 436.933594 504.058594 434.800781 501.976562 434.800781 499.359375 C 434.800781 496.792969 436.933594 494.6875 439.550781 494.6875 "/>
<path style=" stroke:none;fill-rule:nonzero;fill:rgb(0%,0%,0%);fill-opacity:1;" d="M 439.488281 498.410156 C 438.984375 498.410156 438.601562 498.769531 438.601562 499.246094 C 438.601562 499.734375 438.984375 500.09375 439.488281 500.09375 L 439.617188 500.09375 C 440.117188 500.09375 440.503906 499.734375 440.503906 499.246094 C 440.503906 498.769531 440.117188 498.410156 439.617188 498.410156 L 439.488281 498.410156 "/>
</g>
</svg>
