<?xml version="1.0" encoding="UTF-8"?>
<svg xmlns="http://www.w3.org/2000/svg" xmlns:xlink="http://www.w3.org/1999/xlink" width="792pt" height="612pt" viewBox="0 0 792 612" version="1.2">
<g id="surface1">
<path style=" stroke:none;fill-rule:nonzero;fill:rgb(100%,100%,100%);fill-opacity:1;" d="M 153 520.199219 L 765 520.199219 L 765 91.800781 L 153 91.800781 Z M 153 520.199219 "/>
<path style=" stroke:none;fill-rule:nonzero;fill:rgb(61.3082588352026%,61.3082588352026%,61.3082588352026%);fill-opacity:0.7;" d="M 153 441.066406 L 173.378906 431.765625 L 214.199219 410.773438 L 255.019531 385.925781 L 295.78125 358.019531 L 336.601562 326.992188 L 377.421875 293.820312 L 418.179688 260.222656 L 459 229.378906 L 499.820312 206 L 540.578125 197.554688 L 581.398438 210.039062 L 622.21875 247.492188 L 662.980469 305.203125 L 703.800781 364.753906 L 744.621094 416.648438 L 765 440.886719 L 765 371.300781 L 744.621094 370.320312 L 703.800781 322.21875 L 662.980469 267.015625 L 622.21875 217.015625 L 581.398438 187.578125 L 540.578125 179.195312 L 499.820312 187.453125 L 459 207.285156 L 418.179688 234.214844 L 377.421875 264.628906 L 336.601562 296.820312 L 295.78125 327.785156 L 255.019531 356.671875 L 214.199219 383.113281 L 173.378906 405.570312 L 153 415.488281 "/>
<path style=" stroke:none;fill-rule:nonzero;fill:rgb(100%,47.5351800564199%,47.5351800564199%);fill-opacity:0.7;" d="M 153 513.347656 L 173.378906 511.816406 L 214.199219 507.652344 L 255.019531 501.535156 L 295.78125 493.089844 L 336.601562 482.070312 L 377.421875 468.546875 L 418.179688 454.289062 L 459 441.4375 L 499.820312 431.703125 L 540.578125 426.378906 L 581.398438 425.464844 L 622.21875 432.621094 L 662.980469 445.660156 L 703.800781 476.382812 L 744.621094 501.167969 L 765 510.652344 L 765 473.382812 L 744.621094 458.265625 L 703.800781 420.628906 L 662.980469 408.878906 L 622.21875 395.472656 L 581.398438 388.558594 L 540.578125 389.355469 L 499.820312 394.128906 L 459 404.777344 L 418.179688 420.136719 L 377.421875 437.394531 L 336.601562 455.203125 L 295.78125 470.261719 L 255.019531 482.316406 L 214.199219 491.253906 L 173.378906 498.046875 L 153 500.921875 "/>
<path style=" stroke:none;fill-rule:nonzero;fill:rgb(47.5351800564199%,47.5351800564199%,100%);fill-opacity:0.7;" d="M 153 520.199219 L 173.378906 520.199219 L 214.199219 520.140625 L 255.019531 520.078125 L 295.78125 519.957031 L 336.601562 519.648438 L 377.421875 518.976562 L 418.179688 517.996094 L 459 516.589844 L 499.820312 515.304688 L 540.578125 514.203125 L 581.398438 513.835938 L 622.21875 513.894531 L 662.980469 516.101562 L 703.800781 518.242188 L 744.621094 520.199219 L 765 520.199219 L 765 517.261719 L 744.621094 514.386719 L 703.800781 504.410156 L 662.980469 493.824219 L 622.21875 489.234375 L 581.398438 488.558594 L 540.578125 489.601562 L 499.820312 491.621094 L 459 495.476562 L 418.179688 500.066406 L 377.421875 505.449219 L 336.601562 509.855469 L 295.78125 513.222656 L 255.019531 515.363281 L 214.199219 517.019531 L 173.378906 518.179688 L 153 518.609375 "/>
<path style="fill:none;stroke-width:36.72;stroke-linecap:butt;stroke-linejoin:miter;stroke:rgb(0%,0%,0%);stroke-opacity:1;stroke-miterlimit:10;" d="M 1529.375 1880.664062 L 1733.789062 1981.054688 L 2141.992188 2204.414062 L 2550.195312 2463.90625 L 2957.8125 2746.054688 L 3366.015625 3057.539062 L 3774.21875 3388.046875 L 4181.796875 3714.21875 L 4590 4005.546875 L 4998.203125 4225.859375 L 5405.78125 4321.328125 L 5813.984375 4238.085938 L 6222.1875 3936.367188 L 6629.804688 3402.109375 L 7038.007812 2846.40625 L 7446.210938 2264.414062 L 7650.625 2203.203125 " transform="matrix(0.1,0,0,-0.1,0,612)"/>
<path style="fill:none;stroke-width:36.72;stroke-linecap:butt;stroke-linejoin:miter;stroke:rgb(100%,0%,0%);stroke-opacity:1;stroke-miterlimit:10;" d="M 1529.375 1046.523438 L 1733.789062 1069.765625 L 2141.992188 1131.601562 L 2550.195312 1214.804688 L 2957.8125 1329.257812 L 3366.015625 1470.625 L 3774.21875 1645.664062 L 4181.796875 1818.242188 L 4590 1975.546875 L 4998.203125 2072.226562 L 5405.78125 2101.015625 L 5813.984375 2080.195312 L 6222.1875 1985.9375 L 6629.804688 1840.273438 L 7038.007812 1624.257812 L 7446.210938 1314.570312 L 7650.625 1195.234375 " transform="matrix(0.1,0,0,-0.1,0,612)"/>
<path style="fill:none;stroke-width:36.72;stroke-linecap:butt;stroke-linejoin:miter;stroke:rgb(0%,0%,100%);stroke-opacity:1;stroke-miterlimit:10;" d="M 1529.375 924.101562 L 1733.789062 926.5625 L 2141.992188 932.695312 L 2550.195312 940.625 L 2957.8125 952.890625 L 3366.015625 974.921875 L 3774.21875 1008.554688 L 4181.796875 1050.78125 L 4590 1089.375 L 4998.203125 1124.84375 L 5405.78125 1142.617188 L 5813.984375 1149.960938 L 6222.1875 1132.8125 L 6629.804688 1079.570312 L 7038.007812 1004.296875 L 7446.210938 941.25 L 7650.625 929.648438 " transform="matrix(0.1,0,0,-0.1,0,612)"/>
<path style="fill:none;stroke-width:9.18;stroke-linecap:butt;stroke-linejoin:miter;stroke:rgb(0%,0%,0%);stroke-opacity:1;stroke-miterlimit:10;" d="M 1530 918.007812 L 7650 918.007812 " transform="matrix(0.1,0,0,-0.1,0,612)"/>
<path style="fill:none;stroke-width:9.18;stroke-linecap:butt;stroke-linejoin:miter;stroke:rgb(0%,0%,0%);stroke-opacity:1;stroke-miterlimit:10;" d="M 1530 5201.992188 L 7650 5201.992188 " transform="matrix(0.1,0,0,-0.1,0,612)"/>
<path style="fill:none;stroke-width:9.18;stroke-linecap:butt;stroke-linejoin:miter;stroke:rgb(0%,0%,0%);stroke-opacity:1;stroke-miterlimit:10;" d="M 2143.828125 918.007812 L 2143.828125 979.179688 " transform="matrix(0.1,0,0,-0.1,0,612)"/>
<path style="fill:none;stroke-width:9.18;stroke-linecap:butt;stroke-linejoin:miter;stroke:rgb(0%,0%,0%);stroke-opacity:1;stroke-miterlimit:10;" d="M 2143.828125 5201.992188 L 2143.828125 5140.78125 " transform="matrix(0.1,0,0,-0.1,0,612)"/>
<path style="fill:none;stroke-width:9.18;stroke-linecap:butt;stroke-linejoin:miter;stroke:rgb(0%,0%,0%);stroke-opacity:1;stroke-miterlimit:10;" d="M 2503.085938 918.007812 L 2503.085938 979.179688 " transform="matrix(0.1,0,0,-0.1,0,612)"/>
<path style="fill:none;stroke-width:9.18;stroke-linecap:butt;stroke-linejoin:miter;stroke:rgb(0%,0%,0%);stroke-opacity:1;stroke-miterlimit:10;" d="M 2503.085938 5201.992188 L 2503.085938 5140.78125 " transform="matrix(0.1,0,0,-0.1,0,612)"/>
<path style="fill:none;stroke-width:9.18;stroke-linecap:butt;stroke-linejoin:miter;stroke:rgb(0%,0%,0%);stroke-opacity:1;stroke-miterlimit:10;" d="M 2758.28125 918.007812 L 2758.28125 979.179688 " transform="matrix(0.1,0,0,-0.1,0,612)"/>
<path style="fill:none;stroke-width:9.18;stroke-linecap:butt;stroke-linejoin:miter;stroke:rgb(0%,0%,0%);stroke-opacity:1;stroke-miterlimit:10;" d="M 2758.28125 5201.992188 L 2758.28125 5140.78125 " transform="matrix(0.1,0,0,-0.1,0,612)"/>
<path style="fill:none;stroke-width:9.18;stroke-linecap:butt;stroke-linejoin:miter;stroke:rgb(0%,0%,0%);stroke-opacity:1;stroke-miterlimit:10;" d="M 2955.976562 918.007812 L 2955.976562 979.179688 " transform="matrix(0.1,0,0,-0.1,0,612)"/>
<path style="fill:none;stroke-width:9.18;stroke-linecap:butt;stroke-linejoin:miter;stroke:rgb(0%,0%,0%);stroke-opacity:1;stroke-miterlimit:10;" d="M 2955.976562 5201.992188 L 2955.976562 5140.78125 " transform="matrix(0.1,0,0,-0.1,0,612)"/>
<path style="fill:none;stroke-width:9.18;stroke-linecap:butt;stroke-linejoin:miter;stroke:rgb(0%,0%,0%);stroke-opacity:1;stroke-miterlimit:10;" d="M 3117.539062 918.007812 L 3117.539062 979.179688 " transform="matrix(0.1,0,0,-0.1,0,612)"/>
<path style="fill:none;stroke-width:9.18;stroke-linecap:butt;stroke-linejoin:miter;stroke:rgb(0%,0%,0%);stroke-opacity:1;stroke-miterlimit:10;" d="M 3117.539062 5201.992188 L 3117.539062 5140.78125 " transform="matrix(0.1,0,0,-0.1,0,612)"/>
<path style="fill:none;stroke-width:9.18;stroke-linecap:butt;stroke-linejoin:miter;stroke:rgb(0%,0%,0%);stroke-opacity:1;stroke-miterlimit:10;" d="M 3253.984375 918.007812 L 3253.984375 979.179688 " transform="matrix(0.1,0,0,-0.1,0,612)"/>
<path style="fill:none;stroke-width:9.18;stroke-linecap:butt;stroke-linejoin:miter;stroke:rgb(0%,0%,0%);stroke-opacity:1;stroke-miterlimit:10;" d="M 3253.984375 5201.992188 L 3253.984375 5140.78125 " transform="matrix(0.1,0,0,-0.1,0,612)"/>
<path style="fill:none;stroke-width:9.18;stroke-linecap:butt;stroke-linejoin:miter;stroke:rgb(0%,0%,0%);stroke-opacity:1;stroke-miterlimit:10;" d="M 3372.109375 918.007812 L 3372.109375 979.179688 " transform="matrix(0.1,0,0,-0.1,0,612)"/>
<path style="fill:none;stroke-width:9.18;stroke-linecap:butt;stroke-linejoin:miter;stroke:rgb(0%,0%,0%);stroke-opacity:1;stroke-miterlimit:10;" d="M 3372.109375 5201.992188 L 3372.109375 5140.78125 " transform="matrix(0.1,0,0,-0.1,0,612)"/>
<path style="fill:none;stroke-width:9.18;stroke-linecap:butt;stroke-linejoin:miter;stroke:rgb(0%,0%,0%);stroke-opacity:1;stroke-miterlimit:10;" d="M 3476.757812 918.007812 L 3476.757812 979.179688 " transform="matrix(0.1,0,0,-0.1,0,612)"/>
<path style="fill:none;stroke-width:9.18;stroke-linecap:butt;stroke-linejoin:miter;stroke:rgb(0%,0%,0%);stroke-opacity:1;stroke-miterlimit:10;" d="M 3476.757812 5201.992188 L 3476.757812 5140.78125 " transform="matrix(0.1,0,0,-0.1,0,612)"/>
<path style="fill:none;stroke-width:9.18;stroke-linecap:butt;stroke-linejoin:miter;stroke:rgb(0%,0%,0%);stroke-opacity:1;stroke-miterlimit:10;" d="M 3569.804688 918.007812 L 3569.804688 979.179688 " transform="matrix(0.1,0,0,-0.1,0,612)"/>
<path style="fill:none;stroke-width:9.18;stroke-linecap:butt;stroke-linejoin:miter;stroke:rgb(0%,0%,0%);stroke-opacity:1;stroke-miterlimit:10;" d="M 3569.804688 5201.992188 L 3569.804688 5140.78125 " transform="matrix(0.1,0,0,-0.1,0,612)"/>
<path style="fill:none;stroke-width:9.18;stroke-linecap:butt;stroke-linejoin:miter;stroke:rgb(0%,0%,0%);stroke-opacity:1;stroke-miterlimit:10;" d="M 4184.257812 918.007812 L 4184.257812 979.179688 " transform="matrix(0.1,0,0,-0.1,0,612)"/>
<path style="fill:none;stroke-width:9.18;stroke-linecap:butt;stroke-linejoin:miter;stroke:rgb(0%,0%,0%);stroke-opacity:1;stroke-miterlimit:10;" d="M 4184.257812 5201.992188 L 4184.257812 5140.78125 " transform="matrix(0.1,0,0,-0.1,0,612)"/>
<path style="fill:none;stroke-width:9.18;stroke-linecap:butt;stroke-linejoin:miter;stroke:rgb(0%,0%,0%);stroke-opacity:1;stroke-miterlimit:10;" d="M 4543.476562 918.007812 L 4543.476562 979.179688 " transform="matrix(0.1,0,0,-0.1,0,612)"/>
<path style="fill:none;stroke-width:9.18;stroke-linecap:butt;stroke-linejoin:miter;stroke:rgb(0%,0%,0%);stroke-opacity:1;stroke-miterlimit:10;" d="M 4543.476562 5201.992188 L 4543.476562 5140.78125 " transform="matrix(0.1,0,0,-0.1,0,612)"/>
<path style="fill:none;stroke-width:9.18;stroke-linecap:butt;stroke-linejoin:miter;stroke:rgb(0%,0%,0%);stroke-opacity:1;stroke-miterlimit:10;" d="M 4798.085938 918.007812 L 4798.085938 979.179688 " transform="matrix(0.1,0,0,-0.1,0,612)"/>
<path style="fill:none;stroke-width:9.18;stroke-linecap:butt;stroke-linejoin:miter;stroke:rgb(0%,0%,0%);stroke-opacity:1;stroke-miterlimit:10;" d="M 4798.085938 5201.992188 L 4798.085938 5140.78125 " transform="matrix(0.1,0,0,-0.1,0,612)"/>
<path style="fill:none;stroke-width:9.18;stroke-linecap:butt;stroke-linejoin:miter;stroke:rgb(0%,0%,0%);stroke-opacity:1;stroke-miterlimit:10;" d="M 4995.742188 918.007812 L 4995.742188 979.179688 " transform="matrix(0.1,0,0,-0.1,0,612)"/>
<path style="fill:none;stroke-width:9.18;stroke-linecap:butt;stroke-linejoin:miter;stroke:rgb(0%,0%,0%);stroke-opacity:1;stroke-miterlimit:10;" d="M 4995.742188 5201.992188 L 4995.742188 5140.78125 " transform="matrix(0.1,0,0,-0.1,0,612)"/>
<path style="fill:none;stroke-width:9.18;stroke-linecap:butt;stroke-linejoin:miter;stroke:rgb(0%,0%,0%);stroke-opacity:1;stroke-miterlimit:10;" d="M 5157.304688 918.007812 L 5157.304688 979.179688 " transform="matrix(0.1,0,0,-0.1,0,612)"/>
<path style="fill:none;stroke-width:9.18;stroke-linecap:butt;stroke-linejoin:miter;stroke:rgb(0%,0%,0%);stroke-opacity:1;stroke-miterlimit:10;" d="M 5157.304688 5201.992188 L 5157.304688 5140.78125 " transform="matrix(0.1,0,0,-0.1,0,612)"/>
<path style="fill:none;stroke-width:9.18;stroke-linecap:butt;stroke-linejoin:miter;stroke:rgb(0%,0%,0%);stroke-opacity:1;stroke-miterlimit:10;" d="M 5293.789062 918.007812 L 5293.789062 979.179688 " transform="matrix(0.1,0,0,-0.1,0,612)"/>
<path style="fill:none;stroke-width:9.18;stroke-linecap:butt;stroke-linejoin:miter;stroke:rgb(0%,0%,0%);stroke-opacity:1;stroke-miterlimit:10;" d="M 5293.789062 5201.992188 L 5293.789062 5140.78125 " transform="matrix(0.1,0,0,-0.1,0,612)"/>
<path style="fill:none;stroke-width:9.18;stroke-linecap:butt;stroke-linejoin:miter;stroke:rgb(0%,0%,0%);stroke-opacity:1;stroke-miterlimit:10;" d="M 5412.539062 918.007812 L 5412.539062 979.179688 " transform="matrix(0.1,0,0,-0.1,0,612)"/>
<path style="fill:none;stroke-width:9.18;stroke-linecap:butt;stroke-linejoin:miter;stroke:rgb(0%,0%,0%);stroke-opacity:1;stroke-miterlimit:10;" d="M 5412.539062 5201.992188 L 5412.539062 5140.78125 " transform="matrix(0.1,0,0,-0.1,0,612)"/>
<path style="fill:none;stroke-width:9.18;stroke-linecap:butt;stroke-linejoin:miter;stroke:rgb(0%,0%,0%);stroke-opacity:1;stroke-miterlimit:10;" d="M 5516.5625 918.007812 L 5516.5625 979.179688 " transform="matrix(0.1,0,0,-0.1,0,612)"/>
<path style="fill:none;stroke-width:9.18;stroke-linecap:butt;stroke-linejoin:miter;stroke:rgb(0%,0%,0%);stroke-opacity:1;stroke-miterlimit:10;" d="M 5516.5625 5201.992188 L 5516.5625 5140.78125 " transform="matrix(0.1,0,0,-0.1,0,612)"/>
<path style="fill:none;stroke-width:9.18;stroke-linecap:butt;stroke-linejoin:miter;stroke:rgb(0%,0%,0%);stroke-opacity:1;stroke-miterlimit:10;" d="M 5610.195312 918.007812 L 5610.195312 979.179688 " transform="matrix(0.1,0,0,-0.1,0,612)"/>
<path style="fill:none;stroke-width:9.18;stroke-linecap:butt;stroke-linejoin:miter;stroke:rgb(0%,0%,0%);stroke-opacity:1;stroke-miterlimit:10;" d="M 5610.195312 5201.992188 L 5610.195312 5140.78125 " transform="matrix(0.1,0,0,-0.1,0,612)"/>
<path style="fill:none;stroke-width:9.18;stroke-linecap:butt;stroke-linejoin:miter;stroke:rgb(0%,0%,0%);stroke-opacity:1;stroke-miterlimit:10;" d="M 6224.023438 918.007812 L 6224.023438 979.179688 " transform="matrix(0.1,0,0,-0.1,0,612)"/>
<path style="fill:none;stroke-width:9.18;stroke-linecap:butt;stroke-linejoin:miter;stroke:rgb(0%,0%,0%);stroke-opacity:1;stroke-miterlimit:10;" d="M 6224.023438 5201.992188 L 6224.023438 5140.78125 " transform="matrix(0.1,0,0,-0.1,0,612)"/>
<path style="fill:none;stroke-width:9.18;stroke-linecap:butt;stroke-linejoin:miter;stroke:rgb(0%,0%,0%);stroke-opacity:1;stroke-miterlimit:10;" d="M 6583.28125 918.007812 L 6583.28125 979.179688 " transform="matrix(0.1,0,0,-0.1,0,612)"/>
<path style="fill:none;stroke-width:9.18;stroke-linecap:butt;stroke-linejoin:miter;stroke:rgb(0%,0%,0%);stroke-opacity:1;stroke-miterlimit:10;" d="M 6583.28125 5201.992188 L 6583.28125 5140.78125 " transform="matrix(0.1,0,0,-0.1,0,612)"/>
<path style="fill:none;stroke-width:9.18;stroke-linecap:butt;stroke-linejoin:miter;stroke:rgb(0%,0%,0%);stroke-opacity:1;stroke-miterlimit:10;" d="M 6838.476562 918.007812 L 6838.476562 979.179688 " transform="matrix(0.1,0,0,-0.1,0,612)"/>
<path style="fill:none;stroke-width:9.18;stroke-linecap:butt;stroke-linejoin:miter;stroke:rgb(0%,0%,0%);stroke-opacity:1;stroke-miterlimit:10;" d="M 6838.476562 5201.992188 L 6838.476562 5140.78125 " transform="matrix(0.1,0,0,-0.1,0,612)"/>
<path style="fill:none;stroke-width:9.18;stroke-linecap:butt;stroke-linejoin:miter;stroke:rgb(0%,0%,0%);stroke-opacity:1;stroke-miterlimit:10;" d="M 7036.171875 918.007812 L 7036.171875 979.179688 " transform="matrix(0.1,0,0,-0.1,0,612)"/>
<path style="fill:none;stroke-width:9.18;stroke-linecap:butt;stroke-linejoin:miter;stroke:rgb(0%,0%,0%);stroke-opacity:1;stroke-miterlimit:10;" d="M 7036.171875 5201.992188 L 7036.171875 5140.78125 " transform="matrix(0.1,0,0,-0.1,0,612)"/>
<path style="fill:none;stroke-width:9.18;stroke-linecap:butt;stroke-linejoin:miter;stroke:rgb(0%,0%,0%);stroke-opacity:1;stroke-miterlimit:10;" d="M 7197.734375 918.007812 L 7197.734375 979.179688 " transform="matrix(0.1,0,0,-0.1,0,612)"/>
<path style="fill:none;stroke-width:9.18;stroke-linecap:butt;stroke-linejoin:miter;stroke:rgb(0%,0%,0%);stroke-opacity:1;stroke-miterlimit:10;" d="M 7197.734375 5201.992188 L 7197.734375 5140.78125 " transform="matrix(0.1,0,0,-0.1,0,612)"/>
<path style="fill:none;stroke-width:9.18;stroke-linecap:butt;stroke-linejoin:miter;stroke:rgb(0%,0%,0%);stroke-opacity:1;stroke-miterlimit:10;" d="M 7334.21875 918.007812 L 7334.21875 979.179688 " transform="matrix(0.1,0,0,-0.1,0,612)"/>
<path style="fill:none;stroke-width:9.18;stroke-linecap:butt;stroke-linejoin:miter;stroke:rgb(0%,0%,0%);stroke-opacity:1;stroke-miterlimit:10;" d="M 7334.21875 5201.992188 L 7334.21875 5140.78125 " transform="matrix(0.1,0,0,-0.1,0,612)"/>
<path style="fill:none;stroke-width:9.18;stroke-linecap:butt;stroke-linejoin:miter;stroke:rgb(0%,0%,0%);stroke-opacity:1;stroke-miterlimit:10;" d="M 7452.304688 918.007812 L 7452.304688 979.179688 " transform="matrix(0.1,0,0,-0.1,0,612)"/>
<path style="fill:none;stroke-width:9.18;stroke-linecap:butt;stroke-linejoin:miter;stroke:rgb(0%,0%,0%);stroke-opacity:1;stroke-miterlimit:10;" d="M 7452.304688 5201.992188 L 7452.304688 5140.78125 " transform="matrix(0.1,0,0,-0.1,0,612)"/>
<path style="fill:none;stroke-width:9.18;stroke-linecap:butt;stroke-linejoin:miter;stroke:rgb(0%,0%,0%);stroke-opacity:1;stroke-miterlimit:10;" d="M 7556.367188 918.007812 L 7556.367188 979.179688 " transform="matrix(0.1,0,0,-0.1,0,612)"/>
<path style="fill:none;stroke-width:9.18;stroke-linecap:butt;stroke-linejoin:miter;stroke:rgb(0%,0%,0%);stroke-opacity:1;stroke-miterlimit:10;" d="M 7556.367188 5201.992188 L 7556.367188 5140.78125 " transform="matrix(0.1,0,0,-0.1,0,612)"/>
<path style="fill:none;stroke-width:9.18;stroke-linecap:butt;stroke-linejoin:miter;stroke:rgb(0%,0%,0%);stroke-opacity:1;stroke-miterlimit:10;" d="M 7650 918.007812 L 7650 979.179688 " transform="matrix(0.1,0,0,-0.1,0,612)"/>
<path style="fill:none;stroke-width:9.18;stroke-linecap:butt;stroke-linejoin:miter;stroke:rgb(0%,0%,0%);stroke-opacity:1;stroke-miterlimit:10;" d="M 7650 5201.992188 L 7650 5140.78125 " transform="matrix(0.1,0,0,-0.1,0,612)"/>
<path style="fill:none;stroke-width:9.18;stroke-linecap:butt;stroke-linejoin:miter;stroke:rgb(0%,0%,0%);stroke-opacity:1;stroke-miterlimit:10;" d="M 1530 918.007812 L 1530 1040.390625 " transform="matrix(0.1,0,0,-0.1,0,612)"/>
<path style="fill:none;stroke-width:9.18;stroke-linecap:butt;stroke-linejoin:miter;stroke:rgb(0%,0%,0%);stroke-opacity:1;stroke-miterlimit:10;" d="M 1530 5201.992188 L 1530 5079.609375 " transform="matrix(0.1,0,0,-0.1,0,612)"/>
<path style="fill:none;stroke-width:9.18;stroke-linecap:butt;stroke-linejoin:miter;stroke:rgb(0%,0%,0%);stroke-opacity:1;stroke-miterlimit:10;" d="M 3569.804688 918.007812 L 3569.804688 1040.390625 " transform="matrix(0.1,0,0,-0.1,0,612)"/>
<path style="fill:none;stroke-width:9.18;stroke-linecap:butt;stroke-linejoin:miter;stroke:rgb(0%,0%,0%);stroke-opacity:1;stroke-miterlimit:10;" d="M 3569.804688 5201.992188 L 3569.804688 5079.609375 " transform="matrix(0.1,0,0,-0.1,0,612)"/>
<path style="fill:none;stroke-width:9.18;stroke-linecap:butt;stroke-linejoin:miter;stroke:rgb(0%,0%,0%);stroke-opacity:1;stroke-miterlimit:10;" d="M 5610.195312 918.007812 L 5610.195312 1040.390625 " transform="matrix(0.1,0,0,-0.1,0,612)"/>
<path style="fill:none;stroke-width:9.18;stroke-linecap:butt;stroke-linejoin:miter;stroke:rgb(0%,0%,0%);stroke-opacity:1;stroke-miterlimit:10;" d="M 5610.195312 5201.992188 L 5610.195312 5079.609375 " transform="matrix(0.1,0,0,-0.1,0,612)"/>
<path style="fill:none;stroke-width:9.18;stroke-linecap:butt;stroke-linejoin:miter;stroke:rgb(0%,0%,0%);stroke-opacity:1;stroke-miterlimit:10;" d="M 7650 918.007812 L 7650 1040.390625 " transform="matrix(0.1,0,0,-0.1,0,612)"/>
<path style="fill:none;stroke-width:9.18;stroke-linecap:butt;stroke-linejoin:miter;stroke:rgb(0%,0%,0%);stroke-opacity:1;stroke-miterlimit:10;" d="M 7650 5201.992188 L 7650 5079.609375 " transform="matrix(0.1,0,0,-0.1,0,612)"/>
<path style=" stroke:none;fill-rule:nonzero;fill:rgb(0%,0%,0%);fill-opacity:1;" d="M 139.03125 554 L 146.117188 554 L 146.117188 553.617188 C 144.140625 553.617188 143.703125 553.332031 143.675781 552.101562 L 143.675781 536.695312 L 143.472656 536.644531 L 138.851562 538.980469 L 138.851562 539.339844 C 139.851562 538.953125 140.46875 538.773438 140.699219 538.773438 C 141.238281 538.773438 141.46875 539.160156 141.46875 539.980469 L 141.46875 551.613281 C 141.417969 553.230469 140.980469 553.589844 139.03125 553.617188 L 139.03125 554 "/>
<path style=" stroke:none;fill-rule:nonzero;fill:rgb(0%,0%,0%);fill-opacity:1;" d="M 155.320312 536.644531 C 153.910156 536.644531 152.832031 537.054688 151.882812 537.980469 C 150.390625 539.417969 149.414062 542.367188 149.414062 545.375 C 149.414062 548.195312 150.265625 551.175781 151.46875 552.613281 C 152.421875 553.742188 153.730469 554.359375 155.21875 554.359375 C 156.527344 554.359375 157.632812 553.921875 158.554688 553.023438 C 160.046875 551.613281 161.023438 548.632812 161.023438 545.527344 C 161.023438 540.265625 158.683594 536.644531 155.320312 536.644531 Z M 155.242188 537.3125 C 157.402344 537.3125 158.554688 540.210938 158.554688 545.578125 C 158.554688 550.945312 157.425781 553.691406 155.21875 553.691406 C 153.011719 553.691406 151.882812 550.945312 151.882812 545.605469 C 151.882812 540.136719 153.035156 537.3125 155.242188 537.3125 "/>
<path style=" stroke:none;fill-rule:nonzero;fill:rgb(0%,0%,0%);fill-opacity:1;" d="M 162.671875 539 C 164.710938 538.765625 165.710938 538.417969 166.945312 537.527344 C 168.839844 536.144531 169.945312 533.890625 169.945312 531.433594 C 169.945312 528.433594 168.292969 526.304688 165.929688 526.304688 C 163.765625 526.304688 162.144531 528.140625 162.144531 530.597656 C 162.144531 532.816406 163.453125 534.289062 165.417969 534.289062 C 166.417969 534.289062 167.183594 534 168.148438 533.253906 C 167.402344 536.21875 165.382812 538.164062 162.617188 538.636719 Z M 168.183594 532.144531 C 168.183594 532.507812 168.109375 532.671875 167.910156 532.835938 C 167.402344 533.253906 166.726562 533.507812 166.074219 533.507812 C 164.691406 533.507812 163.820312 532.144531 163.820312 529.980469 C 163.820312 528.945312 164.109375 527.851562 164.492188 527.378906 C 164.800781 527.015625 165.253906 526.816406 165.78125 526.816406 C 167.367188 526.816406 168.183594 528.378906 168.183594 531.433594 L 168.183594 532.144531 "/>
<path style=" stroke:none;fill-rule:nonzero;fill:rgb(0%,0%,0%);fill-opacity:1;" d="M 338.328125 554 L 345.414062 554 L 345.414062 553.617188 C 343.4375 553.617188 343.003906 553.332031 342.976562 552.101562 L 342.976562 536.695312 L 342.773438 536.644531 L 338.148438 538.980469 L 338.148438 539.339844 C 339.152344 538.953125 339.765625 538.773438 339.996094 538.773438 C 340.539062 538.773438 340.769531 539.160156 340.769531 539.980469 L 340.769531 551.613281 C 340.71875 553.230469 340.28125 553.589844 338.328125 553.617188 L 338.328125 554 "/>
<path style=" stroke:none;fill-rule:nonzero;fill:rgb(0%,0%,0%);fill-opacity:1;" d="M 354.621094 536.644531 C 353.210938 536.644531 352.132812 537.054688 351.179688 537.980469 C 349.691406 539.417969 348.714844 542.367188 348.714844 545.375 C 348.714844 548.195312 349.5625 551.175781 350.769531 552.613281 C 351.71875 553.742188 353.03125 554.359375 354.519531 554.359375 C 355.828125 554.359375 356.933594 553.921875 357.855469 553.023438 C 359.34375 551.613281 360.320312 548.632812 360.320312 545.527344 C 360.320312 540.265625 357.984375 536.644531 354.621094 536.644531 Z M 354.542969 537.3125 C 356.703125 537.3125 357.855469 540.210938 357.855469 545.578125 C 357.855469 550.945312 356.726562 553.691406 354.519531 553.691406 C 352.3125 553.691406 351.179688 550.945312 351.179688 545.605469 C 351.179688 540.136719 352.335938 537.3125 354.542969 537.3125 "/>
<path style=" stroke:none;fill-rule:nonzero;fill:rgb(0%,0%,0%);fill-opacity:1;" d="M 363.144531 538.601562 L 368.164062 538.601562 L 368.164062 538.328125 C 366.765625 538.328125 366.457031 538.125 366.4375 537.253906 L 366.4375 526.34375 L 366.292969 526.304688 L 363.019531 527.960938 L 363.019531 528.214844 C 363.726562 527.941406 364.164062 527.816406 364.328125 527.816406 C 364.710938 527.816406 364.871094 528.089844 364.871094 528.671875 L 364.871094 536.910156 C 364.839844 538.054688 364.527344 538.308594 363.144531 538.328125 L 363.144531 538.601562 "/>
<path style=" stroke:none;fill-rule:nonzero;fill:rgb(0%,0%,0%);fill-opacity:1;" d="M 374.617188 526.304688 C 373.617188 526.304688 372.855469 526.597656 372.183594 527.25 C 371.128906 528.269531 370.4375 530.359375 370.4375 532.488281 C 370.4375 534.492188 371.035156 536.601562 371.890625 537.617188 C 372.5625 538.417969 373.492188 538.855469 374.546875 538.855469 C 375.472656 538.855469 376.257812 538.546875 376.910156 537.910156 C 377.964844 536.910156 378.65625 534.796875 378.65625 532.597656 C 378.65625 528.871094 377.003906 526.304688 374.617188 526.304688 Z M 374.5625 526.777344 C 376.09375 526.777344 376.910156 528.835938 376.910156 532.632812 C 376.910156 536.4375 376.109375 538.382812 374.546875 538.382812 C 372.984375 538.382812 372.183594 536.4375 372.183594 532.652344 C 372.183594 528.78125 373 526.777344 374.5625 526.777344 "/>
<path style=" stroke:none;fill-rule:nonzero;fill:rgb(0%,0%,0%);fill-opacity:1;" d="M 543.03125 554 L 550.117188 554 L 550.117188 553.617188 C 548.140625 553.617188 547.703125 553.332031 547.675781 552.101562 L 547.675781 536.695312 L 547.472656 536.644531 L 542.851562 538.980469 L 542.851562 539.339844 C 543.851562 538.953125 544.46875 538.773438 544.699219 538.773438 C 545.238281 538.773438 545.46875 539.160156 545.46875 539.980469 L 545.46875 551.613281 C 545.417969 553.230469 544.980469 553.589844 543.03125 553.617188 L 543.03125 554 "/>
<path style=" stroke:none;fill-rule:nonzero;fill:rgb(0%,0%,0%);fill-opacity:1;" d="M 559.421875 536.644531 C 558.007812 536.644531 556.929688 537.054688 555.980469 537.980469 C 554.492188 539.417969 553.515625 542.367188 553.515625 545.375 C 553.515625 548.195312 554.363281 551.175781 555.570312 552.613281 C 556.519531 553.742188 557.828125 554.359375 559.320312 554.359375 C 560.628906 554.359375 561.734375 553.921875 562.65625 553.023438 C 564.144531 551.613281 565.121094 548.632812 565.121094 545.527344 C 565.121094 540.265625 562.785156 536.644531 559.421875 536.644531 Z M 559.34375 537.3125 C 561.503906 537.3125 562.65625 540.210938 562.65625 545.578125 C 562.65625 550.945312 561.527344 553.691406 559.320312 553.691406 C 557.109375 553.691406 555.980469 550.945312 555.980469 545.605469 C 555.980469 540.136719 557.136719 537.3125 559.34375 537.3125 "/>
<path style=" stroke:none;fill-rule:nonzero;fill:rgb(0%,0%,0%);fill-opacity:1;" d="M 567.84375 538.601562 L 572.867188 538.601562 L 572.867188 538.328125 C 571.464844 538.328125 571.15625 538.125 571.136719 537.253906 L 571.136719 526.34375 L 570.992188 526.304688 L 567.71875 527.960938 L 567.71875 528.214844 C 568.429688 527.941406 568.863281 527.816406 569.027344 527.816406 C 569.410156 527.816406 569.574219 528.089844 569.574219 528.671875 L 569.574219 536.910156 C 569.539062 538.054688 569.226562 538.308594 567.84375 538.328125 L 567.84375 538.601562 "/>
<path style=" stroke:none;fill-rule:nonzero;fill:rgb(0%,0%,0%);fill-opacity:1;" d="M 576.945312 538.601562 L 581.964844 538.601562 L 581.964844 538.328125 C 580.566406 538.328125 580.257812 538.125 580.238281 537.253906 L 580.238281 526.34375 L 580.09375 526.304688 L 576.820312 527.960938 L 576.820312 528.214844 C 577.527344 527.941406 577.964844 527.816406 578.128906 527.816406 C 578.507812 527.816406 578.671875 528.089844 578.671875 528.671875 L 578.671875 536.910156 C 578.636719 538.054688 578.328125 538.308594 576.945312 538.328125 L 576.945312 538.601562 "/>
<path style=" stroke:none;fill-rule:nonzero;fill:rgb(0%,0%,0%);fill-opacity:1;" d="M 746.328125 554 L 753.414062 554 L 753.414062 553.617188 C 751.4375 553.617188 751.003906 553.332031 750.976562 552.101562 L 750.976562 536.695312 L 750.773438 536.644531 L 746.148438 538.980469 L 746.148438 539.339844 C 747.152344 538.953125 747.765625 538.773438 747.996094 538.773438 C 748.539062 538.773438 748.769531 539.160156 748.769531 539.980469 L 748.769531 551.613281 C 748.71875 553.230469 748.28125 553.589844 746.328125 553.617188 L 746.328125 554 "/>
<path style=" stroke:none;fill-rule:nonzero;fill:rgb(0%,0%,0%);fill-opacity:1;" d="M 762.621094 536.644531 C 761.210938 536.644531 760.132812 537.054688 759.179688 537.980469 C 757.691406 539.417969 756.714844 542.367188 756.714844 545.375 C 756.714844 548.195312 757.5625 551.175781 758.769531 552.613281 C 759.71875 553.742188 761.03125 554.359375 762.519531 554.359375 C 763.828125 554.359375 764.933594 553.921875 765.855469 553.023438 C 767.34375 551.613281 768.320312 548.632812 768.320312 545.527344 C 768.320312 540.265625 765.984375 536.644531 762.621094 536.644531 Z M 762.542969 537.3125 C 764.703125 537.3125 765.855469 540.210938 765.855469 545.578125 C 765.855469 550.945312 764.726562 553.691406 762.519531 553.691406 C 760.3125 553.691406 759.179688 550.945312 759.179688 545.605469 C 759.179688 540.136719 760.335938 537.3125 762.542969 537.3125 "/>
<path style=" stroke:none;fill-rule:nonzero;fill:rgb(0%,0%,0%);fill-opacity:1;" d="M 771.144531 538.601562 L 776.164062 538.601562 L 776.164062 538.328125 C 774.765625 538.328125 774.457031 538.125 774.4375 537.253906 L 774.4375 526.34375 L 774.292969 526.304688 L 771.019531 527.960938 L 771.019531 528.214844 C 771.726562 527.941406 772.164062 527.816406 772.328125 527.816406 C 772.710938 527.816406 772.871094 528.089844 772.871094 528.671875 L 772.871094 536.910156 C 772.839844 538.054688 772.527344 538.308594 771.144531 538.328125 L 771.144531 538.601562 "/>
<path style=" stroke:none;fill-rule:nonzero;fill:rgb(0%,0%,0%);fill-opacity:1;" d="M 786.738281 536.109375 L 786.503906 536.015625 C 785.828125 537.070312 785.628906 537.199219 784.773438 537.21875 L 780.429688 537.21875 L 783.484375 534.015625 C 785.101562 532.324219 785.8125 530.945312 785.8125 529.507812 C 785.8125 527.707031 784.339844 526.304688 782.445312 526.304688 C 781.445312 526.304688 780.5 526.707031 779.828125 527.433594 C 779.246094 528.050781 778.972656 528.632812 778.664062 529.925781 L 779.046875 530.015625 C 779.773438 528.234375 780.410156 527.652344 781.683594 527.652344 C 783.226562 527.652344 784.246094 528.6875 784.246094 530.214844 C 784.246094 531.652344 783.410156 533.328125 781.882812 534.945312 L 778.644531 538.382812 L 778.644531 538.601562 L 785.738281 538.601562 L 786.738281 536.109375 "/>
<path style=" stroke:none;fill-rule:nonzero;fill:rgb(0%,0%,0%);fill-opacity:1;" d="M 376.878906 560.445312 L 376.339844 560.445312 C 376.234375 561.035156 375.953125 561.316406 375.515625 561.316406 C 375.257812 561.316406 374.824219 561.214844 374.386719 561.007812 C 373.4375 560.648438 372.484375 560.445312 371.640625 560.445312 C 370.5625 560.445312 369.429688 560.878906 368.585938 561.625 C 367.683594 562.421875 367.222656 563.5 367.222656 564.835938 C 367.222656 566.886719 368.351562 568.328125 371.226562 569.839844 C 373.078125 570.84375 374.414062 571.867188 375.054688 572.84375 C 375.285156 573.179688 375.414062 573.71875 375.414062 574.359375 C 375.414062 576.054688 374.128906 577.234375 372.253906 577.234375 C 369.945312 577.234375 368.351562 575.824219 367.070312 572.691406 L 366.476562 572.691406 L 367.246094 578.132812 L 367.8125 578.132812 C 367.839844 577.644531 368.148438 577.285156 368.53125 577.285156 C 368.8125 577.285156 369.253906 577.390625 369.738281 577.570312 C 370.714844 577.953125 371.765625 578.160156 372.769531 578.160156 C 375.746094 578.160156 378.007812 576.132812 378.007812 573.484375 C 378.007812 571.382812 376.59375 569.710938 373.203125 567.863281 C 370.507812 566.398438 369.429688 565.269531 369.429688 563.859375 C 369.429688 562.445312 370.507812 561.496094 372.101562 561.496094 C 373.257812 561.496094 374.335938 561.984375 375.234375 562.910156 C 376.03125 563.730469 376.390625 564.398438 376.800781 565.914062 L 377.441406 565.914062 L 376.878906 560.445312 "/>
<path style=" stroke:none;fill-rule:nonzero;fill:rgb(0%,0%,0%);fill-opacity:1;" d="M 386.351562 566.246094 L 383.757812 566.246094 L 383.757812 563.269531 C 383.757812 563.011719 383.703125 562.933594 383.578125 562.933594 C 382.089844 565.089844 381.316406 565.964844 380.574219 566.398438 C 380.289062 566.578125 380.136719 566.734375 380.136719 566.886719 C 380.136719 566.964844 380.164062 567.015625 380.238281 567.066406 L 381.601562 567.066406 L 381.601562 574.796875 C 381.601562 576.953125 382.371094 578.054688 383.882812 578.054688 C 385.144531 578.054688 386.117188 577.441406 386.964844 576.105469 L 386.632812 575.824219 C 386.066406 576.492188 385.65625 576.722656 385.09375 576.722656 C 384.140625 576.722656 383.757812 576.027344 383.757812 574.410156 L 383.757812 567.066406 L 386.351562 567.066406 L 386.351562 566.246094 "/>
<path style=" stroke:none;fill-rule:nonzero;fill:rgb(0%,0%,0%);fill-opacity:1;" d="M 397.53125 573.589844 C 396.296875 575.539062 395.191406 576.285156 393.550781 576.285156 C 392.085938 576.285156 390.984375 575.539062 390.238281 574.078125 C 389.773438 573.101562 389.59375 572.28125 389.542969 570.6875 L 397.453125 570.6875 C 397.246094 569.019531 396.992188 568.273438 396.347656 567.453125 C 395.578125 566.527344 394.398438 565.988281 393.0625 565.988281 C 391.777344 565.988281 390.570312 566.453125 389.59375 567.324219 C 388.390625 568.375 387.695312 570.199219 387.695312 572.304688 C 387.695312 575.847656 389.542969 578.054688 392.496094 578.054688 C 394.964844 578.054688 396.863281 576.542969 397.941406 573.769531 Z M 389.59375 569.867188 C 389.878906 567.835938 390.753906 566.914062 392.316406 566.914062 C 393.882812 566.914062 394.5 567.632812 394.832031 569.867188 L 389.59375 569.867188 "/>
<path style=" stroke:none;fill-rule:nonzero;fill:rgb(0%,0%,0%);fill-opacity:1;" d="M 398.839844 577.800781 L 404.898438 577.800781 L 404.898438 577.414062 C 403.28125 577.335938 402.996094 577.082031 402.972656 575.644531 L 402.972656 560.316406 L 402.871094 560.265625 C 401.535156 560.699219 400.558594 560.957031 398.789062 561.394531 L 398.789062 561.804688 L 398.941406 561.804688 C 399.226562 561.78125 399.53125 561.753906 399.738281 561.753906 C 400.558594 561.753906 400.816406 562.113281 400.816406 563.320312 L 400.816406 575.566406 C 400.789062 576.953125 400.429688 577.3125 398.839844 577.414062 L 398.839844 577.800781 "/>
<path style=" stroke:none;fill-rule:nonzero;fill:rgb(0%,0%,0%);fill-opacity:1;" d="M 405.9375 577.800781 L 411.996094 577.800781 L 411.996094 577.414062 C 410.382812 577.335938 410.097656 577.082031 410.074219 575.644531 L 410.074219 560.316406 L 409.96875 560.265625 C 408.632812 560.699219 407.660156 560.957031 405.886719 561.394531 L 405.886719 561.804688 L 406.042969 561.804688 C 406.324219 561.78125 406.632812 561.753906 406.839844 561.753906 C 407.660156 561.753906 407.914062 562.113281 407.914062 563.320312 L 407.914062 575.566406 C 407.890625 576.953125 407.53125 577.3125 405.9375 577.414062 L 405.9375 577.800781 "/>
<path style=" stroke:none;fill-rule:nonzero;fill:rgb(0%,0%,0%);fill-opacity:1;" d="M 423.949219 576.105469 C 423.511719 576.464844 423.203125 576.59375 422.820312 576.59375 C 422.226562 576.59375 422.046875 576.234375 422.046875 575.105469 L 422.046875 570.097656 C 422.046875 568.761719 421.921875 568.015625 421.535156 567.402344 C 420.96875 566.476562 419.867188 565.988281 418.351562 565.988281 C 415.9375 565.988281 414.039062 567.246094 414.039062 568.867188 C 414.039062 569.457031 414.523438 569.96875 415.140625 569.96875 C 415.757812 569.96875 416.296875 569.457031 416.296875 568.890625 C 416.296875 568.789062 416.273438 568.660156 416.246094 568.480469 C 416.195312 568.25 416.167969 568.042969 416.167969 567.863281 C 416.167969 567.171875 416.992188 566.605469 418.015625 566.605469 C 419.273438 566.605469 419.96875 567.351562 419.96875 568.738281 L 419.96875 570.304688 C 416.015625 571.894531 415.578125 572.101562 414.476562 573.078125 C 413.910156 573.589844 413.550781 574.460938 413.550781 575.308594 C 413.550781 576.925781 414.679688 578.054688 416.246094 578.054688 C 417.375 578.054688 418.429688 577.515625 419.992188 576.183594 C 420.121094 577.542969 420.585938 578.054688 421.636719 578.054688 C 422.511719 578.054688 423.050781 577.75 423.949219 576.773438 Z M 419.96875 574.640625 C 419.96875 575.414062 419.839844 575.695312 419.300781 576.003906 C 418.660156 576.363281 417.964844 576.566406 417.425781 576.566406 C 416.527344 576.566406 415.808594 575.695312 415.808594 574.589844 L 415.808594 574.488281 C 415.835938 572.945312 416.964844 571.972656 419.96875 570.917969 L 419.96875 574.640625 "/>
<path style=" stroke:none;fill-rule:nonzero;fill:rgb(0%,0%,0%);fill-opacity:1;" d="M 424.128906 577.800781 L 430.289062 577.800781 L 430.289062 577.414062 C 428.570312 577.363281 428.160156 577.003906 428.109375 575.488281 L 428.109375 569.710938 C 428.109375 568.890625 429.1875 567.609375 429.90625 567.609375 C 430.058594 567.609375 430.289062 567.734375 430.574219 567.992188 C 430.984375 568.375 431.265625 568.507812 431.601562 568.507812 C 432.214844 568.507812 432.601562 568.070312 432.601562 567.351562 C 432.601562 566.503906 432.0625 565.988281 431.1875 565.988281 C 430.109375 565.988281 429.367188 566.554688 428.109375 568.402344 L 428.109375 566.039062 L 427.980469 565.988281 C 426.617188 566.554688 425.695312 566.886719 424.179688 567.375 L 424.179688 567.789062 C 424.539062 567.710938 424.769531 567.683594 425.078125 567.683594 C 425.71875 567.683594 425.953125 568.09375 425.953125 569.226562 L 425.953125 575.644531 C 425.898438 576.976562 425.746094 577.132812 424.128906 577.414062 L 424.128906 577.800781 "/>
<path style=" stroke:none;fill-rule:nonzero;fill:rgb(0%,0%,0%);fill-opacity:1;" d="M 461.15625 560.804688 L 456.046875 560.804688 L 450.371094 573.769531 L 444.445312 560.804688 L 439.359375 560.804688 L 439.359375 561.289062 C 441.464844 561.394531 441.746094 561.675781 441.796875 563.601562 L 441.796875 574.027344 C 441.746094 576.746094 441.414062 577.183594 439.308594 577.3125 L 439.308594 577.800781 L 445.34375 577.800781 L 445.34375 577.3125 C 443.363281 577.210938 442.980469 576.671875 442.929688 574.027344 L 442.929688 563.679688 L 449.371094 577.800781 L 449.734375 577.800781 L 456.304688 563.089844 L 456.304688 574.71875 C 456.28125 576.902344 455.996094 577.183594 453.96875 577.3125 L 453.96875 577.800781 L 461.15625 577.800781 L 461.15625 577.3125 C 459.308594 577.210938 458.976562 576.851562 458.921875 575 L 458.921875 563.601562 C 458.976562 561.753906 459.28125 561.417969 461.15625 561.289062 L 461.15625 560.804688 "/>
<path style=" stroke:none;fill-rule:nonzero;fill:rgb(0%,0%,0%);fill-opacity:1;" d="M 473.148438 576.105469 C 472.714844 576.464844 472.402344 576.59375 472.019531 576.59375 C 471.429688 576.59375 471.246094 576.234375 471.246094 575.105469 L 471.246094 570.097656 C 471.246094 568.761719 471.121094 568.015625 470.734375 567.402344 C 470.171875 566.476562 469.066406 565.988281 467.550781 565.988281 C 465.136719 565.988281 463.238281 567.246094 463.238281 568.867188 C 463.238281 569.457031 463.726562 569.96875 464.34375 569.96875 C 464.957031 569.96875 465.496094 569.457031 465.496094 568.890625 C 465.496094 568.789062 465.472656 568.660156 465.445312 568.480469 C 465.394531 568.25 465.367188 568.042969 465.367188 567.863281 C 465.367188 567.171875 466.191406 566.605469 467.21875 566.605469 C 468.476562 566.605469 469.167969 567.351562 469.167969 568.738281 L 469.167969 570.304688 C 465.214844 571.894531 464.777344 572.101562 463.675781 573.078125 C 463.109375 573.589844 462.75 574.460938 462.75 575.308594 C 462.75 576.925781 463.878906 578.054688 465.445312 578.054688 C 466.574219 578.054688 467.628906 577.515625 469.195312 576.183594 C 469.324219 577.542969 469.785156 578.054688 470.839844 578.054688 C 471.710938 578.054688 472.25 577.75 473.148438 576.773438 Z M 469.167969 574.640625 C 469.167969 575.414062 469.039062 575.695312 468.503906 576.003906 C 467.859375 576.363281 467.164062 576.566406 466.628906 576.566406 C 465.726562 576.566406 465.007812 575.695312 465.007812 574.589844 L 465.007812 574.488281 C 465.035156 572.945312 466.164062 571.972656 469.167969 570.917969 L 469.167969 574.640625 "/>
<path style=" stroke:none;fill-rule:nonzero;fill:rgb(0%,0%,0%);fill-opacity:1;" d="M 481.289062 569.738281 L 481.183594 566.21875 L 480.902344 566.21875 C 480.746094 566.425781 480.621094 566.503906 480.492188 566.503906 C 480.339844 566.503906 480.082031 566.453125 479.796875 566.324219 C 479.207031 566.117188 478.617188 565.988281 478.003906 565.988281 C 475.972656 565.988281 474.507812 567.324219 474.507812 569.171875 C 474.507812 570.609375 475.332031 571.636719 477.515625 572.871094 L 479.003906 573.71875 C 479.902344 574.230469 480.339844 574.847656 480.339844 575.644531 C 480.339844 576.773438 479.515625 577.492188 478.207031 577.492188 C 476.433594 577.492188 475.535156 576.515625 474.945312 573.898438 L 474.535156 573.898438 L 474.535156 577.902344 L 474.867188 577.902344 C 475.046875 577.644531 475.152344 577.59375 475.460938 577.59375 C 475.742188 577.59375 476.050781 577.644531 476.640625 577.800781 C 477.335938 577.953125 478.003906 578.054688 478.515625 578.054688 C 480.515625 578.054688 482.132812 576.566406 482.132812 574.769531 C 482.132812 573.484375 481.542969 572.640625 479.976562 571.714844 L 477.203125 570.070312 C 476.484375 569.660156 476.101562 569.019531 476.101562 568.328125 C 476.101562 567.273438 476.898438 566.578125 478.078125 566.578125 C 479.542969 566.578125 480.3125 567.429688 480.902344 569.738281 L 481.289062 569.738281 "/>
<path style=" stroke:none;fill-rule:nonzero;fill:rgb(0%,0%,0%);fill-opacity:1;" d="M 491.289062 569.738281 L 491.183594 566.21875 L 490.902344 566.21875 C 490.746094 566.425781 490.621094 566.503906 490.492188 566.503906 C 490.339844 566.503906 490.082031 566.453125 489.796875 566.324219 C 489.207031 566.117188 488.617188 565.988281 488.003906 565.988281 C 485.972656 565.988281 484.507812 567.324219 484.507812 569.171875 C 484.507812 570.609375 485.332031 571.636719 487.515625 572.871094 L 489.003906 573.71875 C 489.902344 574.230469 490.339844 574.847656 490.339844 575.644531 C 490.339844 576.773438 489.515625 577.492188 488.207031 577.492188 C 486.433594 577.492188 485.535156 576.515625 484.945312 573.898438 L 484.535156 573.898438 L 484.535156 577.902344 L 484.867188 577.902344 C 485.046875 577.644531 485.152344 577.59375 485.460938 577.59375 C 485.742188 577.59375 486.050781 577.644531 486.640625 577.800781 C 487.335938 577.953125 488.003906 578.054688 488.515625 578.054688 C 490.515625 578.054688 492.132812 576.566406 492.132812 574.769531 C 492.132812 573.484375 491.542969 572.640625 489.976562 571.714844 L 487.203125 570.070312 C 486.484375 569.660156 486.101562 569.019531 486.101562 568.328125 C 486.101562 567.273438 486.898438 566.578125 488.078125 566.578125 C 489.542969 566.578125 490.3125 567.429688 490.902344 569.738281 L 491.289062 569.738281 "/>
<path style=" stroke:none;fill-rule:nonzero;fill:rgb(0%,0%,0%);fill-opacity:1;" d="M 507.277344 561.445312 L 507.277344 560.804688 L 501.859375 560.804688 L 501.859375 581.804688 L 507.277344 581.804688 L 507.277344 581.164062 L 505.070312 581.164062 C 504.195312 581.136719 503.835938 580.753906 503.8125 579.828125 L 503.8125 562.574219 C 503.835938 561.753906 504.117188 561.46875 504.964844 561.445312 L 507.277344 561.445312 "/>
<path style=" stroke:none;fill-rule:nonzero;fill:rgb(0%,0%,0%);fill-opacity:1;" d="M 530.359375 560.804688 L 525.246094 560.804688 L 519.574219 573.769531 L 513.644531 560.804688 L 508.558594 560.804688 L 508.558594 561.289062 C 510.664062 561.394531 510.945312 561.675781 510.996094 563.601562 L 510.996094 574.027344 C 510.945312 576.746094 510.613281 577.183594 508.507812 577.3125 L 508.507812 577.800781 L 514.542969 577.800781 L 514.542969 577.3125 C 512.5625 577.210938 512.179688 576.671875 512.128906 574.027344 L 512.128906 563.679688 L 518.570312 577.800781 L 518.933594 577.800781 L 525.503906 563.089844 L 525.503906 574.71875 C 525.480469 576.902344 525.195312 577.183594 523.167969 577.3125 L 523.167969 577.800781 L 530.359375 577.800781 L 530.359375 577.3125 C 528.507812 577.210938 528.175781 576.851562 528.121094 575 L 528.121094 563.601562 C 528.175781 561.753906 528.484375 561.417969 530.359375 561.289062 L 530.359375 560.804688 "/>
<path style=" stroke:none;fill-rule:nonzero;fill:rgb(0%,0%,0%);fill-opacity:1;" d="M 538.78125 574.535156 C 535.441406 574.535156 532.847656 577.050781 532.847656 580.285156 C 532.847656 583.46875 535.441406 586.011719 538.703125 586.011719 C 541.964844 586.011719 544.554688 583.46875 544.554688 580.257812 C 544.554688 577.101562 541.964844 574.535156 538.78125 574.535156 Z M 538.652344 575.585938 C 541.398438 575.585938 543.503906 577.617188 543.503906 580.285156 C 543.503906 582.878906 541.371094 584.957031 538.703125 584.957031 C 536.03125 584.957031 533.902344 582.878906 533.902344 580.257812 C 533.902344 577.691406 536.03125 575.585938 538.652344 575.585938 "/>
<path style=" stroke:none;fill-rule:nonzero;fill:rgb(0%,0%,0%);fill-opacity:1;" d="M 538.589844 579.3125 C 538.085938 579.3125 537.703125 579.671875 537.703125 580.144531 C 537.703125 580.632812 538.085938 580.992188 538.589844 580.992188 L 538.714844 580.992188 C 539.214844 580.992188 539.601562 580.632812 539.601562 580.144531 C 539.601562 579.671875 539.214844 579.3125 538.714844 579.3125 L 538.589844 579.3125 "/>
<path style=" stroke:none;fill-rule:nonzero;fill:rgb(0%,0%,0%);fill-opacity:1;" d="M 547.171875 581.164062 L 547.171875 581.804688 L 552.589844 581.804688 L 552.589844 560.804688 L 547.171875 560.804688 L 547.171875 561.445312 L 549.382812 561.445312 C 550.253906 561.46875 550.613281 561.855469 550.640625 562.78125 L 550.640625 580.035156 C 550.613281 580.855469 550.332031 581.136719 549.484375 581.164062 L 547.171875 581.164062 "/>
<path style="fill:none;stroke-width:9.18;stroke-linecap:butt;stroke-linejoin:miter;stroke:rgb(0%,0%,0%);stroke-opacity:1;stroke-miterlimit:10;" d="M 1530 918.007812 L 1530 5201.992188 " transform="matrix(0.1,0,0,-0.1,0,612)"/>
<path style="fill:none;stroke-width:9.18;stroke-linecap:butt;stroke-linejoin:miter;stroke:rgb(0%,0%,0%);stroke-opacity:1;stroke-miterlimit:10;" d="M 7650 918.007812 L 7650 5201.992188 " transform="matrix(0.1,0,0,-0.1,0,612)"/>
<path style="fill:none;stroke-width:9.18;stroke-linecap:butt;stroke-linejoin:miter;stroke:rgb(0%,0%,0%);stroke-opacity:1;stroke-miterlimit:10;" d="M 1530 1346.40625 L 1591.210938 1346.40625 " transform="matrix(0.1,0,0,-0.1,0,612)"/>
<path style="fill:none;stroke-width:9.18;stroke-linecap:butt;stroke-linejoin:miter;stroke:rgb(0%,0%,0%);stroke-opacity:1;stroke-miterlimit:10;" d="M 7650 1346.40625 L 7588.789062 1346.40625 " transform="matrix(0.1,0,0,-0.1,0,612)"/>
<path style="fill:none;stroke-width:9.18;stroke-linecap:butt;stroke-linejoin:miter;stroke:rgb(0%,0%,0%);stroke-opacity:1;stroke-miterlimit:10;" d="M 1530 2203.203125 L 1591.210938 2203.203125 " transform="matrix(0.1,0,0,-0.1,0,612)"/>
<path style="fill:none;stroke-width:9.18;stroke-linecap:butt;stroke-linejoin:miter;stroke:rgb(0%,0%,0%);stroke-opacity:1;stroke-miterlimit:10;" d="M 7650 2203.203125 L 7588.789062 2203.203125 " transform="matrix(0.1,0,0,-0.1,0,612)"/>
<path style="fill:none;stroke-width:9.18;stroke-linecap:butt;stroke-linejoin:miter;stroke:rgb(0%,0%,0%);stroke-opacity:1;stroke-miterlimit:10;" d="M 1530 3060 L 1591.210938 3060 " transform="matrix(0.1,0,0,-0.1,0,612)"/>
<path style="fill:none;stroke-width:9.18;stroke-linecap:butt;stroke-linejoin:miter;stroke:rgb(0%,0%,0%);stroke-opacity:1;stroke-miterlimit:10;" d="M 7650 3060 L 7588.789062 3060 " transform="matrix(0.1,0,0,-0.1,0,612)"/>
<path style="fill:none;stroke-width:9.18;stroke-linecap:butt;stroke-linejoin:miter;stroke:rgb(0%,0%,0%);stroke-opacity:1;stroke-miterlimit:10;" d="M 1530 3916.796875 L 1591.210938 3916.796875 " transform="matrix(0.1,0,0,-0.1,0,612)"/>
<path style="fill:none;stroke-width:9.18;stroke-linecap:butt;stroke-linejoin:miter;stroke:rgb(0%,0%,0%);stroke-opacity:1;stroke-miterlimit:10;" d="M 7650 3916.796875 L 7588.789062 3916.796875 " transform="matrix(0.1,0,0,-0.1,0,612)"/>
<path style="fill:none;stroke-width:9.18;stroke-linecap:butt;stroke-linejoin:miter;stroke:rgb(0%,0%,0%);stroke-opacity:1;stroke-miterlimit:10;" d="M 1530 4773.59375 L 1591.210938 4773.59375 " transform="matrix(0.1,0,0,-0.1,0,612)"/>
<path style="fill:none;stroke-width:9.18;stroke-linecap:butt;stroke-linejoin:miter;stroke:rgb(0%,0%,0%);stroke-opacity:1;stroke-miterlimit:10;" d="M 7650 4773.59375 L 7588.789062 4773.59375 " transform="matrix(0.1,0,0,-0.1,0,612)"/>
<path style="fill:none;stroke-width:9.18;stroke-linecap:butt;stroke-linejoin:miter;stroke:rgb(0%,0%,0%);stroke-opacity:1;stroke-miterlimit:10;" d="M 1530 918.007812 L 1652.382812 918.007812 " transform="matrix(0.1,0,0,-0.1,0,612)"/>
<path style="fill:none;stroke-width:9.18;stroke-linecap:butt;stroke-linejoin:miter;stroke:rgb(0%,0%,0%);stroke-opacity:1;stroke-miterlimit:10;" d="M 7650 918.007812 L 7527.617188 918.007812 " transform="matrix(0.1,0,0,-0.1,0,612)"/>
<path style="fill:none;stroke-width:9.18;stroke-linecap:butt;stroke-linejoin:miter;stroke:rgb(0%,0%,0%);stroke-opacity:1;stroke-miterlimit:10;" d="M 1530 1774.804688 L 1652.382812 1774.804688 " transform="matrix(0.1,0,0,-0.1,0,612)"/>
<path style="fill:none;stroke-width:9.18;stroke-linecap:butt;stroke-linejoin:miter;stroke:rgb(0%,0%,0%);stroke-opacity:1;stroke-miterlimit:10;" d="M 7650 1774.804688 L 7527.617188 1774.804688 " transform="matrix(0.1,0,0,-0.1,0,612)"/>
<path style="fill:none;stroke-width:9.18;stroke-linecap:butt;stroke-linejoin:miter;stroke:rgb(0%,0%,0%);stroke-opacity:1;stroke-miterlimit:10;" d="M 1530 2631.601562 L 1652.382812 2631.601562 " transform="matrix(0.1,0,0,-0.1,0,612)"/>
<path style="fill:none;stroke-width:9.18;stroke-linecap:butt;stroke-linejoin:miter;stroke:rgb(0%,0%,0%);stroke-opacity:1;stroke-miterlimit:10;" d="M 7650 2631.601562 L 7527.617188 2631.601562 " transform="matrix(0.1,0,0,-0.1,0,612)"/>
<path style="fill:none;stroke-width:9.18;stroke-linecap:butt;stroke-linejoin:miter;stroke:rgb(0%,0%,0%);stroke-opacity:1;stroke-miterlimit:10;" d="M 1530 3488.398438 L 1652.382812 3488.398438 " transform="matrix(0.1,0,0,-0.1,0,612)"/>
<path style="fill:none;stroke-width:9.18;stroke-linecap:butt;stroke-linejoin:miter;stroke:rgb(0%,0%,0%);stroke-opacity:1;stroke-miterlimit:10;" d="M 7650 3488.398438 L 7527.617188 3488.398438 " transform="matrix(0.1,0,0,-0.1,0,612)"/>
<path style="fill:none;stroke-width:9.18;stroke-linecap:butt;stroke-linejoin:miter;stroke:rgb(0%,0%,0%);stroke-opacity:1;stroke-miterlimit:10;" d="M 1530 4345.195312 L 1652.382812 4345.195312 " transform="matrix(0.1,0,0,-0.1,0,612)"/>
<path style="fill:none;stroke-width:9.18;stroke-linecap:butt;stroke-linejoin:miter;stroke:rgb(0%,0%,0%);stroke-opacity:1;stroke-miterlimit:10;" d="M 7650 4345.195312 L 7527.617188 4345.195312 " transform="matrix(0.1,0,0,-0.1,0,612)"/>
<path style="fill:none;stroke-width:9.18;stroke-linecap:butt;stroke-linejoin:miter;stroke:rgb(0%,0%,0%);stroke-opacity:1;stroke-miterlimit:10;" d="M 1530 5201.992188 L 1652.382812 5201.992188 " transform="matrix(0.1,0,0,-0.1,0,612)"/>
<path style="fill:none;stroke-width:9.18;stroke-linecap:butt;stroke-linejoin:miter;stroke:rgb(0%,0%,0%);stroke-opacity:1;stroke-miterlimit:10;" d="M 7650 5201.992188 L 7527.617188 5201.992188 " transform="matrix(0.1,0,0,-0.1,0,612)"/>
<path style=" stroke:none;fill-rule:nonzero;fill:rgb(0%,0%,0%);fill-opacity:1;" d="M 141.121094 511.445312 C 139.710938 511.445312 138.632812 511.855469 137.679688 512.78125 C 136.191406 514.21875 135.214844 517.167969 135.214844 520.171875 C 135.214844 522.996094 136.0625 525.976562 137.269531 527.414062 C 138.21875 528.542969 139.53125 529.160156 141.019531 529.160156 C 142.328125 529.160156 143.433594 528.722656 144.355469 527.824219 C 145.84375 526.414062 146.820312 523.433594 146.820312 520.328125 C 146.820312 515.0625 144.484375 511.445312 141.121094 511.445312 Z M 141.042969 512.109375 C 143.203125 512.109375 144.355469 515.011719 144.355469 520.378906 C 144.355469 525.746094 143.226562 528.492188 141.019531 528.492188 C 138.8125 528.492188 137.679688 525.746094 137.679688 520.40625 C 137.679688 514.9375 138.835938 512.109375 141.042969 512.109375 "/>
<path style=" stroke:none;fill-rule:nonzero;fill:rgb(0%,0%,0%);fill-opacity:1;" d="M 121.921875 425.742188 C 120.507812 425.742188 119.429688 426.15625 118.480469 427.078125 C 116.992188 428.515625 116.015625 431.46875 116.015625 434.472656 C 116.015625 437.296875 116.863281 440.273438 118.070312 441.714844 C 119.019531 442.84375 120.328125 443.460938 121.820312 443.460938 C 123.128906 443.460938 124.234375 443.023438 125.15625 442.125 C 126.644531 440.710938 127.621094 437.734375 127.621094 434.628906 C 127.621094 429.363281 125.285156 425.742188 121.921875 425.742188 Z M 121.84375 426.410156 C 124.003906 426.410156 125.15625 429.3125 125.15625 434.679688 C 125.15625 440.046875 124.027344 442.792969 121.820312 442.792969 C 119.609375 442.792969 118.480469 440.046875 118.480469 434.703125 C 118.480469 429.234375 119.636719 426.410156 121.84375 426.410156 "/>
<path style=" stroke:none;fill-rule:nonzero;fill:rgb(0%,0%,0%);fill-opacity:1;" d="M 131.507812 440.53125 C 130.738281 440.53125 130.097656 441.175781 130.097656 441.996094 C 130.097656 442.742188 130.738281 443.382812 131.484375 443.382812 C 132.28125 443.382812 132.945312 442.765625 132.945312 441.996094 C 132.945312 441.199219 132.28125 440.53125 131.507812 440.53125 "/>
<path style=" stroke:none;fill-rule:nonzero;fill:rgb(0%,0%,0%);fill-opacity:1;" d="M 146.894531 439.582031 L 146.5625 439.453125 C 145.613281 440.945312 145.328125 441.121094 144.121094 441.148438 L 137.984375 441.148438 L 142.300781 436.628906 C 144.585938 434.242188 145.585938 432.289062 145.585938 430.261719 C 145.585938 427.71875 143.507812 425.742188 140.835938 425.742188 C 139.421875 425.742188 138.089844 426.308594 137.140625 427.335938 C 136.316406 428.210938 135.933594 429.03125 135.496094 430.851562 L 136.035156 430.980469 C 137.0625 428.464844 137.960938 427.644531 139.757812 427.644531 C 141.941406 427.644531 143.378906 429.109375 143.378906 431.265625 C 143.378906 433.292969 142.195312 435.65625 140.039062 437.9375 L 135.46875 442.792969 L 135.46875 443.101562 L 145.484375 443.101562 L 146.894531 439.582031 "/>
<path style=" stroke:none;fill-rule:nonzero;fill:rgb(0%,0%,0%);fill-opacity:1;" d="M 121.921875 340.144531 C 120.507812 340.144531 119.429688 340.554688 118.480469 341.480469 C 116.992188 342.917969 116.015625 345.867188 116.015625 348.871094 C 116.015625 351.695312 116.863281 354.675781 118.070312 356.113281 C 119.019531 357.242188 120.328125 357.859375 121.820312 357.859375 C 123.128906 357.859375 124.234375 357.421875 125.15625 356.523438 C 126.644531 355.113281 127.621094 352.132812 127.621094 349.027344 C 127.621094 343.765625 125.285156 340.144531 121.921875 340.144531 Z M 121.84375 340.8125 C 124.003906 340.8125 125.15625 343.710938 125.15625 349.078125 C 125.15625 354.445312 124.027344 357.191406 121.820312 357.191406 C 119.609375 357.191406 118.480469 354.445312 118.480469 349.105469 C 118.480469 343.636719 119.636719 340.8125 121.84375 340.8125 "/>
<path style=" stroke:none;fill-rule:nonzero;fill:rgb(0%,0%,0%);fill-opacity:1;" d="M 131.507812 354.933594 C 130.738281 354.933594 130.097656 355.574219 130.097656 356.394531 C 130.097656 357.140625 130.738281 357.78125 131.484375 357.78125 C 132.28125 357.78125 132.945312 357.164062 132.945312 356.394531 C 132.945312 355.601562 132.28125 354.933594 131.507812 354.933594 "/>
<path style=" stroke:none;fill-rule:nonzero;fill:rgb(0%,0%,0%);fill-opacity:1;" d="M 146.820312 351.570312 L 144.199219 351.570312 L 144.199219 340.144531 L 143.070312 340.144531 L 135.007812 351.570312 L 135.007812 353.210938 L 142.222656 353.210938 L 142.222656 357.5 L 144.199219 357.5 L 144.199219 353.210938 L 146.820312 353.210938 Z M 142.195312 351.570312 L 136.035156 351.570312 L 142.195312 342.761719 L 142.195312 351.570312 "/>
<path style=" stroke:none;fill-rule:nonzero;fill:rgb(0%,0%,0%);fill-opacity:1;" d="M 122.222656 254.445312 C 120.808594 254.445312 119.730469 254.855469 118.78125 255.78125 C 117.292969 257.21875 116.316406 260.167969 116.316406 263.171875 C 116.316406 265.996094 117.164062 268.976562 118.371094 270.414062 C 119.320312 271.542969 120.628906 272.160156 122.117188 272.160156 C 123.429688 272.160156 124.53125 271.722656 125.457031 270.824219 C 126.945312 269.410156 127.921875 266.433594 127.921875 263.328125 C 127.921875 258.0625 125.585938 254.445312 122.222656 254.445312 Z M 122.144531 255.109375 C 124.300781 255.109375 125.457031 258.011719 125.457031 263.378906 C 125.457031 268.746094 124.328125 271.492188 122.117188 271.492188 C 119.910156 271.492188 118.78125 268.746094 118.78125 263.40625 C 118.78125 257.9375 119.9375 255.109375 122.144531 255.109375 "/>
<path style=" stroke:none;fill-rule:nonzero;fill:rgb(0%,0%,0%);fill-opacity:1;" d="M 131.710938 269.234375 C 130.9375 269.234375 130.296875 269.875 130.296875 270.695312 C 130.296875 271.441406 130.9375 272.082031 131.683594 272.082031 C 132.480469 272.082031 133.148438 271.464844 133.148438 270.695312 C 133.148438 269.898438 132.480469 269.234375 131.710938 269.234375 "/>
<path style=" stroke:none;fill-rule:nonzero;fill:rgb(0%,0%,0%);fill-opacity:1;" d="M 146.351562 254.238281 C 143.421875 254.496094 141.933594 254.984375 140.0625 256.292969 C 137.289062 258.269531 135.773438 261.195312 135.773438 264.636719 C 135.773438 266.871094 136.464844 269.128906 137.570312 270.414062 C 138.546875 271.542969 139.933594 272.160156 141.523438 272.160156 C 144.707031 272.160156 146.914062 269.71875 146.914062 266.175781 C 146.914062 262.867188 145.066406 260.8125 142.0625 260.8125 C 140.933594 260.8125 140.421875 260.992188 138.804688 261.96875 C 139.496094 258.089844 142.371094 255.316406 146.402344 254.648438 Z M 141.113281 261.992188 C 143.347656 261.992188 144.605469 263.839844 144.605469 267.050781 C 144.605469 269.875 143.601562 271.441406 141.804688 271.441406 C 139.546875 271.441406 138.160156 269.027344 138.160156 265.046875 C 138.160156 263.738281 138.367188 263.019531 138.878906 262.632812 C 139.417969 262.222656 140.214844 261.992188 141.113281 261.992188 "/>
<path style=" stroke:none;fill-rule:nonzero;fill:rgb(0%,0%,0%);fill-opacity:1;" d="M 122.722656 168.742188 C 121.308594 168.742188 120.230469 169.15625 119.28125 170.078125 C 117.792969 171.515625 116.816406 174.46875 116.816406 177.472656 C 116.816406 180.296875 117.664062 183.273438 118.871094 184.714844 C 119.820312 185.84375 121.128906 186.460938 122.617188 186.460938 C 123.929688 186.460938 125.03125 186.023438 125.957031 185.125 C 127.445312 183.710938 128.421875 180.734375 128.421875 177.628906 C 128.421875 172.363281 126.085938 168.742188 122.722656 168.742188 Z M 122.644531 169.410156 C 124.800781 169.410156 125.957031 172.3125 125.957031 177.679688 C 125.957031 183.046875 124.828125 185.792969 122.617188 185.792969 C 120.410156 185.792969 119.28125 183.046875 119.28125 177.703125 C 119.28125 172.234375 120.4375 169.410156 122.644531 169.410156 "/>
<path style=" stroke:none;fill-rule:nonzero;fill:rgb(0%,0%,0%);fill-opacity:1;" d="M 132.210938 183.53125 C 131.4375 183.53125 130.796875 184.175781 130.796875 184.996094 C 130.796875 185.742188 131.4375 186.382812 132.183594 186.382812 C 132.980469 186.382812 133.648438 185.765625 133.648438 184.996094 C 133.648438 184.199219 132.980469 183.53125 132.210938 183.53125 "/>
<path style=" stroke:none;fill-rule:nonzero;fill:rgb(0%,0%,0%);fill-opacity:1;" d="M 142.84375 176.574219 C 145.386719 175.214844 146.285156 174.136719 146.285156 172.390625 C 146.285156 170.257812 144.464844 168.742188 141.871094 168.742188 C 139.070312 168.742188 136.992188 170.464844 136.992188 172.800781 C 136.992188 174.46875 137.480469 175.214844 140.175781 177.578125 C 137.378906 179.707031 136.839844 180.453125 136.839844 182.222656 C 136.839844 184.738281 138.839844 186.460938 141.765625 186.460938 C 144.847656 186.460938 146.824219 184.765625 146.824219 182.121094 C 146.824219 180.117188 145.953125 178.910156 142.84375 176.574219 Z M 142.382812 179.21875 C 144.257812 180.554688 144.871094 181.476562 144.871094 182.914062 C 144.871094 184.585938 143.71875 185.742188 142.050781 185.742188 C 140.097656 185.742188 138.789062 184.253906 138.789062 182.042969 C 138.789062 180.375 139.328125 179.320312 140.84375 178.089844 Z M 142.101562 176.113281 C 139.816406 174.621094 138.890625 173.441406 138.890625 172.003906 C 138.890625 170.515625 140.046875 169.460938 141.664062 169.460938 C 143.410156 169.460938 144.515625 170.59375 144.515625 172.363281 C 144.515625 173.929688 143.847656 174.984375 142.101562 176.113281 "/>
<path style=" stroke:none;fill-rule:nonzero;fill:rgb(0%,0%,0%);fill-opacity:1;" d="M 139.828125 100.601562 L 146.914062 100.601562 L 146.914062 100.214844 C 144.9375 100.214844 144.503906 99.933594 144.476562 98.699219 L 144.476562 83.296875 L 144.273438 83.242188 L 139.648438 85.578125 L 139.648438 85.9375 C 140.652344 85.554688 141.265625 85.375 141.496094 85.375 C 142.039062 85.375 142.269531 85.757812 142.269531 86.582031 L 142.269531 98.210938 C 142.21875 99.828125 141.78125 100.1875 139.828125 100.214844 L 139.828125 100.601562 "/>
<path style=" stroke:none;fill-rule:nonzero;fill:rgb(0%,0%,0%);fill-opacity:1;" d="M 97.867188 458.800781 L 91.914062 458.800781 L 91.914062 459.390625 C 93.941406 459.675781 94.300781 460.109375 94.351562 462.21875 L 94.351562 465.9375 L 88.652344 465.9375 C 87.882812 465.914062 87.804688 465.835938 87.78125 465.117188 L 87.78125 461.628906 C 87.828125 458.648438 88.1875 458.132812 90.476562 457.722656 L 90.476562 457.082031 L 86.804688 457.15625 L 86.804688 470.792969 L 87.289062 470.792969 C 87.417969 468.917969 87.753906 468.609375 89.601562 468.558594 L 100.71875 468.558594 C 102.902344 468.585938 103.183594 468.839844 103.3125 470.792969 L 103.800781 470.792969 L 103.800781 463.601562 L 103.3125 463.601562 C 103.234375 465.554688 102.875 465.914062 101.003906 465.9375 L 95.40625 465.9375 L 95.40625 462.21875 C 95.429688 460.109375 95.789062 459.699219 97.867188 459.390625 L 97.867188 458.800781 "/>
<path style=" stroke:none;fill-rule:nonzero;fill:rgb(0%,0%,0%);fill-opacity:1;" d="M 103.800781 456.671875 L 103.800781 450.507812 L 103.414062 450.507812 C 103.363281 452.230469 103.003906 452.640625 101.488281 452.691406 L 95.710938 452.691406 C 94.890625 452.691406 93.609375 451.613281 93.609375 450.894531 C 93.609375 450.742188 93.734375 450.507812 93.992188 450.226562 C 94.375 449.816406 94.507812 449.535156 94.507812 449.199219 C 94.507812 448.585938 94.070312 448.199219 93.351562 448.199219 C 92.503906 448.199219 91.988281 448.738281 91.988281 449.609375 C 91.988281 450.6875 92.554688 451.433594 94.402344 452.691406 L 92.039062 452.691406 L 91.988281 452.820312 C 92.554688 454.179688 92.886719 455.105469 93.375 456.621094 L 93.789062 456.621094 C 93.710938 456.261719 93.683594 456.03125 93.683594 455.722656 C 93.683594 455.078125 94.09375 454.847656 95.226562 454.847656 L 101.644531 454.847656 C 102.976562 454.898438 103.132812 455.054688 103.414062 456.671875 L 103.800781 456.671875 "/>
<path style=" stroke:none;fill-rule:nonzero;fill:rgb(0%,0%,0%);fill-opacity:1;" d="M 102.105469 436.953125 C 102.464844 437.386719 102.59375 437.695312 102.59375 438.082031 C 102.59375 438.671875 102.234375 438.851562 101.105469 438.851562 L 96.097656 438.851562 C 94.761719 438.851562 94.015625 438.980469 93.402344 439.367188 C 92.476562 439.929688 91.988281 441.035156 91.988281 442.546875 C 91.988281 444.960938 93.246094 446.863281 94.867188 446.863281 C 95.457031 446.863281 95.96875 446.375 95.96875 445.757812 C 95.96875 445.140625 95.457031 444.601562 94.890625 444.601562 C 94.789062 444.601562 94.660156 444.628906 94.480469 444.65625 C 94.25 444.707031 94.042969 444.730469 93.863281 444.730469 C 93.171875 444.730469 92.605469 443.910156 92.605469 442.882812 C 92.605469 441.625 93.351562 440.929688 94.738281 440.929688 L 96.304688 440.929688 C 97.894531 444.886719 98.101562 445.320312 99.078125 446.425781 C 99.589844 446.992188 100.464844 447.351562 101.308594 447.351562 C 102.925781 447.351562 104.054688 446.21875 104.054688 444.65625 C 104.054688 443.523438 103.515625 442.472656 102.183594 440.90625 C 103.542969 440.777344 104.054688 440.316406 104.054688 439.261719 C 104.054688 438.390625 103.746094 437.851562 102.773438 436.953125 Z M 100.640625 440.929688 C 101.414062 440.929688 101.695312 441.058594 102.003906 441.597656 C 102.363281 442.242188 102.566406 442.933594 102.566406 443.472656 C 102.566406 444.371094 101.695312 445.089844 100.589844 445.089844 L 100.488281 445.089844 C 98.945312 445.066406 97.972656 443.9375 96.917969 440.929688 L 100.640625 440.929688 "/>
<path style=" stroke:none;fill-rule:nonzero;fill:rgb(0%,0%,0%);fill-opacity:1;" d="M 99.796875 426.679688 C 101.59375 427.914062 102.207031 428.835938 102.207031 430.300781 C 102.207031 432.664062 100.15625 434.28125 97.203125 434.28125 C 94.53125 434.28125 92.734375 432.867188 92.734375 430.789062 C 92.734375 429.867188 93.015625 429.53125 93.96875 429.273438 L 94.53125 429.121094 C 95.277344 428.914062 95.710938 428.453125 95.710938 427.886719 C 95.710938 427.21875 95.226562 426.679688 94.632812 426.679688 C 93.195312 426.679688 91.988281 428.476562 91.988281 430.636719 C 91.988281 431.894531 92.503906 433.203125 93.429688 434.257812 C 94.558594 435.539062 96.304688 436.257812 98.355469 436.257812 C 101.667969 436.257812 104.054688 434.230469 104.054688 431.378906 C 104.054688 430.226562 103.644531 429.195312 102.851562 428.273438 C 102.257812 427.578125 101.539062 427.09375 100.027344 426.320312 L 99.796875 426.679688 "/>
<path style=" stroke:none;fill-rule:nonzero;fill:rgb(0%,0%,0%);fill-opacity:1;" d="M 92.246094 418.75 L 92.246094 421.34375 L 89.269531 421.34375 C 89.011719 421.34375 88.933594 421.394531 88.933594 421.523438 C 91.089844 423.011719 91.964844 423.78125 92.398438 424.527344 C 92.578125 424.808594 92.734375 424.964844 92.886719 424.964844 C 92.964844 424.964844 93.015625 424.9375 93.066406 424.859375 L 93.066406 423.5 L 100.796875 423.5 C 102.953125 423.5 104.054688 422.730469 104.054688 421.214844 C 104.054688 419.957031 103.441406 418.980469 102.105469 418.132812 L 101.824219 418.46875 C 102.492188 419.03125 102.722656 419.445312 102.722656 420.007812 C 102.722656 420.957031 102.027344 421.34375 100.410156 421.34375 L 93.066406 421.34375 L 93.066406 418.75 L 92.246094 418.75 "/>
<path style=" stroke:none;fill-rule:nonzero;fill:rgb(0%,0%,0%);fill-opacity:1;" d="M 103.800781 417.710938 L 103.800781 411.625 L 103.414062 411.625 C 103.285156 413.320312 103.054688 413.496094 101.179688 413.523438 L 92.066406 413.523438 L 91.988281 413.628906 L 93.402344 417.605469 L 93.789062 417.605469 L 93.761719 417.402344 C 93.710938 417.09375 93.683594 416.757812 93.683594 416.527344 C 93.683594 415.910156 94.09375 415.679688 95.226562 415.679688 L 101.179688 415.679688 C 103.082031 415.734375 103.339844 415.964844 103.414062 417.710938 Z M 86.265625 414.835938 C 86.265625 415.527344 86.855469 416.117188 87.574219 416.117188 C 88.320312 416.117188 88.882812 415.554688 88.882812 414.835938 C 88.882812 414.0625 88.320312 413.496094 87.574219 413.496094 C 86.828125 413.496094 86.265625 414.089844 86.265625 414.835938 "/>
<path style=" stroke:none;fill-rule:nonzero;fill:rgb(0%,0%,0%);fill-opacity:1;" d="M 91.988281 404.78125 C 91.988281 408.144531 94.453125 410.453125 97.996094 410.453125 C 101.488281 410.453125 104.054688 408.066406 104.054688 404.832031 C 104.054688 401.597656 101.359375 399.132812 97.792969 399.132812 C 94.402344 399.132812 91.988281 401.496094 91.988281 404.78125 Z M 92.707031 405.117188 C 92.707031 402.957031 95.171875 401.445312 98.691406 401.445312 C 101.617188 401.445312 103.339844 402.597656 103.339844 404.523438 C 103.339844 405.527344 102.722656 406.476562 101.695312 407.015625 C 100.359375 407.734375 98.5625 408.144531 96.738281 408.144531 C 94.300781 408.144531 92.707031 406.964844 92.707031 405.117188 "/>
<path style=" stroke:none;fill-rule:nonzero;fill:rgb(0%,0%,0%);fill-opacity:1;" d="M 103.800781 397.835938 L 103.800781 392.394531 L 103.414062 392.394531 C 103.339844 393.679688 103.003906 394.089844 102.078125 394.089844 L 94.867188 394.089844 C 93.710938 392.882812 93.402344 392.292969 93.402344 391.445312 C 93.402344 390.1875 94.195312 389.570312 95.890625 389.570312 L 101.257812 389.570312 C 102.925781 389.621094 103.339844 389.929688 103.414062 391.1875 L 103.800781 391.1875 L 103.800781 385.847656 L 103.414062 385.847656 C 103.285156 387.105469 102.976562 387.386719 101.71875 387.414062 L 95.839844 387.414062 C 93.429688 387.414062 91.988281 388.542969 91.988281 390.445312 C 91.988281 391.625 92.425781 392.421875 94.070312 394.164062 L 92.039062 394.164062 L 91.988281 394.34375 C 92.453125 395.605469 92.734375 396.476562 93.144531 397.890625 L 93.582031 397.890625 C 93.503906 397.734375 93.476562 397.476562 93.476562 397.195312 C 93.476562 396.476562 93.863281 396.246094 95.121094 396.246094 L 101.488281 396.246094 C 103.003906 396.273438 103.339844 396.554688 103.414062 397.835938 L 103.800781 397.835938 "/>
<path style=" stroke:none;fill-rule:nonzero;fill:rgb(0%,0%,0%);fill-opacity:1;" d="M 92.246094 364.339844 L 92.632812 364.339844 C 92.8125 363.46875 92.992188 363.210938 93.429688 363.210938 C 93.8125 363.210938 94.453125 363.363281 95.121094 363.648438 L 100.820312 365.957031 L 95.070312 368.113281 C 93.890625 368.550781 93.890625 368.550781 93.554688 368.550781 C 92.992188 368.550781 92.8125 368.265625 92.632812 367.0625 L 92.246094 367.0625 L 92.246094 372.273438 L 92.632812 372.273438 C 92.734375 371.324219 93.015625 371.015625 94.402344 370.503906 C 94.890625 370.320312 95.378906 370.140625 95.839844 369.988281 L 100.949219 372.324219 L 94.25 374.867188 C 93.992188 374.96875 93.734375 375.019531 93.476562 375.019531 C 92.9375 375.019531 92.734375 374.738281 92.632812 373.839844 L 92.246094 373.839844 L 92.246094 378.460938 L 92.632812 378.460938 C 92.683594 377.871094 92.9375 377.664062 94.25 377.101562 L 103.03125 373.632812 C 103.824219 373.328125 104.160156 373.121094 104.160156 372.96875 C 104.160156 372.835938 103.851562 372.632812 103.15625 372.324219 L 96.996094 369.449219 L 103.054688 367.113281 C 104.03125 366.726562 104.160156 366.675781 104.160156 366.496094 C 104.160156 366.316406 103.929688 366.1875 102.902344 365.777344 L 94.015625 362.234375 C 92.9375 361.773438 92.8125 361.695312 92.632812 361.179688 L 92.246094 361.179688 L 92.246094 364.339844 "/>
<path style=" stroke:none;fill-rule:nonzero;fill:rgb(0%,0%,0%);fill-opacity:1;" d="M 103.800781 359.910156 L 103.800781 353.824219 L 103.414062 353.824219 C 103.285156 355.519531 103.054688 355.699219 101.179688 355.726562 L 92.066406 355.726562 L 91.988281 355.828125 L 93.402344 359.804688 L 93.789062 359.804688 L 93.761719 359.601562 C 93.710938 359.292969 93.683594 358.960938 93.683594 358.726562 C 93.683594 358.113281 94.09375 357.882812 95.226562 357.882812 L 101.179688 357.882812 C 103.082031 357.933594 103.339844 358.164062 103.414062 359.910156 Z M 86.265625 357.035156 C 86.265625 357.726562 86.855469 358.316406 87.574219 358.316406 C 88.320312 358.316406 88.882812 357.753906 88.882812 357.035156 C 88.882812 356.265625 88.320312 355.699219 87.574219 355.699219 C 86.828125 355.699219 86.265625 356.289062 86.265625 357.035156 "/>
<path style=" stroke:none;fill-rule:nonzero;fill:rgb(0%,0%,0%);fill-opacity:1;" d="M 92.246094 346.648438 L 92.246094 349.242188 L 89.269531 349.242188 C 89.011719 349.242188 88.933594 349.296875 88.933594 349.421875 C 91.089844 350.910156 91.964844 351.683594 92.398438 352.425781 C 92.578125 352.710938 92.734375 352.863281 92.886719 352.863281 C 92.964844 352.863281 93.015625 352.835938 93.066406 352.761719 L 93.066406 351.398438 L 100.796875 351.398438 C 102.953125 351.398438 104.054688 350.628906 104.054688 349.117188 C 104.054688 347.855469 103.441406 346.882812 102.105469 346.035156 L 101.824219 346.367188 C 102.492188 346.933594 102.722656 347.34375 102.722656 347.90625 C 102.722656 348.859375 102.027344 349.242188 100.410156 349.242188 L 93.066406 349.242188 L 93.066406 346.648438 L 92.246094 346.648438 "/>
<path style=" stroke:none;fill-rule:nonzero;fill:rgb(0%,0%,0%);fill-opacity:1;" d="M 103.414062 333.695312 C 103.183594 335.082031 103.003906 335.210938 101.179688 335.238281 L 96.070312 335.238281 C 93.375 335.238281 91.988281 336.289062 91.988281 338.394531 C 91.988281 339.910156 92.605469 340.988281 94.148438 342.167969 L 86.339844 342.167969 L 86.265625 342.296875 C 86.570312 343.171875 86.777344 343.8125 87.1875 345.25 L 87.394531 345.945312 L 87.804688 345.945312 C 87.78125 345.839844 87.78125 345.765625 87.78125 345.632812 C 87.78125 344.53125 87.984375 344.324219 89.089844 344.324219 L 101.179688 344.324219 C 103.03125 344.378906 103.234375 344.503906 103.414062 345.96875 L 103.800781 345.96875 L 103.800781 340.421875 L 103.414062 340.421875 C 103.285156 341.910156 103.003906 342.117188 101.179688 342.167969 L 94.992188 342.167969 C 93.8125 341.089844 93.375 340.320312 93.375 339.320312 C 93.375 338.035156 94.300781 337.394531 96.097656 337.394531 L 101.179688 337.394531 C 103.003906 337.445312 103.285156 337.675781 103.414062 339.140625 L 103.800781 339.140625 L 103.800781 333.695312 L 103.414062 333.695312 "/>
<path style=" stroke:none;fill-rule:nonzero;fill:rgb(0%,0%,0%);fill-opacity:1;" d="M 87.289062 326.488281 C 87.496094 324.589844 87.726562 324.359375 89.601562 324.332031 L 100.71875 324.332031 C 102.902344 324.359375 103.132812 324.535156 103.3125 326.488281 L 103.800781 326.488281 L 103.800781 319.300781 L 103.3125 319.300781 C 103.261719 321.328125 102.902344 321.6875 101.003906 321.714844 L 96.328125 321.714844 C 96.378906 321.046875 96.40625 320.609375 96.40625 319.941406 C 96.40625 317.914062 96.148438 316.554688 95.53125 315.449219 C 94.710938 313.90625 93.144531 312.984375 91.449219 312.984375 C 90.371094 312.984375 89.398438 313.34375 88.652344 314.035156 C 87.523438 315.0625 86.804688 317.296875 86.804688 319.710938 L 86.804688 326.488281 Z M 88.625 321.714844 C 87.933594 321.714844 87.753906 321.535156 87.753906 320.839844 C 87.753906 317.375 88.960938 315.78125 91.605469 315.78125 C 94.09375 315.78125 95.378906 317.296875 95.378906 320.25 C 95.378906 320.765625 95.351562 321.121094 95.300781 321.714844 L 88.625 321.714844 "/>
<path style=" stroke:none;fill-rule:nonzero;fill:rgb(0%,0%,0%);fill-opacity:1;" d="M 102.105469 301.253906 C 102.464844 301.6875 102.59375 301.996094 102.59375 302.382812 C 102.59375 302.972656 102.234375 303.152344 101.105469 303.152344 L 96.097656 303.152344 C 94.761719 303.152344 94.015625 303.28125 93.402344 303.664062 C 92.476562 304.230469 91.988281 305.335938 91.988281 306.847656 C 91.988281 309.261719 93.246094 311.160156 94.867188 311.160156 C 95.457031 311.160156 95.96875 310.675781 95.96875 310.058594 C 95.96875 309.441406 95.457031 308.902344 94.890625 308.902344 C 94.789062 308.902344 94.660156 308.929688 94.480469 308.953125 C 94.25 309.007812 94.042969 309.03125 93.863281 309.03125 C 93.171875 309.03125 92.605469 308.210938 92.605469 307.183594 C 92.605469 305.925781 93.351562 305.230469 94.738281 305.230469 L 96.304688 305.230469 C 97.894531 309.1875 98.101562 309.621094 99.078125 310.726562 C 99.589844 311.289062 100.464844 311.648438 101.308594 311.648438 C 102.925781 311.648438 104.054688 310.519531 104.054688 308.953125 C 104.054688 307.824219 103.515625 306.773438 102.183594 305.207031 C 103.542969 305.078125 104.054688 304.617188 104.054688 303.5625 C 104.054688 302.6875 103.746094 302.148438 102.773438 301.253906 Z M 100.640625 305.230469 C 101.414062 305.230469 101.695312 305.359375 102.003906 305.898438 C 102.363281 306.539062 102.566406 307.234375 102.566406 307.773438 C 102.566406 308.671875 101.695312 309.390625 100.589844 309.390625 L 100.488281 309.390625 C 98.945312 309.367188 97.972656 308.234375 96.917969 305.230469 L 100.640625 305.230469 "/>
<path style=" stroke:none;fill-rule:nonzero;fill:rgb(0%,0%,0%);fill-opacity:1;" d="M 95.738281 293.113281 L 92.21875 293.214844 L 92.21875 293.496094 C 92.425781 293.652344 92.503906 293.78125 92.503906 293.90625 C 92.503906 294.0625 92.453125 294.320312 92.324219 294.601562 C 92.117188 295.191406 91.988281 295.78125 91.988281 296.398438 C 91.988281 298.425781 93.324219 299.890625 95.171875 299.890625 C 96.609375 299.890625 97.636719 299.070312 98.871094 296.886719 L 99.71875 295.398438 C 100.230469 294.496094 100.847656 294.0625 101.644531 294.0625 C 102.773438 294.0625 103.492188 294.882812 103.492188 296.195312 C 103.492188 297.964844 102.515625 298.863281 99.898438 299.453125 L 99.898438 299.867188 L 103.902344 299.867188 L 103.902344 299.53125 C 103.644531 299.351562 103.59375 299.246094 103.59375 298.941406 C 103.59375 298.65625 103.644531 298.351562 103.800781 297.757812 C 103.953125 297.066406 104.054688 296.398438 104.054688 295.886719 C 104.054688 293.882812 102.566406 292.265625 100.769531 292.265625 C 99.484375 292.265625 98.640625 292.855469 97.714844 294.421875 L 96.070312 297.195312 C 95.660156 297.914062 95.019531 298.296875 94.328125 298.296875 C 93.273438 298.296875 92.578125 297.503906 92.578125 296.320312 C 92.578125 294.859375 93.429688 294.085938 95.738281 293.496094 L 95.738281 293.113281 "/>
<path style=" stroke:none;fill-rule:nonzero;fill:rgb(0%,0%,0%);fill-opacity:1;" d="M 92.246094 284.550781 L 92.246094 287.144531 L 89.269531 287.144531 C 89.011719 287.144531 88.933594 287.195312 88.933594 287.324219 C 91.089844 288.8125 91.964844 289.582031 92.398438 290.328125 C 92.578125 290.609375 92.734375 290.765625 92.886719 290.765625 C 92.964844 290.765625 93.015625 290.738281 93.066406 290.660156 L 93.066406 289.300781 L 100.796875 289.300781 C 102.953125 289.300781 104.054688 288.53125 104.054688 287.015625 C 104.054688 285.757812 103.441406 284.78125 102.105469 283.933594 L 101.824219 284.265625 C 102.492188 284.832031 102.722656 285.242188 102.722656 285.808594 C 102.722656 286.757812 102.027344 287.144531 100.410156 287.144531 L 93.066406 287.144531 L 93.066406 284.550781 L 92.246094 284.550781 "/>
<path style=" stroke:none;fill-rule:nonzero;fill:rgb(0%,0%,0%);fill-opacity:1;" d="M 103.3125 260.679688 C 103.234375 261.65625 102.976562 262.167969 102.105469 262.914062 L 95.609375 268.203125 C 94.96875 264.941406 93.683594 263.554688 91.320312 263.554688 C 90.21875 263.554688 89.269531 263.890625 88.523438 264.558594 C 87.46875 265.53125 86.804688 267.664062 86.804688 270.078125 L 86.804688 277.164062 L 87.289062 277.164062 C 87.496094 275.265625 87.726562 275.007812 89.601562 274.980469 L 100.71875 274.980469 C 102.902344 275.007812 103.15625 275.238281 103.3125 277.164062 L 103.800781 277.164062 L 103.800781 270.050781 L 103.3125 270.050781 C 103.183594 272.027344 102.875 272.335938 101.003906 272.363281 L 95.945312 272.363281 L 95.890625 270.925781 L 103.800781 264.8125 L 103.800781 260.679688 Z M 88.679688 272.363281 C 87.960938 272.363281 87.753906 272.078125 87.753906 271.054688 C 87.753906 267.84375 88.859375 266.355469 91.269531 266.355469 C 92.554688 266.355469 93.632812 266.894531 94.121094 267.816406 C 94.789062 268.996094 94.941406 269.898438 94.992188 272.363281 L 88.679688 272.363281 "/>
<path style=" stroke:none;fill-rule:nonzero;fill:rgb(0%,0%,0%);fill-opacity:1;" d="M 99.589844 249.871094 C 101.539062 251.101562 102.285156 252.207031 102.285156 253.851562 C 102.285156 255.3125 101.539062 256.417969 100.078125 257.160156 C 99.101562 257.625 98.28125 257.804688 96.6875 257.855469 L 96.6875 249.945312 C 95.019531 250.152344 94.273438 250.410156 93.453125 251.050781 C 92.527344 251.820312 91.988281 253.003906 91.988281 254.335938 C 91.988281 255.621094 92.453125 256.828125 93.324219 257.804688 C 94.375 259.011719 96.199219 259.703125 98.304688 259.703125 C 101.847656 259.703125 104.054688 257.855469 104.054688 254.902344 C 104.054688 252.4375 102.542969 250.535156 99.769531 249.460938 Z M 95.867188 257.804688 C 93.835938 257.523438 92.914062 256.648438 92.914062 255.082031 C 92.914062 253.515625 93.632812 252.898438 95.867188 252.566406 L 95.867188 257.804688 "/>
<path style=" stroke:none;fill-rule:nonzero;fill:rgb(0%,0%,0%);fill-opacity:1;" d="M 92.066406 244.144531 L 91.988281 244.273438 C 92.578125 245.785156 92.914062 246.765625 93.375 248.277344 L 93.789062 248.277344 L 93.761719 248.148438 C 93.710938 247.765625 93.683594 247.378906 93.683594 247.121094 C 93.683594 246.53125 94.121094 246.300781 95.226562 246.300781 L 104.953125 246.300781 C 106.90625 246.300781 107.546875 246.378906 108.0625 246.660156 C 108.320312 246.816406 108.523438 247.175781 108.523438 247.535156 C 108.523438 247.917969 108.34375 248.175781 107.804688 248.613281 C 107.214844 249.074219 106.984375 249.433594 106.984375 249.84375 C 106.984375 250.433594 107.421875 250.898438 107.984375 250.898438 C 108.804688 250.898438 109.398438 249.894531 109.398438 248.484375 C 109.398438 247.355469 109.039062 246.328125 108.394531 245.632812 C 107.574219 244.710938 105.828125 244.144531 103.800781 244.144531 Z M 86.265625 245.453125 C 86.265625 246.148438 86.855469 246.738281 87.574219 246.738281 C 88.320312 246.738281 88.882812 246.171875 88.882812 245.453125 C 88.882812 244.683594 88.320312 244.117188 87.574219 244.117188 C 86.828125 244.117188 86.265625 244.710938 86.265625 245.453125 "/>
<path style=" stroke:none;fill-rule:nonzero;fill:rgb(0%,0%,0%);fill-opacity:1;" d="M 102.515625 229.371094 L 102.515625 229.496094 C 102.464844 230.757812 102.257812 230.9375 101.054688 230.960938 L 92.246094 230.960938 L 92.246094 235.019531 L 92.683594 235.019531 C 92.757812 233.425781 93.015625 233.117188 94.300781 233.117188 L 100.335938 233.117188 C 101.054688 233.117188 101.414062 233.246094 101.695312 233.609375 C 102.257812 234.300781 102.566406 235.097656 102.566406 235.867188 C 102.566406 236.867188 101.695312 237.6875 100.617188 237.6875 L 92.246094 237.6875 L 92.246094 241.4375 L 92.605469 241.4375 C 92.65625 240.230469 93.015625 239.871094 94.25 239.84375 L 100.71875 239.84375 C 102.746094 239.84375 104.054688 238.613281 104.054688 236.738281 C 104.054688 235.789062 103.644531 234.785156 102.953125 234.09375 L 101.847656 232.992188 L 103.980469 232.992188 L 104.03125 232.886719 C 103.515625 231.605469 103.234375 230.679688 102.875 229.371094 L 102.515625 229.371094 "/>
<path style=" stroke:none;fill-rule:nonzero;fill:rgb(0%,0%,0%);fill-opacity:1;" d="M 92.246094 216.851562 L 92.246094 220.421875 L 92.632812 220.421875 C 92.707031 219.601562 92.964844 219.214844 93.453125 219.214844 C 93.710938 219.214844 93.96875 219.265625 94.222656 219.367188 L 100.871094 221.910156 L 94.300781 224.53125 C 93.941406 224.683594 93.582031 224.761719 93.351562 224.761719 C 92.886719 224.761719 92.707031 224.476562 92.632812 223.578125 L 92.246094 223.578125 L 92.246094 228.613281 L 92.632812 228.613281 C 92.683594 227.636719 92.9375 227.457031 95.585938 226.273438 L 102.953125 223.195312 C 103.105469 223.144531 103.285156 223.066406 103.492188 222.988281 C 103.695312 222.910156 103.878906 222.835938 104.003906 222.757812 C 104.109375 222.707031 104.160156 222.605469 104.160156 222.527344 C 104.160156 222.371094 103.824219 222.195312 102.875 221.808594 L 94.632812 218.523438 C 92.886719 217.777344 92.707031 217.621094 92.632812 216.851562 L 92.246094 216.851562 "/>
<path style=" stroke:none;fill-rule:nonzero;fill:rgb(0%,0%,0%);fill-opacity:1;" d="M 99.589844 205.570312 C 101.539062 206.804688 102.285156 207.90625 102.285156 209.550781 C 102.285156 211.015625 101.539062 212.117188 100.078125 212.863281 C 99.101562 213.324219 98.28125 213.503906 96.6875 213.554688 L 96.6875 205.648438 C 95.019531 205.851562 94.273438 206.109375 93.453125 206.753906 C 92.527344 207.523438 91.988281 208.703125 91.988281 210.035156 C 91.988281 211.320312 92.453125 212.527344 93.324219 213.503906 C 94.375 214.710938 96.199219 215.40625 98.304688 215.40625 C 101.847656 215.40625 104.054688 213.554688 104.054688 210.601562 C 104.054688 208.136719 102.542969 206.238281 99.769531 205.160156 Z M 95.867188 213.503906 C 93.835938 213.222656 92.914062 212.347656 92.914062 210.78125 C 92.914062 209.21875 93.632812 208.601562 95.867188 208.265625 L 95.867188 213.503906 "/>
<path style=" stroke:none;fill-rule:nonzero;fill:rgb(0%,0%,0%);fill-opacity:1;" d="M 103.800781 204.335938 L 103.800781 198.894531 L 103.414062 198.894531 C 103.339844 200.179688 103.003906 200.589844 102.078125 200.589844 L 94.867188 200.589844 C 93.710938 199.382812 93.402344 198.792969 93.402344 197.945312 C 93.402344 196.6875 94.195312 196.070312 95.890625 196.070312 L 101.257812 196.070312 C 102.925781 196.121094 103.339844 196.429688 103.414062 197.6875 L 103.800781 197.6875 L 103.800781 192.347656 L 103.414062 192.347656 C 103.285156 193.605469 102.976562 193.886719 101.71875 193.914062 L 95.839844 193.914062 C 93.429688 193.914062 91.988281 195.042969 91.988281 196.945312 C 91.988281 198.125 92.425781 198.921875 94.070312 200.664062 L 92.039062 200.664062 L 91.988281 200.84375 C 92.453125 202.105469 92.734375 202.976562 93.144531 204.390625 L 93.582031 204.390625 C 93.503906 204.234375 93.476562 203.976562 93.476562 203.695312 C 93.476562 202.976562 93.863281 202.746094 95.121094 202.746094 L 101.488281 202.746094 C 103.003906 202.773438 103.339844 203.054688 103.414062 204.335938 L 103.800781 204.335938 "/>
<path style=" stroke:none;fill-rule:nonzero;fill:rgb(0%,0%,0%);fill-opacity:1;" d="M 102.105469 180.550781 C 102.464844 180.988281 102.59375 181.296875 102.59375 181.679688 C 102.59375 182.273438 102.234375 182.453125 101.105469 182.453125 L 96.097656 182.453125 C 94.761719 182.453125 94.015625 182.578125 93.402344 182.964844 C 92.476562 183.53125 91.988281 184.632812 91.988281 186.148438 C 91.988281 188.5625 93.246094 190.460938 94.867188 190.460938 C 95.457031 190.460938 95.96875 189.976562 95.96875 189.359375 C 95.96875 188.742188 95.457031 188.203125 94.890625 188.203125 C 94.789062 188.203125 94.660156 188.226562 94.480469 188.253906 C 94.25 188.304688 94.042969 188.332031 93.863281 188.332031 C 93.171875 188.332031 92.605469 187.507812 92.605469 186.484375 C 92.605469 185.226562 93.351562 184.53125 94.738281 184.53125 L 96.304688 184.53125 C 97.894531 188.484375 98.101562 188.921875 99.078125 190.023438 C 99.589844 190.589844 100.464844 190.949219 101.308594 190.949219 C 102.925781 190.949219 104.054688 189.820312 104.054688 188.253906 C 104.054688 187.125 103.515625 186.070312 102.183594 184.507812 C 103.542969 184.378906 104.054688 183.914062 104.054688 182.863281 C 104.054688 181.988281 103.746094 181.449219 102.773438 180.550781 Z M 100.640625 184.53125 C 101.414062 184.53125 101.695312 184.660156 102.003906 185.199219 C 102.363281 185.839844 102.566406 186.535156 102.566406 187.074219 C 102.566406 187.972656 101.695312 188.691406 100.589844 188.691406 L 100.488281 188.691406 C 98.945312 188.664062 97.972656 187.535156 96.917969 184.53125 L 100.640625 184.53125 "/>
<path style=" stroke:none;fill-rule:nonzero;fill:rgb(0%,0%,0%);fill-opacity:1;" d="M 92.246094 173.851562 L 92.246094 176.445312 L 89.269531 176.445312 C 89.011719 176.445312 88.933594 176.496094 88.933594 176.621094 C 91.089844 178.113281 91.964844 178.882812 92.398438 179.628906 C 92.578125 179.910156 92.734375 180.0625 92.886719 180.0625 C 92.964844 180.0625 93.015625 180.035156 93.066406 179.960938 L 93.066406 178.601562 L 100.796875 178.601562 C 102.953125 178.601562 104.054688 177.828125 104.054688 176.316406 C 104.054688 175.054688 103.441406 174.082031 102.105469 173.234375 L 101.824219 173.566406 C 102.492188 174.132812 102.722656 174.542969 102.722656 175.109375 C 102.722656 176.058594 102.027344 176.445312 100.410156 176.445312 L 93.066406 176.445312 L 93.066406 173.851562 L 92.246094 173.851562 "/>
<path style=" stroke:none;fill-rule:nonzero;fill:rgb(0%,0%,0%);fill-opacity:1;" d="M 103.800781 172.808594 L 103.800781 166.726562 L 103.414062 166.726562 C 103.285156 168.417969 103.054688 168.597656 101.179688 168.625 L 92.066406 168.625 L 91.988281 168.726562 L 93.402344 172.707031 L 93.789062 172.707031 L 93.761719 172.503906 C 93.710938 172.195312 93.683594 171.859375 93.683594 171.628906 C 93.683594 171.011719 94.09375 170.78125 95.226562 170.78125 L 101.179688 170.78125 C 103.082031 170.832031 103.339844 171.0625 103.414062 172.808594 Z M 86.265625 169.933594 C 86.265625 170.628906 86.855469 171.21875 87.574219 171.21875 C 88.320312 171.21875 88.882812 170.652344 88.882812 169.933594 C 88.882812 169.164062 88.320312 168.597656 87.574219 168.597656 C 86.828125 168.597656 86.265625 169.1875 86.265625 169.933594 "/>
<path style=" stroke:none;fill-rule:nonzero;fill:rgb(0%,0%,0%);fill-opacity:1;" d="M 91.988281 159.78125 C 91.988281 163.144531 94.453125 165.453125 97.996094 165.453125 C 101.488281 165.453125 104.054688 163.066406 104.054688 159.832031 C 104.054688 156.597656 101.359375 154.132812 97.792969 154.132812 C 94.402344 154.132812 91.988281 156.496094 91.988281 159.78125 Z M 92.707031 160.117188 C 92.707031 157.957031 95.171875 156.445312 98.691406 156.445312 C 101.617188 156.445312 103.339844 157.597656 103.339844 159.523438 C 103.339844 160.527344 102.722656 161.476562 101.695312 162.015625 C 100.359375 162.734375 98.5625 163.144531 96.738281 163.144531 C 94.300781 163.144531 92.707031 161.964844 92.707031 160.117188 "/>
<path style=" stroke:none;fill-rule:nonzero;fill:rgb(0%,0%,0%);fill-opacity:1;" d="M 103.800781 152.9375 L 103.800781 147.496094 L 103.414062 147.496094 C 103.339844 148.777344 103.003906 149.1875 102.078125 149.1875 L 94.867188 149.1875 C 93.710938 147.984375 93.402344 147.390625 93.402344 146.546875 C 93.402344 145.285156 94.195312 144.671875 95.890625 144.671875 L 101.257812 144.671875 C 102.925781 144.722656 103.339844 145.03125 103.414062 146.285156 L 103.800781 146.285156 L 103.800781 140.949219 L 103.414062 140.949219 C 103.285156 142.207031 102.976562 142.488281 101.71875 142.515625 L 95.839844 142.515625 C 93.429688 142.515625 91.988281 143.644531 91.988281 145.542969 C 91.988281 146.726562 92.425781 147.519531 94.070312 149.265625 L 92.039062 149.265625 L 91.988281 149.445312 C 92.453125 150.703125 92.734375 151.578125 93.144531 152.988281 L 93.582031 152.988281 C 93.503906 152.835938 93.476562 152.578125 93.476562 152.296875 C 93.476562 151.578125 93.863281 151.34375 95.121094 151.34375 L 101.488281 151.34375 C 103.003906 151.371094 103.339844 151.65625 103.414062 152.9375 L 103.800781 152.9375 "/>
<path style="fill:none;stroke-width:9.18;stroke-linecap:butt;stroke-linejoin:miter;stroke:rgb(0%,0%,0%);stroke-opacity:1;stroke-miterlimit:10;" d="M 1530 918.007812 L 7650 918.007812 L 7650 5201.992188 L 1530 5201.992188 Z M 1530 918.007812 " transform="matrix(0.1,0,0,-0.1,0,612)"/>
<path style=" stroke:none;fill-rule:nonzero;fill:rgb(0%,0%,0%);fill-opacity:1;" d="M 258.332031 142.535156 L 257.871094 142.429688 C 257.40625 144.84375 257.046875 145.152344 254.582031 145.230469 L 251.039062 145.230469 L 257.945312 134.832031 L 257.945312 134.445312 L 249.039062 134.445312 L 248.960938 137.476562 L 249.421875 137.476562 C 249.628906 135.652344 249.988281 135.265625 251.578125 135.21875 L 255.121094 135.21875 L 248.292969 145.617188 L 248.292969 146 L 257.972656 146 L 258.332031 142.535156 "/>
<path style=" stroke:none;fill-rule:nonzero;fill:rgb(0%,0%,0%);fill-opacity:1;" d="M 279.054688 134.882812 L 266.449219 134.882812 L 266.449219 136.242188 L 279.054688 136.242188 Z M 279.054688 140.015625 L 266.449219 140.015625 L 266.449219 141.378906 L 279.054688 141.378906 L 279.054688 140.015625 "/>
<path style=" stroke:none;fill-rule:nonzero;fill:rgb(0%,0%,0%);fill-opacity:1;" d="M 292.921875 128.644531 C 291.507812 128.644531 290.429688 129.054688 289.480469 129.980469 C 287.992188 131.417969 287.015625 134.367188 287.015625 137.371094 C 287.015625 140.195312 287.863281 143.175781 289.070312 144.613281 C 290.019531 145.742188 291.328125 146.359375 292.820312 146.359375 C 294.128906 146.359375 295.234375 145.921875 296.15625 145.023438 C 297.644531 143.613281 298.621094 140.632812 298.621094 137.527344 C 298.621094 132.265625 296.285156 128.644531 292.921875 128.644531 Z M 292.84375 129.3125 C 295.003906 129.3125 296.15625 132.210938 296.15625 137.578125 C 296.15625 142.945312 295.027344 145.691406 292.820312 145.691406 C 290.609375 145.691406 289.480469 142.945312 289.480469 137.605469 C 289.480469 132.136719 290.636719 129.3125 292.84375 129.3125 "/>
<path style="fill:none;stroke-width:36.72;stroke-linecap:butt;stroke-linejoin:miter;stroke:rgb(0%,0%,0%);stroke-opacity:1;stroke-miterlimit:10;" d="M 1915.546875 4746.054688 L 2405.15625 4746.054688 " transform="matrix(0.1,0,0,-0.1,0,612)"/>
<path style=" stroke:none;fill-rule:nonzero;fill:rgb(0%,0%,0%);fill-opacity:1;" d="M 258.332031 166.433594 L 257.871094 166.332031 C 257.40625 168.746094 257.046875 169.054688 254.582031 169.128906 L 251.039062 169.128906 L 257.945312 158.730469 L 257.945312 158.347656 L 249.039062 158.347656 L 248.960938 161.378906 L 249.421875 161.378906 C 249.628906 159.554688 249.988281 159.167969 251.578125 159.117188 L 255.121094 159.117188 L 248.292969 169.515625 L 248.292969 169.898438 L 257.972656 169.898438 L 258.332031 166.433594 "/>
<path style=" stroke:none;fill-rule:nonzero;fill:rgb(0%,0%,0%);fill-opacity:1;" d="M 279.054688 158.78125 L 266.449219 158.78125 L 266.449219 160.144531 L 279.054688 160.144531 Z M 279.054688 163.917969 L 266.449219 163.917969 L 266.449219 165.277344 L 279.054688 165.277344 L 279.054688 163.917969 "/>
<path style=" stroke:none;fill-rule:nonzero;fill:rgb(0%,0%,0%);fill-opacity:1;" d="M 289.429688 169.898438 L 296.515625 169.898438 L 296.515625 169.515625 C 294.539062 169.515625 294.101562 169.234375 294.078125 168 L 294.078125 152.59375 L 293.871094 152.542969 L 289.25 154.878906 L 289.25 155.238281 C 290.253906 154.855469 290.867188 154.675781 291.097656 154.675781 C 291.636719 154.675781 291.867188 155.058594 291.867188 155.882812 L 291.867188 167.511719 C 291.816406 169.128906 291.382812 169.488281 289.429688 169.515625 L 289.429688 169.898438 "/>
<path style="fill:none;stroke-width:36.72;stroke-linecap:butt;stroke-linejoin:miter;stroke:rgb(100%,0%,0%);stroke-opacity:1;stroke-miterlimit:10;" d="M 1915.546875 4508.59375 L 2405.15625 4508.59375 " transform="matrix(0.1,0,0,-0.1,0,612)"/>
<path style=" stroke:none;fill-rule:nonzero;fill:rgb(0%,0%,0%);fill-opacity:1;" d="M 258.332031 190.132812 L 257.871094 190.03125 C 257.40625 192.445312 257.046875 192.753906 254.582031 192.828125 L 251.039062 192.828125 L 257.945312 182.429688 L 257.945312 182.046875 L 249.039062 182.046875 L 248.960938 185.078125 L 249.421875 185.078125 C 249.628906 183.253906 249.988281 182.867188 251.578125 182.816406 L 255.121094 182.816406 L 248.292969 193.214844 L 248.292969 193.601562 L 257.972656 193.601562 L 258.332031 190.132812 "/>
<path style=" stroke:none;fill-rule:nonzero;fill:rgb(0%,0%,0%);fill-opacity:1;" d="M 279.054688 182.484375 L 266.449219 182.484375 L 266.449219 183.84375 L 279.054688 183.84375 Z M 279.054688 187.617188 L 266.449219 187.617188 L 266.449219 188.976562 L 279.054688 188.976562 L 279.054688 187.617188 "/>
<path style=" stroke:none;fill-rule:nonzero;fill:rgb(0%,0%,0%);fill-opacity:1;" d="M 298.59375 190.082031 L 298.261719 189.953125 C 297.3125 191.445312 297.03125 191.621094 295.824219 191.648438 L 289.6875 191.648438 L 294 187.128906 C 296.285156 184.742188 297.285156 182.789062 297.285156 180.761719 C 297.285156 178.21875 295.207031 176.242188 292.535156 176.242188 C 291.121094 176.242188 289.789062 176.808594 288.839844 177.835938 C 288.015625 178.710938 287.632812 179.53125 287.195312 181.351562 L 287.734375 181.480469 C 288.761719 178.964844 289.660156 178.144531 291.457031 178.144531 C 293.640625 178.144531 295.078125 179.609375 295.078125 181.765625 C 295.078125 183.792969 293.898438 186.15625 291.742188 188.4375 L 287.171875 193.292969 L 287.171875 193.601562 L 297.183594 193.601562 L 298.59375 190.082031 "/>
<path style="fill:none;stroke-width:36.72;stroke-linecap:butt;stroke-linejoin:miter;stroke:rgb(0%,0%,100%);stroke-opacity:1;stroke-miterlimit:10;" d="M 1915.546875 4271.757812 L 2405.15625 4271.757812 " transform="matrix(0.1,0,0,-0.1,0,612)"/>
</g>
</svg>
