<?xml version="1.0" encoding="UTF-8"?>
<svg xmlns="http://www.w3.org/2000/svg" xmlns:xlink="http://www.w3.org/1999/xlink" width="792pt" height="612pt" viewBox="0 0 792 612" version="1.2">
<g id="surface1">
<path style=" stroke:none;fill-rule:nonzero;fill:rgb(100%,100%,100%);fill-opacity:1;" d="M 153 520.199219 L 765 520.199219 L 765 91.800781 L 153 91.800781 Z M 153 520.199219 "/>
<path style=" stroke:none;fill-rule:nonzero;fill:rgb(47.5351800564199%,47.5351800564199%,47.5351800564199%);fill-opacity:0.7;" d="M 153 174.359375 L 206.550781 192.046875 L 265.363281 211.140625 L 324.175781 229.378906 L 382.988281 246.390625 L 441.742188 261.753906 L 500.554688 275.214844 L 559.367188 287.335938 L 618.179688 298.902344 L 676.933594 312.058594 L 735.746094 327.726562 L 765 337.089844 L 765 332.929688 L 735.746094 323.503906 L 676.933594 307.589844 L 618.179688 294.433594 L 559.367188 282.621094 L 500.554688 270.503906 L 441.742188 256.980469 L 382.988281 241.921875 L 324.175781 225.09375 L 265.363281 207.160156 L 206.550781 188.496094 L 153 171.238281 "/>
<path style=" stroke:none;fill-rule:nonzero;fill:rgb(66.117590217898%,66.117590217898%,66.117590217898%);fill-opacity:0.7;" d="M 153 219.707031 L 206.550781 234.578125 L 265.363281 251.652344 L 324.175781 268.851562 L 382.988281 286.171875 L 441.742188 303.492188 L 500.554688 321.421875 L 559.367188 340.578125 L 618.179688 360.957031 L 676.933594 382.929688 L 735.746094 407.226562 L 765 419.34375 L 765 415.730469 L 735.746094 403.492188 L 676.933594 378.890625 L 618.179688 356.671875 L 559.367188 336.109375 L 500.554688 317.261719 L 441.742188 299.511719 L 382.988281 282.5 L 324.175781 265.484375 L 265.363281 248.777344 L 206.550781 232.191406 L 153 217.628906 "/>
<path style=" stroke:none;fill-rule:nonzero;fill:rgb(81.3958914529691%,81.3958914529691%,81.3958914529691%);fill-opacity:0.7;" d="M 153 236.046875 L 206.550781 248.53125 L 265.363281 263.222656 L 324.175781 279.070312 L 382.988281 296.328125 L 441.742188 315.242188 L 500.554688 337.457031 L 559.367188 362.730469 L 618.179688 391.007812 L 676.933594 419.769531 L 735.746094 447.617188 L 765 461.019531 L 765 458.019531 L 735.746094 444.558594 L 676.933594 416.464844 L 618.179688 387.578125 L 559.367188 359.550781 L 500.554688 334.398438 L 441.742188 312.363281 L 382.988281 293.699219 L 324.175781 276.5625 L 265.363281 260.894531 L 206.550781 246.453125 L 153 234.152344 "/>
<path style="fill:none;stroke-width:36.72;stroke-linecap:butt;stroke-linejoin:miter;stroke:rgb(0%,0%,0%);stroke-opacity:1;stroke-miterlimit:10;" d="M 1529.375 4375.78125 L 2065.507812 4197.109375 L 2653.632812 4004.335938 L 3241.757812 3821.953125 L 3829.882812 3653.046875 L 4417.421875 3504.296875 L 5005.546875 3375.78125 L 5593.671875 3260.117188 L 6181.796875 3148.75 L 6769.335938 3021.445312 L 7357.460938 2867.226562 L 7650.625 2773.59375 " transform="matrix(0.1,0,0,-0.1,0,612)"/>
<path style="fill:none;stroke-width:36.72;stroke-linecap:butt;stroke-linejoin:miter;stroke:rgb(58.789062%,58.789062%,58.789062%);stroke-opacity:1;stroke-miterlimit:10;" d="M 1529.375 3921.71875 L 2065.507812 3771.132812 L 2653.632812 3599.179688 L 3241.757812 3426.601562 L 3829.882812 3252.773438 L 4417.421875 3079.570312 L 5005.546875 2900.898438 L 5593.671875 2713.007812 L 6181.796875 2510.429688 L 6769.335938 2292.539062 L 7357.460938 2051.445312 L 7650.625 1930.234375 " transform="matrix(0.1,0,0,-0.1,0,612)"/>
<path style="fill:none;stroke-width:36.72;stroke-linecap:butt;stroke-linejoin:miter;stroke:rgb(74.414062%,74.414062%,74.414062%);stroke-opacity:1;stroke-miterlimit:10;" d="M 1529.375 3760.742188 L 2065.507812 3634.0625 L 2653.632812 3487.1875 L 3241.757812 3329.296875 L 3829.882812 3155.46875 L 4417.421875 2967.578125 L 5005.546875 2746.640625 L 5593.671875 2493.90625 L 6181.796875 2212.382812 L 6769.335938 1924.726562 L 7357.460938 1646.875 L 7650.625 1512.851562 " transform="matrix(0.1,0,0,-0.1,0,612)"/>
<path style="fill:none;stroke-width:9.18;stroke-linecap:butt;stroke-linejoin:miter;stroke:rgb(0%,0%,0%);stroke-opacity:1;stroke-miterlimit:10;" d="M 1530 918.007812 L 7650 918.007812 " transform="matrix(0.1,0,0,-0.1,0,612)"/>
<path style="fill:none;stroke-width:9.18;stroke-linecap:butt;stroke-linejoin:miter;stroke:rgb(0%,0%,0%);stroke-opacity:1;stroke-miterlimit:10;" d="M 1530 5201.992188 L 7650 5201.992188 " transform="matrix(0.1,0,0,-0.1,0,612)"/>
<path style="fill:none;stroke-width:9.18;stroke-linecap:butt;stroke-linejoin:miter;stroke:rgb(0%,0%,0%);stroke-opacity:1;stroke-miterlimit:10;" d="M 2946.171875 918.007812 L 2946.171875 979.179688 " transform="matrix(0.1,0,0,-0.1,0,612)"/>
<path style="fill:none;stroke-width:9.18;stroke-linecap:butt;stroke-linejoin:miter;stroke:rgb(0%,0%,0%);stroke-opacity:1;stroke-miterlimit:10;" d="M 2946.171875 5201.992188 L 2946.171875 5140.78125 " transform="matrix(0.1,0,0,-0.1,0,612)"/>
<path style="fill:none;stroke-width:9.18;stroke-linecap:butt;stroke-linejoin:miter;stroke:rgb(0%,0%,0%);stroke-opacity:1;stroke-miterlimit:10;" d="M 3774.21875 918.007812 L 3774.21875 979.179688 " transform="matrix(0.1,0,0,-0.1,0,612)"/>
<path style="fill:none;stroke-width:9.18;stroke-linecap:butt;stroke-linejoin:miter;stroke:rgb(0%,0%,0%);stroke-opacity:1;stroke-miterlimit:10;" d="M 3774.21875 5201.992188 L 3774.21875 5140.78125 " transform="matrix(0.1,0,0,-0.1,0,612)"/>
<path style="fill:none;stroke-width:9.18;stroke-linecap:butt;stroke-linejoin:miter;stroke:rgb(0%,0%,0%);stroke-opacity:1;stroke-miterlimit:10;" d="M 4362.34375 918.007812 L 4362.34375 979.179688 " transform="matrix(0.1,0,0,-0.1,0,612)"/>
<path style="fill:none;stroke-width:9.18;stroke-linecap:butt;stroke-linejoin:miter;stroke:rgb(0%,0%,0%);stroke-opacity:1;stroke-miterlimit:10;" d="M 4362.34375 5201.992188 L 4362.34375 5140.78125 " transform="matrix(0.1,0,0,-0.1,0,612)"/>
<path style="fill:none;stroke-width:9.18;stroke-linecap:butt;stroke-linejoin:miter;stroke:rgb(0%,0%,0%);stroke-opacity:1;stroke-miterlimit:10;" d="M 4817.65625 918.007812 L 4817.65625 979.179688 " transform="matrix(0.1,0,0,-0.1,0,612)"/>
<path style="fill:none;stroke-width:9.18;stroke-linecap:butt;stroke-linejoin:miter;stroke:rgb(0%,0%,0%);stroke-opacity:1;stroke-miterlimit:10;" d="M 4817.65625 5201.992188 L 4817.65625 5140.78125 " transform="matrix(0.1,0,0,-0.1,0,612)"/>
<path style="fill:none;stroke-width:9.18;stroke-linecap:butt;stroke-linejoin:miter;stroke:rgb(0%,0%,0%);stroke-opacity:1;stroke-miterlimit:10;" d="M 5190.351562 918.007812 L 5190.351562 979.179688 " transform="matrix(0.1,0,0,-0.1,0,612)"/>
<path style="fill:none;stroke-width:9.18;stroke-linecap:butt;stroke-linejoin:miter;stroke:rgb(0%,0%,0%);stroke-opacity:1;stroke-miterlimit:10;" d="M 5190.351562 5201.992188 L 5190.351562 5140.78125 " transform="matrix(0.1,0,0,-0.1,0,612)"/>
<path style="fill:none;stroke-width:9.18;stroke-linecap:butt;stroke-linejoin:miter;stroke:rgb(0%,0%,0%);stroke-opacity:1;stroke-miterlimit:10;" d="M 5505.546875 918.007812 L 5505.546875 979.179688 " transform="matrix(0.1,0,0,-0.1,0,612)"/>
<path style="fill:none;stroke-width:9.18;stroke-linecap:butt;stroke-linejoin:miter;stroke:rgb(0%,0%,0%);stroke-opacity:1;stroke-miterlimit:10;" d="M 5505.546875 5201.992188 L 5505.546875 5140.78125 " transform="matrix(0.1,0,0,-0.1,0,612)"/>
<path style="fill:none;stroke-width:9.18;stroke-linecap:butt;stroke-linejoin:miter;stroke:rgb(0%,0%,0%);stroke-opacity:1;stroke-miterlimit:10;" d="M 5777.890625 918.007812 L 5777.890625 979.179688 " transform="matrix(0.1,0,0,-0.1,0,612)"/>
<path style="fill:none;stroke-width:9.18;stroke-linecap:butt;stroke-linejoin:miter;stroke:rgb(0%,0%,0%);stroke-opacity:1;stroke-miterlimit:10;" d="M 5777.890625 5201.992188 L 5777.890625 5140.78125 " transform="matrix(0.1,0,0,-0.1,0,612)"/>
<path style="fill:none;stroke-width:9.18;stroke-linecap:butt;stroke-linejoin:miter;stroke:rgb(0%,0%,0%);stroke-opacity:1;stroke-miterlimit:10;" d="M 6019.023438 918.007812 L 6019.023438 979.179688 " transform="matrix(0.1,0,0,-0.1,0,612)"/>
<path style="fill:none;stroke-width:9.18;stroke-linecap:butt;stroke-linejoin:miter;stroke:rgb(0%,0%,0%);stroke-opacity:1;stroke-miterlimit:10;" d="M 6019.023438 5201.992188 L 6019.023438 5140.78125 " transform="matrix(0.1,0,0,-0.1,0,612)"/>
<path style="fill:none;stroke-width:9.18;stroke-linecap:butt;stroke-linejoin:miter;stroke:rgb(0%,0%,0%);stroke-opacity:1;stroke-miterlimit:10;" d="M 6233.828125 918.007812 L 6233.828125 979.179688 " transform="matrix(0.1,0,0,-0.1,0,612)"/>
<path style="fill:none;stroke-width:9.18;stroke-linecap:butt;stroke-linejoin:miter;stroke:rgb(0%,0%,0%);stroke-opacity:1;stroke-miterlimit:10;" d="M 6233.828125 5201.992188 L 6233.828125 5140.78125 " transform="matrix(0.1,0,0,-0.1,0,612)"/>
<path style="fill:none;stroke-width:9.18;stroke-linecap:butt;stroke-linejoin:miter;stroke:rgb(0%,0%,0%);stroke-opacity:1;stroke-miterlimit:10;" d="M 7650 918.007812 L 7650 979.179688 " transform="matrix(0.1,0,0,-0.1,0,612)"/>
<path style="fill:none;stroke-width:9.18;stroke-linecap:butt;stroke-linejoin:miter;stroke:rgb(0%,0%,0%);stroke-opacity:1;stroke-miterlimit:10;" d="M 7650 5201.992188 L 7650 5140.78125 " transform="matrix(0.1,0,0,-0.1,0,612)"/>
<path style="fill:none;stroke-width:9.18;stroke-linecap:butt;stroke-linejoin:miter;stroke:rgb(0%,0%,0%);stroke-opacity:1;stroke-miterlimit:10;" d="M 1530 918.007812 L 1530 1040.390625 " transform="matrix(0.1,0,0,-0.1,0,612)"/>
<path style="fill:none;stroke-width:9.18;stroke-linecap:butt;stroke-linejoin:miter;stroke:rgb(0%,0%,0%);stroke-opacity:1;stroke-miterlimit:10;" d="M 1530 5201.992188 L 1530 5079.609375 " transform="matrix(0.1,0,0,-0.1,0,612)"/>
<path style="fill:none;stroke-width:9.18;stroke-linecap:butt;stroke-linejoin:miter;stroke:rgb(0%,0%,0%);stroke-opacity:1;stroke-miterlimit:10;" d="M 6233.828125 918.007812 L 6233.828125 1040.390625 " transform="matrix(0.1,0,0,-0.1,0,612)"/>
<path style="fill:none;stroke-width:9.18;stroke-linecap:butt;stroke-linejoin:miter;stroke:rgb(0%,0%,0%);stroke-opacity:1;stroke-miterlimit:10;" d="M 6233.828125 5201.992188 L 6233.828125 5079.609375 " transform="matrix(0.1,0,0,-0.1,0,612)"/>
<path style=" stroke:none;fill-rule:nonzero;fill:rgb(0%,0%,0%);fill-opacity:1;" d="M 144.921875 526.445312 C 143.507812 526.445312 142.429688 526.855469 141.480469 527.78125 C 139.992188 529.21875 139.015625 532.167969 139.015625 535.171875 C 139.015625 537.996094 139.863281 540.976562 141.070312 542.414062 C 142.019531 543.542969 143.328125 544.160156 144.820312 544.160156 C 146.128906 544.160156 147.234375 543.722656 148.15625 542.824219 C 149.644531 541.414062 150.621094 538.433594 150.621094 535.328125 C 150.621094 530.0625 148.285156 526.445312 144.921875 526.445312 Z M 144.84375 527.109375 C 147.003906 527.109375 148.15625 530.011719 148.15625 535.378906 C 148.15625 540.746094 147.027344 543.492188 144.820312 543.492188 C 142.609375 543.492188 141.480469 540.746094 141.480469 535.40625 C 141.480469 529.9375 142.636719 527.109375 144.84375 527.109375 "/>
<path style=" stroke:none;fill-rule:nonzero;fill:rgb(0%,0%,0%);fill-opacity:1;" d="M 154.410156 541.234375 C 153.640625 541.234375 152.996094 541.875 152.996094 542.695312 C 152.996094 543.441406 153.640625 544.082031 154.382812 544.082031 C 155.179688 544.082031 155.847656 543.464844 155.847656 542.695312 C 155.847656 541.898438 155.179688 541.234375 154.410156 541.234375 "/>
<path style=" stroke:none;fill-rule:nonzero;fill:rgb(0%,0%,0%);fill-opacity:1;" d="M 160.730469 543.800781 L 167.816406 543.800781 L 167.816406 543.414062 C 165.839844 543.414062 165.402344 543.132812 165.378906 541.898438 L 165.378906 526.496094 L 165.171875 526.445312 L 160.550781 528.78125 L 160.550781 529.140625 C 161.550781 528.753906 162.167969 528.574219 162.398438 528.574219 C 162.9375 528.574219 163.167969 528.960938 163.167969 529.78125 L 163.167969 541.414062 C 163.117188 543.03125 162.679688 543.390625 160.730469 543.414062 L 160.730469 543.800781 "/>
<path style=" stroke:none;fill-rule:nonzero;fill:rgb(0%,0%,0%);fill-opacity:1;" d="M 621.429688 543.800781 L 628.515625 543.800781 L 628.515625 543.414062 C 626.539062 543.414062 626.101562 543.132812 626.078125 541.898438 L 626.078125 526.496094 L 625.871094 526.445312 L 621.25 528.78125 L 621.25 529.140625 C 622.253906 528.753906 622.867188 528.574219 623.097656 528.574219 C 623.636719 528.574219 623.867188 528.960938 623.867188 529.78125 L 623.867188 541.414062 C 623.816406 543.03125 623.382812 543.390625 621.429688 543.414062 L 621.429688 543.800781 "/>
<path style=" stroke:none;fill-rule:nonzero;fill:rgb(0%,0%,0%);fill-opacity:1;" d="M 428.621094 566.8125 C 427.644531 566.734375 427.132812 566.476562 426.386719 565.605469 L 421.097656 559.109375 C 424.359375 558.46875 425.742188 557.183594 425.742188 554.820312 C 425.742188 553.71875 425.410156 552.769531 424.742188 552.023438 C 423.765625 550.96875 421.636719 550.304688 419.222656 550.304688 L 412.136719 550.304688 L 412.136719 550.789062 C 414.035156 550.996094 414.292969 551.226562 414.320312 553.101562 L 414.320312 564.21875 C 414.292969 566.402344 414.0625 566.65625 412.136719 566.8125 L 412.136719 567.300781 L 419.246094 567.300781 L 419.246094 566.8125 C 417.273438 566.683594 416.964844 566.375 416.9375 564.5 L 416.9375 559.445312 L 418.375 559.390625 L 424.484375 567.300781 L 428.621094 567.300781 Z M 416.9375 552.179688 C 416.9375 551.460938 417.21875 551.253906 418.246094 551.253906 C 421.457031 551.253906 422.945312 552.359375 422.945312 554.769531 C 422.945312 556.054688 422.40625 557.132812 421.484375 557.621094 C 420.300781 558.289062 419.402344 558.441406 416.9375 558.492188 L 416.9375 552.179688 "/>
<path style=" stroke:none;fill-rule:nonzero;fill:rgb(0%,0%,0%);fill-opacity:1;" d="M 428.890625 581.445312 L 433.292969 581.445312 L 433.292969 581.117188 C 431.929688 581.101562 431.710938 580.917969 431.691406 579.753906 L 431.691406 576.898438 C 432.347656 577.5 432.765625 577.679688 433.527344 577.679688 C 435.691406 577.679688 437.347656 575.644531 437.347656 573.007812 C 437.347656 570.753906 436.074219 569.132812 434.3125 569.132812 C 433.292969 569.132812 432.492188 569.570312 431.691406 570.570312 L 431.691406 569.171875 L 431.582031 569.132812 C 430.601562 569.515625 429.964844 569.753906 428.964844 570.0625 L 428.964844 570.351562 C 429.128906 570.335938 429.253906 570.335938 429.417969 570.335938 C 430.035156 570.335938 430.164062 570.515625 430.164062 571.371094 L 430.164062 579.882812 C 430.164062 580.847656 429.964844 581.027344 428.890625 581.136719 Z M 431.691406 571.425781 C 431.691406 570.878906 432.710938 570.226562 433.546875 570.226562 C 434.890625 570.226562 435.78125 571.609375 435.78125 573.734375 C 435.78125 575.734375 434.890625 577.101562 433.582031 577.101562 C 432.726562 577.101562 431.691406 576.445312 431.691406 575.898438 L 431.691406 571.425781 "/>
<path style=" stroke:none;fill-rule:nonzero;fill:rgb(0%,0%,0%);fill-opacity:1;" d="M 451.976562 550.945312 L 451.976562 550.304688 L 446.558594 550.304688 L 446.558594 571.304688 L 451.976562 571.304688 L 451.976562 570.664062 L 449.769531 570.664062 C 448.894531 570.636719 448.535156 570.253906 448.511719 569.328125 L 448.511719 552.074219 C 448.535156 551.253906 448.820312 550.96875 449.664062 550.945312 L 451.976562 550.945312 "/>
<path style=" stroke:none;fill-rule:nonzero;fill:rgb(0%,0%,0%);fill-opacity:1;" d="M 475.058594 550.304688 L 469.949219 550.304688 L 464.273438 563.269531 L 458.34375 550.304688 L 453.257812 550.304688 L 453.257812 550.789062 C 455.363281 550.894531 455.648438 551.175781 455.699219 553.101562 L 455.699219 563.527344 C 455.648438 566.246094 455.3125 566.683594 453.207031 566.8125 L 453.207031 567.300781 L 459.242188 567.300781 L 459.242188 566.8125 C 457.265625 566.710938 456.878906 566.171875 456.828125 563.527344 L 456.828125 553.179688 L 463.273438 567.300781 L 463.632812 567.300781 L 470.203125 552.589844 L 470.203125 564.21875 C 470.179688 566.402344 469.898438 566.683594 467.867188 566.8125 L 467.867188 567.300781 L 475.058594 567.300781 L 475.058594 566.8125 C 473.210938 566.710938 472.875 566.351562 472.824219 564.5 L 472.824219 553.101562 C 472.875 551.253906 473.183594 550.917969 475.058594 550.789062 L 475.058594 550.304688 "/>
<path style=" stroke:none;fill-rule:nonzero;fill:rgb(0%,0%,0%);fill-opacity:1;" d="M 475.828125 572.871094 L 482.042969 572.871094 L 482.042969 572.410156 C 480.117188 572.382812 479.808594 572.125 479.78125 570.484375 L 479.78125 566.453125 C 480.707031 567.300781 481.296875 567.554688 482.375 567.554688 C 485.429688 567.554688 487.765625 564.679688 487.765625 560.957031 C 487.765625 557.773438 485.96875 555.488281 483.480469 555.488281 C 482.042969 555.488281 480.914062 556.105469 479.78125 557.515625 L 479.78125 555.539062 L 479.628906 555.488281 C 478.242188 556.027344 477.34375 556.363281 475.929688 556.796875 L 475.929688 557.210938 C 476.164062 557.183594 476.34375 557.183594 476.574219 557.183594 C 477.445312 557.183594 477.625 557.441406 477.625 558.648438 L 477.625 570.664062 C 477.625 572.023438 477.34375 572.28125 475.828125 572.433594 Z M 479.78125 558.726562 C 479.78125 557.953125 481.21875 557.03125 482.402344 557.03125 C 484.300781 557.03125 485.558594 558.980469 485.558594 561.984375 C 485.558594 564.808594 484.300781 566.734375 482.453125 566.734375 C 481.246094 566.734375 479.78125 565.8125 479.78125 565.039062 L 479.78125 558.726562 "/>
<path style=" stroke:none;fill-rule:nonzero;fill:rgb(0%,0%,0%);fill-opacity:1;" d="M 498.820312 563.296875 C 497.585938 565.09375 496.664062 565.707031 495.199219 565.707031 C 492.835938 565.707031 491.21875 563.65625 491.21875 560.703125 C 491.21875 558.03125 492.632812 556.234375 494.710938 556.234375 C 495.632812 556.234375 495.96875 556.515625 496.226562 557.46875 L 496.378906 558.03125 C 496.585938 558.777344 497.046875 559.210938 497.613281 559.210938 C 498.28125 559.210938 498.820312 558.726562 498.820312 558.132812 C 498.820312 556.695312 497.023438 555.488281 494.863281 555.488281 C 493.605469 555.488281 492.296875 556.003906 491.242188 556.929688 C 489.960938 558.058594 489.242188 559.804688 489.242188 561.855469 C 489.242188 565.167969 491.269531 567.554688 494.121094 567.554688 C 495.273438 567.554688 496.304688 567.144531 497.226562 566.351562 C 497.921875 565.757812 498.40625 565.039062 499.179688 563.527344 L 498.820312 563.296875 "/>
<path style=" stroke:none;fill-rule:nonzero;fill:rgb(0%,0%,0%);fill-opacity:1;" d="M 500.871094 570.664062 L 500.871094 571.304688 L 506.289062 571.304688 L 506.289062 550.304688 L 500.871094 550.304688 L 500.871094 550.945312 L 503.082031 550.945312 C 503.953125 550.96875 504.3125 551.355469 504.339844 552.28125 L 504.339844 569.535156 C 504.3125 570.355469 504.03125 570.636719 503.183594 570.664062 L 500.871094 570.664062 "/>
<path style="fill:none;stroke-width:9.18;stroke-linecap:butt;stroke-linejoin:miter;stroke:rgb(0%,0%,0%);stroke-opacity:1;stroke-miterlimit:10;" d="M 1530 918.007812 L 1530 5201.992188 " transform="matrix(0.1,0,0,-0.1,0,612)"/>
<path style="fill:none;stroke-width:9.18;stroke-linecap:butt;stroke-linejoin:miter;stroke:rgb(0%,0%,0%);stroke-opacity:1;stroke-miterlimit:10;" d="M 7650 918.007812 L 7650 5201.992188 " transform="matrix(0.1,0,0,-0.1,0,612)"/>
<path style="fill:none;stroke-width:9.18;stroke-linecap:butt;stroke-linejoin:miter;stroke:rgb(0%,0%,0%);stroke-opacity:1;stroke-miterlimit:10;" d="M 1530 918.007812 L 1591.210938 918.007812 " transform="matrix(0.1,0,0,-0.1,0,612)"/>
<path style="fill:none;stroke-width:9.18;stroke-linecap:butt;stroke-linejoin:miter;stroke:rgb(0%,0%,0%);stroke-opacity:1;stroke-miterlimit:10;" d="M 7650 918.007812 L 7588.789062 918.007812 " transform="matrix(0.1,0,0,-0.1,0,612)"/>
<path style="fill:none;stroke-width:9.18;stroke-linecap:butt;stroke-linejoin:miter;stroke:rgb(0%,0%,0%);stroke-opacity:1;stroke-miterlimit:10;" d="M 1530 1159.140625 L 1591.210938 1159.140625 " transform="matrix(0.1,0,0,-0.1,0,612)"/>
<path style="fill:none;stroke-width:9.18;stroke-linecap:butt;stroke-linejoin:miter;stroke:rgb(0%,0%,0%);stroke-opacity:1;stroke-miterlimit:10;" d="M 7650 1159.140625 L 7588.789062 1159.140625 " transform="matrix(0.1,0,0,-0.1,0,612)"/>
<path style="fill:none;stroke-width:9.18;stroke-linecap:butt;stroke-linejoin:miter;stroke:rgb(0%,0%,0%);stroke-opacity:1;stroke-miterlimit:10;" d="M 1530 1345.78125 L 1591.210938 1345.78125 " transform="matrix(0.1,0,0,-0.1,0,612)"/>
<path style="fill:none;stroke-width:9.18;stroke-linecap:butt;stroke-linejoin:miter;stroke:rgb(0%,0%,0%);stroke-opacity:1;stroke-miterlimit:10;" d="M 7650 1345.78125 L 7588.789062 1345.78125 " transform="matrix(0.1,0,0,-0.1,0,612)"/>
<path style="fill:none;stroke-width:9.18;stroke-linecap:butt;stroke-linejoin:miter;stroke:rgb(0%,0%,0%);stroke-opacity:1;stroke-miterlimit:10;" d="M 1530 1498.164062 L 1591.210938 1498.164062 " transform="matrix(0.1,0,0,-0.1,0,612)"/>
<path style="fill:none;stroke-width:9.18;stroke-linecap:butt;stroke-linejoin:miter;stroke:rgb(0%,0%,0%);stroke-opacity:1;stroke-miterlimit:10;" d="M 7650 1498.164062 L 7588.789062 1498.164062 " transform="matrix(0.1,0,0,-0.1,0,612)"/>
<path style="fill:none;stroke-width:9.18;stroke-linecap:butt;stroke-linejoin:miter;stroke:rgb(0%,0%,0%);stroke-opacity:1;stroke-miterlimit:10;" d="M 1530 1627.304688 L 1591.210938 1627.304688 " transform="matrix(0.1,0,0,-0.1,0,612)"/>
<path style="fill:none;stroke-width:9.18;stroke-linecap:butt;stroke-linejoin:miter;stroke:rgb(0%,0%,0%);stroke-opacity:1;stroke-miterlimit:10;" d="M 7650 1627.304688 L 7588.789062 1627.304688 " transform="matrix(0.1,0,0,-0.1,0,612)"/>
<path style="fill:none;stroke-width:9.18;stroke-linecap:butt;stroke-linejoin:miter;stroke:rgb(0%,0%,0%);stroke-opacity:1;stroke-miterlimit:10;" d="M 1530 1739.296875 L 1591.210938 1739.296875 " transform="matrix(0.1,0,0,-0.1,0,612)"/>
<path style="fill:none;stroke-width:9.18;stroke-linecap:butt;stroke-linejoin:miter;stroke:rgb(0%,0%,0%);stroke-opacity:1;stroke-miterlimit:10;" d="M 7650 1739.296875 L 7588.789062 1739.296875 " transform="matrix(0.1,0,0,-0.1,0,612)"/>
<path style="fill:none;stroke-width:9.18;stroke-linecap:butt;stroke-linejoin:miter;stroke:rgb(0%,0%,0%);stroke-opacity:1;stroke-miterlimit:10;" d="M 1530 1837.851562 L 1591.210938 1837.851562 " transform="matrix(0.1,0,0,-0.1,0,612)"/>
<path style="fill:none;stroke-width:9.18;stroke-linecap:butt;stroke-linejoin:miter;stroke:rgb(0%,0%,0%);stroke-opacity:1;stroke-miterlimit:10;" d="M 7650 1837.851562 L 7588.789062 1837.851562 " transform="matrix(0.1,0,0,-0.1,0,612)"/>
<path style="fill:none;stroke-width:9.18;stroke-linecap:butt;stroke-linejoin:miter;stroke:rgb(0%,0%,0%);stroke-opacity:1;stroke-miterlimit:10;" d="M 1530 1925.976562 L 1591.210938 1925.976562 " transform="matrix(0.1,0,0,-0.1,0,612)"/>
<path style="fill:none;stroke-width:9.18;stroke-linecap:butt;stroke-linejoin:miter;stroke:rgb(0%,0%,0%);stroke-opacity:1;stroke-miterlimit:10;" d="M 7650 1925.976562 L 7588.789062 1925.976562 " transform="matrix(0.1,0,0,-0.1,0,612)"/>
<path style="fill:none;stroke-width:9.18;stroke-linecap:butt;stroke-linejoin:miter;stroke:rgb(0%,0%,0%);stroke-opacity:1;stroke-miterlimit:10;" d="M 1530 2506.757812 L 1591.210938 2506.757812 " transform="matrix(0.1,0,0,-0.1,0,612)"/>
<path style="fill:none;stroke-width:9.18;stroke-linecap:butt;stroke-linejoin:miter;stroke:rgb(0%,0%,0%);stroke-opacity:1;stroke-miterlimit:10;" d="M 7650 2506.757812 L 7588.789062 2506.757812 " transform="matrix(0.1,0,0,-0.1,0,612)"/>
<path style="fill:none;stroke-width:9.18;stroke-linecap:butt;stroke-linejoin:miter;stroke:rgb(0%,0%,0%);stroke-opacity:1;stroke-miterlimit:10;" d="M 1530 2846.40625 L 1591.210938 2846.40625 " transform="matrix(0.1,0,0,-0.1,0,612)"/>
<path style="fill:none;stroke-width:9.18;stroke-linecap:butt;stroke-linejoin:miter;stroke:rgb(0%,0%,0%);stroke-opacity:1;stroke-miterlimit:10;" d="M 7650 2846.40625 L 7588.789062 2846.40625 " transform="matrix(0.1,0,0,-0.1,0,612)"/>
<path style="fill:none;stroke-width:9.18;stroke-linecap:butt;stroke-linejoin:miter;stroke:rgb(0%,0%,0%);stroke-opacity:1;stroke-miterlimit:10;" d="M 1530 3086.914062 L 1591.210938 3086.914062 " transform="matrix(0.1,0,0,-0.1,0,612)"/>
<path style="fill:none;stroke-width:9.18;stroke-linecap:butt;stroke-linejoin:miter;stroke:rgb(0%,0%,0%);stroke-opacity:1;stroke-miterlimit:10;" d="M 7650 3086.914062 L 7588.789062 3086.914062 " transform="matrix(0.1,0,0,-0.1,0,612)"/>
<path style="fill:none;stroke-width:9.18;stroke-linecap:butt;stroke-linejoin:miter;stroke:rgb(0%,0%,0%);stroke-opacity:1;stroke-miterlimit:10;" d="M 1530 3273.59375 L 1591.210938 3273.59375 " transform="matrix(0.1,0,0,-0.1,0,612)"/>
<path style="fill:none;stroke-width:9.18;stroke-linecap:butt;stroke-linejoin:miter;stroke:rgb(0%,0%,0%);stroke-opacity:1;stroke-miterlimit:10;" d="M 7650 3273.59375 L 7588.789062 3273.59375 " transform="matrix(0.1,0,0,-0.1,0,612)"/>
<path style="fill:none;stroke-width:9.18;stroke-linecap:butt;stroke-linejoin:miter;stroke:rgb(0%,0%,0%);stroke-opacity:1;stroke-miterlimit:10;" d="M 1530 3426.601562 L 1591.210938 3426.601562 " transform="matrix(0.1,0,0,-0.1,0,612)"/>
<path style="fill:none;stroke-width:9.18;stroke-linecap:butt;stroke-linejoin:miter;stroke:rgb(0%,0%,0%);stroke-opacity:1;stroke-miterlimit:10;" d="M 7650 3426.601562 L 7588.789062 3426.601562 " transform="matrix(0.1,0,0,-0.1,0,612)"/>
<path style="fill:none;stroke-width:9.18;stroke-linecap:butt;stroke-linejoin:miter;stroke:rgb(0%,0%,0%);stroke-opacity:1;stroke-miterlimit:10;" d="M 1530 3555.703125 L 1591.210938 3555.703125 " transform="matrix(0.1,0,0,-0.1,0,612)"/>
<path style="fill:none;stroke-width:9.18;stroke-linecap:butt;stroke-linejoin:miter;stroke:rgb(0%,0%,0%);stroke-opacity:1;stroke-miterlimit:10;" d="M 7650 3555.703125 L 7588.789062 3555.703125 " transform="matrix(0.1,0,0,-0.1,0,612)"/>
<path style="fill:none;stroke-width:9.18;stroke-linecap:butt;stroke-linejoin:miter;stroke:rgb(0%,0%,0%);stroke-opacity:1;stroke-miterlimit:10;" d="M 1530 3667.695312 L 1591.210938 3667.695312 " transform="matrix(0.1,0,0,-0.1,0,612)"/>
<path style="fill:none;stroke-width:9.18;stroke-linecap:butt;stroke-linejoin:miter;stroke:rgb(0%,0%,0%);stroke-opacity:1;stroke-miterlimit:10;" d="M 7650 3667.695312 L 7588.789062 3667.695312 " transform="matrix(0.1,0,0,-0.1,0,612)"/>
<path style="fill:none;stroke-width:9.18;stroke-linecap:butt;stroke-linejoin:miter;stroke:rgb(0%,0%,0%);stroke-opacity:1;stroke-miterlimit:10;" d="M 1530 3766.25 L 1591.210938 3766.25 " transform="matrix(0.1,0,0,-0.1,0,612)"/>
<path style="fill:none;stroke-width:9.18;stroke-linecap:butt;stroke-linejoin:miter;stroke:rgb(0%,0%,0%);stroke-opacity:1;stroke-miterlimit:10;" d="M 7650 3766.25 L 7588.789062 3766.25 " transform="matrix(0.1,0,0,-0.1,0,612)"/>
<path style="fill:none;stroke-width:9.18;stroke-linecap:butt;stroke-linejoin:miter;stroke:rgb(0%,0%,0%);stroke-opacity:1;stroke-miterlimit:10;" d="M 1530 3854.375 L 1591.210938 3854.375 " transform="matrix(0.1,0,0,-0.1,0,612)"/>
<path style="fill:none;stroke-width:9.18;stroke-linecap:butt;stroke-linejoin:miter;stroke:rgb(0%,0%,0%);stroke-opacity:1;stroke-miterlimit:10;" d="M 7650 3854.375 L 7588.789062 3854.375 " transform="matrix(0.1,0,0,-0.1,0,612)"/>
<path style="fill:none;stroke-width:9.18;stroke-linecap:butt;stroke-linejoin:miter;stroke:rgb(0%,0%,0%);stroke-opacity:1;stroke-miterlimit:10;" d="M 1530 4434.53125 L 1591.210938 4434.53125 " transform="matrix(0.1,0,0,-0.1,0,612)"/>
<path style="fill:none;stroke-width:9.18;stroke-linecap:butt;stroke-linejoin:miter;stroke:rgb(0%,0%,0%);stroke-opacity:1;stroke-miterlimit:10;" d="M 7650 4434.53125 L 7588.789062 4434.53125 " transform="matrix(0.1,0,0,-0.1,0,612)"/>
<path style="fill:none;stroke-width:9.18;stroke-linecap:butt;stroke-linejoin:miter;stroke:rgb(0%,0%,0%);stroke-opacity:1;stroke-miterlimit:10;" d="M 1530 4774.21875 L 1591.210938 4774.21875 " transform="matrix(0.1,0,0,-0.1,0,612)"/>
<path style="fill:none;stroke-width:9.18;stroke-linecap:butt;stroke-linejoin:miter;stroke:rgb(0%,0%,0%);stroke-opacity:1;stroke-miterlimit:10;" d="M 7650 4774.21875 L 7588.789062 4774.21875 " transform="matrix(0.1,0,0,-0.1,0,612)"/>
<path style="fill:none;stroke-width:9.18;stroke-linecap:butt;stroke-linejoin:miter;stroke:rgb(0%,0%,0%);stroke-opacity:1;stroke-miterlimit:10;" d="M 1530 5015.351562 L 1591.210938 5015.351562 " transform="matrix(0.1,0,0,-0.1,0,612)"/>
<path style="fill:none;stroke-width:9.18;stroke-linecap:butt;stroke-linejoin:miter;stroke:rgb(0%,0%,0%);stroke-opacity:1;stroke-miterlimit:10;" d="M 7650 5015.351562 L 7588.789062 5015.351562 " transform="matrix(0.1,0,0,-0.1,0,612)"/>
<path style="fill:none;stroke-width:9.18;stroke-linecap:butt;stroke-linejoin:miter;stroke:rgb(0%,0%,0%);stroke-opacity:1;stroke-miterlimit:10;" d="M 1530 5201.992188 L 1591.210938 5201.992188 " transform="matrix(0.1,0,0,-0.1,0,612)"/>
<path style="fill:none;stroke-width:9.18;stroke-linecap:butt;stroke-linejoin:miter;stroke:rgb(0%,0%,0%);stroke-opacity:1;stroke-miterlimit:10;" d="M 7650 5201.992188 L 7588.789062 5201.992188 " transform="matrix(0.1,0,0,-0.1,0,612)"/>
<path style="fill:none;stroke-width:9.18;stroke-linecap:butt;stroke-linejoin:miter;stroke:rgb(0%,0%,0%);stroke-opacity:1;stroke-miterlimit:10;" d="M 1530 1925.976562 L 1652.382812 1925.976562 " transform="matrix(0.1,0,0,-0.1,0,612)"/>
<path style="fill:none;stroke-width:9.18;stroke-linecap:butt;stroke-linejoin:miter;stroke:rgb(0%,0%,0%);stroke-opacity:1;stroke-miterlimit:10;" d="M 7650 1925.976562 L 7527.617188 1925.976562 " transform="matrix(0.1,0,0,-0.1,0,612)"/>
<path style="fill:none;stroke-width:9.18;stroke-linecap:butt;stroke-linejoin:miter;stroke:rgb(0%,0%,0%);stroke-opacity:1;stroke-miterlimit:10;" d="M 1530 3854.375 L 1652.382812 3854.375 " transform="matrix(0.1,0,0,-0.1,0,612)"/>
<path style="fill:none;stroke-width:9.18;stroke-linecap:butt;stroke-linejoin:miter;stroke:rgb(0%,0%,0%);stroke-opacity:1;stroke-miterlimit:10;" d="M 7650 3854.375 L 7527.617188 3854.375 " transform="matrix(0.1,0,0,-0.1,0,612)"/>
<path style=" stroke:none;fill-rule:nonzero;fill:rgb(0%,0%,0%);fill-opacity:1;" d="M 139.828125 428.199219 L 146.914062 428.199219 L 146.914062 427.816406 C 144.9375 427.816406 144.503906 427.53125 144.476562 426.300781 L 144.476562 410.894531 L 144.273438 410.84375 L 139.648438 413.179688 L 139.648438 413.539062 C 140.652344 413.15625 141.265625 412.976562 141.496094 412.976562 C 142.039062 412.976562 142.269531 413.359375 142.269531 414.179688 L 142.269531 425.8125 C 142.21875 427.429688 141.78125 427.789062 139.828125 427.816406 L 139.828125 428.199219 "/>
<path style=" stroke:none;fill-rule:nonzero;fill:rgb(0%,0%,0%);fill-opacity:1;" d="M 124.730469 235.199219 L 131.816406 235.199219 L 131.816406 234.816406 C 129.839844 234.816406 129.402344 234.53125 129.378906 233.300781 L 129.378906 217.894531 L 129.171875 217.84375 L 124.550781 220.179688 L 124.550781 220.539062 C 125.550781 220.15625 126.167969 219.976562 126.398438 219.976562 C 126.9375 219.976562 127.167969 220.359375 127.167969 221.179688 L 127.167969 232.8125 C 127.117188 234.429688 126.679688 234.789062 124.730469 234.816406 L 124.730469 235.199219 "/>
<path style=" stroke:none;fill-rule:nonzero;fill:rgb(0%,0%,0%);fill-opacity:1;" d="M 141.023438 217.84375 C 139.609375 217.84375 138.53125 218.253906 137.582031 219.179688 C 136.09375 220.617188 135.117188 223.570312 135.117188 226.574219 C 135.117188 229.398438 135.964844 232.375 137.171875 233.8125 C 138.121094 234.945312 139.429688 235.558594 140.917969 235.558594 C 142.226562 235.558594 143.332031 235.121094 144.257812 234.226562 C 145.746094 232.8125 146.722656 229.835938 146.722656 226.726562 C 146.722656 221.464844 144.382812 217.84375 141.023438 217.84375 Z M 140.945312 218.511719 C 143.101562 218.511719 144.257812 221.410156 144.257812 226.777344 C 144.257812 232.144531 143.128906 234.890625 140.917969 234.890625 C 138.710938 234.890625 137.582031 232.144531 137.582031 226.804688 C 137.582031 221.335938 138.734375 218.511719 140.945312 218.511719 "/>
<path style=" stroke:none;fill-rule:nonzero;fill:rgb(0%,0%,0%);fill-opacity:1;" d="M 101.398438 395.546875 L 101.398438 380.089844 L 83.734375 387.304688 Z M 100.089844 393.722656 L 88.332031 388.253906 L 100.089844 383.402344 L 100.089844 393.722656 "/>
<path style=" stroke:none;fill-rule:nonzero;fill:rgb(0%,0%,0%);fill-opacity:1;" d="M 85.171875 375.710938 L 85.171875 371.371094 C 85.171875 368.394531 85.765625 367.597656 88.304688 367.160156 L 88.304688 366.496094 L 84.121094 366.753906 L 84.121094 379.433594 L 93.183594 373.835938 L 101.398438 379.871094 L 101.398438 366.265625 L 96.777344 364.878906 L 96.777344 365.546875 C 98.832031 366.367188 99.269531 367.136719 99.269531 370.117188 L 99.269531 376.96875 L 91.925781 371.554688 L 85.171875 375.710938 "/>
<path style=" stroke:none;fill-rule:nonzero;fill:rgb(0%,0%,0%);fill-opacity:1;" d="M 84.042969 357.226562 C 85.300781 359.128906 85.945312 359.898438 87.125 360.84375 C 89.359375 362.667969 91.925781 363.566406 94.929688 363.566406 C 98.214844 363.566406 100.707031 362.617188 103.324219 360.359375 C 104.558594 359.304688 105.121094 358.636719 105.945312 357.304688 L 105.535156 356.996094 C 103.914062 359.046875 102.992188 359.765625 101.09375 360.460938 C 99.371094 361.078125 97.445312 361.359375 94.851562 361.359375 C 92.15625 361.359375 90.050781 361.027344 88.460938 360.332031 C 86.867188 359.613281 85.945312 358.84375 84.453125 356.996094 L 84.042969 357.226562 "/>
<path style=" stroke:none;fill-rule:nonzero;fill:rgb(0%,0%,0%);fill-opacity:1;" d="M 100.914062 339.28125 C 100.835938 340.257812 100.578125 340.769531 99.703125 341.515625 L 93.210938 346.804688 C 92.566406 343.542969 91.285156 342.15625 88.921875 342.15625 C 87.820312 342.15625 86.867188 342.488281 86.125 343.15625 C 85.070312 344.132812 84.402344 346.265625 84.402344 348.675781 L 84.402344 355.765625 L 84.890625 355.765625 C 85.097656 353.863281 85.328125 353.605469 87.203125 353.582031 L 98.320312 353.582031 C 100.503906 353.605469 100.757812 353.835938 100.914062 355.765625 L 101.398438 355.765625 L 101.398438 348.652344 L 100.914062 348.652344 C 100.785156 350.628906 100.476562 350.9375 98.601562 350.960938 L 93.542969 350.960938 L 93.492188 349.523438 L 101.398438 343.414062 L 101.398438 339.28125 Z M 86.277344 350.960938 C 85.558594 350.960938 85.351562 350.679688 85.351562 349.652344 C 85.351562 346.445312 86.457031 344.953125 88.871094 344.953125 C 90.15625 344.953125 91.234375 345.492188 91.71875 346.417969 C 92.386719 347.597656 92.542969 348.496094 92.59375 350.960938 L 86.277344 350.960938 "/>
<path style=" stroke:none;fill-rule:nonzero;fill:rgb(0%,0%,0%);fill-opacity:1;" d="M 115.648438 339.007812 L 115.648438 334.609375 L 115.320312 334.609375 C 115.300781 335.972656 115.117188 336.191406 113.953125 336.207031 L 111.101562 336.207031 C 111.699219 335.554688 111.882812 335.136719 111.882812 334.371094 C 111.882812 332.207031 109.84375 330.554688 107.207031 330.554688 C 104.953125 330.554688 103.335938 331.824219 103.335938 333.589844 C 103.335938 334.609375 103.769531 335.40625 104.769531 336.207031 L 103.371094 336.207031 L 103.335938 336.316406 C 103.714844 337.300781 103.953125 337.9375 104.261719 338.9375 L 104.554688 338.9375 C 104.535156 338.773438 104.535156 338.644531 104.535156 338.480469 C 104.535156 337.863281 104.71875 337.734375 105.570312 337.734375 L 114.082031 337.734375 C 115.046875 337.734375 115.226562 337.9375 115.339844 339.007812 Z M 105.625 336.207031 C 105.078125 336.207031 104.425781 335.191406 104.425781 334.351562 C 104.425781 333.007812 105.808594 332.117188 107.9375 332.117188 C 109.9375 332.117188 111.300781 333.007812 111.300781 334.316406 C 111.300781 335.171875 110.644531 336.207031 110.101562 336.207031 L 105.625 336.207031 "/>
<path style=" stroke:none;fill-rule:nonzero;fill:rgb(0%,0%,0%);fill-opacity:1;" d="M 105.945312 329.023438 C 104.6875 327.125 104.042969 326.355469 102.863281 325.40625 C 100.628906 323.582031 98.0625 322.683594 95.058594 322.683594 C 91.773438 322.683594 89.28125 323.632812 86.664062 325.890625 C 85.429688 326.945312 84.867188 327.613281 84.042969 328.945312 L 84.453125 329.253906 C 86.070312 327.203125 86.96875 326.507812 88.898438 325.789062 C 90.617188 325.171875 92.542969 324.890625 95.136719 324.890625 C 97.832031 324.890625 99.960938 325.226562 101.503906 325.917969 C 103.121094 326.609375 104.042969 327.40625 105.535156 329.253906 L 105.945312 329.023438 "/>
<path style=" stroke:none;fill-rule:nonzero;fill:rgb(0%,0%,0%);fill-opacity:1;" d="M 85.046875 307.324219 L 84.402344 307.324219 L 84.402344 312.742188 L 105.40625 312.742188 L 105.40625 307.324219 L 104.765625 307.324219 L 104.765625 309.53125 C 104.738281 310.40625 104.351562 310.765625 103.429688 310.789062 L 86.175781 310.789062 C 85.351562 310.765625 85.070312 310.480469 85.046875 309.632812 L 85.046875 307.324219 "/>
<path style=" stroke:none;fill-rule:nonzero;fill:rgb(0%,0%,0%);fill-opacity:1;" d="M 84.402344 284.242188 L 84.402344 289.351562 L 97.367188 295.027344 L 84.402344 300.957031 L 84.402344 306.039062 L 84.890625 306.039062 C 84.992188 303.9375 85.277344 303.652344 87.203125 303.601562 L 97.625 303.601562 C 100.347656 303.652344 100.785156 303.984375 100.914062 306.09375 L 101.398438 306.09375 L 101.398438 300.058594 L 100.914062 300.058594 C 100.808594 302.035156 100.269531 302.421875 97.625 302.472656 L 87.277344 302.472656 L 101.398438 296.027344 L 101.398438 295.667969 L 86.6875 289.09375 L 98.320312 289.09375 C 100.503906 289.121094 100.785156 289.402344 100.914062 291.429688 L 101.398438 291.429688 L 101.398438 284.242188 L 100.914062 284.242188 C 100.808594 286.089844 100.449219 286.425781 98.601562 286.476562 L 87.203125 286.476562 C 85.351562 286.425781 85.019531 286.117188 84.890625 284.242188 L 84.402344 284.242188 "/>
<path style=" stroke:none;fill-rule:nonzero;fill:rgb(0%,0%,0%);fill-opacity:1;" d="M 98.035156 275.921875 C 98.035156 279.257812 100.550781 281.851562 103.785156 281.851562 C 106.96875 281.851562 109.511719 279.257812 109.511719 275.996094 C 109.511719 272.738281 106.96875 270.144531 103.757812 270.144531 C 100.601562 270.144531 98.035156 272.738281 98.035156 275.921875 Z M 99.085938 276.046875 C 99.085938 273.300781 101.117188 271.195312 103.785156 271.195312 C 106.378906 271.195312 108.457031 273.328125 108.457031 275.996094 C 108.457031 278.667969 106.378906 280.796875 103.757812 280.796875 C 101.191406 280.796875 99.085938 278.667969 99.085938 276.046875 "/>
<path style=" stroke:none;fill-rule:nonzero;fill:rgb(0%,0%,0%);fill-opacity:1;" d="M 102.910156 276.113281 C 102.910156 276.613281 103.269531 276.996094 103.746094 276.996094 C 104.234375 276.996094 104.59375 276.613281 104.59375 276.113281 L 104.59375 275.984375 C 104.59375 275.484375 104.234375 275.097656 103.746094 275.097656 C 103.269531 275.097656 102.910156 275.484375 102.910156 275.984375 L 102.910156 276.113281 "/>
<path style=" stroke:none;fill-rule:nonzero;fill:rgb(0%,0%,0%);fill-opacity:1;" d="M 106.972656 261.773438 L 106.972656 255.558594 L 106.507812 255.558594 C 106.484375 257.484375 106.226562 257.792969 104.585938 257.816406 L 100.554688 257.816406 C 101.398438 256.894531 101.65625 256.304688 101.65625 255.226562 C 101.65625 252.167969 98.78125 249.832031 95.058594 249.832031 C 91.875 249.832031 89.589844 251.628906 89.589844 254.121094 C 89.589844 255.558594 90.207031 256.6875 91.617188 257.816406 L 89.640625 257.816406 L 89.589844 257.972656 C 90.128906 259.359375 90.460938 260.257812 90.898438 261.667969 L 91.308594 261.667969 C 91.285156 261.4375 91.285156 261.257812 91.285156 261.027344 C 91.285156 260.15625 91.539062 259.976562 92.746094 259.976562 L 104.765625 259.976562 C 106.121094 259.976562 106.382812 260.257812 106.535156 261.773438 Z M 92.824219 257.816406 C 92.054688 257.816406 91.128906 256.378906 91.128906 255.199219 C 91.128906 253.296875 93.082031 252.039062 96.085938 252.039062 C 98.910156 252.039062 100.835938 253.296875 100.835938 255.148438 C 100.835938 256.355469 99.910156 257.816406 99.140625 257.816406 L 92.824219 257.816406 "/>
<path style=" stroke:none;fill-rule:nonzero;fill:rgb(0%,0%,0%);fill-opacity:1;" d="M 97.394531 238.882812 C 99.191406 240.113281 99.808594 241.035156 99.808594 242.503906 C 99.808594 244.863281 97.753906 246.480469 94.800781 246.480469 C 92.132812 246.480469 90.335938 245.070312 90.335938 242.988281 C 90.335938 242.066406 90.617188 241.730469 91.566406 241.476562 L 92.132812 241.320312 C 92.875 241.117188 93.3125 240.652344 93.3125 240.085938 C 93.3125 239.421875 92.824219 238.882812 92.234375 238.882812 C 90.796875 238.882812 89.589844 240.679688 89.589844 242.835938 C 89.589844 244.09375 90.101562 245.402344 91.027344 246.457031 C 92.15625 247.738281 93.902344 248.457031 95.957031 248.457031 C 99.269531 248.457031 101.65625 246.429688 101.65625 243.578125 C 101.65625 242.425781 101.246094 241.398438 100.449219 240.472656 C 99.859375 239.78125 99.140625 239.292969 97.625 238.523438 L 97.394531 238.882812 "/>
<path style=" stroke:none;fill-rule:nonzero;fill:rgb(0%,0%,0%);fill-opacity:1;" d="M 81.328125 236.890625 L 82.472656 236.890625 L 82.472656 232.417969 L 81.328125 232.417969 Z M 81.328125 236.890625 "/>
<path style=" stroke:none;fill-rule:nonzero;fill:rgb(0%,0%,0%);fill-opacity:1;" d="M 83.507812 222.960938 L 83.417969 223.199219 C 84.472656 223.871094 84.601562 224.070312 84.617188 224.925781 L 84.617188 229.273438 L 81.417969 226.21875 C 79.726562 224.597656 78.34375 223.890625 76.90625 223.890625 C 75.105469 223.890625 73.707031 225.363281 73.707031 227.253906 C 73.707031 228.253906 74.105469 229.199219 74.832031 229.871094 C 75.453125 230.453125 76.035156 230.726562 77.324219 231.035156 L 77.414062 230.65625 C 75.632812 229.925781 75.050781 229.289062 75.050781 228.015625 C 75.050781 226.472656 76.089844 225.453125 77.617188 225.453125 C 79.054688 225.453125 80.726562 226.289062 82.34375 227.816406 L 85.78125 231.054688 L 86 231.054688 L 86 223.960938 L 83.507812 222.960938 "/>
<path style=" stroke:none;fill-rule:nonzero;fill:rgb(0%,0%,0%);fill-opacity:1;" d="M 104.765625 221.628906 L 105.40625 221.628906 L 105.40625 216.210938 L 84.402344 216.210938 L 84.402344 221.628906 L 85.046875 221.628906 L 85.046875 219.417969 C 85.070312 218.546875 85.457031 218.1875 86.378906 218.160156 L 103.632812 218.160156 C 104.453125 218.1875 104.738281 218.46875 104.765625 219.316406 L 104.765625 221.628906 "/>
<path style="fill:none;stroke-width:9.18;stroke-linecap:butt;stroke-linejoin:miter;stroke:rgb(0%,0%,0%);stroke-opacity:1;stroke-miterlimit:10;" d="M 1530 918.007812 L 7650 918.007812 L 7650 5201.992188 L 1530 5201.992188 Z M 1530 918.007812 " transform="matrix(0.1,0,0,-0.1,0,612)"/>
<path style=" stroke:none;fill-rule:nonzero;fill:rgb(0%,0%,0%);fill-opacity:1;" d="M 656.132812 142.535156 L 655.671875 142.429688 C 655.207031 144.84375 654.847656 145.152344 652.382812 145.230469 L 648.839844 145.230469 L 655.746094 134.832031 L 655.746094 134.445312 L 646.839844 134.445312 L 646.761719 137.476562 L 647.222656 137.476562 C 647.429688 135.652344 647.789062 135.265625 649.378906 135.21875 L 652.921875 135.21875 L 646.09375 145.617188 L 646.09375 146 L 655.773438 146 L 656.132812 142.535156 "/>
<path style=" stroke:none;fill-rule:nonzero;fill:rgb(0%,0%,0%);fill-opacity:1;" d="M 676.855469 134.882812 L 664.25 134.882812 L 664.25 136.242188 L 676.855469 136.242188 Z M 676.855469 140.015625 L 664.25 140.015625 L 664.25 141.378906 L 676.855469 141.378906 L 676.855469 140.015625 "/>
<path style=" stroke:none;fill-rule:nonzero;fill:rgb(0%,0%,0%);fill-opacity:1;" d="M 690.722656 128.644531 C 689.308594 128.644531 688.230469 129.054688 687.28125 129.980469 C 685.792969 131.417969 684.816406 134.367188 684.816406 137.371094 C 684.816406 140.195312 685.664062 143.175781 686.871094 144.613281 C 687.820312 145.742188 689.128906 146.359375 690.617188 146.359375 C 691.929688 146.359375 693.03125 145.921875 693.957031 145.023438 C 695.445312 143.613281 696.421875 140.632812 696.421875 137.527344 C 696.421875 132.265625 694.085938 128.644531 690.722656 128.644531 Z M 690.644531 129.3125 C 692.800781 129.3125 693.957031 132.210938 693.957031 137.578125 C 693.957031 142.945312 692.828125 145.691406 690.617188 145.691406 C 688.410156 145.691406 687.28125 142.945312 687.28125 137.605469 C 687.28125 132.136719 688.4375 129.3125 690.644531 129.3125 "/>
<path style="fill:none;stroke-width:36.72;stroke-linecap:butt;stroke-linejoin:miter;stroke:rgb(0%,0%,0%);stroke-opacity:1;stroke-miterlimit:10;" d="M 5893.554688 4746.054688 L 6383.164062 4746.054688 " transform="matrix(0.1,0,0,-0.1,0,612)"/>
<path style=" stroke:none;fill-rule:nonzero;fill:rgb(0%,0%,0%);fill-opacity:1;" d="M 656.132812 166.433594 L 655.671875 166.332031 C 655.207031 168.746094 654.847656 169.054688 652.382812 169.128906 L 648.839844 169.128906 L 655.746094 158.730469 L 655.746094 158.347656 L 646.839844 158.347656 L 646.761719 161.378906 L 647.222656 161.378906 C 647.429688 159.554688 647.789062 159.167969 649.378906 159.117188 L 652.921875 159.117188 L 646.09375 169.515625 L 646.09375 169.898438 L 655.773438 169.898438 L 656.132812 166.433594 "/>
<path style=" stroke:none;fill-rule:nonzero;fill:rgb(0%,0%,0%);fill-opacity:1;" d="M 676.855469 158.78125 L 664.25 158.78125 L 664.25 160.144531 L 676.855469 160.144531 Z M 676.855469 163.917969 L 664.25 163.917969 L 664.25 165.277344 L 676.855469 165.277344 L 676.855469 163.917969 "/>
<path style=" stroke:none;fill-rule:nonzero;fill:rgb(0%,0%,0%);fill-opacity:1;" d="M 687.230469 169.898438 L 694.316406 169.898438 L 694.316406 169.515625 C 692.339844 169.515625 691.902344 169.234375 691.878906 168 L 691.878906 152.59375 L 691.671875 152.542969 L 687.050781 154.878906 L 687.050781 155.238281 C 688.050781 154.855469 688.667969 154.675781 688.898438 154.675781 C 689.4375 154.675781 689.667969 155.058594 689.667969 155.882812 L 689.667969 167.511719 C 689.617188 169.128906 689.179688 169.488281 687.230469 169.515625 L 687.230469 169.898438 "/>
<path style="fill:none;stroke-width:36.72;stroke-linecap:butt;stroke-linejoin:miter;stroke:rgb(58.789062%,58.789062%,58.789062%);stroke-opacity:1;stroke-miterlimit:10;" d="M 5893.554688 4508.59375 L 6383.164062 4508.59375 " transform="matrix(0.1,0,0,-0.1,0,612)"/>
<path style=" stroke:none;fill-rule:nonzero;fill:rgb(0%,0%,0%);fill-opacity:1;" d="M 656.132812 190.132812 L 655.671875 190.03125 C 655.207031 192.445312 654.847656 192.753906 652.382812 192.828125 L 648.839844 192.828125 L 655.746094 182.429688 L 655.746094 182.046875 L 646.839844 182.046875 L 646.761719 185.078125 L 647.222656 185.078125 C 647.429688 183.253906 647.789062 182.867188 649.378906 182.816406 L 652.921875 182.816406 L 646.09375 193.214844 L 646.09375 193.601562 L 655.773438 193.601562 L 656.132812 190.132812 "/>
<path style=" stroke:none;fill-rule:nonzero;fill:rgb(0%,0%,0%);fill-opacity:1;" d="M 676.855469 182.484375 L 664.25 182.484375 L 664.25 183.84375 L 676.855469 183.84375 Z M 676.855469 187.617188 L 664.25 187.617188 L 664.25 188.976562 L 676.855469 188.976562 L 676.855469 187.617188 "/>
<path style=" stroke:none;fill-rule:nonzero;fill:rgb(0%,0%,0%);fill-opacity:1;" d="M 696.394531 190.082031 L 696.0625 189.953125 C 695.113281 191.445312 694.828125 191.621094 693.621094 191.648438 L 687.484375 191.648438 L 691.800781 187.128906 C 694.085938 184.742188 695.085938 182.789062 695.085938 180.761719 C 695.085938 178.21875 693.007812 176.242188 690.335938 176.242188 C 688.921875 176.242188 687.589844 176.808594 686.640625 177.835938 C 685.816406 178.710938 685.433594 179.53125 684.996094 181.351562 L 685.535156 181.480469 C 686.5625 178.964844 687.460938 178.144531 689.257812 178.144531 C 691.441406 178.144531 692.878906 179.609375 692.878906 181.765625 C 692.878906 183.792969 691.695312 186.15625 689.539062 188.4375 L 684.96875 193.292969 L 684.96875 193.601562 L 694.984375 193.601562 L 696.394531 190.082031 "/>
<path style="fill:none;stroke-width:36.72;stroke-linecap:butt;stroke-linejoin:miter;stroke:rgb(74.414062%,74.414062%,74.414062%);stroke-opacity:1;stroke-miterlimit:10;" d="M 5893.554688 4271.757812 L 6383.164062 4271.757812 " transform="matrix(0.1,0,0,-0.1,0,612)"/>
<path style=" stroke:none;fill-rule:nonzero;fill:rgb(0%,0%,0%);fill-opacity:1;" d="M 596.128906 121.3125 C 594.96875 121.234375 594.714844 120.976562 593.816406 119.078125 L 587.421875 104.496094 L 586.910156 104.496094 L 581.570312 117.101562 C 579.925781 120.851562 579.617188 121.261719 578.382812 121.3125 L 578.382812 121.800781 L 583.46875 121.800781 L 583.46875 121.3125 C 582.234375 121.3125 581.722656 121.003906 581.722656 120.257812 C 581.722656 119.953125 581.800781 119.59375 581.929688 119.257812 L 583.109375 116.253906 L 589.835938 116.253906 L 590.890625 118.71875 C 591.195312 119.410156 591.378906 120.078125 591.378906 120.4375 C 591.378906 121.082031 590.941406 121.285156 589.578125 121.3125 L 589.578125 121.800781 L 596.128906 121.800781 Z M 583.546875 115.203125 L 586.496094 108.140625 L 589.476562 115.203125 L 583.546875 115.203125 "/>
<path style=" stroke:none;fill-rule:nonzero;fill:rgb(0%,0%,0%);fill-opacity:1;" d="M 597.140625 121.800781 L 603.199219 121.800781 L 603.199219 121.414062 C 601.582031 121.335938 601.296875 121.082031 601.273438 119.644531 L 601.273438 104.316406 L 601.171875 104.265625 C 599.835938 104.699219 598.859375 104.957031 597.089844 105.394531 L 597.089844 105.804688 L 597.242188 105.804688 C 597.523438 105.78125 597.832031 105.753906 598.039062 105.753906 C 598.859375 105.753906 599.117188 106.113281 599.117188 107.320312 L 599.117188 119.566406 C 599.089844 120.953125 598.730469 121.3125 597.140625 121.414062 L 597.140625 121.800781 "/>
<path style=" stroke:none;fill-rule:nonzero;fill:rgb(0%,0%,0%);fill-opacity:1;" d="M 604.238281 121.800781 L 610.296875 121.800781 L 610.296875 121.414062 C 608.679688 121.335938 608.398438 121.082031 608.371094 119.644531 L 608.371094 104.316406 L 608.269531 104.265625 C 606.933594 104.699219 605.960938 104.957031 604.1875 105.394531 L 604.1875 105.804688 L 604.34375 105.804688 C 604.625 105.78125 604.933594 105.753906 605.136719 105.753906 C 605.960938 105.753906 606.214844 106.113281 606.214844 107.320312 L 606.214844 119.566406 C 606.191406 120.953125 605.832031 121.3125 604.238281 121.414062 L 604.238281 121.800781 "/>
<path style=" stroke:none;fill-rule:nonzero;fill:rgb(0%,0%,0%);fill-opacity:1;" d="M 635.503906 112.710938 L 628.957031 112.710938 L 628.957031 113.171875 C 630.960938 113.300781 631.164062 113.507812 631.214844 115.457031 L 631.214844 119.617188 C 631.214844 120.4375 629.675781 121.132812 627.800781 121.132812 C 623.617188 121.132812 621.046875 118.207031 621.046875 113.429688 C 621.046875 111.015625 621.765625 108.679688 622.898438 107.421875 C 624.027344 106.164062 625.617188 105.46875 627.363281 105.46875 C 628.800781 105.46875 630.085938 105.960938 631.0625 106.882812 C 631.832031 107.628906 632.242188 108.296875 632.882812 109.859375 L 633.476562 109.859375 L 633.269531 104.445312 L 632.703125 104.445312 C 632.550781 104.957031 632.089844 105.289062 631.550781 105.289062 C 631.292969 105.289062 630.882812 105.1875 630.421875 105.035156 C 629.265625 104.648438 628.082031 104.445312 626.929688 104.445312 C 621.792969 104.445312 618.121094 108.21875 618.121094 113.457031 C 618.121094 115.972656 618.8125 117.898438 620.253906 119.410156 C 621.945312 121.183594 624.4375 122.160156 627.261719 122.160156 C 629.496094 122.160156 632.679688 121.261719 633.707031 120.363281 L 633.707031 115.148438 C 633.757812 113.585938 634.039062 113.277344 635.503906 113.171875 L 635.503906 112.710938 "/>
<path style=" stroke:none;fill-rule:nonzero;fill:rgb(0%,0%,0%);fill-opacity:1;" d="M 647.246094 120.105469 C 646.8125 120.464844 646.503906 120.59375 646.117188 120.59375 C 645.527344 120.59375 645.347656 120.234375 645.347656 119.105469 L 645.347656 114.097656 C 645.347656 112.761719 645.21875 112.015625 644.835938 111.402344 C 644.269531 110.476562 643.164062 109.988281 641.652344 109.988281 C 639.238281 109.988281 637.339844 111.246094 637.339844 112.867188 C 637.339844 113.457031 637.824219 113.96875 638.441406 113.96875 C 639.058594 113.96875 639.597656 113.457031 639.597656 112.890625 C 639.597656 112.785156 639.570312 112.660156 639.546875 112.480469 C 639.492188 112.246094 639.46875 112.042969 639.46875 111.863281 C 639.46875 111.171875 640.289062 110.605469 641.316406 110.605469 C 642.574219 110.605469 643.269531 111.351562 643.269531 112.738281 L 643.269531 114.304688 C 639.3125 115.894531 638.878906 116.101562 637.773438 117.078125 C 637.210938 117.589844 636.851562 118.460938 636.851562 119.308594 C 636.851562 120.925781 637.980469 122.054688 639.546875 122.054688 C 640.675781 122.054688 641.726562 121.515625 643.292969 120.183594 C 643.421875 121.542969 643.882812 122.054688 644.9375 122.054688 C 645.8125 122.054688 646.351562 121.746094 647.246094 120.773438 Z M 643.269531 118.640625 C 643.269531 119.410156 643.140625 119.695312 642.601562 120.003906 C 641.960938 120.363281 641.265625 120.566406 640.726562 120.566406 C 639.828125 120.566406 639.109375 119.695312 639.109375 118.589844 L 639.109375 118.488281 C 639.132812 116.945312 640.265625 115.972656 643.269531 114.917969 L 643.269531 118.640625 "/>
<path style=" stroke:none;fill-rule:nonzero;fill:rgb(0%,0%,0%);fill-opacity:1;" d="M 647.839844 121.800781 L 653.898438 121.800781 L 653.898438 121.414062 C 652.28125 121.335938 651.996094 121.082031 651.972656 119.644531 L 651.972656 104.316406 L 651.871094 104.265625 C 650.535156 104.699219 649.558594 104.957031 647.789062 105.394531 L 647.789062 105.804688 L 647.941406 105.804688 C 648.226562 105.78125 648.53125 105.753906 648.738281 105.753906 C 649.558594 105.753906 649.816406 106.113281 649.816406 107.320312 L 649.816406 119.566406 C 649.789062 120.953125 649.429688 121.3125 647.839844 121.414062 L 647.839844 121.800781 "/>
<path style=" stroke:none;fill-rule:nonzero;fill:rgb(0%,0%,0%);fill-opacity:1;" d="M 665.746094 120.105469 C 665.3125 120.464844 665.003906 120.59375 664.617188 120.59375 C 664.027344 120.59375 663.847656 120.234375 663.847656 119.105469 L 663.847656 114.097656 C 663.847656 112.761719 663.71875 112.015625 663.335938 111.402344 C 662.769531 110.476562 661.664062 109.988281 660.152344 109.988281 C 657.738281 109.988281 655.839844 111.246094 655.839844 112.867188 C 655.839844 113.457031 656.324219 113.96875 656.941406 113.96875 C 657.558594 113.96875 658.097656 113.457031 658.097656 112.890625 C 658.097656 112.785156 658.070312 112.660156 658.046875 112.480469 C 657.992188 112.246094 657.96875 112.042969 657.96875 111.863281 C 657.96875 111.171875 658.789062 110.605469 659.816406 110.605469 C 661.074219 110.605469 661.769531 111.351562 661.769531 112.738281 L 661.769531 114.304688 C 657.8125 115.894531 657.378906 116.101562 656.273438 117.078125 C 655.710938 117.589844 655.351562 118.460938 655.351562 119.308594 C 655.351562 120.925781 656.480469 122.054688 658.046875 122.054688 C 659.175781 122.054688 660.226562 121.515625 661.792969 120.183594 C 661.921875 121.542969 662.382812 122.054688 663.4375 122.054688 C 664.3125 122.054688 664.851562 121.746094 665.746094 120.773438 Z M 661.769531 118.640625 C 661.769531 119.410156 661.640625 119.695312 661.101562 120.003906 C 660.460938 120.363281 659.765625 120.566406 659.226562 120.566406 C 658.328125 120.566406 657.609375 119.695312 657.609375 118.589844 L 657.609375 118.488281 C 657.632812 116.945312 658.765625 115.972656 661.769531 114.917969 L 661.769531 118.640625 "/>
<path style=" stroke:none;fill-rule:nonzero;fill:rgb(0%,0%,0%);fill-opacity:1;" d="M 672.9375 121.800781 L 678.097656 121.800781 L 678.097656 121.414062 C 677.300781 121.414062 676.789062 121.003906 675.992188 119.875 L 672.707031 114.84375 L 674.839844 111.761719 C 675.324219 111.066406 676.09375 110.65625 676.917969 110.632812 L 676.917969 110.246094 L 672.859375 110.246094 L 672.859375 110.632812 C 673.632812 110.683594 673.886719 110.835938 673.886719 111.195312 C 673.886719 111.503906 673.578125 112.070312 672.9375 112.867188 C 672.808594 113.019531 672.503906 113.480469 672.167969 113.996094 L 671.964844 113.6875 C 671.578125 113.097656 671.34375 112.761719 671.292969 112.660156 C 670.804688 111.863281 670.628906 111.453125 670.628906 111.195312 C 670.628906 110.8125 670.960938 110.65625 671.730469 110.632812 L 671.730469 110.246094 L 666.414062 110.246094 L 666.414062 110.632812 L 666.648438 110.632812 C 667.417969 110.632812 667.828125 110.964844 668.625 112.171875 L 671.039062 115.867188 L 668.109375 120.105469 C 667.339844 121.15625 667.085938 121.335938 666.234375 121.414062 L 666.234375 121.800781 L 669.960938 121.800781 L 669.960938 121.414062 C 669.214844 121.414062 668.933594 121.285156 668.933594 120.953125 C 668.933594 120.773438 669.085938 120.4375 669.445312 119.898438 L 671.472656 116.742188 L 673.8125 120.335938 C 673.914062 120.492188 673.964844 120.617188 673.964844 120.796875 C 673.964844 121.261719 673.785156 121.363281 672.9375 121.414062 L 672.9375 121.800781 "/>
<path style=" stroke:none;fill-rule:nonzero;fill:rgb(0%,0%,0%);fill-opacity:1;" d="M 679.289062 121.800781 L 685.375 121.800781 L 685.375 121.414062 C 683.679688 121.285156 683.503906 121.054688 683.476562 119.179688 L 683.476562 110.066406 L 683.371094 109.988281 L 679.394531 111.402344 L 679.394531 111.785156 L 679.597656 111.761719 C 679.90625 111.710938 680.242188 111.683594 680.472656 111.683594 C 681.089844 111.683594 681.320312 112.09375 681.320312 113.226562 L 681.320312 119.179688 C 681.265625 121.082031 681.035156 121.335938 679.289062 121.414062 Z M 682.164062 104.265625 C 681.472656 104.265625 680.882812 104.855469 680.882812 105.574219 C 680.882812 106.320312 681.445312 106.882812 682.164062 106.882812 C 682.9375 106.882812 683.503906 106.320312 683.503906 105.574219 C 683.503906 104.828125 682.910156 104.265625 682.164062 104.265625 "/>
<path style=" stroke:none;fill-rule:nonzero;fill:rgb(0%,0%,0%);fill-opacity:1;" d="M 696.429688 117.589844 C 695.195312 119.539062 694.09375 120.285156 692.449219 120.285156 C 690.984375 120.285156 689.882812 119.539062 689.136719 118.078125 C 688.675781 117.101562 688.496094 116.28125 688.445312 114.6875 L 696.351562 114.6875 C 696.148438 113.019531 695.890625 112.273438 695.246094 111.453125 C 694.476562 110.527344 693.296875 109.988281 691.964844 109.988281 C 690.679688 109.988281 689.472656 110.453125 688.496094 111.324219 C 687.289062 112.378906 686.59375 114.199219 686.59375 116.304688 C 686.59375 119.847656 688.445312 122.054688 691.398438 122.054688 C 693.863281 122.054688 695.761719 120.542969 696.839844 117.769531 Z M 688.496094 113.867188 C 688.777344 111.835938 689.652344 110.914062 691.21875 110.914062 C 692.78125 110.914062 693.398438 111.632812 693.734375 113.867188 L 688.496094 113.867188 "/>
<path style=" stroke:none;fill-rule:nonzero;fill:rgb(0%,0%,0%);fill-opacity:1;" d="M 705.289062 113.738281 L 705.183594 110.21875 L 704.902344 110.21875 C 704.746094 110.425781 704.621094 110.503906 704.492188 110.503906 C 704.339844 110.503906 704.082031 110.453125 703.796875 110.324219 C 703.207031 110.117188 702.617188 109.988281 702.003906 109.988281 C 699.972656 109.988281 698.507812 111.324219 698.507812 113.171875 C 698.507812 114.609375 699.332031 115.636719 701.515625 116.871094 L 703.003906 117.71875 C 703.902344 118.230469 704.339844 118.847656 704.339844 119.644531 C 704.339844 120.773438 703.515625 121.492188 702.207031 121.492188 C 700.433594 121.492188 699.535156 120.515625 698.945312 117.898438 L 698.535156 117.898438 L 698.535156 121.902344 L 698.867188 121.902344 C 699.046875 121.644531 699.152344 121.59375 699.460938 121.59375 C 699.742188 121.59375 700.050781 121.644531 700.640625 121.800781 C 701.335938 121.953125 702.003906 122.054688 702.515625 122.054688 C 704.515625 122.054688 706.132812 120.566406 706.132812 118.769531 C 706.132812 117.484375 705.542969 116.640625 703.976562 115.714844 L 701.203125 114.070312 C 700.484375 113.660156 700.101562 113.019531 700.101562 112.328125 C 700.101562 111.273438 700.898438 110.578125 702.078125 110.578125 C 703.542969 110.578125 704.3125 111.429688 704.902344 113.738281 L 705.289062 113.738281 "/>
<path style=" stroke:none;fill-rule:nonzero;fill:rgb(0%,0%,0%);fill-opacity:1;" d="M 205.757812 472.601562 L 200.648438 472.601562 L 194.972656 485.570312 L 189.042969 472.601562 L 183.960938 472.601562 L 183.960938 473.089844 C 186.0625 473.195312 186.347656 473.476562 186.398438 475.402344 L 186.398438 485.828125 C 186.347656 488.546875 186.015625 488.984375 183.90625 489.113281 L 183.90625 489.601562 L 189.941406 489.601562 L 189.941406 489.113281 C 187.964844 489.007812 187.578125 488.46875 187.527344 485.828125 L 187.527344 475.476562 L 193.972656 489.601562 L 194.332031 489.601562 L 200.90625 474.890625 L 200.90625 486.519531 C 200.878906 488.703125 200.597656 488.984375 198.570312 489.113281 L 198.570312 489.601562 L 205.757812 489.601562 L 205.757812 489.113281 C 203.910156 489.007812 203.574219 488.648438 203.523438 486.800781 L 203.523438 475.402344 C 203.574219 473.554688 203.882812 473.21875 205.757812 473.089844 L 205.757812 472.601562 "/>
<path style=" stroke:none;fill-rule:nonzero;fill:rgb(0%,0%,0%);fill-opacity:1;" d="M 210.78125 491.734375 C 210.800781 491.898438 210.820312 492.007812 210.820312 492.042969 C 210.820312 492.515625 210.710938 492.988281 210.492188 493.570312 C 210.363281 493.917969 210.292969 494.226562 210.292969 494.425781 C 210.292969 494.773438 210.582031 495.082031 210.929688 495.082031 C 211.3125 495.082031 211.636719 494.734375 211.636719 494.351562 C 211.636719 494.242188 211.582031 494.027344 211.492188 493.773438 C 211.257812 493.132812 211.128906 492.445312 211.128906 491.734375 L 211.128906 491.609375 L 211.257812 491.660156 C 211.65625 491.824219 212.054688 492.152344 212.527344 492.753906 C 212.984375 493.316406 213.292969 493.535156 213.621094 493.535156 C 214.003906 493.535156 214.257812 493.261719 214.257812 492.863281 C 214.257812 492.390625 213.984375 492.1875 213.183594 492.0625 C 212.492188 491.953125 211.890625 491.734375 211.417969 491.445312 L 211.273438 491.351562 C 212.164062 490.84375 212.527344 490.714844 213.3125 490.589844 C 214.019531 490.480469 214.238281 490.296875 214.238281 489.824219 C 214.238281 489.40625 213.984375 489.117188 213.585938 489.117188 C 213.3125 489.117188 213.003906 489.351562 212.566406 489.859375 C 212.128906 490.390625 211.671875 490.789062 211.257812 491.023438 L 211.128906 491.097656 L 211.128906 490.625 L 211.617188 488.261719 C 211.617188 487.898438 211.328125 487.605469 210.964844 487.605469 C 210.601562 487.605469 210.328125 487.878906 210.328125 488.242188 C 210.328125 488.441406 210.402344 488.785156 210.507812 489.171875 C 210.691406 489.804688 210.78125 490.371094 210.78125 490.824219 L 210.78125 491.0625 C 210.09375 490.679688 209.726562 490.390625 209.148438 489.734375 C 208.78125 489.296875 208.5625 489.152344 208.273438 489.152344 C 207.910156 489.152344 207.65625 489.425781 207.65625 489.804688 C 207.65625 490.261719 208 490.496094 208.890625 490.660156 C 209.5625 490.789062 210.109375 490.96875 210.457031 491.207031 L 210.65625 491.335938 C 209.910156 491.789062 209.617188 491.898438 208.78125 492.0625 C 207.964844 492.207031 207.65625 492.425781 207.65625 492.898438 C 207.65625 493.28125 207.890625 493.515625 208.308594 493.515625 C 208.601562 493.515625 208.765625 493.425781 209.074219 493.078125 C 209.601562 492.496094 209.691406 492.40625 209.839844 492.261719 C 210.019531 492.117188 210.109375 492.042969 210.765625 491.609375 L 210.78125 491.734375 "/>
<path style=" stroke:none;fill-rule:nonzero;fill:rgb(0%,0%,0%);fill-opacity:1;" d="M 222.898438 488.214844 L 235.609375 482.488281 L 235.609375 480.996094 L 222.898438 475.246094 L 222.898438 476.738281 L 233.9375 481.742188 L 222.898438 486.75 L 222.898438 488.214844 "/>
<path style=" stroke:none;fill-rule:nonzero;fill:rgb(0%,0%,0%);fill-opacity:1;" d="M 245.929688 489.601562 L 253.015625 489.601562 L 253.015625 489.214844 C 251.039062 489.214844 250.601562 488.933594 250.578125 487.699219 L 250.578125 472.296875 L 250.371094 472.242188 L 245.75 474.578125 L 245.75 474.9375 C 246.753906 474.554688 247.367188 474.375 247.597656 474.375 C 248.136719 474.375 248.367188 474.757812 248.367188 475.582031 L 248.367188 487.210938 C 248.316406 488.828125 247.882812 489.1875 245.929688 489.214844 L 245.929688 489.601562 "/>
<path style=" stroke:none;fill-rule:nonzero;fill:rgb(0%,0%,0%);fill-opacity:1;" d="M 262.222656 472.242188 C 260.808594 472.242188 259.730469 472.65625 258.78125 473.578125 C 257.292969 475.015625 256.316406 477.96875 256.316406 480.972656 C 256.316406 483.796875 257.164062 486.773438 258.371094 488.214844 C 259.320312 489.34375 260.628906 489.960938 262.117188 489.960938 C 263.429688 489.960938 264.53125 489.523438 265.457031 488.625 C 266.945312 487.210938 267.921875 484.234375 267.921875 481.128906 C 267.921875 475.863281 265.585938 472.242188 262.222656 472.242188 Z M 262.144531 472.910156 C 264.300781 472.910156 265.457031 475.8125 265.457031 481.179688 C 265.457031 486.546875 264.328125 489.292969 262.117188 489.292969 C 259.910156 489.292969 258.78125 486.546875 258.78125 481.203125 C 258.78125 475.734375 259.9375 472.910156 262.144531 472.910156 "/>
<path style=" stroke:none;fill-rule:nonzero;fill:rgb(0%,0%,0%);fill-opacity:1;" d="M 269.574219 474.601562 C 271.609375 474.363281 272.609375 474.019531 273.847656 473.128906 C 275.738281 471.746094 276.847656 469.488281 276.847656 467.035156 C 276.847656 464.035156 275.191406 461.90625 272.828125 461.90625 C 270.664062 461.90625 269.046875 463.742188 269.046875 466.199219 C 269.046875 468.417969 270.355469 469.890625 272.320312 469.890625 C 273.320312 469.890625 274.082031 469.597656 275.046875 468.851562 C 274.300781 471.816406 272.28125 473.765625 269.519531 474.234375 Z M 275.082031 467.742188 C 275.082031 468.109375 275.011719 468.273438 274.8125 468.433594 C 274.300781 468.851562 273.628906 469.109375 272.972656 469.109375 C 271.59375 469.109375 270.71875 467.742188 270.71875 465.578125 C 270.71875 464.542969 271.007812 463.453125 271.390625 462.980469 C 271.703125 462.617188 272.15625 462.414062 272.683594 462.414062 C 274.265625 462.414062 275.082031 463.980469 275.082031 467.035156 L 275.082031 467.742188 "/>
<path style=" stroke:none;fill-rule:nonzero;fill:rgb(0%,0%,0%);fill-opacity:1;" d="M 279.871094 472.382812 C 279.328125 472.382812 278.871094 472.835938 278.871094 473.417969 C 278.871094 473.945312 279.328125 474.398438 279.855469 474.398438 C 280.417969 474.398438 280.890625 473.964844 280.890625 473.417969 C 280.890625 472.855469 280.417969 472.382812 279.871094 472.382812 "/>
<path style=" stroke:none;fill-rule:nonzero;fill:rgb(0%,0%,0%);fill-opacity:1;" d="M 287.472656 467.453125 C 289.273438 466.488281 289.910156 465.726562 289.910156 464.488281 C 289.910156 462.980469 288.621094 461.90625 286.78125 461.90625 C 284.800781 461.90625 283.328125 463.125 283.328125 464.78125 C 283.328125 465.960938 283.671875 466.488281 285.582031 468.160156 C 283.601562 469.671875 283.21875 470.199219 283.21875 471.453125 C 283.21875 473.234375 284.636719 474.453125 286.710938 474.453125 C 288.890625 474.453125 290.292969 473.253906 290.292969 471.382812 C 290.292969 469.960938 289.675781 469.109375 287.472656 467.453125 Z M 287.148438 469.328125 C 288.476562 470.273438 288.910156 470.925781 288.910156 471.945312 C 288.910156 473.128906 288.09375 473.945312 286.910156 473.945312 C 285.527344 473.945312 284.601562 472.890625 284.601562 471.328125 C 284.601562 470.144531 284.984375 469.398438 286.054688 468.527344 Z M 286.945312 467.125 C 285.328125 466.070312 284.671875 465.234375 284.671875 464.214844 C 284.671875 463.160156 285.492188 462.414062 286.636719 462.414062 C 287.871094 462.414062 288.65625 463.214844 288.65625 464.46875 C 288.65625 465.578125 288.183594 466.324219 286.945312 467.125 "/>
<path style=" stroke:none;fill-rule:nonzero;fill:rgb(0%,0%,0%);fill-opacity:1;" d="M 319.957031 472.601562 L 314.847656 472.601562 L 309.171875 485.570312 L 303.242188 472.601562 L 298.160156 472.601562 L 298.160156 473.089844 C 300.265625 473.195312 300.546875 473.476562 300.597656 475.402344 L 300.597656 485.828125 C 300.546875 488.546875 300.214844 488.984375 298.109375 489.113281 L 298.109375 489.601562 L 304.140625 489.601562 L 304.140625 489.113281 C 302.164062 489.007812 301.78125 488.46875 301.726562 485.828125 L 301.726562 475.476562 L 308.171875 489.601562 L 308.53125 489.601562 L 315.105469 474.890625 L 315.105469 486.519531 C 315.078125 488.703125 314.796875 488.984375 312.769531 489.113281 L 312.769531 489.601562 L 319.957031 489.601562 L 319.957031 489.113281 C 318.109375 489.007812 317.773438 488.648438 317.722656 486.800781 L 317.722656 475.402344 C 317.773438 473.554688 318.082031 473.21875 319.957031 473.089844 L 319.957031 472.601562 "/>
<path style=" stroke:none;fill-rule:nonzero;fill:rgb(0%,0%,0%);fill-opacity:1;" d="M 328.378906 486.234375 C 325.042969 486.234375 322.449219 488.75 322.449219 491.984375 C 322.449219 495.167969 325.042969 497.710938 328.304688 497.710938 C 331.5625 497.710938 334.15625 495.167969 334.15625 491.960938 C 334.15625 488.800781 331.5625 486.234375 328.378906 486.234375 Z M 328.253906 487.285156 C 330.996094 487.285156 333.101562 489.316406 333.101562 491.984375 C 333.101562 494.578125 330.972656 496.65625 328.304688 496.65625 C 325.632812 496.65625 323.503906 494.578125 323.503906 491.960938 C 323.503906 489.390625 325.632812 487.285156 328.253906 487.285156 "/>
<path style=" stroke:none;fill-rule:nonzero;fill:rgb(0%,0%,0%);fill-opacity:1;" d="M 328.1875 491.011719 C 327.6875 491.011719 327.300781 491.371094 327.300781 491.84375 C 327.300781 492.332031 327.6875 492.691406 328.1875 492.691406 L 328.316406 492.691406 C 328.816406 492.691406 329.203125 492.332031 329.203125 491.84375 C 329.203125 491.371094 328.816406 491.011719 328.316406 491.011719 L 328.1875 491.011719 "/>
<path style=" stroke:none;fill-rule:nonzero;fill:rgb(0%,0%,0%);fill-opacity:1;" d="M 205.757812 105.402344 L 200.648438 105.402344 L 194.972656 118.367188 L 189.042969 105.402344 L 183.960938 105.402344 L 183.960938 105.890625 C 186.0625 105.992188 186.347656 106.277344 186.398438 108.203125 L 186.398438 118.628906 C 186.347656 121.347656 186.015625 121.785156 183.90625 121.910156 L 183.90625 122.398438 L 189.941406 122.398438 L 189.941406 121.910156 C 187.964844 121.808594 187.578125 121.269531 187.527344 118.628906 L 187.527344 108.277344 L 193.972656 122.398438 L 194.332031 122.398438 L 200.90625 107.6875 L 200.90625 119.320312 C 200.878906 121.503906 200.597656 121.785156 198.570312 121.910156 L 198.570312 122.398438 L 205.757812 122.398438 L 205.757812 121.910156 C 203.910156 121.808594 203.574219 121.449219 203.523438 119.601562 L 203.523438 108.203125 C 203.574219 106.351562 203.882812 106.019531 205.757812 105.890625 L 205.757812 105.402344 "/>
<path style=" stroke:none;fill-rule:nonzero;fill:rgb(0%,0%,0%);fill-opacity:1;" d="M 212.917969 110.589844 C 209.554688 110.589844 207.246094 113.054688 207.246094 116.597656 C 207.246094 120.089844 209.632812 122.65625 212.867188 122.65625 C 216.101562 122.65625 218.566406 119.960938 218.566406 116.390625 C 218.566406 113.003906 216.203125 110.589844 212.917969 110.589844 Z M 212.585938 111.308594 C 214.742188 111.308594 216.257812 113.773438 216.257812 117.289062 C 216.257812 120.21875 215.101562 121.9375 213.175781 121.9375 C 212.171875 121.9375 211.222656 121.320312 210.683594 120.296875 C 209.964844 118.960938 209.554688 117.160156 209.554688 115.339844 C 209.554688 112.898438 210.734375 111.308594 212.585938 111.308594 "/>
<path style=" stroke:none;fill-rule:nonzero;fill:rgb(0%,0%,0%);fill-opacity:1;" d="M 231.90625 120.910156 C 231.570312 120.9375 231.417969 120.9375 231.316406 120.9375 C 230.390625 120.9375 230.1875 120.65625 230.1875 119.472656 L 230.1875 104.914062 L 230.058594 104.863281 C 228.824219 105.300781 227.925781 105.558594 226.28125 105.992188 L 226.28125 106.40625 C 226.488281 106.378906 226.644531 106.378906 226.847656 106.378906 C 227.796875 106.378906 228.03125 106.636719 228.03125 107.6875 L 228.03125 111.695312 C 227.054688 110.871094 226.359375 110.589844 225.332031 110.589844 C 222.382812 110.589844 219.992188 113.492188 219.992188 117.136719 C 219.992188 120.421875 221.894531 122.65625 224.742188 122.65625 C 226.179688 122.65625 227.15625 122.144531 228.03125 120.9375 L 228.03125 122.578125 L 228.132812 122.65625 L 231.90625 121.320312 Z M 228.03125 119.78125 C 228.03125 119.960938 227.851562 120.269531 227.59375 120.550781 C 227.15625 121.066406 226.488281 121.320312 225.742188 121.320312 C 223.613281 121.320312 222.203125 119.265625 222.203125 116.109375 C 222.203125 113.207031 223.460938 111.308594 225.410156 111.308594 C 226.796875 111.308594 228.03125 112.515625 228.03125 113.878906 L 228.03125 119.78125 "/>
<path style=" stroke:none;fill-rule:nonzero;fill:rgb(0%,0%,0%);fill-opacity:1;" d="M 242.828125 118.1875 C 241.597656 120.140625 240.492188 120.886719 238.851562 120.886719 C 237.386719 120.886719 236.28125 120.140625 235.539062 118.675781 C 235.074219 117.703125 234.894531 116.878906 234.84375 115.285156 L 242.753906 115.285156 C 242.546875 113.617188 242.289062 112.875 241.648438 112.054688 C 240.878906 111.128906 239.695312 110.589844 238.363281 110.589844 C 237.078125 110.589844 235.871094 111.050781 234.894531 111.925781 C 233.6875 112.976562 232.996094 114.800781 232.996094 116.90625 C 232.996094 120.449219 234.84375 122.65625 237.796875 122.65625 C 240.261719 122.65625 242.164062 121.140625 243.242188 118.367188 Z M 234.894531 114.46875 C 235.179688 112.4375 236.050781 111.515625 237.617188 111.515625 C 239.183594 111.515625 239.800781 112.234375 240.132812 114.46875 L 234.894531 114.46875 "/>
<path style=" stroke:none;fill-rule:nonzero;fill:rgb(0%,0%,0%);fill-opacity:1;" d="M 244.140625 122.398438 L 250.199219 122.398438 L 250.199219 122.015625 C 248.582031 121.9375 248.296875 121.679688 248.273438 120.242188 L 248.273438 104.914062 L 248.171875 104.863281 C 246.835938 105.300781 245.859375 105.558594 244.089844 105.992188 L 244.089844 106.40625 L 244.242188 106.40625 C 244.523438 106.378906 244.832031 106.351562 245.039062 106.351562 C 245.859375 106.351562 246.117188 106.710938 246.117188 107.917969 L 246.117188 120.164062 C 246.089844 121.554688 245.730469 121.910156 244.140625 122.015625 L 244.140625 122.398438 "/>
<path style=" stroke:none;fill-rule:nonzero;fill:rgb(0%,0%,0%);fill-opacity:1;" d="M 257.511719 105.890625 C 259.410156 106.097656 259.640625 106.328125 259.667969 108.203125 L 259.667969 119.320312 C 259.640625 121.503906 259.464844 121.734375 257.511719 121.910156 L 257.511719 122.398438 L 264.699219 122.398438 L 264.699219 121.910156 C 262.671875 121.859375 262.3125 121.503906 262.285156 119.601562 L 262.285156 114.929688 C 262.953125 114.980469 263.390625 115.007812 264.058594 115.007812 C 266.085938 115.007812 267.445312 114.746094 268.550781 114.132812 C 270.09375 113.3125 271.015625 111.746094 271.015625 110.050781 C 271.015625 108.972656 270.65625 107.996094 269.964844 107.253906 C 268.9375 106.121094 266.703125 105.402344 264.289062 105.402344 L 257.511719 105.402344 Z M 262.285156 107.226562 C 262.285156 106.53125 262.464844 106.351562 263.160156 106.351562 C 266.625 106.351562 268.21875 107.558594 268.21875 110.203125 C 268.21875 112.695312 266.703125 113.976562 263.75 113.976562 C 263.234375 113.976562 262.878906 113.953125 262.285156 113.902344 L 262.285156 107.226562 "/>
<path style=" stroke:none;fill-rule:nonzero;fill:rgb(0%,0%,0%);fill-opacity:1;" d="M 271.527344 122.398438 L 277.691406 122.398438 L 277.691406 122.015625 C 275.96875 121.964844 275.558594 121.605469 275.507812 120.089844 L 275.507812 114.3125 C 275.507812 113.492188 276.585938 112.207031 277.304688 112.207031 C 277.460938 112.207031 277.691406 112.335938 277.972656 112.59375 C 278.382812 112.976562 278.664062 113.105469 279 113.105469 C 279.617188 113.105469 280.003906 112.667969 280.003906 111.949219 C 280.003906 111.101562 279.464844 110.589844 278.589844 110.589844 C 277.511719 110.589844 276.765625 111.15625 275.507812 113.003906 L 275.507812 110.640625 L 275.378906 110.589844 C 274.019531 111.15625 273.09375 111.488281 271.578125 111.976562 L 271.578125 112.386719 C 271.9375 112.308594 272.171875 112.285156 272.476562 112.285156 C 273.121094 112.285156 273.351562 112.695312 273.351562 113.824219 L 273.351562 120.242188 C 273.300781 121.578125 273.144531 121.734375 271.527344 122.015625 L 271.527344 122.398438 "/>
<path style=" stroke:none;fill-rule:nonzero;fill:rgb(0%,0%,0%);fill-opacity:1;" d="M 290.628906 118.1875 C 289.398438 120.140625 288.292969 120.886719 286.648438 120.886719 C 285.1875 120.886719 284.082031 120.140625 283.339844 118.675781 C 282.875 117.703125 282.695312 116.878906 282.644531 115.285156 L 290.554688 115.285156 C 290.347656 113.617188 290.089844 112.875 289.449219 112.054688 C 288.679688 111.128906 287.496094 110.589844 286.164062 110.589844 C 284.878906 110.589844 283.671875 111.050781 282.695312 111.925781 C 281.488281 112.976562 280.796875 114.800781 280.796875 116.90625 C 280.796875 120.449219 282.644531 122.65625 285.597656 122.65625 C 288.0625 122.65625 289.964844 121.140625 291.039062 118.367188 Z M 282.695312 114.46875 C 282.976562 112.4375 283.851562 111.515625 285.417969 111.515625 C 286.984375 111.515625 287.601562 112.234375 287.933594 114.46875 L 282.695312 114.46875 "/>
<path style=" stroke:none;fill-rule:nonzero;fill:rgb(0%,0%,0%);fill-opacity:1;" d="M 304.007812 120.910156 C 303.671875 120.9375 303.519531 120.9375 303.414062 120.9375 C 302.492188 120.9375 302.285156 120.65625 302.285156 119.472656 L 302.285156 104.914062 L 302.15625 104.863281 C 300.925781 105.300781 300.027344 105.558594 298.382812 105.992188 L 298.382812 106.40625 C 298.589844 106.378906 298.742188 106.378906 298.949219 106.378906 C 299.898438 106.378906 300.128906 106.636719 300.128906 107.6875 L 300.128906 111.695312 C 299.152344 110.871094 298.460938 110.589844 297.433594 110.589844 C 294.480469 110.589844 292.09375 113.492188 292.09375 117.136719 C 292.09375 120.421875 293.992188 122.65625 296.84375 122.65625 C 298.28125 122.65625 299.257812 122.144531 300.128906 120.9375 L 300.128906 122.578125 L 300.234375 122.65625 L 304.007812 121.320312 Z M 300.128906 119.78125 C 300.128906 119.960938 299.949219 120.269531 299.691406 120.550781 C 299.257812 121.066406 298.589844 121.320312 297.84375 121.320312 C 295.714844 121.320312 294.300781 119.265625 294.300781 116.109375 C 294.300781 113.207031 295.558594 111.308594 297.511719 111.308594 C 298.898438 111.308594 300.128906 112.515625 300.128906 113.878906 L 300.128906 119.78125 "/>
<path style=" stroke:none;fill-rule:nonzero;fill:rgb(0%,0%,0%);fill-opacity:1;" d="M 304.890625 122.398438 L 310.976562 122.398438 L 310.976562 122.015625 C 309.28125 121.886719 309.101562 121.65625 309.074219 119.78125 L 309.074219 110.667969 L 308.972656 110.589844 L 304.992188 112.003906 L 304.992188 112.386719 L 305.199219 112.359375 C 305.507812 112.308594 305.839844 112.285156 306.070312 112.285156 C 306.6875 112.285156 306.917969 112.695312 306.917969 113.824219 L 306.917969 119.78125 C 306.867188 121.679688 306.636719 121.9375 304.890625 122.015625 Z M 307.765625 104.863281 C 307.074219 104.863281 306.484375 105.453125 306.484375 106.171875 C 306.484375 106.917969 307.046875 107.484375 307.765625 107.484375 C 308.535156 107.484375 309.101562 106.917969 309.101562 106.171875 C 309.101562 105.429688 308.511719 104.863281 307.765625 104.863281 "/>
<path style=" stroke:none;fill-rule:nonzero;fill:rgb(0%,0%,0%);fill-opacity:1;" d="M 321.617188 118.394531 C 320.386719 120.191406 319.464844 120.808594 317.996094 120.808594 C 315.636719 120.808594 314.019531 118.753906 314.019531 115.800781 C 314.019531 113.132812 315.429688 111.335938 317.511719 111.335938 C 318.433594 111.335938 318.769531 111.617188 319.023438 112.566406 L 319.179688 113.132812 C 319.382812 113.878906 319.847656 114.3125 320.414062 114.3125 C 321.078125 114.3125 321.617188 113.824219 321.617188 113.234375 C 321.617188 111.796875 319.820312 110.589844 317.664062 110.589844 C 316.40625 110.589844 315.097656 111.101562 314.042969 112.027344 C 312.761719 113.15625 312.042969 114.902344 312.042969 116.957031 C 312.042969 120.269531 314.070312 122.65625 316.921875 122.65625 C 318.074219 122.65625 319.101562 122.246094 320.027344 121.449219 C 320.71875 120.859375 321.207031 120.140625 321.976562 118.628906 L 321.617188 118.394531 "/>
<path style=" stroke:none;fill-rule:nonzero;fill:rgb(0%,0%,0%);fill-opacity:1;" d="M 329.449219 110.847656 L 326.855469 110.847656 L 326.855469 107.867188 C 326.855469 107.609375 326.804688 107.535156 326.675781 107.535156 C 325.1875 109.691406 324.417969 110.5625 323.671875 111 C 323.390625 111.179688 323.234375 111.335938 323.234375 111.488281 C 323.234375 111.566406 323.261719 111.617188 323.339844 111.667969 L 324.699219 111.667969 L 324.699219 119.394531 C 324.699219 121.554688 325.46875 122.65625 326.984375 122.65625 C 328.242188 122.65625 329.21875 122.039062 330.066406 120.703125 L 329.734375 120.421875 C 329.167969 121.089844 328.757812 121.320312 328.191406 121.320312 C 327.242188 121.320312 326.855469 120.628906 326.855469 119.011719 L 326.855469 111.667969 L 329.449219 111.667969 L 329.449219 110.847656 "/>
<path style=" stroke:none;fill-rule:nonzero;fill:rgb(0%,0%,0%);fill-opacity:1;" d="M 330.589844 122.398438 L 336.675781 122.398438 L 336.675781 122.015625 C 334.980469 121.886719 334.800781 121.65625 334.773438 119.78125 L 334.773438 110.667969 L 334.671875 110.589844 L 330.695312 112.003906 L 330.695312 112.386719 L 330.898438 112.359375 C 331.207031 112.308594 331.539062 112.285156 331.773438 112.285156 C 332.386719 112.285156 332.617188 112.695312 332.617188 113.824219 L 332.617188 119.78125 C 332.566406 121.679688 332.335938 121.9375 330.589844 122.015625 Z M 333.464844 104.863281 C 332.773438 104.863281 332.183594 105.453125 332.183594 106.171875 C 332.183594 106.917969 332.746094 107.484375 333.464844 107.484375 C 334.234375 107.484375 334.800781 106.917969 334.800781 106.171875 C 334.800781 105.429688 334.210938 104.863281 333.464844 104.863281 "/>
<path style=" stroke:none;fill-rule:nonzero;fill:rgb(0%,0%,0%);fill-opacity:1;" d="M 343.519531 110.589844 C 340.15625 110.589844 337.84375 113.054688 337.84375 116.597656 C 337.84375 120.089844 340.234375 122.65625 343.46875 122.65625 C 346.703125 122.65625 349.167969 119.960938 349.167969 116.390625 C 349.167969 113.003906 346.804688 110.589844 343.519531 110.589844 Z M 343.183594 111.308594 C 345.34375 111.308594 346.855469 113.773438 346.855469 117.289062 C 346.855469 120.21875 345.703125 121.9375 343.773438 121.9375 C 342.773438 121.9375 341.824219 121.320312 341.285156 120.296875 C 340.566406 118.960938 340.15625 117.160156 340.15625 115.339844 C 340.15625 112.898438 341.335938 111.308594 343.183594 111.308594 "/>
<path style=" stroke:none;fill-rule:nonzero;fill:rgb(0%,0%,0%);fill-opacity:1;" d="M 350.464844 122.398438 L 355.90625 122.398438 L 355.90625 122.015625 C 354.621094 121.9375 354.210938 121.605469 354.210938 120.679688 L 354.210938 113.464844 C 355.417969 112.308594 356.007812 112.003906 356.855469 112.003906 C 358.113281 112.003906 358.730469 112.796875 358.730469 114.492188 L 358.730469 119.859375 C 358.679688 121.527344 358.371094 121.9375 357.113281 122.015625 L 357.113281 122.398438 L 362.453125 122.398438 L 362.453125 122.015625 C 361.195312 121.886719 360.914062 121.578125 360.886719 120.320312 L 360.886719 114.441406 C 360.886719 112.027344 359.757812 110.589844 357.855469 110.589844 C 356.675781 110.589844 355.878906 111.027344 354.132812 112.667969 L 354.132812 110.640625 L 353.953125 110.589844 C 352.695312 111.050781 351.824219 111.335938 350.410156 111.746094 L 350.410156 112.179688 C 350.566406 112.105469 350.820312 112.078125 351.105469 112.078125 C 351.824219 112.078125 352.054688 112.464844 352.054688 113.722656 L 352.054688 120.089844 C 352.027344 121.605469 351.746094 121.9375 350.464844 122.015625 L 350.464844 122.398438 "/>
<path style=" stroke:none;fill-rule:nonzero;fill:rgb(0%,0%,0%);fill-opacity:1;" d="M 370.886719 114.335938 L 370.785156 110.820312 L 370.503906 110.820312 C 370.347656 111.027344 370.21875 111.101562 370.09375 111.101562 C 369.9375 111.101562 369.679688 111.050781 369.398438 110.921875 C 368.808594 110.71875 368.21875 110.589844 367.601562 110.589844 C 365.574219 110.589844 364.109375 111.925781 364.109375 113.773438 C 364.109375 115.210938 364.929688 116.238281 367.113281 117.46875 L 368.601562 118.316406 C 369.503906 118.832031 369.9375 119.445312 369.9375 120.242188 C 369.9375 121.371094 369.117188 122.09375 367.804688 122.09375 C 366.035156 122.09375 365.136719 121.117188 364.546875 118.496094 L 364.132812 118.496094 L 364.132812 122.503906 L 364.46875 122.503906 C 364.648438 122.246094 364.753906 122.195312 365.058594 122.195312 C 365.34375 122.195312 365.648438 122.246094 366.242188 122.398438 C 366.933594 122.554688 367.601562 122.65625 368.113281 122.65625 C 370.117188 122.65625 371.734375 121.167969 371.734375 119.371094 C 371.734375 118.085938 371.144531 117.238281 369.578125 116.316406 L 366.804688 114.671875 C 366.085938 114.261719 365.703125 113.617188 365.703125 112.925781 C 365.703125 111.871094 366.496094 111.179688 367.679688 111.179688 C 369.140625 111.179688 369.914062 112.027344 370.503906 114.335938 L 370.886719 114.335938 "/>
</g>
</svg>
