<?xml version="1.0" encoding="UTF-8"?>
<svg xmlns="http://www.w3.org/2000/svg" xmlns:xlink="http://www.w3.org/1999/xlink" width="792pt" height="612pt" viewBox="0 0 792 612" version="1.2">
<g id="surface1">
<path style=" stroke:none;fill-rule:nonzero;fill:rgb(100%,100%,100%);fill-opacity:1;" d="M 153 520.199219 L 765 520.199219 L 765 91.800781 L 153 91.800781 Z M 153 520.199219 "/>
<path style=" stroke:none;fill-rule:nonzero;fill:rgb(100%,47.5351800564199%,47.5351800564199%);fill-opacity:0.7;" d="M 153 182.496094 L 206.550781 195.351562 L 265.363281 210.710938 L 324.175781 226.441406 L 382.988281 242.351562 L 441.742188 258.691406 L 500.554688 275.949219 L 559.367188 294.617188 L 618.179688 315.851562 L 676.933594 339.78125 L 735.746094 367.199219 L 765 380.910156 L 765 377.054688 L 735.746094 363.222656 L 676.933594 335.804688 L 618.179688 311.628906 L 559.367188 290.453125 L 500.554688 272.035156 L 441.742188 255.019531 L 382.988281 238.925781 L 324.175781 223.441406 L 265.363281 207.773438 L 206.550781 192.839844 L 153 180.296875 "/>
<path style=" stroke:none;fill-rule:nonzero;fill:rgb(61.3082588352026%,61.3082588352026%,61.3082588352026%);fill-opacity:0.7;" d="M 153 202.695312 L 206.550781 217.320312 L 265.363281 234.214844 L 324.175781 251.59375 L 382.988281 269.402344 L 441.742188 287.394531 L 500.554688 306.304688 L 559.367188 326.625 L 618.179688 348.71875 L 676.933594 372.21875 L 735.746094 398.410156 L 765 411.449219 L 765 408.019531 L 735.746094 394.984375 L 676.933594 368.605469 L 618.179688 345.105469 L 559.367188 323.136719 L 500.554688 303.121094 L 441.742188 284.273438 L 382.988281 266.464844 L 324.175781 249.023438 L 265.363281 231.886719 L 206.550781 215.238281 L 153 200.734375 "/>
<path style=" stroke:none;fill-rule:nonzero;fill:rgb(47.5351800564199%,47.5351800564199%,100%);fill-opacity:0.7;" d="M 153 220.746094 L 206.550781 237.335938 L 265.363281 255.9375 L 324.175781 275.03125 L 382.988281 294.984375 L 441.742188 314.8125 L 500.554688 336.171875 L 559.367188 358.816406 L 618.179688 382.195312 L 676.933594 404.898438 L 735.746094 429.683594 L 765 441.804688 L 765 435.929688 L 735.746094 423.871094 L 676.933594 399.023438 L 618.179688 376.441406 L 559.367188 353.613281 L 500.554688 331.460938 L 441.742188 310.40625 L 382.988281 290.761719 L 324.175781 270.871094 L 265.363281 251.898438 L 206.550781 233.296875 L 153 217.015625 "/>
<path style="fill:none;stroke-width:36.72;stroke-linecap:butt;stroke-linejoin:miter;stroke:rgb(100%,0%,0%);stroke-opacity:1;stroke-miterlimit:10;" d="M 1529.375 4298.671875 L 2065.507812 4167.734375 L 2653.632812 4012.265625 L 3241.757812 3853.164062 L 3829.882812 3693.4375 L 4417.421875 3529.414062 L 5005.546875 3356.835938 L 5593.671875 3171.992188 L 6181.796875 2960.859375 L 6769.335938 2722.1875 L 7357.460938 2450.46875 L 7650.625 2313.984375 " transform="matrix(0.1,0,0,-0.1,0,612)"/>
<path style="fill:none;stroke-width:36.72;stroke-linecap:butt;stroke-linejoin:miter;stroke:rgb(0%,0%,0%);stroke-opacity:1;stroke-miterlimit:10;" d="M 1529.375 4090 L 2065.507812 3941.875 L 2653.632812 3771.132812 L 3241.757812 3596.71875 L 3829.882812 3419.257812 L 4417.421875 3240.546875 L 5005.546875 3052.65625 L 5593.671875 2853.125 L 6181.796875 2635.898438 L 6769.335938 2403.945312 L 7357.460938 2143.828125 L 7650.625 2014.6875 " transform="matrix(0.1,0,0,-0.1,0,612)"/>
<path style="fill:none;stroke-width:36.72;stroke-linecap:butt;stroke-linejoin:miter;stroke:rgb(0%,0%,100%);stroke-opacity:1;stroke-miterlimit:10;" d="M 1529.375 3917.421875 L 2065.507812 3750.9375 L 2653.632812 3563.671875 L 3241.757812 3371.523438 L 3829.882812 3173.203125 L 4417.421875 2976.757812 L 5005.546875 2768.085938 L 5593.671875 2548.984375 L 6181.796875 2322.539062 L 6769.335938 2100.390625 L 7357.460938 1856.796875 L 7650.625 1736.25 " transform="matrix(0.1,0,0,-0.1,0,612)"/>
<path style="fill:none;stroke-width:9.18;stroke-linecap:butt;stroke-linejoin:miter;stroke:rgb(0%,0%,0%);stroke-opacity:1;stroke-miterlimit:10;" d="M 1530 918.007812 L 7650 918.007812 " transform="matrix(0.1,0,0,-0.1,0,612)"/>
<path style="fill:none;stroke-width:9.18;stroke-linecap:butt;stroke-linejoin:miter;stroke:rgb(0%,0%,0%);stroke-opacity:1;stroke-miterlimit:10;" d="M 1530 5201.992188 L 7650 5201.992188 " transform="matrix(0.1,0,0,-0.1,0,612)"/>
<path style="fill:none;stroke-width:9.18;stroke-linecap:butt;stroke-linejoin:miter;stroke:rgb(0%,0%,0%);stroke-opacity:1;stroke-miterlimit:10;" d="M 2946.171875 918.007812 L 2946.171875 979.179688 " transform="matrix(0.1,0,0,-0.1,0,612)"/>
<path style="fill:none;stroke-width:9.18;stroke-linecap:butt;stroke-linejoin:miter;stroke:rgb(0%,0%,0%);stroke-opacity:1;stroke-miterlimit:10;" d="M 2946.171875 5201.992188 L 2946.171875 5140.78125 " transform="matrix(0.1,0,0,-0.1,0,612)"/>
<path style="fill:none;stroke-width:9.18;stroke-linecap:butt;stroke-linejoin:miter;stroke:rgb(0%,0%,0%);stroke-opacity:1;stroke-miterlimit:10;" d="M 3774.21875 918.007812 L 3774.21875 979.179688 " transform="matrix(0.1,0,0,-0.1,0,612)"/>
<path style="fill:none;stroke-width:9.18;stroke-linecap:butt;stroke-linejoin:miter;stroke:rgb(0%,0%,0%);stroke-opacity:1;stroke-miterlimit:10;" d="M 3774.21875 5201.992188 L 3774.21875 5140.78125 " transform="matrix(0.1,0,0,-0.1,0,612)"/>
<path style="fill:none;stroke-width:9.18;stroke-linecap:butt;stroke-linejoin:miter;stroke:rgb(0%,0%,0%);stroke-opacity:1;stroke-miterlimit:10;" d="M 4362.34375 918.007812 L 4362.34375 979.179688 " transform="matrix(0.1,0,0,-0.1,0,612)"/>
<path style="fill:none;stroke-width:9.18;stroke-linecap:butt;stroke-linejoin:miter;stroke:rgb(0%,0%,0%);stroke-opacity:1;stroke-miterlimit:10;" d="M 4362.34375 5201.992188 L 4362.34375 5140.78125 " transform="matrix(0.1,0,0,-0.1,0,612)"/>
<path style="fill:none;stroke-width:9.18;stroke-linecap:butt;stroke-linejoin:miter;stroke:rgb(0%,0%,0%);stroke-opacity:1;stroke-miterlimit:10;" d="M 4817.65625 918.007812 L 4817.65625 979.179688 " transform="matrix(0.1,0,0,-0.1,0,612)"/>
<path style="fill:none;stroke-width:9.18;stroke-linecap:butt;stroke-linejoin:miter;stroke:rgb(0%,0%,0%);stroke-opacity:1;stroke-miterlimit:10;" d="M 4817.65625 5201.992188 L 4817.65625 5140.78125 " transform="matrix(0.1,0,0,-0.1,0,612)"/>
<path style="fill:none;stroke-width:9.18;stroke-linecap:butt;stroke-linejoin:miter;stroke:rgb(0%,0%,0%);stroke-opacity:1;stroke-miterlimit:10;" d="M 5190.351562 918.007812 L 5190.351562 979.179688 " transform="matrix(0.1,0,0,-0.1,0,612)"/>
<path style="fill:none;stroke-width:9.18;stroke-linecap:butt;stroke-linejoin:miter;stroke:rgb(0%,0%,0%);stroke-opacity:1;stroke-miterlimit:10;" d="M 5190.351562 5201.992188 L 5190.351562 5140.78125 " transform="matrix(0.1,0,0,-0.1,0,612)"/>
<path style="fill:none;stroke-width:9.18;stroke-linecap:butt;stroke-linejoin:miter;stroke:rgb(0%,0%,0%);stroke-opacity:1;stroke-miterlimit:10;" d="M 5505.546875 918.007812 L 5505.546875 979.179688 " transform="matrix(0.1,0,0,-0.1,0,612)"/>
<path style="fill:none;stroke-width:9.18;stroke-linecap:butt;stroke-linejoin:miter;stroke:rgb(0%,0%,0%);stroke-opacity:1;stroke-miterlimit:10;" d="M 5505.546875 5201.992188 L 5505.546875 5140.78125 " transform="matrix(0.1,0,0,-0.1,0,612)"/>
<path style="fill:none;stroke-width:9.18;stroke-linecap:butt;stroke-linejoin:miter;stroke:rgb(0%,0%,0%);stroke-opacity:1;stroke-miterlimit:10;" d="M 5777.890625 918.007812 L 5777.890625 979.179688 " transform="matrix(0.1,0,0,-0.1,0,612)"/>
<path style="fill:none;stroke-width:9.18;stroke-linecap:butt;stroke-linejoin:miter;stroke:rgb(0%,0%,0%);stroke-opacity:1;stroke-miterlimit:10;" d="M 5777.890625 5201.992188 L 5777.890625 5140.78125 " transform="matrix(0.1,0,0,-0.1,0,612)"/>
<path style="fill:none;stroke-width:9.18;stroke-linecap:butt;stroke-linejoin:miter;stroke:rgb(0%,0%,0%);stroke-opacity:1;stroke-miterlimit:10;" d="M 6019.023438 918.007812 L 6019.023438 979.179688 " transform="matrix(0.1,0,0,-0.1,0,612)"/>
<path style="fill:none;stroke-width:9.18;stroke-linecap:butt;stroke-linejoin:miter;stroke:rgb(0%,0%,0%);stroke-opacity:1;stroke-miterlimit:10;" d="M 6019.023438 5201.992188 L 6019.023438 5140.78125 " transform="matrix(0.1,0,0,-0.1,0,612)"/>
<path style="fill:none;stroke-width:9.18;stroke-linecap:butt;stroke-linejoin:miter;stroke:rgb(0%,0%,0%);stroke-opacity:1;stroke-miterlimit:10;" d="M 6233.828125 918.007812 L 6233.828125 979.179688 " transform="matrix(0.1,0,0,-0.1,0,612)"/>
<path style="fill:none;stroke-width:9.18;stroke-linecap:butt;stroke-linejoin:miter;stroke:rgb(0%,0%,0%);stroke-opacity:1;stroke-miterlimit:10;" d="M 6233.828125 5201.992188 L 6233.828125 5140.78125 " transform="matrix(0.1,0,0,-0.1,0,612)"/>
<path style="fill:none;stroke-width:9.18;stroke-linecap:butt;stroke-linejoin:miter;stroke:rgb(0%,0%,0%);stroke-opacity:1;stroke-miterlimit:10;" d="M 7650 918.007812 L 7650 979.179688 " transform="matrix(0.1,0,0,-0.1,0,612)"/>
<path style="fill:none;stroke-width:9.18;stroke-linecap:butt;stroke-linejoin:miter;stroke:rgb(0%,0%,0%);stroke-opacity:1;stroke-miterlimit:10;" d="M 7650 5201.992188 L 7650 5140.78125 " transform="matrix(0.1,0,0,-0.1,0,612)"/>
<path style="fill:none;stroke-width:9.18;stroke-linecap:butt;stroke-linejoin:miter;stroke:rgb(0%,0%,0%);stroke-opacity:1;stroke-miterlimit:10;" d="M 1530 918.007812 L 1530 1040.390625 " transform="matrix(0.1,0,0,-0.1,0,612)"/>
<path style="fill:none;stroke-width:9.18;stroke-linecap:butt;stroke-linejoin:miter;stroke:rgb(0%,0%,0%);stroke-opacity:1;stroke-miterlimit:10;" d="M 1530 5201.992188 L 1530 5079.609375 " transform="matrix(0.1,0,0,-0.1,0,612)"/>
<path style="fill:none;stroke-width:9.18;stroke-linecap:butt;stroke-linejoin:miter;stroke:rgb(0%,0%,0%);stroke-opacity:1;stroke-miterlimit:10;" d="M 6233.828125 918.007812 L 6233.828125 1040.390625 " transform="matrix(0.1,0,0,-0.1,0,612)"/>
<path style="fill:none;stroke-width:9.18;stroke-linecap:butt;stroke-linejoin:miter;stroke:rgb(0%,0%,0%);stroke-opacity:1;stroke-miterlimit:10;" d="M 6233.828125 5201.992188 L 6233.828125 5079.609375 " transform="matrix(0.1,0,0,-0.1,0,612)"/>
<path style=" stroke:none;fill-rule:nonzero;fill:rgb(0%,0%,0%);fill-opacity:1;" d="M 144.921875 526.445312 C 143.507812 526.445312 142.429688 526.855469 141.480469 527.78125 C 139.992188 529.21875 139.015625 532.167969 139.015625 535.171875 C 139.015625 537.996094 139.863281 540.976562 141.070312 542.414062 C 142.019531 543.542969 143.328125 544.160156 144.820312 544.160156 C 146.128906 544.160156 147.234375 543.722656 148.15625 542.824219 C 149.644531 541.414062 150.621094 538.433594 150.621094 535.328125 C 150.621094 530.0625 148.285156 526.445312 144.921875 526.445312 Z M 144.84375 527.109375 C 147.003906 527.109375 148.15625 530.011719 148.15625 535.378906 C 148.15625 540.746094 147.027344 543.492188 144.820312 543.492188 C 142.609375 543.492188 141.480469 540.746094 141.480469 535.40625 C 141.480469 529.9375 142.636719 527.109375 144.84375 527.109375 "/>
<path style=" stroke:none;fill-rule:nonzero;fill:rgb(0%,0%,0%);fill-opacity:1;" d="M 154.410156 541.234375 C 153.640625 541.234375 152.996094 541.875 152.996094 542.695312 C 152.996094 543.441406 153.640625 544.082031 154.382812 544.082031 C 155.179688 544.082031 155.847656 543.464844 155.847656 542.695312 C 155.847656 541.898438 155.179688 541.234375 154.410156 541.234375 "/>
<path style=" stroke:none;fill-rule:nonzero;fill:rgb(0%,0%,0%);fill-opacity:1;" d="M 160.730469 543.800781 L 167.816406 543.800781 L 167.816406 543.414062 C 165.839844 543.414062 165.402344 543.132812 165.378906 541.898438 L 165.378906 526.496094 L 165.171875 526.445312 L 160.550781 528.78125 L 160.550781 529.140625 C 161.550781 528.753906 162.167969 528.574219 162.398438 528.574219 C 162.9375 528.574219 163.167969 528.960938 163.167969 529.78125 L 163.167969 541.414062 C 163.117188 543.03125 162.679688 543.390625 160.730469 543.414062 L 160.730469 543.800781 "/>
<path style=" stroke:none;fill-rule:nonzero;fill:rgb(0%,0%,0%);fill-opacity:1;" d="M 621.429688 543.800781 L 628.515625 543.800781 L 628.515625 543.414062 C 626.539062 543.414062 626.101562 543.132812 626.078125 541.898438 L 626.078125 526.496094 L 625.871094 526.445312 L 621.25 528.78125 L 621.25 529.140625 C 622.253906 528.753906 622.867188 528.574219 623.097656 528.574219 C 623.636719 528.574219 623.867188 528.960938 623.867188 529.78125 L 623.867188 541.414062 C 623.816406 543.03125 623.382812 543.390625 621.429688 543.414062 L 621.429688 543.800781 "/>
<path style=" stroke:none;fill-rule:nonzero;fill:rgb(0%,0%,0%);fill-opacity:1;" d="M 428.621094 566.8125 C 427.644531 566.734375 427.132812 566.476562 426.386719 565.605469 L 421.097656 559.109375 C 424.359375 558.46875 425.742188 557.183594 425.742188 554.820312 C 425.742188 553.71875 425.410156 552.769531 424.742188 552.023438 C 423.765625 550.96875 421.636719 550.304688 419.222656 550.304688 L 412.136719 550.304688 L 412.136719 550.789062 C 414.035156 550.996094 414.292969 551.226562 414.320312 553.101562 L 414.320312 564.21875 C 414.292969 566.402344 414.0625 566.65625 412.136719 566.8125 L 412.136719 567.300781 L 419.246094 567.300781 L 419.246094 566.8125 C 417.273438 566.683594 416.964844 566.375 416.9375 564.5 L 416.9375 559.445312 L 418.375 559.390625 L 424.484375 567.300781 L 428.621094 567.300781 Z M 416.9375 552.179688 C 416.9375 551.460938 417.21875 551.253906 418.246094 551.253906 C 421.457031 551.253906 422.945312 552.359375 422.945312 554.769531 C 422.945312 556.054688 422.40625 557.132812 421.484375 557.621094 C 420.300781 558.289062 419.402344 558.441406 416.9375 558.492188 L 416.9375 552.179688 "/>
<path style=" stroke:none;fill-rule:nonzero;fill:rgb(0%,0%,0%);fill-opacity:1;" d="M 428.890625 581.445312 L 433.292969 581.445312 L 433.292969 581.117188 C 431.929688 581.101562 431.710938 580.917969 431.691406 579.753906 L 431.691406 576.898438 C 432.347656 577.5 432.765625 577.679688 433.527344 577.679688 C 435.691406 577.679688 437.347656 575.644531 437.347656 573.007812 C 437.347656 570.753906 436.074219 569.132812 434.3125 569.132812 C 433.292969 569.132812 432.492188 569.570312 431.691406 570.570312 L 431.691406 569.171875 L 431.582031 569.132812 C 430.601562 569.515625 429.964844 569.753906 428.964844 570.0625 L 428.964844 570.351562 C 429.128906 570.335938 429.253906 570.335938 429.417969 570.335938 C 430.035156 570.335938 430.164062 570.515625 430.164062 571.371094 L 430.164062 579.882812 C 430.164062 580.847656 429.964844 581.027344 428.890625 581.136719 Z M 431.691406 571.425781 C 431.691406 570.878906 432.710938 570.226562 433.546875 570.226562 C 434.890625 570.226562 435.78125 571.609375 435.78125 573.734375 C 435.78125 575.734375 434.890625 577.101562 433.582031 577.101562 C 432.726562 577.101562 431.691406 576.445312 431.691406 575.898438 L 431.691406 571.425781 "/>
<path style=" stroke:none;fill-rule:nonzero;fill:rgb(0%,0%,0%);fill-opacity:1;" d="M 451.976562 550.945312 L 451.976562 550.304688 L 446.558594 550.304688 L 446.558594 571.304688 L 451.976562 571.304688 L 451.976562 570.664062 L 449.769531 570.664062 C 448.894531 570.636719 448.535156 570.253906 448.511719 569.328125 L 448.511719 552.074219 C 448.535156 551.253906 448.820312 550.96875 449.664062 550.945312 L 451.976562 550.945312 "/>
<path style=" stroke:none;fill-rule:nonzero;fill:rgb(0%,0%,0%);fill-opacity:1;" d="M 475.058594 550.304688 L 469.949219 550.304688 L 464.273438 563.269531 L 458.34375 550.304688 L 453.257812 550.304688 L 453.257812 550.789062 C 455.363281 550.894531 455.648438 551.175781 455.699219 553.101562 L 455.699219 563.527344 C 455.648438 566.246094 455.3125 566.683594 453.207031 566.8125 L 453.207031 567.300781 L 459.242188 567.300781 L 459.242188 566.8125 C 457.265625 566.710938 456.878906 566.171875 456.828125 563.527344 L 456.828125 553.179688 L 463.273438 567.300781 L 463.632812 567.300781 L 470.203125 552.589844 L 470.203125 564.21875 C 470.179688 566.402344 469.898438 566.683594 467.867188 566.8125 L 467.867188 567.300781 L 475.058594 567.300781 L 475.058594 566.8125 C 473.210938 566.710938 472.875 566.351562 472.824219 564.5 L 472.824219 553.101562 C 472.875 551.253906 473.183594 550.917969 475.058594 550.789062 L 475.058594 550.304688 "/>
<path style=" stroke:none;fill-rule:nonzero;fill:rgb(0%,0%,0%);fill-opacity:1;" d="M 475.828125 572.871094 L 482.042969 572.871094 L 482.042969 572.410156 C 480.117188 572.382812 479.808594 572.125 479.78125 570.484375 L 479.78125 566.453125 C 480.707031 567.300781 481.296875 567.554688 482.375 567.554688 C 485.429688 567.554688 487.765625 564.679688 487.765625 560.957031 C 487.765625 557.773438 485.96875 555.488281 483.480469 555.488281 C 482.042969 555.488281 480.914062 556.105469 479.78125 557.515625 L 479.78125 555.539062 L 479.628906 555.488281 C 478.242188 556.027344 477.34375 556.363281 475.929688 556.796875 L 475.929688 557.210938 C 476.164062 557.183594 476.34375 557.183594 476.574219 557.183594 C 477.445312 557.183594 477.625 557.441406 477.625 558.648438 L 477.625 570.664062 C 477.625 572.023438 477.34375 572.28125 475.828125 572.433594 Z M 479.78125 558.726562 C 479.78125 557.953125 481.21875 557.03125 482.402344 557.03125 C 484.300781 557.03125 485.558594 558.980469 485.558594 561.984375 C 485.558594 564.808594 484.300781 566.734375 482.453125 566.734375 C 481.246094 566.734375 479.78125 565.8125 479.78125 565.039062 L 479.78125 558.726562 "/>
<path style=" stroke:none;fill-rule:nonzero;fill:rgb(0%,0%,0%);fill-opacity:1;" d="M 498.820312 563.296875 C 497.585938 565.09375 496.664062 565.707031 495.199219 565.707031 C 492.835938 565.707031 491.21875 563.65625 491.21875 560.703125 C 491.21875 558.03125 492.632812 556.234375 494.710938 556.234375 C 495.632812 556.234375 495.96875 556.515625 496.226562 557.46875 L 496.378906 558.03125 C 496.585938 558.777344 497.046875 559.210938 497.613281 559.210938 C 498.28125 559.210938 498.820312 558.726562 498.820312 558.132812 C 498.820312 556.695312 497.023438 555.488281 494.863281 555.488281 C 493.605469 555.488281 492.296875 556.003906 491.242188 556.929688 C 489.960938 558.058594 489.242188 559.804688 489.242188 561.855469 C 489.242188 565.167969 491.269531 567.554688 494.121094 567.554688 C 495.273438 567.554688 496.304688 567.144531 497.226562 566.351562 C 497.921875 565.757812 498.40625 565.039062 499.179688 563.527344 L 498.820312 563.296875 "/>
<path style=" stroke:none;fill-rule:nonzero;fill:rgb(0%,0%,0%);fill-opacity:1;" d="M 500.871094 570.664062 L 500.871094 571.304688 L 506.289062 571.304688 L 506.289062 550.304688 L 500.871094 550.304688 L 500.871094 550.945312 L 503.082031 550.945312 C 503.953125 550.96875 504.3125 551.355469 504.339844 552.28125 L 504.339844 569.535156 C 504.3125 570.355469 504.03125 570.636719 503.183594 570.664062 L 500.871094 570.664062 "/>
<path style="fill:none;stroke-width:9.18;stroke-linecap:butt;stroke-linejoin:miter;stroke:rgb(0%,0%,0%);stroke-opacity:1;stroke-miterlimit:10;" d="M 1530 918.007812 L 1530 5201.992188 " transform="matrix(0.1,0,0,-0.1,0,612)"/>
<path style="fill:none;stroke-width:9.18;stroke-linecap:butt;stroke-linejoin:miter;stroke:rgb(0%,0%,0%);stroke-opacity:1;stroke-miterlimit:10;" d="M 7650 918.007812 L 7650 5201.992188 " transform="matrix(0.1,0,0,-0.1,0,612)"/>
<path style="fill:none;stroke-width:9.18;stroke-linecap:butt;stroke-linejoin:miter;stroke:rgb(0%,0%,0%);stroke-opacity:1;stroke-miterlimit:10;" d="M 1530 918.007812 L 1591.210938 918.007812 " transform="matrix(0.1,0,0,-0.1,0,612)"/>
<path style="fill:none;stroke-width:9.18;stroke-linecap:butt;stroke-linejoin:miter;stroke:rgb(0%,0%,0%);stroke-opacity:1;stroke-miterlimit:10;" d="M 7650 918.007812 L 7588.789062 918.007812 " transform="matrix(0.1,0,0,-0.1,0,612)"/>
<path style="fill:none;stroke-width:9.18;stroke-linecap:butt;stroke-linejoin:miter;stroke:rgb(0%,0%,0%);stroke-opacity:1;stroke-miterlimit:10;" d="M 1530 1159.140625 L 1591.210938 1159.140625 " transform="matrix(0.1,0,0,-0.1,0,612)"/>
<path style="fill:none;stroke-width:9.18;stroke-linecap:butt;stroke-linejoin:miter;stroke:rgb(0%,0%,0%);stroke-opacity:1;stroke-miterlimit:10;" d="M 7650 1159.140625 L 7588.789062 1159.140625 " transform="matrix(0.1,0,0,-0.1,0,612)"/>
<path style="fill:none;stroke-width:9.18;stroke-linecap:butt;stroke-linejoin:miter;stroke:rgb(0%,0%,0%);stroke-opacity:1;stroke-miterlimit:10;" d="M 1530 1345.78125 L 1591.210938 1345.78125 " transform="matrix(0.1,0,0,-0.1,0,612)"/>
<path style="fill:none;stroke-width:9.18;stroke-linecap:butt;stroke-linejoin:miter;stroke:rgb(0%,0%,0%);stroke-opacity:1;stroke-miterlimit:10;" d="M 7650 1345.78125 L 7588.789062 1345.78125 " transform="matrix(0.1,0,0,-0.1,0,612)"/>
<path style="fill:none;stroke-width:9.18;stroke-linecap:butt;stroke-linejoin:miter;stroke:rgb(0%,0%,0%);stroke-opacity:1;stroke-miterlimit:10;" d="M 1530 1498.164062 L 1591.210938 1498.164062 " transform="matrix(0.1,0,0,-0.1,0,612)"/>
<path style="fill:none;stroke-width:9.18;stroke-linecap:butt;stroke-linejoin:miter;stroke:rgb(0%,0%,0%);stroke-opacity:1;stroke-miterlimit:10;" d="M 7650 1498.164062 L 7588.789062 1498.164062 " transform="matrix(0.1,0,0,-0.1,0,612)"/>
<path style="fill:none;stroke-width:9.18;stroke-linecap:butt;stroke-linejoin:miter;stroke:rgb(0%,0%,0%);stroke-opacity:1;stroke-miterlimit:10;" d="M 1530 1627.304688 L 1591.210938 1627.304688 " transform="matrix(0.1,0,0,-0.1,0,612)"/>
<path style="fill:none;stroke-width:9.18;stroke-linecap:butt;stroke-linejoin:miter;stroke:rgb(0%,0%,0%);stroke-opacity:1;stroke-miterlimit:10;" d="M 7650 1627.304688 L 7588.789062 1627.304688 " transform="matrix(0.1,0,0,-0.1,0,612)"/>
<path style="fill:none;stroke-width:9.18;stroke-linecap:butt;stroke-linejoin:miter;stroke:rgb(0%,0%,0%);stroke-opacity:1;stroke-miterlimit:10;" d="M 1530 1739.296875 L 1591.210938 1739.296875 " transform="matrix(0.1,0,0,-0.1,0,612)"/>
<path style="fill:none;stroke-width:9.18;stroke-linecap:butt;stroke-linejoin:miter;stroke:rgb(0%,0%,0%);stroke-opacity:1;stroke-miterlimit:10;" d="M 7650 1739.296875 L 7588.789062 1739.296875 " transform="matrix(0.1,0,0,-0.1,0,612)"/>
<path style="fill:none;stroke-width:9.18;stroke-linecap:butt;stroke-linejoin:miter;stroke:rgb(0%,0%,0%);stroke-opacity:1;stroke-miterlimit:10;" d="M 1530 1837.851562 L 1591.210938 1837.851562 " transform="matrix(0.1,0,0,-0.1,0,612)"/>
<path style="fill:none;stroke-width:9.18;stroke-linecap:butt;stroke-linejoin:miter;stroke:rgb(0%,0%,0%);stroke-opacity:1;stroke-miterlimit:10;" d="M 7650 1837.851562 L 7588.789062 1837.851562 " transform="matrix(0.1,0,0,-0.1,0,612)"/>
<path style="fill:none;stroke-width:9.18;stroke-linecap:butt;stroke-linejoin:miter;stroke:rgb(0%,0%,0%);stroke-opacity:1;stroke-miterlimit:10;" d="M 1530 1925.976562 L 1591.210938 1925.976562 " transform="matrix(0.1,0,0,-0.1,0,612)"/>
<path style="fill:none;stroke-width:9.18;stroke-linecap:butt;stroke-linejoin:miter;stroke:rgb(0%,0%,0%);stroke-opacity:1;stroke-miterlimit:10;" d="M 7650 1925.976562 L 7588.789062 1925.976562 " transform="matrix(0.1,0,0,-0.1,0,612)"/>
<path style="fill:none;stroke-width:9.18;stroke-linecap:butt;stroke-linejoin:miter;stroke:rgb(0%,0%,0%);stroke-opacity:1;stroke-miterlimit:10;" d="M 1530 2506.757812 L 1591.210938 2506.757812 " transform="matrix(0.1,0,0,-0.1,0,612)"/>
<path style="fill:none;stroke-width:9.18;stroke-linecap:butt;stroke-linejoin:miter;stroke:rgb(0%,0%,0%);stroke-opacity:1;stroke-miterlimit:10;" d="M 7650 2506.757812 L 7588.789062 2506.757812 " transform="matrix(0.1,0,0,-0.1,0,612)"/>
<path style="fill:none;stroke-width:9.18;stroke-linecap:butt;stroke-linejoin:miter;stroke:rgb(0%,0%,0%);stroke-opacity:1;stroke-miterlimit:10;" d="M 1530 2846.40625 L 1591.210938 2846.40625 " transform="matrix(0.1,0,0,-0.1,0,612)"/>
<path style="fill:none;stroke-width:9.18;stroke-linecap:butt;stroke-linejoin:miter;stroke:rgb(0%,0%,0%);stroke-opacity:1;stroke-miterlimit:10;" d="M 7650 2846.40625 L 7588.789062 2846.40625 " transform="matrix(0.1,0,0,-0.1,0,612)"/>
<path style="fill:none;stroke-width:9.18;stroke-linecap:butt;stroke-linejoin:miter;stroke:rgb(0%,0%,0%);stroke-opacity:1;stroke-miterlimit:10;" d="M 1530 3086.914062 L 1591.210938 3086.914062 " transform="matrix(0.1,0,0,-0.1,0,612)"/>
<path style="fill:none;stroke-width:9.18;stroke-linecap:butt;stroke-linejoin:miter;stroke:rgb(0%,0%,0%);stroke-opacity:1;stroke-miterlimit:10;" d="M 7650 3086.914062 L 7588.789062 3086.914062 " transform="matrix(0.1,0,0,-0.1,0,612)"/>
<path style="fill:none;stroke-width:9.18;stroke-linecap:butt;stroke-linejoin:miter;stroke:rgb(0%,0%,0%);stroke-opacity:1;stroke-miterlimit:10;" d="M 1530 3273.59375 L 1591.210938 3273.59375 " transform="matrix(0.1,0,0,-0.1,0,612)"/>
<path style="fill:none;stroke-width:9.18;stroke-linecap:butt;stroke-linejoin:miter;stroke:rgb(0%,0%,0%);stroke-opacity:1;stroke-miterlimit:10;" d="M 7650 3273.59375 L 7588.789062 3273.59375 " transform="matrix(0.1,0,0,-0.1,0,612)"/>
<path style="fill:none;stroke-width:9.18;stroke-linecap:butt;stroke-linejoin:miter;stroke:rgb(0%,0%,0%);stroke-opacity:1;stroke-miterlimit:10;" d="M 1530 3426.601562 L 1591.210938 3426.601562 " transform="matrix(0.1,0,0,-0.1,0,612)"/>
<path style="fill:none;stroke-width:9.18;stroke-linecap:butt;stroke-linejoin:miter;stroke:rgb(0%,0%,0%);stroke-opacity:1;stroke-miterlimit:10;" d="M 7650 3426.601562 L 7588.789062 3426.601562 " transform="matrix(0.1,0,0,-0.1,0,612)"/>
<path style="fill:none;stroke-width:9.18;stroke-linecap:butt;stroke-linejoin:miter;stroke:rgb(0%,0%,0%);stroke-opacity:1;stroke-miterlimit:10;" d="M 1530 3555.703125 L 1591.210938 3555.703125 " transform="matrix(0.1,0,0,-0.1,0,612)"/>
<path style="fill:none;stroke-width:9.18;stroke-linecap:butt;stroke-linejoin:miter;stroke:rgb(0%,0%,0%);stroke-opacity:1;stroke-miterlimit:10;" d="M 7650 3555.703125 L 7588.789062 3555.703125 " transform="matrix(0.1,0,0,-0.1,0,612)"/>
<path style="fill:none;stroke-width:9.18;stroke-linecap:butt;stroke-linejoin:miter;stroke:rgb(0%,0%,0%);stroke-opacity:1;stroke-miterlimit:10;" d="M 1530 3667.695312 L 1591.210938 3667.695312 " transform="matrix(0.1,0,0,-0.1,0,612)"/>
<path style="fill:none;stroke-width:9.18;stroke-linecap:butt;stroke-linejoin:miter;stroke:rgb(0%,0%,0%);stroke-opacity:1;stroke-miterlimit:10;" d="M 7650 3667.695312 L 7588.789062 3667.695312 " transform="matrix(0.1,0,0,-0.1,0,612)"/>
<path style="fill:none;stroke-width:9.18;stroke-linecap:butt;stroke-linejoin:miter;stroke:rgb(0%,0%,0%);stroke-opacity:1;stroke-miterlimit:10;" d="M 1530 3766.25 L 1591.210938 3766.25 " transform="matrix(0.1,0,0,-0.1,0,612)"/>
<path style="fill:none;stroke-width:9.18;stroke-linecap:butt;stroke-linejoin:miter;stroke:rgb(0%,0%,0%);stroke-opacity:1;stroke-miterlimit:10;" d="M 7650 3766.25 L 7588.789062 3766.25 " transform="matrix(0.1,0,0,-0.1,0,612)"/>
<path style="fill:none;stroke-width:9.18;stroke-linecap:butt;stroke-linejoin:miter;stroke:rgb(0%,0%,0%);stroke-opacity:1;stroke-miterlimit:10;" d="M 1530 3854.375 L 1591.210938 3854.375 " transform="matrix(0.1,0,0,-0.1,0,612)"/>
<path style="fill:none;stroke-width:9.18;stroke-linecap:butt;stroke-linejoin:miter;stroke:rgb(0%,0%,0%);stroke-opacity:1;stroke-miterlimit:10;" d="M 7650 3854.375 L 7588.789062 3854.375 " transform="matrix(0.1,0,0,-0.1,0,612)"/>
<path style="fill:none;stroke-width:9.18;stroke-linecap:butt;stroke-linejoin:miter;stroke:rgb(0%,0%,0%);stroke-opacity:1;stroke-miterlimit:10;" d="M 1530 4434.53125 L 1591.210938 4434.53125 " transform="matrix(0.1,0,0,-0.1,0,612)"/>
<path style="fill:none;stroke-width:9.18;stroke-linecap:butt;stroke-linejoin:miter;stroke:rgb(0%,0%,0%);stroke-opacity:1;stroke-miterlimit:10;" d="M 7650 4434.53125 L 7588.789062 4434.53125 " transform="matrix(0.1,0,0,-0.1,0,612)"/>
<path style="fill:none;stroke-width:9.18;stroke-linecap:butt;stroke-linejoin:miter;stroke:rgb(0%,0%,0%);stroke-opacity:1;stroke-miterlimit:10;" d="M 1530 4774.21875 L 1591.210938 4774.21875 " transform="matrix(0.1,0,0,-0.1,0,612)"/>
<path style="fill:none;stroke-width:9.18;stroke-linecap:butt;stroke-linejoin:miter;stroke:rgb(0%,0%,0%);stroke-opacity:1;stroke-miterlimit:10;" d="M 7650 4774.21875 L 7588.789062 4774.21875 " transform="matrix(0.1,0,0,-0.1,0,612)"/>
<path style="fill:none;stroke-width:9.18;stroke-linecap:butt;stroke-linejoin:miter;stroke:rgb(0%,0%,0%);stroke-opacity:1;stroke-miterlimit:10;" d="M 1530 5015.351562 L 1591.210938 5015.351562 " transform="matrix(0.1,0,0,-0.1,0,612)"/>
<path style="fill:none;stroke-width:9.18;stroke-linecap:butt;stroke-linejoin:miter;stroke:rgb(0%,0%,0%);stroke-opacity:1;stroke-miterlimit:10;" d="M 7650 5015.351562 L 7588.789062 5015.351562 " transform="matrix(0.1,0,0,-0.1,0,612)"/>
<path style="fill:none;stroke-width:9.18;stroke-linecap:butt;stroke-linejoin:miter;stroke:rgb(0%,0%,0%);stroke-opacity:1;stroke-miterlimit:10;" d="M 1530 5201.992188 L 1591.210938 5201.992188 " transform="matrix(0.1,0,0,-0.1,0,612)"/>
<path style="fill:none;stroke-width:9.18;stroke-linecap:butt;stroke-linejoin:miter;stroke:rgb(0%,0%,0%);stroke-opacity:1;stroke-miterlimit:10;" d="M 7650 5201.992188 L 7588.789062 5201.992188 " transform="matrix(0.1,0,0,-0.1,0,612)"/>
<path style="fill:none;stroke-width:9.18;stroke-linecap:butt;stroke-linejoin:miter;stroke:rgb(0%,0%,0%);stroke-opacity:1;stroke-miterlimit:10;" d="M 1530 1925.976562 L 1652.382812 1925.976562 " transform="matrix(0.1,0,0,-0.1,0,612)"/>
<path style="fill:none;stroke-width:9.18;stroke-linecap:butt;stroke-linejoin:miter;stroke:rgb(0%,0%,0%);stroke-opacity:1;stroke-miterlimit:10;" d="M 7650 1925.976562 L 7527.617188 1925.976562 " transform="matrix(0.1,0,0,-0.1,0,612)"/>
<path style="fill:none;stroke-width:9.18;stroke-linecap:butt;stroke-linejoin:miter;stroke:rgb(0%,0%,0%);stroke-opacity:1;stroke-miterlimit:10;" d="M 1530 3854.375 L 1652.382812 3854.375 " transform="matrix(0.1,0,0,-0.1,0,612)"/>
<path style="fill:none;stroke-width:9.18;stroke-linecap:butt;stroke-linejoin:miter;stroke:rgb(0%,0%,0%);stroke-opacity:1;stroke-miterlimit:10;" d="M 7650 3854.375 L 7527.617188 3854.375 " transform="matrix(0.1,0,0,-0.1,0,612)"/>
<path style=" stroke:none;fill-rule:nonzero;fill:rgb(0%,0%,0%);fill-opacity:1;" d="M 139.828125 428.199219 L 146.914062 428.199219 L 146.914062 427.816406 C 144.9375 427.816406 144.503906 427.53125 144.476562 426.300781 L 144.476562 410.894531 L 144.273438 410.84375 L 139.648438 413.179688 L 139.648438 413.539062 C 140.652344 413.15625 141.265625 412.976562 141.496094 412.976562 C 142.039062 412.976562 142.269531 413.359375 142.269531 414.179688 L 142.269531 425.8125 C 142.21875 427.429688 141.78125 427.789062 139.828125 427.816406 L 139.828125 428.199219 "/>
<path style=" stroke:none;fill-rule:nonzero;fill:rgb(0%,0%,0%);fill-opacity:1;" d="M 124.730469 235.199219 L 131.816406 235.199219 L 131.816406 234.816406 C 129.839844 234.816406 129.402344 234.53125 129.378906 233.300781 L 129.378906 217.894531 L 129.171875 217.84375 L 124.550781 220.179688 L 124.550781 220.539062 C 125.550781 220.15625 126.167969 219.976562 126.398438 219.976562 C 126.9375 219.976562 127.167969 220.359375 127.167969 221.179688 L 127.167969 232.8125 C 127.117188 234.429688 126.679688 234.789062 124.730469 234.816406 L 124.730469 235.199219 "/>
<path style=" stroke:none;fill-rule:nonzero;fill:rgb(0%,0%,0%);fill-opacity:1;" d="M 141.023438 217.84375 C 139.609375 217.84375 138.53125 218.253906 137.582031 219.179688 C 136.09375 220.617188 135.117188 223.570312 135.117188 226.574219 C 135.117188 229.398438 135.964844 232.375 137.171875 233.8125 C 138.121094 234.945312 139.429688 235.558594 140.917969 235.558594 C 142.226562 235.558594 143.332031 235.121094 144.257812 234.226562 C 145.746094 232.8125 146.722656 229.835938 146.722656 226.726562 C 146.722656 221.464844 144.382812 217.84375 141.023438 217.84375 Z M 140.945312 218.511719 C 143.101562 218.511719 144.257812 221.410156 144.257812 226.777344 C 144.257812 232.144531 143.128906 234.890625 140.917969 234.890625 C 138.710938 234.890625 137.582031 232.144531 137.582031 226.804688 C 137.582031 221.335938 138.734375 218.511719 140.945312 218.511719 "/>
<path style=" stroke:none;fill-rule:nonzero;fill:rgb(0%,0%,0%);fill-opacity:1;" d="M 101.398438 395.546875 L 101.398438 380.089844 L 83.734375 387.304688 Z M 100.089844 393.722656 L 88.332031 388.253906 L 100.089844 383.402344 L 100.089844 393.722656 "/>
<path style=" stroke:none;fill-rule:nonzero;fill:rgb(0%,0%,0%);fill-opacity:1;" d="M 85.171875 375.710938 L 85.171875 371.371094 C 85.171875 368.394531 85.765625 367.597656 88.304688 367.160156 L 88.304688 366.496094 L 84.121094 366.753906 L 84.121094 379.433594 L 93.183594 373.835938 L 101.398438 379.871094 L 101.398438 366.265625 L 96.777344 364.878906 L 96.777344 365.546875 C 98.832031 366.367188 99.269531 367.136719 99.269531 370.117188 L 99.269531 376.96875 L 91.925781 371.554688 L 85.171875 375.710938 "/>
<path style=" stroke:none;fill-rule:nonzero;fill:rgb(0%,0%,0%);fill-opacity:1;" d="M 84.042969 357.226562 C 85.300781 359.128906 85.945312 359.898438 87.125 360.84375 C 89.359375 362.667969 91.925781 363.566406 94.929688 363.566406 C 98.214844 363.566406 100.707031 362.617188 103.324219 360.359375 C 104.558594 359.304688 105.121094 358.636719 105.945312 357.304688 L 105.535156 356.996094 C 103.914062 359.046875 102.992188 359.765625 101.09375 360.460938 C 99.371094 361.078125 97.445312 361.359375 94.851562 361.359375 C 92.15625 361.359375 90.050781 361.027344 88.460938 360.332031 C 86.867188 359.613281 85.945312 358.84375 84.453125 356.996094 L 84.042969 357.226562 "/>
<path style=" stroke:none;fill-rule:nonzero;fill:rgb(0%,0%,0%);fill-opacity:1;" d="M 100.914062 339.28125 C 100.835938 340.257812 100.578125 340.769531 99.703125 341.515625 L 93.210938 346.804688 C 92.566406 343.542969 91.285156 342.15625 88.921875 342.15625 C 87.820312 342.15625 86.867188 342.488281 86.125 343.15625 C 85.070312 344.132812 84.402344 346.265625 84.402344 348.675781 L 84.402344 355.765625 L 84.890625 355.765625 C 85.097656 353.863281 85.328125 353.605469 87.203125 353.582031 L 98.320312 353.582031 C 100.503906 353.605469 100.757812 353.835938 100.914062 355.765625 L 101.398438 355.765625 L 101.398438 348.652344 L 100.914062 348.652344 C 100.785156 350.628906 100.476562 350.9375 98.601562 350.960938 L 93.542969 350.960938 L 93.492188 349.523438 L 101.398438 343.414062 L 101.398438 339.28125 Z M 86.277344 350.960938 C 85.558594 350.960938 85.351562 350.679688 85.351562 349.652344 C 85.351562 346.445312 86.457031 344.953125 88.871094 344.953125 C 90.15625 344.953125 91.234375 345.492188 91.71875 346.417969 C 92.386719 347.597656 92.542969 348.496094 92.59375 350.960938 L 86.277344 350.960938 "/>
<path style=" stroke:none;fill-rule:nonzero;fill:rgb(0%,0%,0%);fill-opacity:1;" d="M 115.648438 339.007812 L 115.648438 334.609375 L 115.320312 334.609375 C 115.300781 335.972656 115.117188 336.191406 113.953125 336.207031 L 111.101562 336.207031 C 111.699219 335.554688 111.882812 335.136719 111.882812 334.371094 C 111.882812 332.207031 109.84375 330.554688 107.207031 330.554688 C 104.953125 330.554688 103.335938 331.824219 103.335938 333.589844 C 103.335938 334.609375 103.769531 335.40625 104.769531 336.207031 L 103.371094 336.207031 L 103.335938 336.316406 C 103.714844 337.300781 103.953125 337.9375 104.261719 338.9375 L 104.554688 338.9375 C 104.535156 338.773438 104.535156 338.644531 104.535156 338.480469 C 104.535156 337.863281 104.71875 337.734375 105.570312 337.734375 L 114.082031 337.734375 C 115.046875 337.734375 115.226562 337.9375 115.339844 339.007812 Z M 105.625 336.207031 C 105.078125 336.207031 104.425781 335.191406 104.425781 334.351562 C 104.425781 333.007812 105.808594 332.117188 107.9375 332.117188 C 109.9375 332.117188 111.300781 333.007812 111.300781 334.316406 C 111.300781 335.171875 110.644531 336.207031 110.101562 336.207031 L 105.625 336.207031 "/>
<path style=" stroke:none;fill-rule:nonzero;fill:rgb(0%,0%,0%);fill-opacity:1;" d="M 105.945312 329.023438 C 104.6875 327.125 104.042969 326.355469 102.863281 325.40625 C 100.628906 323.582031 98.0625 322.683594 95.058594 322.683594 C 91.773438 322.683594 89.28125 323.632812 86.664062 325.890625 C 85.429688 326.945312 84.867188 327.613281 84.042969 328.945312 L 84.453125 329.253906 C 86.070312 327.203125 86.96875 326.507812 88.898438 325.789062 C 90.617188 325.171875 92.542969 324.890625 95.136719 324.890625 C 97.832031 324.890625 99.960938 325.226562 101.503906 325.917969 C 103.121094 326.609375 104.042969 327.40625 105.535156 329.253906 L 105.945312 329.023438 "/>
<path style=" stroke:none;fill-rule:nonzero;fill:rgb(0%,0%,0%);fill-opacity:1;" d="M 85.046875 307.324219 L 84.402344 307.324219 L 84.402344 312.742188 L 105.40625 312.742188 L 105.40625 307.324219 L 104.765625 307.324219 L 104.765625 309.53125 C 104.738281 310.40625 104.351562 310.765625 103.429688 310.789062 L 86.175781 310.789062 C 85.351562 310.765625 85.070312 310.480469 85.046875 309.632812 L 85.046875 307.324219 "/>
<path style=" stroke:none;fill-rule:nonzero;fill:rgb(0%,0%,0%);fill-opacity:1;" d="M 84.402344 284.242188 L 84.402344 289.351562 L 97.367188 295.027344 L 84.402344 300.957031 L 84.402344 306.039062 L 84.890625 306.039062 C 84.992188 303.9375 85.277344 303.652344 87.203125 303.601562 L 97.625 303.601562 C 100.347656 303.652344 100.785156 303.984375 100.914062 306.09375 L 101.398438 306.09375 L 101.398438 300.058594 L 100.914062 300.058594 C 100.808594 302.035156 100.269531 302.421875 97.625 302.472656 L 87.277344 302.472656 L 101.398438 296.027344 L 101.398438 295.667969 L 86.6875 289.09375 L 98.320312 289.09375 C 100.503906 289.121094 100.785156 289.402344 100.914062 291.429688 L 101.398438 291.429688 L 101.398438 284.242188 L 100.914062 284.242188 C 100.808594 286.089844 100.449219 286.425781 98.601562 286.476562 L 87.203125 286.476562 C 85.351562 286.425781 85.019531 286.117188 84.890625 284.242188 L 84.402344 284.242188 "/>
<path style=" stroke:none;fill-rule:nonzero;fill:rgb(0%,0%,0%);fill-opacity:1;" d="M 98.035156 275.921875 C 98.035156 279.257812 100.550781 281.851562 103.785156 281.851562 C 106.96875 281.851562 109.511719 279.257812 109.511719 275.996094 C 109.511719 272.738281 106.96875 270.144531 103.757812 270.144531 C 100.601562 270.144531 98.035156 272.738281 98.035156 275.921875 Z M 99.085938 276.046875 C 99.085938 273.300781 101.117188 271.195312 103.785156 271.195312 C 106.378906 271.195312 108.457031 273.328125 108.457031 275.996094 C 108.457031 278.667969 106.378906 280.796875 103.757812 280.796875 C 101.191406 280.796875 99.085938 278.667969 99.085938 276.046875 "/>
<path style=" stroke:none;fill-rule:nonzero;fill:rgb(0%,0%,0%);fill-opacity:1;" d="M 102.910156 276.113281 C 102.910156 276.613281 103.269531 276.996094 103.746094 276.996094 C 104.234375 276.996094 104.59375 276.613281 104.59375 276.113281 L 104.59375 275.984375 C 104.59375 275.484375 104.234375 275.097656 103.746094 275.097656 C 103.269531 275.097656 102.910156 275.484375 102.910156 275.984375 L 102.910156 276.113281 "/>
<path style=" stroke:none;fill-rule:nonzero;fill:rgb(0%,0%,0%);fill-opacity:1;" d="M 106.972656 261.773438 L 106.972656 255.558594 L 106.507812 255.558594 C 106.484375 257.484375 106.226562 257.792969 104.585938 257.816406 L 100.554688 257.816406 C 101.398438 256.894531 101.65625 256.304688 101.65625 255.226562 C 101.65625 252.167969 98.78125 249.832031 95.058594 249.832031 C 91.875 249.832031 89.589844 251.628906 89.589844 254.121094 C 89.589844 255.558594 90.207031 256.6875 91.617188 257.816406 L 89.640625 257.816406 L 89.589844 257.972656 C 90.128906 259.359375 90.460938 260.257812 90.898438 261.667969 L 91.308594 261.667969 C 91.285156 261.4375 91.285156 261.257812 91.285156 261.027344 C 91.285156 260.15625 91.539062 259.976562 92.746094 259.976562 L 104.765625 259.976562 C 106.121094 259.976562 106.382812 260.257812 106.535156 261.773438 Z M 92.824219 257.816406 C 92.054688 257.816406 91.128906 256.378906 91.128906 255.199219 C 91.128906 253.296875 93.082031 252.039062 96.085938 252.039062 C 98.910156 252.039062 100.835938 253.296875 100.835938 255.148438 C 100.835938 256.355469 99.910156 257.816406 99.140625 257.816406 L 92.824219 257.816406 "/>
<path style=" stroke:none;fill-rule:nonzero;fill:rgb(0%,0%,0%);fill-opacity:1;" d="M 97.394531 238.882812 C 99.191406 240.113281 99.808594 241.035156 99.808594 242.503906 C 99.808594 244.863281 97.753906 246.480469 94.800781 246.480469 C 92.132812 246.480469 90.335938 245.070312 90.335938 242.988281 C 90.335938 242.066406 90.617188 241.730469 91.566406 241.476562 L 92.132812 241.320312 C 92.875 241.117188 93.3125 240.652344 93.3125 240.085938 C 93.3125 239.421875 92.824219 238.882812 92.234375 238.882812 C 90.796875 238.882812 89.589844 240.679688 89.589844 242.835938 C 89.589844 244.09375 90.101562 245.402344 91.027344 246.457031 C 92.15625 247.738281 93.902344 248.457031 95.957031 248.457031 C 99.269531 248.457031 101.65625 246.429688 101.65625 243.578125 C 101.65625 242.425781 101.246094 241.398438 100.449219 240.472656 C 99.859375 239.78125 99.140625 239.292969 97.625 238.523438 L 97.394531 238.882812 "/>
<path style=" stroke:none;fill-rule:nonzero;fill:rgb(0%,0%,0%);fill-opacity:1;" d="M 81.328125 236.890625 L 82.472656 236.890625 L 82.472656 232.417969 L 81.328125 232.417969 Z M 81.328125 236.890625 "/>
<path style=" stroke:none;fill-rule:nonzero;fill:rgb(0%,0%,0%);fill-opacity:1;" d="M 83.507812 222.960938 L 83.417969 223.199219 C 84.472656 223.871094 84.601562 224.070312 84.617188 224.925781 L 84.617188 229.273438 L 81.417969 226.21875 C 79.726562 224.597656 78.34375 223.890625 76.90625 223.890625 C 75.105469 223.890625 73.707031 225.363281 73.707031 227.253906 C 73.707031 228.253906 74.105469 229.199219 74.832031 229.871094 C 75.453125 230.453125 76.035156 230.726562 77.324219 231.035156 L 77.414062 230.65625 C 75.632812 229.925781 75.050781 229.289062 75.050781 228.015625 C 75.050781 226.472656 76.089844 225.453125 77.617188 225.453125 C 79.054688 225.453125 80.726562 226.289062 82.34375 227.816406 L 85.78125 231.054688 L 86 231.054688 L 86 223.960938 L 83.507812 222.960938 "/>
<path style=" stroke:none;fill-rule:nonzero;fill:rgb(0%,0%,0%);fill-opacity:1;" d="M 104.765625 221.628906 L 105.40625 221.628906 L 105.40625 216.210938 L 84.402344 216.210938 L 84.402344 221.628906 L 85.046875 221.628906 L 85.046875 219.417969 C 85.070312 218.546875 85.457031 218.1875 86.378906 218.160156 L 103.632812 218.160156 C 104.453125 218.1875 104.738281 218.46875 104.765625 219.316406 L 104.765625 221.628906 "/>
<path style="fill:none;stroke-width:9.18;stroke-linecap:butt;stroke-linejoin:miter;stroke:rgb(0%,0%,0%);stroke-opacity:1;stroke-miterlimit:10;" d="M 1530 918.007812 L 7650 918.007812 L 7650 5201.992188 L 1530 5201.992188 Z M 1530 918.007812 " transform="matrix(0.1,0,0,-0.1,0,612)"/>
<path style=" stroke:none;fill-rule:nonzero;fill:rgb(0%,0%,0%);fill-opacity:1;" d="M 571.597656 150.082031 C 568.671875 150.003906 566.617188 148.875 564.539062 146.179688 C 566.28125 145.84375 567.207031 145.410156 568.390625 144.382812 C 570.289062 142.6875 571.265625 140.351562 571.265625 137.503906 C 571.265625 132.316406 567.773438 128.644531 562.867188 128.644531 C 557.964844 128.644531 554.472656 132.339844 554.472656 137.554688 C 554.472656 140.070312 555.242188 142.175781 556.757812 143.816406 C 557.757812 144.894531 558.582031 145.410156 560.402344 146.023438 L 561.609375 147.4375 C 563.355469 149.492188 566.464844 150.570312 570.570312 150.570312 C 570.90625 150.570312 571.1875 150.570312 571.445312 150.542969 L 571.597656 150.542969 Z M 562.945312 129.570312 C 564.050781 129.570312 565.230469 130.054688 566.128906 130.851562 C 567.515625 132.085938 568.339844 134.546875 568.339844 137.449219 C 568.339844 139.992188 567.59375 142.609375 566.566406 143.792969 C 565.617188 144.84375 564.28125 145.433594 562.867188 145.433594 C 561.636719 145.433594 560.507812 144.996094 559.554688 144.175781 C 558.222656 142.96875 557.398438 140.429688 557.398438 137.398438 C 557.398438 134.933594 558.144531 132.417969 559.195312 131.238281 C 560.222656 130.109375 561.457031 129.570312 562.945312 129.570312 "/>
<path style=" stroke:none;fill-rule:nonzero;fill:rgb(0%,0%,0%);fill-opacity:1;" d="M 584.730469 144.714844 L 584.601562 144.714844 C 583.34375 144.664062 583.164062 144.460938 583.136719 143.253906 L 583.136719 134.445312 L 579.082031 134.445312 L 579.082031 134.882812 C 580.671875 134.960938 580.980469 135.21875 580.980469 136.5 L 580.980469 142.535156 C 580.980469 143.253906 580.851562 143.613281 580.492188 143.894531 C 579.800781 144.460938 579.003906 144.765625 578.234375 144.765625 C 577.234375 144.765625 576.410156 143.894531 576.410156 142.816406 L 576.410156 134.445312 L 572.664062 134.445312 L 572.664062 134.804688 C 573.867188 134.859375 574.226562 135.21875 574.253906 136.449219 L 574.253906 142.917969 C 574.253906 144.945312 575.484375 146.257812 577.359375 146.257812 C 578.3125 146.257812 579.3125 145.84375 580.003906 145.152344 L 581.109375 144.046875 L 581.109375 146.179688 L 581.214844 146.230469 C 582.496094 145.71875 583.421875 145.433594 584.730469 145.074219 L 584.730469 144.714844 "/>
<path style=" stroke:none;fill-rule:nonzero;fill:rgb(0%,0%,0%);fill-opacity:1;" d="M 595.628906 141.789062 C 594.398438 143.742188 593.292969 144.484375 591.648438 144.484375 C 590.1875 144.484375 589.082031 143.742188 588.339844 142.277344 C 587.875 141.300781 587.695312 140.480469 587.644531 138.886719 L 595.554688 138.886719 C 595.347656 137.21875 595.089844 136.476562 594.449219 135.652344 C 593.679688 134.726562 592.496094 134.1875 591.164062 134.1875 C 589.878906 134.1875 588.671875 134.652344 587.695312 135.523438 C 586.488281 136.578125 585.796875 138.398438 585.796875 140.507812 C 585.796875 144.046875 587.644531 146.257812 590.597656 146.257812 C 593.0625 146.257812 594.964844 144.742188 596.039062 141.96875 Z M 587.695312 138.066406 C 587.976562 136.035156 588.851562 135.113281 590.417969 135.113281 C 591.984375 135.113281 592.601562 135.832031 592.933594 138.066406 L 587.695312 138.066406 "/>
<path style=" stroke:none;fill-rule:nonzero;fill:rgb(0%,0%,0%);fill-opacity:1;" d="M 596.863281 146 L 602.304688 146 L 602.304688 145.617188 C 601.023438 145.535156 600.609375 145.203125 600.609375 144.28125 L 600.609375 137.066406 C 601.816406 135.910156 602.40625 135.601562 603.253906 135.601562 C 604.511719 135.601562 605.128906 136.398438 605.128906 138.09375 L 605.128906 143.457031 C 605.078125 145.128906 604.769531 145.535156 603.511719 145.617188 L 603.511719 146 L 608.851562 146 L 608.851562 145.617188 C 607.59375 145.484375 607.3125 145.179688 607.285156 143.921875 L 607.285156 138.039062 C 607.285156 135.628906 606.15625 134.1875 604.257812 134.1875 C 603.074219 134.1875 602.28125 134.628906 600.535156 136.269531 L 600.535156 134.242188 L 600.355469 134.1875 C 599.09375 134.652344 598.222656 134.933594 596.8125 135.34375 L 596.8125 135.78125 C 596.964844 135.703125 597.222656 135.679688 597.503906 135.679688 C 598.222656 135.679688 598.453125 136.0625 598.453125 137.320312 L 598.453125 143.6875 C 598.429688 145.203125 598.144531 145.535156 596.863281 145.617188 L 596.863281 146 "/>
<path style=" stroke:none;fill-rule:nonzero;fill:rgb(0%,0%,0%);fill-opacity:1;" d="M 619.519531 141.996094 C 618.285156 143.792969 617.363281 144.40625 615.898438 144.40625 C 613.535156 144.40625 611.917969 142.355469 611.917969 139.402344 C 611.917969 136.730469 613.332031 134.933594 615.410156 134.933594 C 616.335938 134.933594 616.667969 135.21875 616.925781 136.167969 L 617.078125 136.730469 C 617.285156 137.476562 617.746094 137.910156 618.3125 137.910156 C 618.980469 137.910156 619.519531 137.425781 619.519531 136.835938 C 619.519531 135.398438 617.722656 134.1875 615.5625 134.1875 C 614.304688 134.1875 612.996094 134.703125 611.945312 135.628906 C 610.660156 136.757812 609.941406 138.503906 609.941406 140.554688 C 609.941406 143.867188 611.96875 146.257812 614.820312 146.257812 C 615.976562 146.257812 617.003906 145.84375 617.925781 145.050781 C 618.621094 144.460938 619.109375 143.742188 619.878906 142.226562 L 619.519531 141.996094 "/>
<path style=" stroke:none;fill-rule:nonzero;fill:rgb(0%,0%,0%);fill-opacity:1;" d="M 633.203125 145.617188 C 631.816406 145.382812 631.6875 145.203125 631.664062 143.382812 L 631.664062 138.273438 C 631.664062 135.578125 630.609375 134.1875 628.503906 134.1875 C 626.992188 134.1875 625.914062 134.804688 624.730469 136.347656 L 624.730469 128.539062 L 624.601562 128.464844 C 623.730469 128.773438 623.089844 128.976562 621.648438 129.390625 L 620.957031 129.59375 L 620.957031 130.003906 C 621.058594 129.980469 621.136719 129.980469 621.265625 129.980469 C 622.367188 129.980469 622.574219 130.183594 622.574219 131.289062 L 622.574219 143.382812 C 622.523438 145.230469 622.394531 145.433594 620.929688 145.617188 L 620.929688 146 L 626.476562 146 L 626.476562 145.617188 C 624.988281 145.484375 624.78125 145.203125 624.730469 143.382812 L 624.730469 137.195312 C 625.808594 136.011719 626.578125 135.578125 627.582031 135.578125 C 628.863281 135.578125 629.507812 136.5 629.507812 138.296875 L 629.507812 143.382812 C 629.453125 145.203125 629.222656 145.484375 627.761719 145.617188 L 627.761719 146 L 633.203125 146 L 633.203125 145.617188 "/>
<path style=" stroke:none;fill-rule:nonzero;fill:rgb(0%,0%,0%);fill-opacity:1;" d="M 644.230469 141.789062 C 642.996094 143.742188 641.890625 144.484375 640.25 144.484375 C 638.785156 144.484375 637.683594 143.742188 636.9375 142.277344 C 636.476562 141.300781 636.296875 140.480469 636.242188 138.886719 L 644.152344 138.886719 C 643.945312 137.21875 643.691406 136.476562 643.046875 135.652344 C 642.277344 134.726562 641.097656 134.1875 639.761719 134.1875 C 638.476562 134.1875 637.273438 134.652344 636.296875 135.523438 C 635.089844 136.578125 634.394531 138.398438 634.394531 140.507812 C 634.394531 144.046875 636.242188 146.257812 639.195312 146.257812 C 641.664062 146.257812 643.5625 144.742188 644.640625 141.96875 Z M 636.296875 138.066406 C 636.578125 136.035156 637.453125 135.113281 639.015625 135.113281 C 640.582031 135.113281 641.199219 135.832031 641.53125 138.066406 L 636.296875 138.066406 "/>
<path style=" stroke:none;fill-rule:nonzero;fill:rgb(0%,0%,0%);fill-opacity:1;" d="M 657.605469 144.511719 C 657.273438 144.535156 657.117188 144.535156 657.015625 144.535156 C 656.09375 144.535156 655.886719 144.253906 655.886719 143.074219 L 655.886719 128.515625 L 655.757812 128.464844 C 654.523438 128.898438 653.628906 129.15625 651.984375 129.59375 L 651.984375 130.003906 C 652.1875 129.980469 652.34375 129.980469 652.546875 129.980469 C 653.496094 129.980469 653.730469 130.234375 653.730469 131.289062 L 653.730469 135.292969 C 652.753906 134.472656 652.0625 134.1875 651.03125 134.1875 C 648.082031 134.1875 645.695312 137.089844 645.695312 140.734375 C 645.695312 144.023438 647.59375 146.257812 650.445312 146.257812 C 651.882812 146.257812 652.855469 145.742188 653.730469 144.535156 L 653.730469 146.179688 L 653.832031 146.257812 L 657.605469 144.921875 Z M 653.730469 143.382812 C 653.730469 143.5625 653.550781 143.867188 653.292969 144.152344 C 652.855469 144.664062 652.1875 144.921875 651.445312 144.921875 C 649.3125 144.921875 647.902344 142.867188 647.902344 139.710938 C 647.902344 136.808594 649.160156 134.90625 651.109375 134.90625 C 652.496094 134.90625 653.730469 136.117188 653.730469 137.476562 L 653.730469 143.382812 "/>
<path style="fill:none;stroke-width:36.72;stroke-linecap:butt;stroke-linejoin:miter;stroke:rgb(100%,0%,0%);stroke-opacity:1;stroke-miterlimit:10;" d="M 4975.546875 4724.648438 L 5465.15625 4724.648438 " transform="matrix(0.1,0,0,-0.1,0,612)"/>
<path style=" stroke:none;fill-rule:nonzero;fill:rgb(0%,0%,0%);fill-opacity:1;" d="M 571.726562 173.710938 C 570.570312 173.632812 570.3125 173.378906 569.414062 171.476562 L 563.023438 156.894531 L 562.507812 156.894531 L 557.167969 169.503906 C 555.523438 173.25 555.21875 173.660156 553.984375 173.710938 L 553.984375 174.199219 L 559.070312 174.199219 L 559.070312 173.710938 C 557.835938 173.710938 557.324219 173.40625 557.324219 172.660156 C 557.324219 172.351562 557.398438 171.992188 557.527344 171.65625 L 558.710938 168.65625 L 565.4375 168.65625 L 566.488281 171.117188 C 566.796875 171.8125 566.976562 172.480469 566.976562 172.839844 C 566.976562 173.480469 566.539062 173.6875 565.179688 173.710938 L 565.179688 174.199219 L 571.726562 174.199219 Z M 559.144531 167.601562 L 562.097656 160.539062 L 565.078125 167.601562 L 559.144531 167.601562 "/>
<path style=" stroke:none;fill-rule:nonzero;fill:rgb(0%,0%,0%);fill-opacity:1;" d="M 572.738281 174.199219 L 578.796875 174.199219 L 578.796875 173.816406 C 577.179688 173.738281 576.898438 173.480469 576.871094 172.042969 L 576.871094 156.714844 L 576.769531 156.664062 C 575.433594 157.101562 574.460938 157.359375 572.6875 157.792969 L 572.6875 158.203125 L 572.84375 158.203125 C 573.125 158.179688 573.433594 158.152344 573.636719 158.152344 C 574.460938 158.152344 574.714844 158.511719 574.714844 159.71875 L 574.714844 171.964844 C 574.691406 173.351562 574.332031 173.710938 572.738281 173.816406 L 572.738281 174.199219 "/>
<path style=" stroke:none;fill-rule:nonzero;fill:rgb(0%,0%,0%);fill-opacity:1;" d="M 579.839844 174.199219 L 585.898438 174.199219 L 585.898438 173.816406 C 584.28125 173.738281 583.996094 173.480469 583.972656 172.042969 L 583.972656 156.714844 L 583.871094 156.664062 C 582.535156 157.101562 581.558594 157.359375 579.789062 157.792969 L 579.789062 158.203125 L 579.941406 158.203125 C 580.226562 158.179688 580.53125 158.152344 580.738281 158.152344 C 581.558594 158.152344 581.816406 158.511719 581.816406 159.71875 L 581.816406 171.964844 C 581.789062 173.351562 581.429688 173.710938 579.839844 173.816406 L 579.839844 174.199219 "/>
<path style="fill:none;stroke-width:36.72;stroke-linecap:butt;stroke-linejoin:miter;stroke:rgb(0%,0%,0%);stroke-opacity:1;stroke-miterlimit:10;" d="M 4975.546875 4465.15625 L 5465.15625 4465.15625 " transform="matrix(0.1,0,0,-0.1,0,612)"/>
<path style=" stroke:none;fill-rule:nonzero;fill:rgb(0%,0%,0%);fill-opacity:1;" d="M 565.078125 180.542969 L 564.539062 180.542969 C 564.433594 181.132812 564.152344 181.417969 563.714844 181.417969 C 563.460938 181.417969 563.023438 181.3125 562.585938 181.109375 C 561.636719 180.75 560.6875 180.542969 559.839844 180.542969 C 558.761719 180.542969 557.632812 180.980469 556.785156 181.726562 C 555.882812 182.519531 555.421875 183.597656 555.421875 184.933594 C 555.421875 186.988281 556.554688 188.425781 559.429688 189.941406 C 561.277344 190.941406 562.613281 191.96875 563.253906 192.945312 C 563.484375 193.277344 563.613281 193.816406 563.613281 194.460938 C 563.613281 196.15625 562.328125 197.335938 560.453125 197.335938 C 558.144531 197.335938 556.554688 195.921875 555.269531 192.789062 L 554.679688 192.789062 L 555.449219 198.234375 L 556.015625 198.234375 C 556.039062 197.746094 556.347656 197.386719 556.734375 197.386719 C 557.015625 197.386719 557.453125 197.488281 557.9375 197.667969 C 558.914062 198.054688 559.96875 198.257812 560.96875 198.257812 C 563.945312 198.257812 566.207031 196.230469 566.207031 193.585938 C 566.207031 191.480469 564.792969 189.8125 561.40625 187.964844 C 558.710938 186.5 557.632812 185.371094 557.632812 183.957031 C 557.632812 182.546875 558.710938 181.597656 560.300781 181.597656 C 561.457031 181.597656 562.535156 182.085938 563.433594 183.007812 C 564.230469 183.828125 564.589844 184.496094 565 186.011719 L 565.640625 186.011719 L 565.078125 180.542969 "/>
<path style=" stroke:none;fill-rule:nonzero;fill:rgb(0%,0%,0%);fill-opacity:1;" d="M 574.550781 186.347656 L 571.957031 186.347656 L 571.957031 183.367188 C 571.957031 183.109375 571.90625 183.035156 571.777344 183.035156 C 570.289062 185.191406 569.515625 186.0625 568.773438 186.5 C 568.492188 186.679688 568.335938 186.835938 568.335938 186.988281 C 568.335938 187.066406 568.363281 187.117188 568.4375 187.167969 L 569.800781 187.167969 L 569.800781 194.894531 C 569.800781 197.054688 570.570312 198.15625 572.085938 198.15625 C 573.34375 198.15625 574.320312 197.539062 575.164062 196.203125 L 574.832031 195.921875 C 574.265625 196.589844 573.855469 196.820312 573.292969 196.820312 C 572.34375 196.820312 571.957031 196.128906 571.957031 194.511719 L 571.957031 187.167969 L 574.550781 187.167969 L 574.550781 186.347656 "/>
<path style=" stroke:none;fill-rule:nonzero;fill:rgb(0%,0%,0%);fill-opacity:1;" d="M 586.449219 196.203125 C 586.011719 196.566406 585.703125 196.695312 585.320312 196.695312 C 584.726562 196.695312 584.546875 196.335938 584.546875 195.203125 L 584.546875 190.195312 C 584.546875 188.863281 584.421875 188.117188 584.035156 187.503906 C 583.46875 186.578125 582.367188 186.089844 580.851562 186.089844 C 578.4375 186.089844 576.539062 187.347656 576.539062 188.964844 C 576.539062 189.554688 577.023438 190.070312 577.640625 190.070312 C 578.257812 190.070312 578.796875 189.554688 578.796875 188.992188 C 578.796875 188.886719 578.773438 188.757812 578.746094 188.578125 C 578.695312 188.347656 578.667969 188.144531 578.667969 187.964844 C 578.667969 187.269531 579.492188 186.707031 580.515625 186.707031 C 581.773438 186.707031 582.46875 187.449219 582.46875 188.835938 L 582.46875 190.402344 C 578.515625 191.996094 578.078125 192.199219 576.976562 193.175781 C 576.410156 193.6875 576.050781 194.5625 576.050781 195.410156 C 576.050781 197.027344 577.179688 198.15625 578.746094 198.15625 C 579.875 198.15625 580.929688 197.617188 582.492188 196.28125 C 582.621094 197.644531 583.085938 198.15625 584.136719 198.15625 C 585.011719 198.15625 585.550781 197.847656 586.449219 196.871094 Z M 582.46875 194.742188 C 582.46875 195.511719 582.339844 195.796875 581.800781 196.101562 C 581.160156 196.460938 580.464844 196.667969 579.925781 196.667969 C 579.027344 196.667969 578.308594 195.796875 578.308594 194.691406 L 578.308594 194.585938 C 578.335938 193.046875 579.464844 192.070312 582.46875 191.019531 L 582.46875 194.742188 "/>
<path style=" stroke:none;fill-rule:nonzero;fill:rgb(0%,0%,0%);fill-opacity:1;" d="M 586.628906 197.898438 L 592.789062 197.898438 L 592.789062 197.515625 C 591.070312 197.464844 590.660156 197.105469 590.609375 195.589844 L 590.609375 189.8125 C 590.609375 188.992188 591.6875 187.707031 592.40625 187.707031 C 592.558594 187.707031 592.789062 187.835938 593.074219 188.09375 C 593.484375 188.476562 593.765625 188.605469 594.101562 188.605469 C 594.714844 188.605469 595.101562 188.167969 595.101562 187.449219 C 595.101562 186.601562 594.5625 186.089844 593.6875 186.089844 C 592.609375 186.089844 591.867188 186.65625 590.609375 188.503906 L 590.609375 186.140625 L 590.480469 186.089844 C 589.117188 186.65625 588.195312 186.988281 586.679688 187.476562 L 586.679688 187.886719 C 587.039062 187.808594 587.269531 187.785156 587.578125 187.785156 C 588.21875 187.785156 588.453125 188.195312 588.453125 189.324219 L 588.453125 195.742188 C 588.398438 197.078125 588.246094 197.234375 586.628906 197.515625 L 586.628906 197.898438 "/>
<path style=" stroke:none;fill-rule:nonzero;fill:rgb(0%,0%,0%);fill-opacity:1;" d="M 596.003906 192.917969 L 602.316406 192.917969 L 602.316406 191.300781 L 596.003906 191.300781 Z M 596.003906 192.917969 "/>
<path style=" stroke:none;fill-rule:nonzero;fill:rgb(0%,0%,0%);fill-opacity:1;" d="M 615.898438 191.96875 L 615.898438 186.011719 L 615.308594 186.011719 C 615.023438 188.039062 614.589844 188.398438 612.484375 188.453125 L 608.761719 188.453125 L 608.761719 182.753906 C 608.785156 181.980469 608.863281 181.90625 609.582031 181.878906 L 613.074219 181.878906 C 616.050781 181.929688 616.566406 182.289062 616.976562 184.574219 L 617.617188 184.574219 L 617.542969 180.902344 L 603.90625 180.902344 L 603.90625 181.390625 C 605.78125 181.519531 606.089844 181.851562 606.140625 183.703125 L 606.140625 194.820312 C 606.117188 197.003906 605.859375 197.285156 603.90625 197.410156 L 603.90625 197.898438 L 611.097656 197.898438 L 611.097656 197.410156 C 609.144531 197.335938 608.785156 196.976562 608.761719 195.101562 L 608.761719 189.503906 L 612.484375 189.503906 C 614.589844 189.53125 615 189.890625 615.308594 191.96875 L 615.898438 191.96875 "/>
<path style=" stroke:none;fill-rule:nonzero;fill:rgb(0%,0%,0%);fill-opacity:1;" d="M 624.320312 186.089844 C 620.953125 186.089844 618.644531 188.554688 618.644531 192.097656 C 618.644531 195.589844 621.03125 198.15625 624.265625 198.15625 C 627.503906 198.15625 629.96875 195.460938 629.96875 191.890625 C 629.96875 188.503906 627.605469 186.089844 624.320312 186.089844 Z M 623.984375 186.808594 C 626.140625 186.808594 627.65625 189.273438 627.65625 192.789062 C 627.65625 195.71875 626.503906 197.4375 624.574219 197.4375 C 623.574219 197.4375 622.621094 196.820312 622.085938 195.796875 C 621.367188 194.460938 620.953125 192.660156 620.953125 190.839844 C 620.953125 188.398438 622.136719 186.808594 623.984375 186.808594 "/>
<path style=" stroke:none;fill-rule:nonzero;fill:rgb(0%,0%,0%);fill-opacity:1;" d="M 630.828125 197.898438 L 636.992188 197.898438 L 636.992188 197.515625 C 635.269531 197.464844 634.859375 197.105469 634.808594 195.589844 L 634.808594 189.8125 C 634.808594 188.992188 635.886719 187.707031 636.605469 187.707031 C 636.757812 187.707031 636.992188 187.835938 637.273438 188.09375 C 637.683594 188.476562 637.964844 188.605469 638.300781 188.605469 C 638.914062 188.605469 639.300781 188.167969 639.300781 187.449219 C 639.300781 186.601562 638.761719 186.089844 637.890625 186.089844 C 636.8125 186.089844 636.066406 186.65625 634.808594 188.503906 L 634.808594 186.140625 L 634.679688 186.089844 C 633.320312 186.65625 632.394531 186.988281 630.878906 187.476562 L 630.878906 187.886719 C 631.238281 187.808594 631.46875 187.785156 631.777344 187.785156 C 632.421875 187.785156 632.652344 188.195312 632.652344 189.324219 L 632.652344 195.742188 C 632.601562 197.078125 632.445312 197.234375 630.828125 197.515625 L 630.828125 197.898438 "/>
<path style=" stroke:none;fill-rule:nonzero;fill:rgb(0%,0%,0%);fill-opacity:1;" d="M 639.710938 197.898438 L 645.410156 197.898438 L 645.410156 197.515625 C 644.101562 197.488281 643.691406 197.207031 643.664062 196.179688 L 643.664062 188.9375 C 643.664062 188.886719 643.871094 188.632812 644.050781 188.453125 C 644.691406 187.859375 645.796875 187.425781 646.695312 187.425781 C 647.824219 187.425781 648.390625 188.324219 648.390625 190.121094 L 648.390625 195.691406 C 648.339844 197.15625 648.082031 197.4375 646.644531 197.515625 L 646.644531 197.898438 L 652.394531 197.898438 L 652.394531 197.515625 C 650.957031 197.515625 650.597656 197.105469 650.546875 195.460938 L 650.546875 188.992188 C 651.316406 187.886719 652.136719 187.425781 653.34375 187.425781 C 654.808594 187.425781 655.269531 188.117188 655.269531 190.246094 L 655.269531 195.664062 C 655.21875 197.179688 655.0625 197.359375 653.574219 197.515625 L 653.574219 197.898438 L 659.199219 197.898438 L 659.199219 197.515625 L 658.53125 197.464844 C 657.710938 197.335938 657.425781 196.949219 657.425781 195.949219 L 657.425781 190.660156 C 657.425781 187.628906 656.425781 186.089844 654.449219 186.089844 C 652.933594 186.089844 651.648438 186.757812 650.261719 188.246094 C 649.800781 186.78125 648.929688 186.089844 647.542969 186.089844 C 646.386719 186.089844 645.71875 186.421875 643.5625 188.066406 L 643.5625 186.140625 L 643.382812 186.089844 C 642.074219 186.578125 641.199219 186.859375 639.789062 187.246094 L 639.789062 187.679688 C 640.121094 187.605469 640.328125 187.578125 640.609375 187.578125 C 641.277344 187.578125 641.507812 187.988281 641.507812 189.222656 L 641.507812 195.71875 C 641.457031 197.15625 641.121094 197.515625 639.710938 197.515625 L 639.710938 197.898438 "/>
<path style=" stroke:none;fill-rule:nonzero;fill:rgb(0%,0%,0%);fill-opacity:1;" d="M 659.890625 197.898438 L 665.976562 197.898438 L 665.976562 197.515625 C 664.28125 197.386719 664.101562 197.15625 664.074219 195.28125 L 664.074219 186.167969 L 663.972656 186.089844 L 659.992188 187.503906 L 659.992188 187.886719 L 660.199219 187.859375 C 660.507812 187.808594 660.839844 187.785156 661.070312 187.785156 C 661.6875 187.785156 661.917969 188.195312 661.917969 189.324219 L 661.917969 195.28125 C 661.867188 197.179688 661.636719 197.4375 659.890625 197.515625 Z M 662.765625 180.363281 C 662.074219 180.363281 661.484375 180.953125 661.484375 181.671875 C 661.484375 182.417969 662.046875 182.984375 662.765625 182.984375 C 663.535156 182.984375 664.101562 182.417969 664.101562 181.671875 C 664.101562 180.929688 663.511719 180.363281 662.765625 180.363281 "/>
<path style=" stroke:none;fill-rule:nonzero;fill:rgb(0%,0%,0%);fill-opacity:1;" d="M 666.863281 197.898438 L 672.304688 197.898438 L 672.304688 197.515625 C 671.023438 197.4375 670.609375 197.105469 670.609375 196.179688 L 670.609375 188.964844 C 671.816406 187.808594 672.40625 187.503906 673.253906 187.503906 C 674.511719 187.503906 675.128906 188.296875 675.128906 189.992188 L 675.128906 195.359375 C 675.078125 197.027344 674.769531 197.4375 673.511719 197.515625 L 673.511719 197.898438 L 678.851562 197.898438 L 678.851562 197.515625 C 677.59375 197.386719 677.3125 197.078125 677.285156 195.820312 L 677.285156 189.941406 C 677.285156 187.527344 676.15625 186.089844 674.257812 186.089844 C 673.074219 186.089844 672.28125 186.527344 670.535156 188.167969 L 670.535156 186.140625 L 670.355469 186.089844 C 669.09375 186.550781 668.222656 186.835938 666.8125 187.246094 L 666.8125 187.679688 C 666.964844 187.605469 667.222656 187.578125 667.503906 187.578125 C 668.222656 187.578125 668.453125 187.964844 668.453125 189.222656 L 668.453125 195.589844 C 668.429688 197.105469 668.144531 197.4375 666.863281 197.515625 L 666.863281 197.898438 "/>
<path style=" stroke:none;fill-rule:nonzero;fill:rgb(0%,0%,0%);fill-opacity:1;" d="M 691.367188 187.9375 L 691.367188 186.9375 L 689.390625 186.9375 C 688.851562 186.9375 688.492188 186.859375 687.976562 186.679688 L 687.414062 186.476562 C 686.71875 186.21875 686.027344 186.089844 685.359375 186.089844 C 682.972656 186.089844 681.070312 187.910156 681.070312 190.273438 C 681.070312 191.890625 681.738281 192.867188 683.460938 193.714844 L 682.792969 194.332031 C 682.253906 194.84375 681.945312 195.128906 681.867188 195.230469 C 681.328125 195.796875 681.175781 196.078125 681.175781 196.515625 C 681.175781 197.078125 681.457031 197.359375 682.535156 197.875 C 680.6875 199.210938 680.019531 200.054688 680.019531 201.007812 C 680.019531 202.367188 681.996094 203.496094 684.460938 203.496094 C 686.386719 203.496094 688.390625 202.828125 689.722656 201.753906 C 690.699219 200.953125 691.136719 200.132812 691.136719 199.15625 C 691.136719 197.566406 689.929688 196.488281 688.03125 196.410156 L 684.71875 196.257812 C 683.332031 196.203125 682.714844 195.976562 682.714844 195.5625 C 682.714844 195.050781 683.5625 194.152344 684.253906 193.945312 C 685.179688 194.023438 685.667969 194.074219 685.71875 194.074219 C 686.667969 194.074219 687.695312 193.6875 688.492188 192.996094 C 689.339844 192.277344 689.722656 191.378906 689.722656 190.09375 C 689.722656 189.351562 689.59375 188.757812 689.234375 187.9375 Z M 683.074219 197.953125 C 683.945312 198.132812 685.976562 198.285156 687.234375 198.285156 C 689.570312 198.285156 690.417969 198.617188 690.417969 199.542969 C 690.417969 201.03125 688.464844 202.035156 685.5625 202.035156 C 683.28125 202.035156 681.816406 201.289062 681.816406 200.160156 C 681.816406 199.570312 682.046875 199.183594 683.074219 197.953125 Z M 683.203125 189.222656 C 683.203125 187.707031 683.921875 186.808594 685.101562 186.808594 C 685.898438 186.808594 686.566406 187.246094 686.976562 188.015625 C 687.464844 188.914062 687.746094 190.070312 687.746094 191.097656 C 687.746094 192.535156 687.027344 193.433594 685.847656 193.433594 C 684.253906 193.433594 683.203125 191.765625 683.203125 189.296875 L 683.203125 189.222656 "/>
<path style="fill:none;stroke-width:36.72;stroke-linecap:butt;stroke-linejoin:miter;stroke:rgb(0%,0%,100%);stroke-opacity:1;stroke-miterlimit:10;" d="M 4975.546875 4201.367188 L 5465.15625 4201.367188 " transform="matrix(0.1,0,0,-0.1,0,612)"/>
<path style=" stroke:none;fill-rule:nonzero;fill:rgb(0%,0%,0%);fill-opacity:1;" d="M 194.332031 467.734375 L 193.871094 467.632812 C 193.40625 470.046875 193.046875 470.351562 190.582031 470.429688 L 187.039062 470.429688 L 193.945312 460.03125 L 193.945312 459.648438 L 185.039062 459.648438 L 184.960938 462.675781 L 185.421875 462.675781 C 185.628906 460.851562 185.988281 460.46875 187.578125 460.417969 L 191.121094 460.417969 L 184.292969 470.816406 L 184.292969 471.199219 L 193.972656 471.199219 L 194.332031 467.734375 "/>
<path style=" stroke:none;fill-rule:nonzero;fill:rgb(0%,0%,0%);fill-opacity:1;" d="M 214.957031 460.082031 L 202.351562 460.082031 L 202.351562 461.445312 L 214.957031 461.445312 Z M 214.957031 465.21875 L 202.351562 465.21875 L 202.351562 466.578125 L 214.957031 466.578125 L 214.957031 465.21875 "/>
<path style=" stroke:none;fill-rule:nonzero;fill:rgb(0%,0%,0%);fill-opacity:1;" d="M 225.429688 471.199219 L 232.515625 471.199219 L 232.515625 470.816406 C 230.539062 470.816406 230.101562 470.53125 230.078125 469.300781 L 230.078125 453.894531 L 229.871094 453.84375 L 225.25 456.179688 L 225.25 456.539062 C 226.253906 456.15625 226.867188 455.976562 227.097656 455.976562 C 227.636719 455.976562 227.867188 456.359375 227.867188 457.179688 L 227.867188 468.8125 C 227.816406 470.429688 227.382812 470.789062 225.429688 470.816406 L 225.429688 471.199219 "/>
<path style=" stroke:none;fill-rule:nonzero;fill:rgb(0%,0%,0%);fill-opacity:1;" d="M 205.757812 479.902344 L 200.648438 479.902344 L 194.972656 492.867188 L 189.042969 479.902344 L 183.960938 479.902344 L 183.960938 480.390625 C 186.0625 480.492188 186.347656 480.777344 186.398438 482.703125 L 186.398438 493.128906 C 186.347656 495.847656 186.015625 496.285156 183.90625 496.410156 L 183.90625 496.898438 L 189.941406 496.898438 L 189.941406 496.410156 C 187.964844 496.308594 187.578125 495.769531 187.527344 493.128906 L 187.527344 482.777344 L 193.972656 496.898438 L 194.332031 496.898438 L 200.90625 482.1875 L 200.90625 493.820312 C 200.878906 496.003906 200.597656 496.285156 198.570312 496.410156 L 198.570312 496.898438 L 205.757812 496.898438 L 205.757812 496.410156 C 203.910156 496.308594 203.574219 495.949219 203.523438 494.101562 L 203.523438 482.703125 C 203.574219 480.851562 203.882812 480.519531 205.757812 480.390625 L 205.757812 479.902344 "/>
<path style=" stroke:none;fill-rule:nonzero;fill:rgb(0%,0%,0%);fill-opacity:1;" d="M 210.78125 499.035156 C 210.800781 499.199219 210.820312 499.308594 210.820312 499.34375 C 210.820312 499.816406 210.710938 500.289062 210.492188 500.871094 C 210.363281 501.21875 210.292969 501.527344 210.292969 501.726562 C 210.292969 502.070312 210.582031 502.382812 210.929688 502.382812 C 211.3125 502.382812 211.636719 502.035156 211.636719 501.652344 C 211.636719 501.542969 211.582031 501.328125 211.492188 501.070312 C 211.257812 500.433594 211.128906 499.742188 211.128906 499.035156 L 211.128906 498.90625 L 211.257812 498.960938 C 211.65625 499.125 212.054688 499.453125 212.527344 500.054688 C 212.984375 500.617188 213.292969 500.835938 213.621094 500.835938 C 214.003906 500.835938 214.257812 500.5625 214.257812 500.160156 C 214.257812 499.6875 213.984375 499.488281 213.183594 499.359375 C 212.492188 499.253906 211.890625 499.035156 211.417969 498.742188 L 211.273438 498.652344 C 212.164062 498.144531 212.527344 498.015625 213.3125 497.890625 C 214.019531 497.78125 214.238281 497.597656 214.238281 497.125 C 214.238281 496.707031 213.984375 496.414062 213.585938 496.414062 C 213.3125 496.414062 213.003906 496.652344 212.566406 497.160156 C 212.128906 497.6875 211.671875 498.089844 211.257812 498.324219 L 211.128906 498.398438 L 211.128906 497.925781 L 211.617188 495.5625 C 211.617188 495.195312 211.328125 494.90625 210.964844 494.90625 C 210.601562 494.90625 210.328125 495.179688 210.328125 495.542969 C 210.328125 495.742188 210.402344 496.085938 210.507812 496.46875 C 210.691406 497.105469 210.78125 497.671875 210.78125 498.125 L 210.78125 498.359375 C 210.09375 497.980469 209.726562 497.6875 209.148438 497.035156 C 208.78125 496.597656 208.5625 496.453125 208.273438 496.453125 C 207.910156 496.453125 207.65625 496.726562 207.65625 497.105469 C 207.65625 497.5625 208 497.796875 208.890625 497.960938 C 209.5625 498.089844 210.109375 498.269531 210.457031 498.507812 L 210.65625 498.632812 C 209.910156 499.089844 209.617188 499.199219 208.78125 499.359375 C 207.964844 499.507812 207.65625 499.726562 207.65625 500.199219 C 207.65625 500.578125 207.890625 500.816406 208.308594 500.816406 C 208.601562 500.816406 208.765625 500.726562 209.074219 500.378906 C 209.601562 499.796875 209.691406 499.707031 209.839844 499.5625 C 210.019531 499.414062 210.109375 499.34375 210.765625 498.90625 L 210.78125 499.035156 "/>
<path style=" stroke:none;fill-rule:nonzero;fill:rgb(0%,0%,0%);fill-opacity:1;" d="M 222.898438 495.515625 L 235.609375 489.785156 L 235.609375 488.296875 L 222.898438 482.546875 L 222.898438 484.035156 L 233.9375 489.042969 L 222.898438 494.050781 L 222.898438 495.515625 "/>
<path style=" stroke:none;fill-rule:nonzero;fill:rgb(0%,0%,0%);fill-opacity:1;" d="M 245.929688 496.898438 L 253.015625 496.898438 L 253.015625 496.515625 C 251.039062 496.515625 250.601562 496.234375 250.578125 495 L 250.578125 479.59375 L 250.371094 479.542969 L 245.75 481.878906 L 245.75 482.238281 C 246.753906 481.855469 247.367188 481.675781 247.597656 481.675781 C 248.136719 481.675781 248.367188 482.058594 248.367188 482.882812 L 248.367188 494.511719 C 248.316406 496.128906 247.882812 496.488281 245.929688 496.515625 L 245.929688 496.898438 "/>
<path style=" stroke:none;fill-rule:nonzero;fill:rgb(0%,0%,0%);fill-opacity:1;" d="M 262.222656 479.542969 C 260.808594 479.542969 259.730469 479.953125 258.78125 480.878906 C 257.292969 482.316406 256.316406 485.269531 256.316406 488.273438 C 256.316406 491.097656 257.164062 494.074219 258.371094 495.515625 C 259.320312 496.644531 260.628906 497.257812 262.117188 497.257812 C 263.429688 497.257812 264.53125 496.824219 265.457031 495.925781 C 266.945312 494.511719 267.921875 491.535156 267.921875 488.425781 C 267.921875 483.164062 265.585938 479.542969 262.222656 479.542969 Z M 262.144531 480.210938 C 264.300781 480.210938 265.457031 483.113281 265.457031 488.476562 C 265.457031 493.84375 264.328125 496.59375 262.117188 496.59375 C 259.910156 496.59375 258.78125 493.84375 258.78125 488.503906 C 258.78125 483.035156 259.9375 480.210938 262.144531 480.210938 "/>
<path style=" stroke:none;fill-rule:nonzero;fill:rgb(0%,0%,0%);fill-opacity:1;" d="M 270.644531 481.5 L 275.664062 481.5 L 275.664062 481.226562 C 274.265625 481.226562 273.957031 481.027344 273.9375 480.15625 L 273.9375 469.242188 L 273.792969 469.207031 L 270.519531 470.859375 L 270.519531 471.117188 C 271.226562 470.84375 271.664062 470.714844 271.828125 470.714844 C 272.210938 470.714844 272.371094 470.988281 272.371094 471.570312 L 272.371094 479.808594 C 272.339844 480.953125 272.027344 481.210938 270.644531 481.226562 L 270.644531 481.5 "/>
<path style=" stroke:none;fill-rule:nonzero;fill:rgb(0%,0%,0%);fill-opacity:1;" d="M 282.21875 469.207031 C 281.21875 469.207031 280.453125 469.496094 279.78125 470.152344 C 278.726562 471.171875 278.035156 473.261719 278.035156 475.390625 C 278.035156 477.390625 278.636719 479.5 279.492188 480.515625 C 280.164062 481.320312 281.09375 481.753906 282.148438 481.753906 C 283.074219 481.753906 283.855469 481.445312 284.511719 480.808594 C 285.566406 479.808594 286.257812 477.699219 286.257812 475.496094 C 286.257812 471.769531 284.601562 469.207031 282.21875 469.207031 Z M 282.164062 469.679688 C 283.691406 469.679688 284.511719 471.734375 284.511719 475.535156 C 284.511719 479.335938 283.710938 481.28125 282.148438 481.28125 C 280.582031 481.28125 279.78125 479.335938 279.78125 475.554688 C 279.78125 471.679688 280.601562 469.679688 282.164062 469.679688 "/>
<path style=" stroke:none;fill-rule:nonzero;fill:rgb(0%,0%,0%);fill-opacity:1;" d="M 288.972656 479.679688 C 288.429688 479.679688 287.972656 480.136719 287.972656 480.71875 C 287.972656 481.246094 288.429688 481.699219 288.953125 481.699219 C 289.519531 481.699219 289.992188 481.265625 289.992188 480.71875 C 289.992188 480.15625 289.519531 479.679688 288.972656 479.679688 "/>
<path style=" stroke:none;fill-rule:nonzero;fill:rgb(0%,0%,0%);fill-opacity:1;" d="M 299.9375 479.007812 L 299.703125 478.917969 C 299.03125 479.972656 298.828125 480.101562 297.976562 480.117188 L 293.628906 480.117188 L 296.683594 476.917969 C 298.300781 475.226562 299.011719 473.84375 299.011719 472.40625 C 299.011719 470.605469 297.539062 469.207031 295.648438 469.207031 C 294.648438 469.207031 293.699219 469.605469 293.027344 470.332031 C 292.445312 470.953125 292.171875 471.535156 291.863281 472.824219 L 292.246094 472.914062 C 292.972656 471.132812 293.609375 470.550781 294.882812 470.550781 C 296.429688 470.550781 297.445312 471.589844 297.445312 473.117188 C 297.445312 474.554688 296.609375 476.226562 295.082031 477.84375 L 291.84375 481.28125 L 291.84375 481.5 L 298.9375 481.5 L 299.9375 479.007812 "/>
<path style=" stroke:none;fill-rule:nonzero;fill:rgb(0%,0%,0%);fill-opacity:1;" d="M 329.058594 479.902344 L 323.949219 479.902344 L 318.273438 492.867188 L 312.34375 479.902344 L 307.257812 479.902344 L 307.257812 480.390625 C 309.363281 480.492188 309.648438 480.777344 309.699219 482.703125 L 309.699219 493.128906 C 309.648438 495.847656 309.3125 496.285156 307.207031 496.410156 L 307.207031 496.898438 L 313.242188 496.898438 L 313.242188 496.410156 C 311.265625 496.308594 310.878906 495.769531 310.828125 493.128906 L 310.828125 482.777344 L 317.273438 496.898438 L 317.632812 496.898438 L 324.203125 482.1875 L 324.203125 493.820312 C 324.179688 496.003906 323.898438 496.285156 321.867188 496.410156 L 321.867188 496.898438 L 329.058594 496.898438 L 329.058594 496.410156 C 327.210938 496.308594 326.875 495.949219 326.824219 494.101562 L 326.824219 482.703125 C 326.875 480.851562 327.183594 480.519531 329.058594 480.390625 L 329.058594 479.902344 "/>
<path style=" stroke:none;fill-rule:nonzero;fill:rgb(0%,0%,0%);fill-opacity:1;" d="M 337.480469 493.632812 C 334.140625 493.632812 331.546875 496.148438 331.546875 499.386719 C 331.546875 502.570312 334.140625 505.109375 337.402344 505.109375 C 340.664062 505.109375 343.257812 502.570312 343.257812 499.359375 C 343.257812 496.203125 340.664062 493.632812 337.480469 493.632812 Z M 337.351562 494.6875 C 340.097656 494.6875 342.203125 496.714844 342.203125 499.386719 C 342.203125 501.976562 340.070312 504.058594 337.402344 504.058594 C 334.734375 504.058594 332.601562 501.976562 332.601562 499.359375 C 332.601562 496.792969 334.734375 494.6875 337.351562 494.6875 "/>
<path style=" stroke:none;fill-rule:nonzero;fill:rgb(0%,0%,0%);fill-opacity:1;" d="M 337.289062 498.410156 C 336.785156 498.410156 336.402344 498.769531 336.402344 499.246094 C 336.402344 499.734375 336.785156 500.09375 337.289062 500.09375 L 337.414062 500.09375 C 337.914062 500.09375 338.300781 499.734375 338.300781 499.246094 C 338.300781 498.769531 337.914062 498.410156 337.414062 498.410156 L 337.289062 498.410156 "/>
</g>
</svg>
